<svg width="24.000000" height="24.000000" viewBox="0 0 24 24" fill="none" xmlns="http://www.w3.org/2000/svg" xmlns:xlink="http://www.w3.org/1999/xlink">
	<desc>
			Created with Pixso.
	</desc>
	<defs>
		<clipPath id="clip64_9074">
			<rect id="ep:arrow-down-bold" width="24.000000" height="24.000000" fill="white" fill-opacity="0"/>
		</clipPath>
	</defs>
	<rect id="ep:arrow-down-bold" width="24.000000" height="24.000000" fill="#FFFFFF" fill-opacity="0"/>
	<g clip-path="url(#clip64_9074)">
		<path id="Vector (Stroke)" d="M12 10.33L19.4 18.33C19.79 18.74 20.32 18.99 20.9 18.99C21.19 18.99 21.47 18.93 21.72 18.82C21.98 18.7 22.21 18.53 22.4 18.33C22.79 17.91 23 17.36 23 16.79C23 16.51 22.94 16.23 22.84 15.97C22.74 15.71 22.59 15.47 22.4 15.26L13.5 5.66C13.31 5.46 13.08 5.29 12.82 5.17C12.56 5.06 12.28 5 12 5C11.71 5 11.43 5.06 11.17 5.17C10.91 5.29 10.69 5.46 10.5 5.66L1.59 15.26C1.4 15.47 1.25 15.71 1.15 15.97C1.05 16.23 1 16.51 1 16.79C1 17.08 1.05 17.36 1.15 17.62C1.25 17.88 1.4 18.12 1.59 18.33C1.78 18.53 2.01 18.7 2.27 18.82C2.53 18.93 2.81 19 3.09 19C3.38 19 3.66 18.93 3.92 18.82C4.17 18.7 4.4 18.53 4.59 18.33L12 10.33ZM4.59 18.33L12 10.33L4.59 18.33Z" fill="#0587D6" fill-opacity="1.000000" fill-rule="evenodd"/>
	</g>
</svg>
