<svg width="24.000000" height="25.000000" viewBox="0 0 24 25" fill="none" xmlns="http://www.w3.org/2000/svg" xmlns:xlink="http://www.w3.org/1999/xlink">
	<desc>
			Created with Pixso.
	</desc>
	<defs/>
	<path id="Star 1" d="M9.02 4.83C10.07 2.22 10.59 0.91 11.5 0.91C12.4 0.91 12.92 2.22 13.97 4.83L14.02 4.95C14.61 6.43 14.91 7.17 15.51 7.62C16.12 8.07 16.91 8.14 18.49 8.28L18.78 8.31C21.37 8.54 22.67 8.65 22.95 9.48C23.23 10.3 22.26 11.18 20.34 12.93L19.69 13.52C18.72 14.41 18.23 14.85 18 15.43C17.96 15.54 17.92 15.65 17.9 15.76C17.75 16.37 17.89 17.01 18.18 18.3L18.27 18.7C18.79 21.07 19.05 22.25 18.59 22.76C18.42 22.95 18.2 23.09 17.95 23.16C17.29 23.34 16.35 22.57 14.47 21.04C13.24 20.04 12.62 19.53 11.91 19.42C11.64 19.38 11.35 19.38 11.07 19.42C10.37 19.53 9.75 20.04 8.52 21.04C6.64 22.57 5.7 23.34 5.04 23.16C4.79 23.09 4.57 22.95 4.4 22.76C3.94 22.25 4.2 21.07 4.72 18.7L4.81 18.3C5.1 17.01 5.24 16.37 5.09 15.76C5.06 15.65 5.03 15.54 4.99 15.43C4.76 14.85 4.27 14.41 3.3 13.52L2.65 12.93C0.73 11.18 -0.24 10.3 0.04 9.48C0.32 8.65 1.62 8.54 4.21 8.31L4.5 8.28C6.08 8.14 6.87 8.07 7.48 7.62C8.08 7.17 8.38 6.43 8.97 4.95L9.02 4.83Z" fill="#FF6A00" fill-opacity="1.000000" fill-rule="evenodd"/>
	<path id="Star 1" d="M14.02 4.95C14.61 6.43 14.91 7.17 15.51 7.62C16.12 8.07 16.91 8.14 18.49 8.28L18.78 8.31C21.37 8.54 22.67 8.65 22.95 9.48C23.23 10.3 22.26 11.18 20.34 12.93L19.69 13.52C18.72 14.41 18.23 14.85 18 15.43C17.96 15.54 17.92 15.65 17.9 15.76C17.75 16.37 17.89 17.01 18.18 18.3L18.27 18.7C18.79 21.07 19.05 22.25 18.59 22.76C18.42 22.95 18.2 23.09 17.95 23.16C17.29 23.34 16.35 22.57 14.47 21.04C13.24 20.04 12.62 19.53 11.91 19.42C11.64 19.38 11.35 19.38 11.07 19.42C10.37 19.53 9.75 20.04 8.52 21.04C6.64 22.57 5.7 23.34 5.04 23.16C4.79 23.09 4.57 22.95 4.4 22.76C3.94 22.25 4.2 21.07 4.72 18.7L4.81 18.3C5.1 17.01 5.24 16.37 5.09 15.76C5.06 15.65 5.03 15.54 4.99 15.43C4.76 14.85 4.27 14.41 3.3 13.52L2.65 12.93C0.73 11.18 -0.24 10.3 0.04 9.48C0.32 8.65 1.62 8.54 4.21 8.31L4.5 8.28C6.08 8.14 6.87 8.07 7.48 7.62C8.08 7.17 8.38 6.43 8.97 4.95L9.02 4.83C10.07 2.22 10.59 0.91 11.5 0.91C12.4 0.91 12.92 2.22 13.97 4.83L14.02 4.95Z" stroke="#FF6A00" stroke-opacity="1.000000" stroke-width="2.000000"/>
</svg>
