<svg width="40.000000" height="40.000000" viewBox="0 0 40 40" fill="none" xmlns="http://www.w3.org/2000/svg" xmlns:xlink="http://www.w3.org/1999/xlink">
	<desc>
			Created with Pixso.
	</desc>
	<defs>
		<clipPath id="clip1_8258">
			<rect id="SMM" rx="7.000000" width="40.000004" height="40.000004" fill="white" fill-opacity="0"/>
		</clipPath>
	</defs>
	<rect id="SMM" rx="7.000000" width="40.000004" height="40.000004" fill="#FFFFFF" fill-opacity="0"/>
	<g clip-path="url(#clip1_8258)">
		<rect id="Rectangle 25" width="40.000004" height="40.000004" fill="#0BA937" fill-opacity="1.000000"/>
		<path id="png-clipart-whatsapp-android-message-mobile-phones-whatsapp-text-sms 1 (Traced)" d="M19.1 7.01C16.74 7.19 14.43 8.02 12.52 9.38C8.97 11.9 6.9 16.04 7.07 20.29C7.16 22.43 7.8 24.55 8.95 26.43L9.19 26.82L9.12 27.03C9.06 27.22 7.95 30.3 7.25 32.24C7.1 32.65 6.99 32.99 7 33C7.01 33.01 9.71 32.26 13.23 31.27L13.89 31.08L14.53 31.39C16.47 32.35 18.2 32.78 20.07 32.77C22.12 32.77 23.99 32.33 25.82 31.42C28.93 29.87 31.27 27.18 32.37 23.87C33 21.97 33.16 19.77 32.82 17.75C32.23 14.25 30.22 11.15 27.24 9.17C25.48 8 23.52 7.29 21.38 7.05C20.91 7 19.6 6.98 19.1 7.01ZM21.23 9.04C24.15 9.36 26.75 10.78 28.59 13.06C30.54 15.47 31.36 18.59 30.85 21.69C30.46 24.05 29.24 26.3 27.46 27.92C25.64 29.57 23.41 30.54 20.92 30.75C20.34 30.8 19.16 30.78 18.6 30.7C17.1 30.49 15.67 29.99 14.38 29.22L13.99 28.99L13.53 29.11C13.28 29.18 12.71 29.34 12.27 29.46C11.83 29.59 11.19 29.77 10.83 29.87C10.49 29.96 10.19 30.04 10.19 30.03C10.17 30.02 10.28 29.69 10.71 28.53C11.18 27.23 11.38 26.66 11.38 26.62C11.38 26.6 11.28 26.45 11.16 26.28C10.03 24.73 9.34 22.95 9.13 21.07C9.07 20.53 9.06 19.4 9.11 18.85C9.28 17.06 9.89 15.35 10.89 13.86C11.08 13.57 11.34 13.21 11.47 13.04C11.78 12.66 12.77 11.68 13.16 11.37C13.86 10.81 14.87 10.21 15.71 9.85C16.63 9.45 17.91 9.12 18.92 9.03C19.45 8.98 20.72 8.98 21.23 9.04ZM14.89 12.97C14.56 13.07 14.29 13.31 13.89 13.84C12.99 15.04 12.8 16.66 13.39 18.26C13.89 19.61 15.19 21.54 16.62 23.06C17.67 24.16 18.76 25.02 19.93 25.64C20.62 26.02 22.2 26.63 22.78 26.74C23.41 26.87 24.24 26.84 24.75 26.67C25.29 26.49 25.97 26.06 26.36 25.64C26.47 25.52 26.62 25.31 26.69 25.17C26.96 24.61 27.11 23.45 26.93 23.21C26.86 23.11 26.24 22.77 24.8 22.04C24.01 21.64 23.78 21.54 23.58 21.54C23.4 21.54 23.29 21.65 22.93 22.16C22.61 22.62 22.05 23.32 21.95 23.39C21.78 23.51 21.61 23.47 20.94 23.14C19.96 22.65 19.34 22.22 18.59 21.49C17.87 20.8 17.18 19.89 16.74 19.05C16.56 18.72 16.56 18.55 16.73 18.34C17.1 17.91 17.47 17.4 17.6 17.15C17.81 16.73 17.81 16.67 17.47 15.81C17.31 15.43 17.05 14.74 16.87 14.28C16.48 13.24 16.38 13.07 16.12 12.98C16.01 12.93 15.03 12.93 14.89 12.97Z" fill="#FFFFFF" fill-opacity="1.000000" fill-rule="evenodd"/>
		<path id="png-clipart-whatsapp-android-message-mobile-phones-whatsapp-text-sms 1 (Traced)" d="M13.14 8.61Q12.73 8.86 12.34 9.13Q11.7 9.59 11.12 10.11Q10.48 10.69 9.92 11.35Q9.34 12.03 8.86 12.78Q8.46 13.39 8.13 14.05Q7.65 15.03 7.33 16.05Q7.18 16.56 7.06 17.09Q6.82 18.17 6.77 19.26Q6.75 19.78 6.77 20.3Q6.79 20.73 6.83 21.15Q6.96 22.36 7.33 23.55Q7.48 24.05 7.67 24.53Q8.09 25.6 8.7 26.59L8.86 26.86L8.84 26.93L7.62 30.32L6.96 32.14Q6.85 32.45 6.78 32.67Q6.74 32.78 6.72 32.85Q6.71 32.88 6.71 32.91Q6.68 33.01 6.71 33.1Q6.73 33.16 6.78 33.21L6.91 33.33L13.31 31.56L13.86 31.4L14.39 31.66Q15.88 32.39 17.25 32.73Q17.6 32.82 17.96 32.88Q19 33.07 20.07 33.07Q21.65 33.07 23.1 32.72Q24.55 32.38 25.95 31.69Q27.29 31.02 28.43 30.1Q29.31 29.37 30.07 28.5Q30.83 27.63 31.41 26.66Q32.17 25.4 32.65 23.97Q33.14 22.5 33.26 20.88Q33.38 19.25 33.12 17.7Q33 16.99 32.8 16.3Q32.63 15.69 32.4 15.1Q32.18 14.53 31.9 13.99Q31.58 13.34 31.18 12.73Q30.87 12.25 30.52 11.8Q30.04 11.2 29.5 10.64Q29.14 10.29 28.77 9.96Q28.12 9.4 27.4 8.92Q26.3 8.18 25.1 7.69Q23.36 6.97 21.42 6.75Q21.05 6.71 20.26 6.7Q19.47 6.69 19.08 6.71Q18.39 6.77 17.71 6.89Q16.61 7.08 15.54 7.47Q14.27 7.92 13.14 8.61ZM13.89 31.08L14.53 31.39C16.47 32.35 18.2 32.78 20.07 32.77C22.12 32.77 23.99 32.33 25.82 31.42C28.93 29.87 31.27 27.18 32.37 23.87C33 21.97 33.16 19.77 32.82 17.75C32.23 14.25 30.22 11.15 27.24 9.17C25.48 8 23.52 7.29 21.38 7.05C20.91 7 19.6 6.98 19.1 7.01C16.74 7.19 14.43 8.02 12.52 9.38C8.97 11.9 6.9 16.04 7.07 20.29C7.16 22.43 7.8 24.55 8.95 26.43L9.19 26.82L9.12 27.03C9.06 27.22 7.95 30.3 7.25 32.24C7.19 32.39 7.14 32.54 7.1 32.65C7.04 32.84 6.99 32.98 7 32.99L7 33C7 33 7.1 32.97 7.29 32.92C7.3 32.92 7.32 32.91 7.33 32.91C8.16 32.69 10.44 32.05 13.23 31.27L13.89 31.08ZM13.99 28.99L14.38 29.22C15.67 29.99 17.1 30.49 18.6 30.7C19.16 30.78 20.34 30.8 20.92 30.75C23.41 30.54 25.64 29.57 27.46 27.92C29.24 26.3 30.46 24.05 30.85 21.69C31.36 18.59 30.54 15.47 28.59 13.06C26.75 10.78 24.15 9.36 21.23 9.04C20.72 8.98 19.45 8.98 18.92 9.03C17.91 9.12 16.63 9.45 15.71 9.85C14.87 10.21 13.86 10.81 13.16 11.37C12.77 11.68 11.78 12.66 11.47 13.04C11.34 13.21 11.08 13.57 10.89 13.86C9.89 15.35 9.28 17.06 9.11 18.85C9.06 19.4 9.07 20.53 9.13 21.07C9.34 22.95 10.03 24.73 11.16 26.28C11.28 26.45 11.38 26.6 11.38 26.62C11.38 26.66 11.18 27.23 10.71 28.53C10.5 29.1 10.37 29.47 10.29 29.7C10.28 29.72 10.28 29.73 10.27 29.74C10.2 29.95 10.18 30.02 10.19 30.03C10.19 30.04 10.31 30.01 10.48 29.96C10.49 29.96 10.5 29.96 10.52 29.95C10.61 29.93 10.72 29.9 10.83 29.87C11.19 29.77 11.83 29.59 12.27 29.46C12.71 29.34 13.28 29.18 13.53 29.11L13.99 28.99ZM10.64 29.61Q10.69 29.59 10.75 29.58L11.58 29.35L12.19 29.17L12.59 29.06L13.45 28.82L14.04 28.66L14.54 28.96Q15.35 29.45 16.23 29.79Q17.38 30.23 18.64 30.4Q19.04 30.46 19.76 30.47Q20.48 30.49 20.9 30.45Q22.5 30.31 23.95 29.75Q24.13 29.68 24.32 29.6Q24.76 29.41 25.17 29.18Q26.29 28.57 27.26 27.69Q27.62 27.36 27.95 27Q28.8 26.07 29.41 24.94Q30.05 23.76 30.37 22.49Q30.48 22.07 30.55 21.64Q30.77 20.32 30.66 19.03Q30.59 18.1 30.35 17.19Q30.07 16.11 29.58 15.13Q29.08 14.13 28.36 13.24Q27.56 12.26 26.58 11.5Q25.92 10.99 25.17 10.58Q24.5 10.22 23.8 9.96Q22.56 9.49 21.19 9.34Q20.83 9.3 20.08 9.29Q19.33 9.29 18.95 9.33Q18.22 9.4 17.36 9.62Q16.5 9.84 15.83 10.13Q15.22 10.39 14.54 10.8Q13.86 11.2 13.34 11.61Q13.06 11.83 12.5 12.39Q11.93 12.96 11.71 13.23Q11.48 13.52 11.14 14.02Q10.8 14.54 10.52 15.09Q10.21 15.69 9.97 16.34Q9.74 17.01 9.59 17.7Q9.47 18.28 9.41 18.87Q9.37 19.28 9.38 19.96Q9.38 20.65 9.43 21.04Q9.51 21.76 9.69 22.47Q9.85 23.09 10.08 23.69Q10.21 24.02 10.36 24.34Q10.79 25.26 11.4 26.1Q11.5 26.24 11.57 26.35Q11.6 26.4 11.63 26.44Q11.68 26.54 11.68 26.62Q11.68 26.69 11.63 26.85Q11.59 26.97 11.51 27.2Q11.35 27.66 10.99 28.63Q10.76 29.27 10.64 29.61ZM14.22 13.02Q13.97 13.23 13.65 13.66Q13.38 14.01 13.2 14.41Q12.87 15.08 12.78 15.87Q12.77 16.02 12.76 16.16Q12.7 17.25 13.11 18.37Q13.5 19.41 14.41 20.76Q15.31 22.11 16.41 23.26Q18 24.95 19.79 25.91Q20.32 26.2 21.29 26.57Q22.26 26.94 22.71 27.04Q23.23 27.14 23.82 27.12Q24.42 27.1 24.85 26.96Q25.29 26.81 25.78 26.5Q26.26 26.18 26.58 25.84Q26.68 25.74 26.78 25.58Q26.89 25.43 26.95 25.3Q27.07 25.07 27.16 24.74Q27.24 24.43 27.28 24.11Q27.38 23.31 27.17 23.03Q27.11 22.95 26.93 22.84Q26.79 22.75 26.52 22.6Q26.02 22.32 24.93 21.77Q24.33 21.46 24.08 21.36Q23.79 21.24 23.58 21.24Q23.51 21.24 23.45 21.26Q23.27 21.3 23.11 21.44Q22.97 21.58 22.68 21.99Q22.45 22.33 22.12 22.74Q21.98 22.92 21.87 23.04Q21.78 23.14 21.77 23.15Q21.72 23.19 21.07 22.87Q20.35 22.51 19.85 22.16Q19.34 21.81 18.8 21.28Q18.27 20.77 17.8 20.14Q17.32 19.52 17 18.91Q16.9 18.73 16.9 18.65Q16.9 18.61 16.96 18.54Q17.07 18.41 17.17 18.28Q17.34 18.07 17.5 17.85Q17.76 17.49 17.87 17.29Q17.97 17.09 18 16.98Q18.03 16.89 18.04 16.8Q18.05 16.71 18.04 16.62Q18.02 16.46 17.95 16.23Q17.89 16.07 17.75 15.7L17.42 14.86L17.15 14.17Q16.85 13.37 16.71 13.13Q16.61 12.95 16.49 12.85Q16.38 12.75 16.23 12.7Q16.09 12.64 15.52 12.64Q14.95 12.64 14.81 12.68Q14.5 12.78 14.22 13.02ZM14.89 12.97C14.56 13.07 14.29 13.31 13.89 13.84C12.99 15.04 12.8 16.66 13.39 18.26C13.89 19.61 15.19 21.54 16.62 23.06C17.67 24.16 18.76 25.02 19.93 25.64C20.62 26.02 22.2 26.63 22.78 26.74C23.41 26.87 24.24 26.84 24.75 26.67C25.29 26.49 25.97 26.06 26.36 25.64C26.47 25.52 26.62 25.31 26.69 25.17C26.96 24.61 27.11 23.45 26.93 23.21C26.86 23.11 26.24 22.77 24.8 22.04C24.01 21.64 23.78 21.54 23.58 21.54C23.4 21.54 23.29 21.65 22.93 22.16C22.61 22.62 22.05 23.32 21.95 23.39C21.78 23.51 21.61 23.47 20.94 23.14C19.96 22.65 19.34 22.22 18.59 21.49C17.87 20.8 17.18 19.89 16.74 19.05C16.56 18.72 16.56 18.55 16.73 18.34C17.1 17.91 17.47 17.4 17.6 17.15C17.81 16.73 17.81 16.67 17.47 15.81C17.31 15.43 17.05 14.74 16.87 14.28C16.48 13.24 16.38 13.07 16.12 12.98C16.01 12.93 15.03 12.93 14.89 12.97Z" fill="#FFFFFF" fill-opacity="1.000000" fill-rule="evenodd"/>
	</g>
</svg>
