<svg width="40.000000" height="40.000000" viewBox="0 0 40 40" fill="none" xmlns="http://www.w3.org/2000/svg" xmlns:xlink="http://www.w3.org/1999/xlink">
	<desc>
			Created with Pixso.
	</desc>
	<defs>
		<clipPath id="clip1_8253">
			<rect id="bale 1" width="26.000000" height="26.000000" transform="translate(7.000000 7.000000)" fill="white" fill-opacity="0"/>
		</clipPath>
	</defs>
	<path id="Vector" d="M9.37 0L30.62 0C35.8 0 40 4.19 40 9.37L40 30.62C40 35.8 35.8 40 30.62 40L9.37 40C4.19 40 0 35.8 0 30.62L0 9.37C0 4.19 4.19 0 9.37 0Z" fill="#0CBC8D" fill-opacity="1.000000" fill-rule="evenodd"/>
	<rect id="bale 1" width="26.000000" height="26.000000" transform="translate(7.000000 7.000000)" fill="#FFFFFF" fill-opacity="0"/>
	<g clip-path="url(#clip1_8253)">
		<path id="Vector" d="M19.37 32.98C18.29 32.93 17.21 32.74 16.18 32.42C16.06 32.38 15.93 32.34 15.81 32.3C12.34 31.16 9.4 28.41 7.98 24.98C7.4 23.58 7.07 22.09 7.01 20.58C7 20.4 7 18.1 7 14.3C7 7.76 6.99 8.23 7.07 7.97C7.24 7.42 7.72 7.05 8.32 7C8.78 6.96 9.08 7.1 10.06 7.76C10.67 8.17 11.27 8.6 12 9.15C12.34 9.41 12.39 9.44 12.41 9.42L12.79 9.17C13.42 8.76 13.99 8.44 14.63 8.15C15.57 7.72 16.56 7.41 17.58 7.22C18.3 7.08 19.04 7.01 19.79 7.01C21.02 6.99 22.04 7.1 23.2 7.4C27.05 8.36 30.28 11.09 31.9 14.74C32.43 15.95 32.81 17.37 32.92 18.56C32.96 18.95 32.96 19.02 32.98 19.22C32.99 19.33 33 19.66 33 19.94C33 20.79 32.92 21.64 32.81 22.18C32.79 22.27 32.78 22.37 32.76 22.46C32.7 22.87 32.53 23.53 32.33 24.12C32.11 24.79 31.93 25.21 31.59 25.89C30.88 27.3 29.91 28.56 28.75 29.62C28.27 30.04 27.85 30.38 27.38 30.7C26.68 31.18 25.97 31.58 25.17 31.93C24.52 32.22 23.61 32.51 22.9 32.67C22.48 32.77 22.05 32.84 21.62 32.89C20.87 32.99 20.12 33.02 19.37 32.98ZM18.71 26.57C19.03 26.5 19.45 26.34 19.65 26.2C19.8 26.1 20.11 25.8 21.88 24.02C22.52 23.38 23.15 22.75 23.79 22.12C23.81 22.12 25.62 20.31 25.62 20.29C25.62 20.27 27.4 18.51 27.42 18.51C27.43 18.51 27.49 18.46 27.55 18.39C28.06 17.86 28.29 17.36 28.33 16.72C28.35 16.25 28.26 15.73 28.09 15.42C27.85 14.96 27.48 14.57 27.03 14.31C26.72 14.14 26.47 14.06 26.06 14.02C25.73 13.99 25.32 14.02 25.04 14.1C24.77 14.18 24.38 14.4 24.11 14.62C24.07 14.66 22.73 15.99 21.13 17.58L18.24 20.48L17.06 19.29C16.41 18.64 15.84 18.09 15.81 18.06C15.39 17.73 14.88 17.54 14.36 17.5C13.92 17.49 13.37 17.6 13.03 17.78C12.77 17.93 12.53 18.12 12.32 18.35C12.2 18.48 12.01 18.73 12 18.76C12 18.79 11.99 18.81 11.93 18.94C11.78 19.24 11.7 19.58 11.69 19.92C11.68 20.17 11.68 20.21 11.71 20.45C11.76 20.84 11.97 21.3 12.26 21.66C12.32 21.73 13.31 22.74 14.48 23.9C16.11 25.53 16.62 26.03 16.72 26.11C17.08 26.37 17.46 26.53 17.92 26.6C18.11 26.63 18.46 26.62 18.71 26.57Z" fill="#FFFFFF" fill-opacity="1.000000" fill-rule="nonzero"/>
	</g>
</svg>
