<svg width="40.000000" height="40.000000" viewBox="0 0 40 40" fill="none" xmlns="http://www.w3.org/2000/svg" xmlns:xlink="http://www.w3.org/1999/xlink">
	<desc>
			Created with Pixso.
	</desc>
	<defs/>
	<path id="Vector" d="M9.37 0L30.62 0C35.8 0 40 4.19 40 9.37L40 30.62C40 35.8 35.8 40 30.62 40L9.37 40C4.19 40 0 35.8 0 30.62L0 9.37C0 4.19 4.19 0 9.37 0Z" fill="#F07C00" fill-opacity="1.000000" fill-rule="evenodd"/>
	<path id="Vector" d="M13.07 32.93C12.2 32.79 11.35 32.49 10.59 32.03C8.86 31.03 7.58 29.22 7.16 27.24C7 26.46 6.98 25.48 7 19.43C7.02 12.92 7.01 13.26 7.31 12.18C7.46 11.65 7.88 10.73 8.19 10.27C9.31 8.57 10.96 7.48 13.01 7.08C13.42 7 14.01 7 19.46 7C26.12 7 25.9 6.99 26.99 7.34C28.04 7.68 29.01 8.27 29.8 9.06C30.6 9.84 31.21 10.81 31.58 11.87C31.93 12.88 31.95 13.05 31.97 15.72L32 18.13L31.58 18.43C30.98 18.84 30.21 19.57 29.11 20.75C27.85 22.11 26.58 23.38 25.94 23.9C24.54 25.04 23.27 25.69 21.97 25.92C21.29 26.04 20.18 26 19.52 25.82C18.93 25.66 18.97 25.64 18.74 26.32C18.56 26.86 18.45 27.43 18.41 28L18.37 28.44L18.22 28.41C16.92 28.14 15.64 27.01 15.15 25.7C14.98 25.28 14.88 24.83 14.87 24.38L14.85 24.01L14.52 23.7C13.84 23.06 13.39 22.28 13.25 21.47C13.02 20.18 13.61 18.71 14.89 17.4C16.23 16.01 18.22 14.92 20.16 14.5C20.86 14.34 22.1 14.3 22.72 14.41C23.93 14.63 24.92 15.25 25.54 16.19C25.73 16.48 25.75 16.53 25.73 16.79C25.72 16.99 25.65 17.17 25.53 17.33C25.04 18.03 23.56 18.79 21.98 19.15C19.18 19.78 17.41 18.99 17.68 17.24C17.71 17.06 17.73 16.91 17.72 16.9C17.68 16.87 17.41 17.01 17.11 17.23C16.59 17.59 16.14 18.29 15.99 18.97C15.95 19.14 15.93 19.41 15.95 19.67C15.97 20.03 16.01 20.16 16.16 20.47C16.25 20.67 16.45 20.96 16.59 21.11L16.85 21.38L16.74 21.51C16.44 21.91 16.2 22.36 16.02 22.83C15.82 23.46 15.78 24.14 15.91 24.79C16.02 25.29 16.36 25.98 16.7 26.39C16.95 26.69 17.55 27.21 17.64 27.21C17.67 27.21 17.69 27.16 17.69 27.1C17.69 26.85 17.88 26.04 18.04 25.66C18.49 24.51 19.47 23.54 21.04 22.69C21.3 22.55 22.05 22.18 22.71 21.87C24.16 21.19 24.95 20.77 25.39 20.46C26.64 19.56 27.41 18.22 27.66 16.53C27.76 15.91 27.76 14.76 27.66 14.14C27.27 11.5 25.33 9.7 22.53 9.41C19.42 9.07 15.46 11.52 13.01 15.29C11.82 17.12 11.02 19.15 10.68 21.18C10.55 21.97 10.5 23.44 10.58 24.16C10.79 26.01 11.46 27.5 12.61 28.66C13.19 29.25 13.86 29.73 14.6 30.09C17.12 31.31 19.92 31.34 22.37 30.16C23.43 29.65 24.47 28.87 25.59 27.73C26.68 26.62 27.41 25.69 29.41 22.9C30.52 21.35 31.4 20.33 31.83 20.07L31.99 19.98L31.97 23.33C31.96 26.57 31.95 26.7 31.84 27.19C31.2 30.09 29.14 32.21 26.31 32.87L25.81 32.98L19.66 32.99C14.62 33 13.43 32.99 13.07 32.93L13.07 32.93Z" fill="#FFFFFF" fill-opacity="1.000000" fill-rule="nonzero"/>
</svg>
