<svg width="40.000000" height="40.000000" viewBox="0 0 40 40" fill="none" xmlns="http://www.w3.org/2000/svg" xmlns:xlink="http://www.w3.org/1999/xlink">
	<desc>
			Created with Pixso.
	</desc>
	<defs>
		<clipPath id="clip1_8261">
			<rect id="SMM" rx="7.000000" width="40.000004" height="40.000004" fill="white" fill-opacity="0"/>
		</clipPath>
	</defs>
	<rect id="SMM" rx="7.000000" width="40.000004" height="40.000004" fill="#FFFFFF" fill-opacity="0"/>
	<g clip-path="url(#clip1_8261)">
		<rect id="Rectangle 25" width="40.000004" height="40.000004" fill="#B34BD8" fill-opacity="1.000000"/>
		<path id="Vector" d="M30.06 8.72C29.38 8.09 26.63 6.04 20.5 6.01C20.5 6.01 13.26 5.57 9.74 8.87C7.78 10.88 7.09 13.81 7.01 17.44C6.93 21.08 6.85 27.89 13.28 29.75L13.28 29.75L13.28 32.57C13.28 32.57 13.24 33.71 13.97 33.94C14.86 34.23 15.39 33.35 16.24 32.42C16.7 31.9 17.34 31.15 17.83 30.58C20.63 30.84 23.45 30.62 26.17 29.93L26 29.96C26.89 29.67 31.91 29.01 32.73 22.2C33.58 15.17 32.32 10.73 30.06 8.72ZM30.8 21.69C30.11 27.37 26.04 27.73 25.29 27.98C23.65 28.4 21.77 28.65 19.84 28.65C19.29 28.65 18.73 28.63 18.19 28.59L18.26 28.59C18.26 28.59 15.48 32.02 14.61 32.91C14.33 33.2 14.02 33.18 14.02 32.6C14.02 32.22 14.04 27.91 14.04 27.91C8.6 26.37 8.91 20.57 8.98 17.53C9.04 14.5 9.6 12.01 11.26 10.34C14.24 7.58 20.38 7.99 20.38 7.99C25.57 8.01 28.06 9.61 28.64 10.14C30.55 11.82 31.52 15.82 30.8 21.68L30.8 21.69ZM23.37 17.27L23.37 17.28C23.36 17.37 23.33 17.46 23.26 17.52C23.2 17.59 23.12 17.63 23.03 17.63C22.94 17.63 22.85 17.6 22.79 17.54C22.72 17.48 22.68 17.39 22.67 17.3L22.67 17.3C22.7 17.06 22.67 16.81 22.59 16.58C22.51 16.35 22.38 16.14 22.22 15.96C22.05 15.79 21.85 15.65 21.62 15.56C21.4 15.47 21.16 15.43 20.92 15.45L20.93 15.45C20.84 15.44 20.76 15.4 20.7 15.33C20.64 15.26 20.6 15.18 20.61 15.08C20.61 14.99 20.65 14.91 20.71 14.84C20.77 14.78 20.86 14.74 20.95 14.74L20.96 14.74L20.96 14.74L21.04 14.74C21.36 14.74 21.68 14.81 21.97 14.93C22.26 15.06 22.53 15.25 22.74 15.49C22.96 15.73 23.13 16.01 23.24 16.32C23.34 16.62 23.39 16.95 23.37 17.28L23.37 17.27L23.37 17.27ZM24.45 17.89C24.51 15.57 23.09 13.75 20.39 13.55C20.35 13.55 20.3 13.54 20.26 13.52C20.22 13.5 20.18 13.47 20.15 13.43C20.12 13.4 20.09 13.36 20.08 13.31C20.06 13.27 20.06 13.22 20.06 13.17C20.06 13.12 20.07 13.08 20.1 13.03C20.12 12.99 20.15 12.95 20.18 12.92C20.22 12.89 20.26 12.87 20.3 12.86C20.35 12.84 20.4 12.84 20.44 12.84L20.44 12.84L20.46 12.84C21.1 12.84 21.73 12.98 22.32 13.24C22.91 13.49 23.44 13.87 23.87 14.35C24.31 14.82 24.65 15.38 24.87 16C25.09 16.61 25.18 17.26 25.14 17.91L25.14 17.9C25.14 17.99 25.1 18.08 25.03 18.14C24.97 18.2 24.88 18.23 24.79 18.23C24.71 18.23 24.62 18.19 24.56 18.13C24.49 18.07 24.46 17.98 24.45 17.89L24.45 17.88L24.45 17.89ZM26.96 18.62L26.96 18.62C26.96 18.71 26.92 18.8 26.86 18.86C26.79 18.92 26.71 18.96 26.62 18.96C26.53 18.96 26.45 18.93 26.38 18.86C26.32 18.8 26.28 18.72 26.27 18.63C26.24 14.17 23.33 11.74 19.8 11.72C19.76 11.72 19.71 11.71 19.67 11.69C19.63 11.67 19.59 11.64 19.56 11.61C19.53 11.58 19.5 11.54 19.49 11.5C19.47 11.45 19.46 11.41 19.46 11.36C19.46 11.32 19.47 11.27 19.49 11.23C19.5 11.18 19.53 11.14 19.56 11.11C19.59 11.08 19.63 11.05 19.67 11.04C19.71 11.02 19.76 11.01 19.8 11.01C23.76 11.04 26.93 13.82 26.96 18.62L26.96 18.62ZM26.37 23.98L26.37 23.99C25.79 25.03 24.71 26.18 23.59 25.81L23.58 25.8C21.6 25.05 19.74 24 18.06 22.67L18.11 22.71C17.28 22.03 16.52 21.27 15.86 20.42L15.84 20.39C15.24 19.62 14.7 18.8 14.24 17.93L14.19 17.84C13.64 16.91 13.19 15.93 12.83 14.91L12.8 14.8C12.44 13.66 13.56 12.55 14.58 11.96L14.59 11.96C14.79 11.83 15.03 11.78 15.27 11.82C15.5 11.86 15.72 11.98 15.87 12.17L15.87 12.18C15.87 12.18 16.53 12.99 16.82 13.39C17.08 13.76 17.44 14.35 17.63 14.69C17.77 14.91 17.83 15.18 17.79 15.45C17.76 15.72 17.63 15.96 17.43 16.14L17.43 16.14L16.79 16.67C16.69 16.76 16.61 16.88 16.56 17.02C16.51 17.15 16.5 17.29 16.51 17.43L16.51 17.43C16.83 18.51 17.4 19.5 18.18 20.3C18.96 21.1 19.92 21.69 20.97 22.03L21.02 22.04C21.16 22.05 21.3 22.03 21.43 21.98C21.56 21.93 21.67 21.85 21.77 21.75L22.28 21.1C22.46 20.9 22.7 20.77 22.96 20.73C23.22 20.69 23.49 20.75 23.71 20.9L23.71 20.89C24.64 21.43 25.44 22.03 26.17 22.7L26.16 22.69C26.35 22.84 26.47 23.06 26.51 23.3C26.54 23.54 26.49 23.78 26.36 23.98L26.36 23.98L26.37 23.98Z" fill="#FFFFFF" fill-opacity="1.000000" fill-rule="nonzero"/>
		<path id="Vector" d="M20.5 6.01C20.5 6.01 13.26 5.57 9.74 8.87C7.78 10.88 7.09 13.81 7.01 17.44C6.93 21.08 6.85 27.89 13.28 29.75L13.28 29.75L13.28 29.95L13.28 32.57C13.28 32.57 13.24 33.71 13.97 33.94C14.71 34.18 15.2 33.61 15.84 32.87C15.96 32.73 16.1 32.57 16.24 32.42C16.7 31.9 17.34 31.15 17.83 30.58C20.57 30.83 23.32 30.63 25.99 29.97C25.99 29.97 26 29.97 26 29.97C26.06 29.96 26.11 29.94 26.17 29.93L26 29.96C26.04 29.95 26.1 29.93 26.17 29.91C26.17 29.91 26.17 29.91 26.17 29.91C27.4 29.58 31.96 28.66 32.73 22.2C33.58 15.17 32.32 10.73 30.06 8.72C29.38 8.09 26.63 6.04 20.5 6.01ZM30.19 8.57Q31.09 9.37 31.73 10.59Q32.39 11.86 32.76 13.53Q33.54 17.12 32.93 22.22Q32.66 24.42 31.79 26.06Q31.21 27.14 30.37 27.97Q30.15 28.18 29.91 28.38Q29.03 29.11 27.9 29.57Q27.5 29.74 27.04 29.88Q26.79 29.96 26.38 30.06Q26.29 30.09 26.22 30.11L26.22 30.12Q25.11 30.4 23.98 30.58Q23.02 30.73 22.04 30.81Q20.99 30.89 19.94 30.88Q18.93 30.88 17.92 30.79Q16.88 32.01 16.38 32.55Q16.25 32.71 15.99 33Q15.68 33.37 15.53 33.52Q15.27 33.79 15.06 33.94Q14.73 34.17 14.38 34.19Q14.15 34.21 13.91 34.13Q13.8 34.1 13.7 34.04Q13.52 33.93 13.39 33.75Q13.24 33.53 13.16 33.22Q13.1 33 13.08 32.76Q13.08 32.64 13.08 32.56L13.08 29.9Q11.17 29.32 9.83 28.09Q8.27 26.65 7.51 24.32Q7 22.73 6.85 20.65Q6.8 19.86 6.8 18.94Q6.79 18.37 6.81 17.44Q6.88 14.52 7.48 12.49Q8.16 10.2 9.6 8.73L9.6 8.73L9.6 8.73Q10.84 7.57 12.84 6.85Q14.42 6.28 16.41 6.01Q17.83 5.82 19.31 5.8Q20.04 5.79 20.5 5.81Q22.65 5.82 24.52 6.16Q26.08 6.45 27.39 6.95Q28.43 7.35 29.25 7.86Q29.82 8.22 30.19 8.57ZM18.51 28.61C18.95 28.63 19.39 28.65 19.84 28.65C21.77 28.65 23.65 28.4 25.29 27.98C26.04 27.73 30.11 27.37 30.8 21.69L30.8 21.68C31.52 15.82 30.55 11.82 28.64 10.14C28.06 9.61 25.57 8.01 20.38 7.99C20.38 7.99 14.24 7.58 11.26 10.34C9.6 12.01 9.04 14.5 8.98 17.53C8.98 17.63 8.97 17.73 8.97 17.83C8.9 20.93 8.77 26.42 14.04 27.91C14.04 27.91 14.02 32.22 14.02 32.6C14.02 33.18 14.33 33.2 14.61 32.91C15.39 32.11 17.72 29.26 18.18 28.69L18.18 28.69C18.23 28.63 18.26 28.6 18.26 28.59L18.26 28.59C18.34 28.6 18.43 28.6 18.51 28.61ZM18.6 28.41Q19.21 28.45 19.84 28.45Q21.26 28.45 22.65 28.27Q24 28.1 25.23 27.79Q25.32 27.76 25.55 27.7Q25.89 27.62 26.09 27.57Q26.45 27.46 26.76 27.34Q27.62 27 28.29 26.45Q28.42 26.35 28.54 26.24Q30.23 24.67 30.6 21.67L30.6 21.67L30.6 21.66Q30.87 19.52 30.84 17.64Q30.81 15.85 30.51 14.38Q30.22 12.96 29.7 11.92Q29.2 10.9 28.5 10.29L28.5 10.29L28.5 10.29Q28.23 10.04 27.73 9.76Q27.05 9.37 26.17 9.06Q25.06 8.67 23.75 8.45Q22.18 8.19 20.38 8.19L20.38 8.19L20.37 8.19Q19.99 8.16 19.38 8.17Q18.15 8.18 16.96 8.33Q15.32 8.54 14.01 9Q12.39 9.56 11.4 10.48Q10.25 11.64 9.71 13.48Q9.23 15.13 9.18 17.54Q9.18 17.64 9.17 17.84Q9.15 18.65 9.15 19.1Q9.15 19.86 9.19 20.49Q9.29 22.16 9.69 23.41Q10.19 24.97 11.16 26.01Q11.26 26.11 11.36 26.2Q12.45 27.25 14.1 27.72L14.24 27.76L14.24 27.91L14.23 30.27L14.22 32.6Q14.22 32.77 14.26 32.85Q14.27 32.88 14.28 32.89L14.28 32.89Q14.29 32.9 14.32 32.88Q14.39 32.85 14.47 32.77Q15 32.22 16.61 30.29Q17.41 29.32 18.11 28.46L18.19 28.53L18.2 28.39L18.2 28.39L18.6 28.41ZM18.19 28.59C18.21 28.59 18.24 28.59 18.26 28.59L18.26 28.59L18.19 28.59ZM27.12 18.84Q27.16 18.75 27.16 18.63L27.16 18.63L27.16 18.5L27.16 18.5Q27.13 16.77 26.57 15.34Q26.14 14.22 25.41 13.34Q25.21 13.1 25 12.88Q24.63 12.51 24.21 12.21Q23.5 11.68 22.66 11.35Q22.59 11.32 22.52 11.29Q21.25 10.82 19.8 10.81Q19.75 10.81 19.7 10.82Q19.65 10.83 19.59 10.85Q19.55 10.87 19.5 10.9Q19.46 10.93 19.42 10.97Q19.38 11.01 19.35 11.05Q19.32 11.1 19.3 11.15Q19.28 11.2 19.27 11.25Q19.26 11.31 19.26 11.36Q19.26 11.42 19.27 11.47Q19.28 11.52 19.3 11.57Q19.32 11.63 19.35 11.67Q19.38 11.71 19.42 11.75Q19.46 11.79 19.5 11.82Q19.55 11.85 19.59 11.87Q19.65 11.9 19.72 11.91Q19.76 11.91 19.8 11.91Q21.1 11.92 22.23 12.37Q22.99 12.66 23.62 13.14Q23.93 13.37 24.21 13.65Q24.37 13.81 24.51 13.98Q25.17 14.74 25.56 15.74Q26.06 17.04 26.07 18.63L26.07 18.63L26.07 18.64Q26.08 18.75 26.12 18.85Q26.17 18.93 26.24 19.01Q26.32 19.09 26.42 19.12Q26.51 19.16 26.62 19.16Q26.73 19.16 26.82 19.12Q26.92 19.08 27 19Q27.07 18.93 27.12 18.84ZM26.96 18.62C26.93 13.82 23.76 11.04 19.8 11.01C19.76 11.01 19.71 11.02 19.67 11.04C19.63 11.05 19.59 11.08 19.56 11.11C19.53 11.14 19.5 11.18 19.49 11.23C19.47 11.27 19.46 11.32 19.46 11.36C19.46 11.41 19.47 11.45 19.49 11.5C19.5 11.54 19.53 11.58 19.56 11.61C19.59 11.64 19.63 11.67 19.67 11.69C19.71 11.71 19.76 11.72 19.8 11.72C23.33 11.74 26.24 14.17 26.27 18.63C26.28 18.72 26.32 18.8 26.38 18.86C26.45 18.93 26.53 18.96 26.62 18.96C26.71 18.96 26.79 18.92 26.86 18.86C26.92 18.8 26.96 18.71 26.96 18.62L26.96 18.62L26.96 18.62ZM26 24.89Q26.3 24.52 26.54 24.09L26.57 24.05L26.57 24.03Q26.6 23.98 26.62 23.92Q26.67 23.81 26.69 23.7Q26.71 23.59 26.72 23.48Q26.72 23.38 26.7 23.27Q26.69 23.15 26.65 23.05Q26.61 22.95 26.56 22.86Q26.5 22.76 26.43 22.67Q26.36 22.6 26.29 22.54Q25.18 21.52 23.82 20.73L23.82 20.73Q23.72 20.66 23.6 20.61Q23.5 20.57 23.4 20.55Q23.28 20.52 23.16 20.52Q23.05 20.52 22.94 20.53Q22.83 20.55 22.72 20.58Q22.61 20.62 22.5 20.68Q22.4 20.73 22.32 20.79Q22.22 20.87 22.13 20.96L22.13 20.97L21.62 21.62Q21.56 21.68 21.49 21.73Q21.42 21.77 21.36 21.79Q21.28 21.83 21.19 21.84Q21.12 21.85 21.05 21.84L21.03 21.84Q20.7 21.73 20.38 21.59Q19.96 21.41 19.58 21.17Q19.29 20.99 19.03 20.79Q18.65 20.5 18.32 20.16Q18.09 19.92 17.88 19.65Q17.58 19.28 17.34 18.87Q17.16 18.56 17.02 18.24Q16.83 17.83 16.7 17.39Q16.7 17.32 16.71 17.24Q16.72 17.16 16.75 17.09Q16.78 17 16.84 16.92Q16.87 16.86 16.92 16.81L17.57 16.29L17.57 16.28Q17.65 16.21 17.71 16.13Q17.79 16.03 17.85 15.92Q17.9 15.82 17.93 15.72Q17.97 15.6 17.99 15.48Q18.01 15.36 18 15.24Q18 15.13 17.97 15.01Q17.95 14.89 17.9 14.77Q17.86 14.68 17.8 14.58Q17.64 14.3 17.42 13.95Q17.17 13.53 16.98 13.27Q16.7 12.87 16.04 12.07L16.04 12.07L16.03 12.05Q15.95 11.96 15.86 11.88Q15.79 11.82 15.7 11.77Q15.6 11.71 15.5 11.67Q15.4 11.64 15.3 11.62Q15.19 11.6 15.09 11.61Q14.98 11.61 14.87 11.63Q14.78 11.65 14.68 11.69Q14.61 11.72 14.53 11.76L14.53 11.76L14.48 11.79Q14.05 12.03 13.69 12.34Q13.28 12.68 13.01 13.06Q12.7 13.48 12.59 13.91Q12.5 14.23 12.54 14.53Q12.55 14.69 12.6 14.85L12.64 14.97L12.64 14.98Q12.96 15.88 13.37 16.73Q13.67 17.35 14.02 17.94L14.06 18.03L14.06 18.03Q14.57 18.97 15.18 19.84Q15.42 20.18 15.68 20.51L15.7 20.54L15.7 20.54Q16.3 21.31 16.99 21.98Q17.45 22.42 17.94 22.83L17.94 22.83Q19.36 23.95 20.92 24.8Q22.14 25.46 23.45 25.96L23.46 25.98L23.53 26Q23.7 26.06 23.88 26.08Q24.17 26.11 24.47 26.02Q24.89 25.91 25.3 25.59Q25.66 25.31 26 24.89ZM23.58 25.8L23.59 25.81C24.71 26.18 25.79 25.03 26.37 23.99L26.37 23.98L26.36 23.98C26.4 23.92 26.43 23.86 26.46 23.79C26.51 23.64 26.53 23.46 26.51 23.3C26.47 23.06 26.35 22.85 26.17 22.7L26.17 22.7C26.17 22.7 26.16 22.69 26.16 22.69L26.17 22.7C26.17 22.7 26.16 22.69 26.16 22.69C26.16 22.69 26.16 22.69 26.16 22.69C25.43 22.02 24.64 21.44 23.72 20.9C23.72 20.9 23.72 20.9 23.71 20.9C23.71 20.9 23.71 20.9 23.71 20.89L23.71 20.9C23.71 20.9 23.71 20.9 23.71 20.89C23.71 20.89 23.71 20.89 23.7 20.89C23.48 20.75 23.22 20.69 22.96 20.73C22.7 20.77 22.46 20.9 22.28 21.1L21.77 21.75C21.67 21.85 21.56 21.93 21.43 21.98C21.3 22.03 21.16 22.05 21.02 22.04L20.97 22.03C19.92 21.69 18.96 21.1 18.18 20.3C17.4 19.5 16.83 18.52 16.51 17.44C16.51 17.44 16.51 17.44 16.51 17.43C16.51 17.43 16.51 17.43 16.51 17.43L16.51 17.43L16.51 17.43C16.51 17.42 16.51 17.41 16.5 17.4C16.5 17.27 16.52 17.14 16.56 17.02C16.61 16.88 16.69 16.76 16.79 16.67L17.43 16.14L17.43 16.14C17.63 15.96 17.76 15.72 17.79 15.45C17.83 15.18 17.77 14.91 17.63 14.69C17.44 14.35 17.08 13.76 16.82 13.39C16.53 12.99 15.87 12.18 15.87 12.18L15.87 12.17C15.72 11.98 15.5 11.86 15.27 11.82C15.03 11.78 14.79 11.83 14.59 11.96L14.58 11.96C13.56 12.55 12.44 13.66 12.8 14.8L12.83 14.91C13.19 15.93 13.64 16.91 14.19 17.84L14.24 17.93C14.7 18.8 15.24 19.62 15.84 20.39L15.86 20.42C16.51 21.25 17.25 22 18.06 22.67L18.07 22.67C18.08 22.68 18.1 22.7 18.11 22.71L18.06 22.67C18.08 22.69 18.09 22.7 18.11 22.71C18.11 22.71 18.11 22.71 18.11 22.71C19.77 24.02 21.62 25.06 23.58 25.8ZM20.39 13.55C23.07 13.75 24.49 15.55 24.45 17.85C24.45 17.86 24.45 17.87 24.45 17.88L24.45 17.89L24.45 17.88L24.45 17.89C24.45 17.9 24.45 17.91 24.45 17.92C24.46 18 24.5 18.08 24.56 18.13C24.62 18.19 24.71 18.23 24.79 18.23C24.88 18.23 24.97 18.2 25.03 18.14C25.09 18.08 25.13 18 25.14 17.92L25.14 17.91C25.14 17.91 25.14 17.91 25.14 17.9L25.14 17.91C25.14 17.91 25.14 17.91 25.14 17.9L25.14 17.9C25.18 17.25 25.09 16.61 24.87 16C24.65 15.38 24.31 14.82 23.87 14.35C23.44 13.87 22.91 13.49 22.32 13.24C21.73 12.98 21.1 12.84 20.46 12.84L20.44 12.84L20.44 12.84C20.4 12.84 20.35 12.84 20.3 12.86C20.26 12.87 20.22 12.89 20.18 12.92C20.15 12.95 20.12 12.99 20.1 13.03C20.07 13.08 20.06 13.12 20.06 13.17C20.06 13.22 20.06 13.27 20.08 13.31C20.09 13.36 20.12 13.4 20.15 13.43C20.18 13.47 20.22 13.5 20.26 13.52C20.3 13.54 20.35 13.55 20.39 13.55ZM20.45 12.64Q20.4 12.64 20.36 12.64Q20.3 12.65 20.25 12.66Q20.2 12.68 20.15 12.71Q20.1 12.73 20.05 12.77Q20.01 12.8 19.98 12.84Q19.94 12.89 19.92 12.94Q19.89 12.99 19.88 13.04Q19.86 13.1 19.86 13.16Q19.86 13.21 19.86 13.27Q19.87 13.32 19.89 13.37Q19.91 13.43 19.94 13.48Q19.96 13.53 20 13.57Q20.04 13.61 20.08 13.64Q20.13 13.68 20.17 13.7Q20.23 13.72 20.28 13.74Q20.33 13.75 20.38 13.75Q21.33 13.82 22.09 14.17Q22.68 14.44 23.12 14.86Q23.21 14.96 23.3 15.06Q23.41 15.18 23.51 15.31Q23.84 15.77 24.03 16.32Q24.27 17.04 24.25 17.88L24.26 17.88L24.25 17.88L24.25 17.9L24.25 17.9Q24.26 18.01 24.3 18.11Q24.34 18.2 24.41 18.27Q24.5 18.35 24.59 18.39Q24.68 18.43 24.79 18.43Q24.9 18.43 24.99 18.4Q25.09 18.36 25.17 18.28Q25.25 18.21 25.29 18.12Q25.34 18.03 25.34 17.92L25.34 17.92Q25.37 17.39 25.3 16.89Q25.23 16.4 25.06 15.93Q24.87 15.4 24.58 14.94Q24.34 14.55 24.02 14.21Q23.64 13.8 23.2 13.49Q22.82 13.24 22.4 13.05Q21.92 12.84 21.41 12.74Q20.95 12.64 20.46 12.64L20.45 12.64ZM23.52 17.5Q23.56 17.4 23.57 17.29L23.57 17.29L23.57 17.26Q23.58 17.11 23.57 16.96L23.57 16.78L23.55 16.79Q23.55 16.77 23.54 16.75Q23.51 16.5 23.42 16.25Q23.33 15.98 23.18 15.74Q23.05 15.54 22.89 15.36Q22.7 15.14 22.46 14.98Q22.27 14.85 22.05 14.75Q21.82 14.65 21.57 14.59Q21.31 14.54 21.04 14.54L20.96 14.54L20.94 14.54L20.94 14.54Q20.83 14.54 20.74 14.58Q20.65 14.62 20.57 14.7Q20.49 14.78 20.45 14.87Q20.41 14.97 20.41 15.08Q20.4 15.19 20.44 15.29Q20.48 15.38 20.55 15.46Q20.62 15.55 20.72 15.6Q20.8 15.64 20.91 15.65L20.92 15.55L20.92 15.65L20.93 15.65L20.93 15.57L20.94 15.65Q21.09 15.64 21.24 15.66Q21.4 15.68 21.55 15.75Q21.69 15.8 21.8 15.88Q21.95 15.97 22.07 16.1Q22.17 16.2 22.25 16.33Q22.34 16.47 22.4 16.64Q22.45 16.79 22.47 16.95Q22.49 17.11 22.47 17.28L22.47 17.29L22.47 17.31L22.47 17.32Q22.48 17.43 22.53 17.52Q22.57 17.61 22.65 17.68Q22.73 17.76 22.83 17.8Q22.92 17.83 23.03 17.83Q23.14 17.83 23.23 17.79Q23.33 17.75 23.41 17.66Q23.48 17.59 23.52 17.5ZM20.93 15.45C20.93 15.45 20.93 15.45 20.94 15.45C21.17 15.43 21.41 15.47 21.62 15.56C21.85 15.65 22.05 15.79 22.22 15.96C22.38 16.14 22.51 16.35 22.59 16.58C22.67 16.81 22.7 17.06 22.67 17.3L22.67 17.3C22.68 17.39 22.72 17.48 22.79 17.54C22.85 17.6 22.94 17.63 23.03 17.63C23.12 17.63 23.2 17.59 23.26 17.52C23.33 17.46 23.36 17.37 23.37 17.28L23.37 17.27L23.37 17.27L23.37 17.27C23.37 17.17 23.37 17.08 23.37 16.98C23.35 16.76 23.31 16.53 23.24 16.32C23.13 16.01 22.96 15.73 22.74 15.49C22.53 15.25 22.26 15.06 21.97 14.93C21.68 14.81 21.36 14.74 21.04 14.74L20.96 14.74L20.96 14.74L20.95 14.74C20.86 14.74 20.77 14.78 20.71 14.84C20.65 14.91 20.61 14.99 20.61 15.08C20.6 15.18 20.64 15.26 20.7 15.33C20.75 15.4 20.83 15.44 20.92 15.45C20.92 15.45 20.92 15.45 20.92 15.45L20.93 15.45L20.92 15.45L20.93 15.45L20.93 15.45L20.93 15.45Z" fill="#FFFFFF" fill-opacity="1.000000" fill-rule="evenodd"/>
	</g>
</svg>
