<svg width="27.000000" height="19.000000" viewBox="0 0 27 19" fill="none" xmlns="http://www.w3.org/2000/svg" xmlns:xlink="http://www.w3.org/1999/xlink">
	<desc>
			Created with Pixso.
	</desc>
	<defs>
		<linearGradient id="paint_linear_1_8352_0" x1="36.611118" y1="28.361116" x2="-2.972221" y2="-3.750008" gradientUnits="userSpaceOnUse">
			<stop stop-color="#017AC3"/>
			<stop offset="1.000000" stop-color="#65CFF0"/>
		</linearGradient>
	</defs>
	<path id="Vector" d="M4.71 0.5C4.94 0.49 5.15 0.57 5.33 0.71C5.5 0.85 5.62 1.04 5.67 1.26L6.7 5.27L16.7 3.26C17.76 3.06 18.86 3.08 19.91 3.35C20.96 3.61 21.94 4.11 22.78 4.79C23.62 5.48 24.3 6.35 24.77 7.33C25.24 8.31 25.49 9.38 25.5 10.47C25.5 11 25.28 11.51 24.91 11.89C24.53 12.27 24.03 12.48 23.5 12.48L14.7 12.48L12.7 15.65C12.33 16.21 11.84 16.68 11.25 17C10.66 17.32 10 17.49 9.33 17.5L7.13 17.5C6.96 17.49 6.8 17.45 6.65 17.36C6.5 17.28 6.37 17.16 6.29 17.01C6.2 16.86 6.15 16.7 6.14 16.52C6.14 16.35 6.18 16.18 6.25 16.03L8.01 12.54L2.5 12.54C1.96 12.54 1.46 12.33 1.08 11.95C0.71 11.57 0.5 11.06 0.5 10.53L0.5 1.5C0.5 1.23 0.6 0.98 0.79 0.79C0.98 0.6 1.23 0.5 1.5 0.5L4.71 0.5Z" stroke="url(#paint_linear_1_8352_0)" stroke-opacity="1.000000" stroke-width="2.000000" stroke-linejoin="round"/>
</svg>
