<svg width="40.000000" height="40.000000" viewBox="0 0 40 40" fill="none" xmlns="http://www.w3.org/2000/svg" xmlns:xlink="http://www.w3.org/1999/xlink">
	<desc>
			Created with Pixso.
	</desc>
	<defs>
		<clipPath id="clip1_8255">
			<rect id="SMM" rx="7.000000" width="40.000004" height="40.000004" fill="white" fill-opacity="0"/>
		</clipPath>
	</defs>
	<rect id="SMM" rx="7.000000" width="40.000004" height="40.000004" fill="#FFFFFF" fill-opacity="0"/>
	<g clip-path="url(#clip1_8255)">
		<rect id="Rectangle 25" width="40.000004" height="40.000004" fill="#2BA9DC" fill-opacity="1.000000"/>
		<path id="Vector" d="M29.78 10.17C29.78 10.17 32.18 9.31 31.98 11.41C31.92 12.27 31.32 15.3 30.85 18.58L29.24 28.29C29.24 28.29 29.11 29.71 27.91 29.96C26.71 30.21 24.9 29.09 24.57 28.85C24.3 28.66 19.56 25.88 17.89 24.52C17.42 24.15 16.88 23.4 17.95 22.54L24.97 16.35C25.77 15.61 26.57 13.88 23.23 15.98L13.88 21.86C13.88 21.86 12.81 22.48 10.8 21.92L6.46 20.68C6.46 20.68 4.86 19.76 7.6 18.83C14.28 15.92 22.5 12.95 29.78 10.17L29.78 10.17Z" fill="#FFFFFF" fill-opacity="1.000000" fill-rule="nonzero"/>
	</g>
</svg>
