<svg width="40.000000" height="40.000000" viewBox="0 0 40 40" fill="none" xmlns="http://www.w3.org/2000/svg" xmlns:xlink="http://www.w3.org/1999/xlink">
	<desc>
			Created with Pixso.
	</desc>
	<defs>
		<radialGradient id="paint_radial_1_8267_0" cx="0.000000" cy="0.000000" r="1.000000" gradientUnits="userSpaceOnUse" gradientTransform="translate(10.625 43.0808) rotate(-90) scale(39.643 36.8711)">
			<stop stop-color="#FFDD55"/>
			<stop offset="0.100000" stop-color="#FFDD55"/>
			<stop offset="0.500000" stop-color="#FF543E"/>
			<stop offset="1.000000" stop-color="#C837AB"/>
		</radialGradient>
		<radialGradient id="paint_radial_1_8268_0" cx="0.000000" cy="0.000000" r="1.000000" gradientUnits="userSpaceOnUse" gradientTransform="translate(-6.70018 2.88141) rotate(78.681) scale(17.7206 73.045)">
			<stop stop-color="#3771C8"/>
			<stop offset="0.128000" stop-color="#3771C8"/>
			<stop offset="1.000000" stop-color="#6600FF" stop-opacity="0.000000"/>
		</radialGradient>
	</defs>
	<path id="Vector" d="M9.37 0L30.62 0C35.8 0 40 4.19 40 9.37L40 30.62C40 35.8 35.8 40 30.62 40L9.37 40C4.19 40 0 35.8 0 30.62L0 9.37C0 4.19 4.19 0 9.37 0Z" fill="url(#paint_radial_1_8267_0)" fill-opacity="1.000000" fill-rule="evenodd"/>
	<path id="Vector" d="M9.37 0L30.62 0C35.8 0 40 4.19 40 9.37L40 30.62C40 35.8 35.8 40 30.62 40L9.37 40C4.19 40 0 35.8 0 30.62L0 9.37C0 4.19 4.19 0 9.37 0Z" fill="url(#paint_radial_1_8268_0)" fill-opacity="1.000000" fill-rule="evenodd"/>
	<path id="Vector" d="M20 7C16.47 7 16.02 7.01 14.64 7.07C13.25 7.14 12.31 7.36 11.48 7.68C10.63 8.01 9.9 8.45 9.18 9.18C8.45 9.9 8.01 10.62 7.68 11.48C7.35 12.31 7.14 13.25 7.07 14.63C7.01 16.02 7 16.46 7 20C7 23.53 7.01 23.97 7.07 25.35C7.14 26.74 7.36 27.68 7.68 28.51C8.01 29.36 8.45 30.09 9.18 30.81C9.9 31.54 10.62 31.98 11.48 32.31C12.31 32.63 13.25 32.85 14.63 32.92C16.02 32.98 16.46 33 20 33C23.53 33 23.97 32.98 25.35 32.92C26.74 32.85 27.68 32.63 28.51 32.31C29.37 31.98 30.09 31.54 30.81 30.81C31.54 30.09 31.98 29.36 32.31 28.51C32.63 27.68 32.85 26.74 32.92 25.35C32.98 23.97 33 23.53 33 20C33 16.46 32.98 16.02 32.92 14.63C32.85 13.25 32.63 12.31 32.31 11.48C31.98 10.62 31.54 9.9 30.81 9.18C30.09 8.45 29.37 8.01 28.51 7.68C27.68 7.36 26.74 7.14 25.35 7.07C23.97 7.01 23.52 7 19.99 7L20 7ZM18.83 9.34C19.18 9.34 19.56 9.34 20 9.34C23.47 9.34 23.88 9.35 25.25 9.41C26.52 9.47 27.21 9.68 27.66 9.86C28.27 10.1 28.7 10.38 29.16 10.83C29.61 11.29 29.89 11.72 30.13 12.33C30.31 12.79 30.52 13.47 30.58 14.74C30.64 16.11 30.65 16.52 30.65 19.99C30.65 23.46 30.64 23.87 30.58 25.24C30.52 26.51 30.31 27.2 30.13 27.66C29.89 28.26 29.61 28.7 29.16 29.15C28.7 29.6 28.27 29.89 27.66 30.12C27.21 30.3 26.52 30.51 25.25 30.57C23.88 30.63 23.47 30.65 20 30.65C16.53 30.65 16.11 30.63 14.74 30.57C13.48 30.51 12.79 30.3 12.33 30.12C11.72 29.89 11.29 29.6 10.83 29.15C10.38 28.69 10.1 28.26 9.86 27.66C9.68 27.2 9.47 26.51 9.41 25.24C9.35 23.87 9.34 23.46 9.34 19.99C9.34 16.52 9.35 16.11 9.41 14.74C9.47 13.47 9.68 12.78 9.86 12.32C10.1 11.72 10.38 11.28 10.83 10.83C11.29 10.37 11.72 10.09 12.33 9.86C12.79 9.68 13.48 9.47 14.74 9.41C15.94 9.35 16.41 9.34 18.83 9.33L18.83 9.34ZM26.94 11.5C26.07 11.5 25.38 12.19 25.38 13.06C25.38 13.92 26.07 14.62 26.94 14.62C27.8 14.62 28.5 13.92 28.5 13.06C28.5 12.19 27.8 11.5 26.94 11.5L26.94 11.5ZM20 13.32C16.31 13.32 13.32 16.31 13.32 20C13.32 23.68 16.31 26.67 20 26.67C23.68 26.67 26.67 23.68 26.67 20C26.67 16.31 23.68 13.32 20 13.32L20 13.32ZM20 15.66C22.39 15.66 24.33 17.6 24.33 20C24.33 22.39 22.39 24.33 20 24.33C17.6 24.33 15.66 22.39 15.66 20C15.66 17.6 17.6 15.66 20 15.66Z" fill="#FFFFFF" fill-opacity="1.000000" fill-rule="nonzero"/>
</svg>
