<svg width="27.000000" height="27.000000" viewBox="0 0 27 27" fill="none" xmlns="http://www.w3.org/2000/svg" xmlns:xlink="http://www.w3.org/1999/xlink">
	<desc>
			Created with Pixso.
	</desc>
	<defs>
		<linearGradient id="paint_linear_1_8334_0" x1="21.499025" y1="18.750246" x2="7.249022" y2="1.750246" gradientUnits="userSpaceOnUse">
			<stop stop-color="#017AC3"/>
			<stop offset="1.000000" stop-color="#65CFF0"/>
		</linearGradient>
		<linearGradient id="paint_linear_1_8335_0" x1="24.999027" y1="17.312502" x2="14.311524" y2="4.562502" gradientUnits="userSpaceOnUse">
			<stop stop-color="#017AC3"/>
			<stop offset="1.000000" stop-color="#65CFF0"/>
		</linearGradient>
		<linearGradient id="paint_linear_1_8336_0" x1="13.750980" y1="17.312502" x2="3.063478" y2="4.562502" gradientUnits="userSpaceOnUse">
			<stop stop-color="#017AC3"/>
			<stop offset="1.000000" stop-color="#65CFF0"/>
		</linearGradient>
		<linearGradient id="paint_linear_1_8337_0" x1="25.861008" y1="22.624754" x2="15.195267" y2="14.124757" gradientUnits="userSpaceOnUse">
			<stop stop-color="#017AC3"/>
			<stop offset="1.000000" stop-color="#65CFF0"/>
		</linearGradient>
		<linearGradient id="paint_linear_1_8340_0" x1="12.864582" y1="22.625492" x2="2.198138" y2="14.125488" gradientUnits="userSpaceOnUse">
			<stop stop-color="#017AC3"/>
			<stop offset="1.000000" stop-color="#65CFF0"/>
		</linearGradient>
		<linearGradient id="paint_linear_1_8343_0" x1="23.625986" y1="24.468498" x2="5.813469" y2="13.843512" gradientUnits="userSpaceOnUse">
			<stop stop-color="#017AC3"/>
			<stop offset="1.000000" stop-color="#65CFF0"/>
		</linearGradient>
	</defs>
	<circle id="Ellipse 46" cx="12.999023" cy="8.500244" r="3.375000" stroke="url(#paint_linear_1_8334_0)" stroke-opacity="1.000000" stroke-width="2.250000"/>
	<path id="Ellipse 47" d="M18.62 6.24C18.22 6.24 17.83 6.32 17.46 6.45C17.85 6.31 18.24 6.24 18.62 6.24ZM19.77 6.45C19.39 6.31 19 6.24 18.62 6.24C19.02 6.24 19.41 6.32 19.77 6.45ZM19.77 6.45C20.14 6.58 20.48 6.78 20.79 7.03C20.5 6.79 20.15 6.59 19.77 6.45ZM17.46 12.79C17.1 12.66 16.76 12.47 16.45 12.2C16.75 12.46 17.09 12.66 17.46 12.79ZM18.62 12.99C18.21 12.99 17.83 12.92 17.46 12.79C17.84 12.93 18.23 12.99 18.62 12.99ZM21.94 9.03C21.88 8.66 21.74 8.28 21.54 7.93C21.74 8.27 21.87 8.64 21.94 9.03ZM21.94 10.21C22.01 9.81 22.01 9.41 21.94 9.03C22.01 9.43 22.01 9.82 21.94 10.21ZM18.62 12.99C19.01 12.99 19.4 12.93 19.77 12.79C19.41 12.92 19.02 12.99 18.62 12.99ZM16.47 7.02C16.17 7.27 15.9 7.57 15.7 7.93C15.49 8.29 15.36 8.67 15.29 9.05C15.23 9.43 15.23 9.81 15.3 10.21C15.37 10.61 15.5 10.98 15.7 11.31C15.89 11.64 16.14 11.94 16.45 12.2L16.45 12.2L16.45 12.2C16.15 11.95 15.89 11.65 15.7 11.31C15.5 10.96 15.36 10.59 15.3 10.21L15.3 10.21C15.23 9.83 15.23 9.44 15.29 9.05C15.36 8.66 15.5 8.28 15.7 7.93C15.9 7.59 16.16 7.28 16.47 7.02C16.77 6.77 17.11 6.58 17.46 6.45L17.46 6.45L17.46 6.45C17.09 6.58 16.76 6.78 16.47 7.02ZM19.77 6.45L19.77 6.45L19.77 6.45ZM21.94 10.21L21.94 10.21C21.87 10.61 21.73 10.98 21.54 11.31C21.35 11.64 21.1 11.94 20.79 12.2C21.09 11.95 21.34 11.65 21.54 11.31C21.74 10.96 21.87 10.59 21.94 10.21ZM19.77 12.79C20.13 12.66 20.48 12.47 20.79 12.2C20.49 12.46 20.15 12.66 19.77 12.79Z" fill="url(#paint_linear_1_8335_0)" fill-opacity="1.000000" fill-rule="evenodd"/>
	<path id="Ellipse 48" d="M7.37 6.24C6.97 6.24 6.58 6.32 6.22 6.45C6.6 6.31 6.99 6.24 7.37 6.24ZM8.53 6.45C8.14 6.31 7.75 6.24 7.37 6.24C7.77 6.24 8.16 6.32 8.53 6.45ZM8.53 6.45C8.89 6.58 9.24 6.78 9.54 7.03C9.25 6.79 8.91 6.59 8.53 6.45ZM6.22 12.79C5.86 12.66 5.51 12.47 5.2 12.2C5.5 12.46 5.84 12.66 6.22 12.79ZM7.37 12.99C6.97 12.99 6.58 12.92 6.22 12.79C6.59 12.93 6.98 12.99 7.37 12.99ZM10.7 9.03C10.63 8.66 10.5 8.28 10.29 7.93C10.49 8.27 10.63 8.64 10.7 9.03ZM10.69 10.21C10.76 9.81 10.76 9.41 10.7 9.03C10.76 9.43 10.76 9.82 10.69 10.21ZM7.37 12.99C7.76 12.99 8.15 12.93 8.53 12.79C8.16 12.92 7.78 12.99 7.37 12.99ZM5.22 7.02C4.92 7.27 4.66 7.57 4.45 7.93C4.24 8.29 4.11 8.67 4.04 9.05C3.98 9.43 3.98 9.81 4.05 10.21C4.12 10.61 4.26 10.98 4.45 11.31C4.64 11.64 4.89 11.94 5.2 12.2L5.2 12.2L5.2 12.2C4.9 11.95 4.65 11.65 4.45 11.31C4.25 10.96 4.12 10.59 4.05 10.21L4.05 10.21C3.98 9.83 3.98 9.44 4.04 9.05C4.11 8.66 4.25 8.28 4.45 7.93C4.65 7.59 4.91 7.28 5.22 7.02C5.52 6.77 5.86 6.58 6.22 6.45L6.22 6.45L6.22 6.45C5.84 6.58 5.51 6.78 5.22 7.02ZM8.53 6.45L8.53 6.45L8.53 6.45ZM10.69 10.21L10.69 10.21C10.62 10.61 10.49 10.98 10.29 11.31C10.1 11.64 9.85 11.94 9.54 12.2C9.84 11.95 10.1 11.65 10.29 11.31C10.49 10.96 10.63 10.59 10.69 10.21ZM8.53 12.79C8.89 12.66 9.23 12.47 9.54 12.2C9.24 12.46 8.9 12.66 8.53 12.79Z" fill="url(#paint_linear_1_8336_0)" fill-opacity="1.000000" fill-rule="evenodd"/>
	<mask id="mask_1_8337" fill="white">
		<path id="Subtract" d="M18.4941 19.7498L21.8535 19.7498C22.5293 19.7498 23.0391 19.1547 22.8125 18.5168C22.3398 17.1846 21.209 15.2498 18.6279 15.2498C17.5703 15.2498 16.7559 15.5743 16.1309 16.0491C17.6875 17.0173 18.2734 18.6544 18.4941 19.7498Z" clip-rule="evenodd" fill="" fill-opacity="1.000000" fill-rule="evenodd"/>
	</mask>
	<path id="Subtract" d="M18.4941 18.6248L21.8535 18.6248Q21.8496 18.6248 21.8398 18.6294Q21.8164 18.6406 21.7939 18.6678Q21.7578 18.713 21.7461 18.777Q21.7344 18.8427 21.752 18.8929Q21.373 17.8223 20.7246 17.1877Q19.8936 16.3748 18.6279 16.3748Q17.5625 16.3748 16.8115 16.9449L16.1309 16.0491L16.7246 15.0938Q18.0205 15.8993 18.7979 17.3076Q19.3516 18.3092 19.5967 19.5276L18.4941 19.7498L18.4941 18.6248ZM18.4941 20.8748L17.5732 20.8748L17.3916 19.9719Q17.2148 19.0936 16.8291 18.3959Q16.334 17.5004 15.5371 17.0044L14.1494 16.1415L15.4502 15.1532Q16.8047 14.1248 18.6279 14.1248Q19.7715 14.1248 20.7441 14.5372Q21.6074 14.9038 22.2979 15.5796Q23.3193 16.5787 23.873 18.1407Q24.0557 18.6558 23.96 19.1801Q23.8691 19.6775 23.5488 20.0771Q23.2451 20.4542 22.8008 20.6642Q22.3545 20.8748 21.8535 20.8748L18.4941 20.8748Z" fill="url(#paint_linear_1_8337_0)" fill-opacity="1.000000" fill-rule="nonzero"/>
	<mask id="mask_1_8340" fill="white">
		<path id="Subtract" d="M7.50781 19.7505C7.72852 18.6553 8.31445 17.0184 9.87012 16.0502C9.24512 15.5752 8.43164 15.2505 7.37305 15.2505C4.79199 15.2505 3.66113 17.1853 3.18848 18.5176C2.96191 19.1554 3.4707 19.7505 4.14746 19.7505L7.50781 19.7505Z" clip-rule="evenodd" fill="" fill-opacity="1.000000" fill-rule="evenodd"/>
	</mask>
	<path id="Subtract" d="M6.4043 19.5283Q6.65039 18.3102 7.20312 17.3087Q7.98145 15.9004 9.27637 15.095L9.87012 16.0502L9.18945 16.9459Q8.43945 16.3755 7.37305 16.3755Q6.10742 16.3755 5.27637 17.1885Q4.62793 17.823 4.24805 18.8937Q4.2666 18.8434 4.25488 18.7777Q4.24316 18.7137 4.20605 18.6686Q4.18457 18.6414 4.16113 18.6301Q4.15137 18.6255 4.14746 18.6255L7.50781 18.6255L7.50781 19.7505L6.4043 19.5283ZM8.42871 20.8755L4.14746 20.8755Q3.64648 20.8755 3.2002 20.6649Q2.75586 20.455 2.45215 20.0778Q2.13184 19.6782 2.04102 19.1808Q1.94531 18.6565 2.12793 18.1415Q2.68164 16.5795 3.70312 15.5803Q4.39355 14.9045 5.25684 14.538Q6.22949 14.1255 7.37305 14.1255Q9.19727 14.1255 10.5508 15.1544L11.8516 16.1426L10.4648 17.0054Q9.66797 17.5013 9.17285 18.3967Q8.78711 19.0945 8.61035 19.9727L8.42871 20.8755Z" fill="url(#paint_linear_1_8340_0)" fill-opacity="1.000000" fill-rule="nonzero"/>
	<path id="Rectangle 4160" d="M8.5 20.87C7.87 20.87 7.38 20.36 7.5 19.75C7.83 18.11 8.98 15.24 13 15.24C17.01 15.24 18.16 18.11 18.49 19.75C18.61 20.36 18.12 20.87 17.5 20.87L8.5 20.87Z" stroke="url(#paint_linear_1_8343_0)" stroke-opacity="1.000000" stroke-width="2.250000"/>
</svg>
