<svg width="25.000000" height="24.000000" viewBox="0 0 25 24" fill="none" xmlns="http://www.w3.org/2000/svg" xmlns:xlink="http://www.w3.org/1999/xlink">
	<desc>
			Created with Pixso.
	</desc>
	<defs>
		<linearGradient id="paint_linear_1_8348_0" x1="32.268764" y1="39.333336" x2="-2.533283" y2="-6.000000" gradientUnits="userSpaceOnUse">
			<stop stop-color="#017AC3"/>
			<stop offset="1.000000" stop-color="#65CFF0"/>
		</linearGradient>
	</defs>
	<path id="Vector" d="M22.5 5C22.5 4.2 22.18 3.44 21.62 2.87C21.05 2.31 20.29 2 19.5 2L19.32 2C19.12 1.41 18.73 0.9 18.23 0.55C17.72 0.19 17.12 0 16.5 0L6.5 0C5.87 0 5.27 0.19 4.76 0.55C4.26 0.9 3.87 1.41 3.67 2L3.5 2C2.89 2 2.3 2.19 1.8 2.53C1.3 2.88 0.92 3.37 0.71 3.94C0.49 4.5 0.46 5.12 0.6 5.71C0.75 6.3 1.06 6.83 1.52 7.23L3.06 19.62C3.22 20.82 3.81 21.94 4.72 22.74C5.63 23.55 6.81 23.99 8.03 24L14.96 24C16.18 23.99 17.36 23.55 18.27 22.74C19.18 21.93 19.77 20.82 19.92 19.62L21.47 7.23C21.79 6.95 22.05 6.61 22.23 6.22C22.4 5.84 22.49 5.42 22.5 5ZM18.61 14L15.41 14C14.52 8.71 8.46 8.71 7.57 14L4.37 14L3.62 8L19.36 8L18.61 14ZM13.5 15C13.39 18.95 9.6 18.95 9.5 15C9.6 11.04 13.39 11.04 13.5 15ZM3.5 4L4.5 4C4.76 4 5.01 3.89 5.2 3.7C5.39 3.51 5.5 3.26 5.5 3C5.5 2.73 5.6 2.48 5.79 2.29C5.98 2.1 6.23 2 6.5 2L16.5 2C16.76 2 17.01 2.1 17.2 2.29C17.39 2.48 17.5 2.73 17.5 3C17.5 3.26 17.6 3.51 17.79 3.7C17.98 3.89 18.23 4 18.5 4L19.5 4C19.76 4 20.01 4.1 20.2 4.29C20.39 4.48 20.5 4.73 20.5 5C20.5 5.26 20.39 5.51 20.2 5.7C20.01 5.89 19.76 6 19.5 6L3.5 6C3.23 6 2.98 5.89 2.79 5.7C2.6 5.51 2.5 5.26 2.5 5C2.5 4.73 2.6 4.48 2.79 4.29C2.98 4.1 3.23 4 3.5 4ZM17.94 19.37C17.85 20.09 17.5 20.76 16.95 21.24C16.4 21.73 15.7 21.99 14.96 22L8.03 22C7.29 22 6.59 21.73 6.04 21.24C5.49 20.76 5.14 20.09 5.05 19.37L4.63 16L7.58 16C8.47 21.28 14.52 21.28 15.41 16L18.36 16L17.94 19.37Z" fill="url(#paint_linear_1_8348_0)" fill-opacity="1.000000" fill-rule="nonzero"/>
</svg>
