<svg width="27.000000" height="19.000000" viewBox="0 0 27 19" fill="none" xmlns="http://www.w3.org/2000/svg" xmlns:xlink="http://www.w3.org/1999/xlink">
	<desc>
			Created with Pixso.
	</desc>
	<defs>
		<linearGradient id="paint_linear_1_8330_0" x1="-10.611118" y1="28.361116" x2="28.972221" y2="-3.750008" gradientUnits="userSpaceOnUse">
			<stop stop-color="#017AC3"/>
			<stop offset="1.000000" stop-color="#65CFF0"/>
		</linearGradient>
	</defs>
	<path id="Vector" d="M21.28 0.5C21.05 0.49 20.84 0.57 20.66 0.71C20.49 0.85 20.37 1.04 20.32 1.26L19.29 5.27L9.29 3.26C8.23 3.06 7.13 3.08 6.08 3.35C5.03 3.61 4.05 4.11 3.21 4.79C2.37 5.48 1.69 6.35 1.22 7.33C0.75 8.31 0.5 9.38 0.5 10.47C0.5 11 0.71 11.51 1.08 11.89C1.46 12.27 1.96 12.48 2.5 12.48L11.29 12.48L13.29 15.65C13.66 16.21 14.15 16.68 14.74 17C15.33 17.32 15.99 17.49 16.66 17.5L18.86 17.5C19.03 17.49 19.19 17.45 19.34 17.36C19.49 17.28 19.62 17.16 19.7 17.01C19.79 16.86 19.84 16.7 19.85 16.52C19.85 16.35 19.81 16.18 19.74 16.03L17.98 12.54L23.5 12.54C24.03 12.54 24.53 12.33 24.91 11.95C25.28 11.57 25.5 11.06 25.5 10.53L25.5 1.5C25.5 1.23 25.39 0.98 25.2 0.79C25.01 0.6 24.76 0.5 24.5 0.5L21.28 0.5Z" stroke="url(#paint_linear_1_8330_0)" stroke-opacity="1.000000" stroke-width="2.000000" stroke-linejoin="round"/>
</svg>
