<svg width="20.000000" height="20.000000" viewBox="0 0 20 20" fill="none" xmlns="http://www.w3.org/2000/svg" xmlns:xlink="http://www.w3.org/1999/xlink">
	<desc>
			Created with Pixso.
	</desc>
	<defs>
		<clipPath id="clip1_8215">
			<rect id="Frame" width="20.000000" height="20.000000" fill="white" fill-opacity="0"/>
		</clipPath>
	</defs>
	<g clip-path="url(#clip1_8215)">
		<path id="Vector" d="M20 10C20 15.52 15.52 20 10 20C4.47 20 0 15.52 0 10C0 4.47 4.47 0 10 0C15.52 0 20 4.47 20 10Z" fill="#FF6A00" fill-opacity="1.000000" fill-rule="evenodd"/>
		<path id="Union" d="M14.71 6.15C14.49 5.94 14.13 5.94 13.91 6.15L9.45 10.4C9.35 10.5 9.18 10.5 9.08 10.4L7.08 8.5C6.86 8.29 6.51 8.28 6.29 8.49L5.18 9.49C4.94 9.7 4.93 10.06 5.16 10.28L8.9 13.84C9.12 14.05 9.48 14.05 9.7 13.84L15.83 8C16.05 7.78 16.05 7.43 15.83 7.22L14.71 6.15Z" fill="#F5F5F7" fill-opacity="1.000000" fill-rule="evenodd"/>
	</g>
</svg>
