<svg width="16.000000" height="14.000000" viewBox="0 0 16 14" fill="none" xmlns="http://www.w3.org/2000/svg" xmlns:xlink="http://www.w3.org/1999/xlink">
	<desc>
			Created with Pixso.
	</desc>
	<defs/>
	<path id="Line 36 (Stroke)" d="M15 2L1 2C0.44 2 0 1.55 0 1C0 0.44 0.44 0 1 0L15 0C15.55 0 16 0.44 16 1C16 1.55 15.55 2 15 2Z" fill="#FFFFFF" fill-opacity="1.000000" fill-rule="evenodd"/>
	<path id="Line 37 (Stroke)" d="M15 8L1 8C0.44 8 0 7.55 0 7C0 6.44 0.44 6 1 6L15 6C15.55 6 16 6.44 16 7C16 7.55 15.55 8 15 8Z" fill="#FFFFFF" fill-opacity="1.000000" fill-rule="evenodd"/>
	<path id="Line 38 (Stroke)" d="M10 14L1 14C0.44 14 0 13.55 0 13C0 12.44 0.44 12 1 12L10 12C10.55 12 11 12.44 11 13C11 13.55 10.55 14 10 14Z" fill="#FFFFFF" fill-opacity="1.000000" fill-rule="evenodd"/>
</svg>
