<svg width="25" height="26" viewBox="0 0 25 26" fill="none" xmlns="http://www.w3.org/2000/svg">
<path fill-rule="evenodd" clip-rule="evenodd" d="M0.682617 13.0426C0.682617 6.81305 5.80277 1.6929 12.0323 1.6929C14.507 1.6929 16.7258 2.46092 18.6885 3.74096H15.7871C14.6777 3.22894 13.3977 3.05826 12.1177 3.05826C6.65616 3.05826 2.13334 7.49574 2.13334 13.0426C2.13334 18.5041 6.57082 23.0269 12.1177 23.0269C13.483 23.0269 14.6777 22.7709 15.7871 22.2589H18.6885C16.8111 23.6242 14.507 24.3069 12.0323 24.3069C5.80277 24.3923 0.682617 19.2721 0.682617 13.0426ZM22.0166 13.0426C22.0166 9.88515 20.4806 7.06905 18.2618 5.19166H20.3099C22.1873 7.23972 23.4673 10.0558 23.4673 13.0426C23.4673 16.0293 22.2726 18.8454 20.3099 20.8081H18.1765C20.4806 19.0161 22.0166 16.2 22.0166 13.0426Z" fill="#0587D6"/>
<path fill-rule="evenodd" clip-rule="evenodd" d="M2.90137 13.0427C2.90137 11.848 3.07208 10.6533 3.5841 9.62926C4.09611 8.51989 6.14418 8.60521 6.99754 7.75185C7.59489 7.1545 6.65618 5.53312 7.25354 5.19177H21.4193C22.1873 5.19177 22.7847 5.78916 22.7847 6.55718V19.5282C22.7847 20.2962 22.1873 20.8936 21.4193 20.8936H7.25354C4.60812 19.1869 2.90137 16.3708 2.90137 13.0427Z" fill="#00A2E5"/>
<path fill-rule="evenodd" clip-rule="evenodd" d="M21.8463 20.723L10.6673 11.336L3.75502 17.1389C3.66969 16.9682 3.58436 16.6269 3.49902 16.4562L10.4113 10.568C10.4966 10.4827 10.6673 10.4827 10.9233 10.568L22.2729 20.1256C22.4436 20.211 22.4436 20.467 22.2729 20.6377C22.1876 20.8084 21.9316 20.8083 21.8463 20.723Z" fill="#85DBF6"/>
<path fill-rule="evenodd" clip-rule="evenodd" d="M9.81413 14.5788L3.66992 9.37331C4.43795 7.66659 5.63263 6.21589 7.16868 5.27719H21.5052C21.7612 5.27719 22.1025 5.36252 22.3585 5.53319L11.6915 14.6642C11.0942 14.9202 10.2408 14.9201 9.81413 14.5788Z" fill="#85DBF6"/>
<path fill-rule="evenodd" clip-rule="evenodd" d="M6.14453 20.1257H21.4196C21.761 20.1257 22.1023 19.8697 22.1023 19.443V6.55725C22.1023 6.21591 21.8463 5.87452 21.4196 5.87452H6.14453C6.82722 5.27717 7.68057 4.85051 8.53393 4.42383H21.4196C22.529 4.42383 23.4677 5.36252 23.4677 6.47189V19.443C23.4677 20.5523 22.529 21.4911 21.4196 21.4911H8.53393C7.68057 21.2351 6.82722 20.723 6.14453 20.1257Z" fill="#0587D6"/>
<path fill-rule="evenodd" clip-rule="evenodd" d="M9.55791 14.7496L3.49902 9.6294C3.58436 9.45873 3.66969 9.1174 3.75502 8.94673L9.98459 14.2376C10.2406 14.4936 10.9233 14.4936 11.3499 14.2376L22.017 5.1066C22.1876 5.02127 22.3583 5.02127 22.5289 5.1066C22.6143 5.27728 22.6143 5.44793 22.5289 5.6186L11.8619 14.7496C11.1793 15.3469 10.1553 15.3469 9.55791 14.7496Z" fill="#0587D6"/>
</svg>
