<svg width="35" height="35" viewBox="0 0 35 35" fill="none" xmlns="http://www.w3.org/2000/svg">
<path fill-rule="evenodd" clip-rule="evenodd" d="M30.9702 25.1636L29.5185 23.7119C30.6073 21.7763 31.0912 19.5986 31.0912 17.3C31.0912 9.55731 24.8003 3.14545 16.9367 3.14545C9.194 3.14545 2.78214 9.43633 2.78214 17.3C2.78214 17.7839 2.41921 18.3888 1.69333 18.3888C1.20942 18.3888 0.604492 18.0258 0.604492 17.3C0.604492 8.4685 7.86325 1.20978 16.6947 1.20978C25.5262 1.20978 32.7849 8.4685 32.7849 17.3C33.1478 19.9615 32.422 22.865 30.9702 25.1636Z" fill="#0587D6"/>
<path fill-rule="evenodd" clip-rule="evenodd" d="M23.4702 32.6642L25.7688 29.3978C26.0108 29.0348 25.8898 28.9139 25.5269 29.0348L25.2849 29.1559C24.922 29.2768 24.438 29.6397 24.1961 30.0027L22.1395 32.9062C22.0185 33.2691 21.8975 33.632 22.3814 33.632C22.8653 33.2691 23.2283 33.0271 23.4702 32.6642Z" fill="#0587D6"/>
<path fill-rule="evenodd" clip-rule="evenodd" d="M21.5346 33.148L20.3248 30.4865C20.2038 30.2445 20.3248 29.7606 20.5667 29.7606H20.6877C20.9297 29.6397 21.4136 29.8816 21.5346 30.1236L22.7444 32.7851C22.8654 33.0271 22.7444 33.511 22.5024 33.511H22.3814C22.0185 33.6319 21.6556 33.39 21.5346 33.148Z" fill="#0587D6"/>
<path fill-rule="evenodd" clip-rule="evenodd" d="M20.5661 33.2691L21.5339 30.0026C21.6549 29.6397 21.4129 29.5188 21.171 29.5188H20.929C20.6871 29.6397 20.2032 29.8817 20.0822 30.3656L19.2354 33.2691C19.2354 33.632 19.3563 33.995 19.7193 33.995C20.2032 34.116 20.5661 33.753 20.5661 33.2691Z" fill="#0587D6"/>
<path fill-rule="evenodd" clip-rule="evenodd" d="M19.1144 33.7532L18.2675 30.9707C18.1465 30.7287 18.3885 30.2448 18.6305 30.2448H18.7514C18.9934 30.2448 19.4773 30.3658 19.5983 30.7287L20.4452 33.5112C20.5662 33.7532 20.3242 34.237 20.0822 34.237H19.9612C19.4773 34.237 19.1144 33.9951 19.1144 33.7532Z" fill="#0587D6"/>
<path fill-rule="evenodd" clip-rule="evenodd" d="M18.0257 33.7532L19.4774 30.8497C19.5984 30.6078 19.4774 30.3658 19.2355 30.3658H18.9935C18.7515 30.3658 18.2676 30.6078 18.1466 31.0917L16.8159 33.7532C16.6949 34.1162 16.8159 34.4791 17.1788 34.6001C17.4208 34.2372 17.9047 33.9952 18.0257 33.7532Z" fill="#0587D6"/>
<path fill-rule="evenodd" clip-rule="evenodd" d="M16.4529 33.7532L16.2109 30.8497C16.2109 30.6078 16.4529 30.3658 16.6948 30.3658H16.8158C17.0578 30.3658 17.5417 30.6078 17.5417 30.8497L17.7836 33.7532C17.7836 33.9952 17.5417 34.2371 17.2997 34.2371H17.1788C16.8158 34.2371 16.4529 33.9952 16.4529 33.7532Z" fill="#0587D6"/>
<path fill-rule="evenodd" clip-rule="evenodd" d="M15.4854 33.7534L17.4211 30.9709C17.542 30.7289 17.542 30.4869 17.1791 30.4869H16.9371C16.6952 30.4869 16.0903 30.6079 15.9693 30.9709L14.3966 33.5114C14.2756 33.8744 14.2756 34.2373 14.6385 34.3583C14.7595 34.1163 15.2434 33.9953 15.4854 33.7534Z" fill="#0587D6"/>
<path fill-rule="evenodd" clip-rule="evenodd" d="M13.791 33.39L13.912 30.4865C13.912 30.2446 14.1539 30.0026 14.6378 30.0026H14.7588C15.0008 30.0026 15.2427 30.3655 15.2427 30.7285L15.1218 33.6319C15.1218 33.8739 14.8798 34.1159 14.3959 34.1159H14.2749C14.1539 34.1159 13.791 33.753 13.791 33.39Z" fill="#0587D6"/>
<path fill-rule="evenodd" clip-rule="evenodd" d="M12.9448 33.1483L15.2434 30.7287C15.4854 30.4868 15.3644 30.2448 15.1224 30.0028H14.8805C14.6385 29.8818 14.0336 30.1239 13.7917 30.3658L11.735 32.6644C11.4931 33.0273 11.4931 33.3903 11.856 33.5112C12.219 33.6322 12.5819 33.3903 12.9448 33.1483Z" fill="#0587D6"/>
<path fill-rule="evenodd" clip-rule="evenodd" d="M11.251 32.7855L11.7349 29.8819C11.7349 29.64 12.0978 29.398 12.4608 29.519H12.5818C12.8237 29.64 13.0657 29.882 12.9447 30.3659L12.4608 33.2693C12.4608 33.5113 12.0978 33.7532 11.7349 33.6323H11.6139C11.3719 33.3903 11.251 33.0274 11.251 32.7855Z" fill="#0587D6"/>
<path fill-rule="evenodd" clip-rule="evenodd" d="M10.4039 32.4221L13.0655 30.3655C13.3074 30.1236 13.3074 29.8816 13.0655 29.6396L12.9445 29.5187C12.7025 29.3977 12.0976 29.5186 11.8557 29.6396L9.43609 31.5753C9.19413 31.8173 9.07315 32.3011 9.43609 32.4221C9.67805 32.6641 10.041 32.5431 10.4039 32.4221Z" fill="#0587D6"/>
<path fill-rule="evenodd" clip-rule="evenodd" d="M8.95274 31.6964L10.0415 28.9139C10.1625 28.6719 10.4045 28.5509 10.7674 28.6719L10.8884 28.7928C11.1303 28.9138 11.2513 29.2768 11.1303 29.6397L10.0415 32.4222C9.92056 32.6642 9.6786 32.7851 9.31566 32.6642L9.19467 32.5432C8.95272 32.4222 8.83176 31.9383 8.95274 31.6964Z" fill="#0587D6"/>
<path fill-rule="evenodd" clip-rule="evenodd" d="M8.22715 31.2128L11.1306 29.7611C11.3726 29.6401 11.4936 29.3981 11.2516 29.0352L11.1306 28.9142C10.8887 28.7932 10.2838 28.7932 10.0418 28.9142L7.38028 30.366C7.13832 30.6079 6.89636 30.8498 7.25929 31.2128C7.38027 31.3338 7.74323 31.3338 8.22715 31.2128Z" fill="#0587D6"/>
<path fill-rule="evenodd" clip-rule="evenodd" d="M6.89609 30.2445L8.22687 27.583C8.34785 27.341 8.71076 27.2201 9.0737 27.462L9.19468 27.583C9.43664 27.704 9.55764 28.0669 9.43666 28.4299L8.10588 31.0914C7.9849 31.3334 7.62195 31.4543 7.25901 31.2124L7.13806 31.0914C6.89611 30.8494 6.77511 30.4865 6.89609 30.2445Z" fill="#0587D6"/>
<path fill-rule="evenodd" clip-rule="evenodd" d="M6.04877 29.5191L9.19423 28.4302C9.55717 28.3093 9.55718 28.0673 9.31522 27.9464L9.19423 27.8253C8.95227 27.5834 8.46837 27.5834 8.10543 27.7044L5.32293 28.7932C4.95999 29.0351 4.839 29.2771 5.08095 29.64C5.20193 29.519 5.80681 29.64 6.04877 29.5191Z" fill="#0587D6"/>
<path fill-rule="evenodd" clip-rule="evenodd" d="M4.96077 28.4303L6.89644 26.1317C7.13839 25.8897 7.38037 25.8897 7.7433 26.1317L7.86425 26.2526C8.10621 26.4946 8.10621 26.9785 7.86425 27.2205L5.92862 29.5191C5.68666 29.761 5.44469 29.761 5.08175 29.5191L4.96077 29.3981C4.71881 29.1561 4.71881 28.7932 4.96077 28.4303Z" fill="#0587D6"/>
<path fill-rule="evenodd" clip-rule="evenodd" d="M4.35546 27.7039L7.62191 26.978C7.98484 26.857 8.1058 26.7361 7.86384 26.4941L7.74289 26.3731C7.50093 26.1312 7.01699 26.0102 6.65405 26.1312L3.75056 26.8571C3.38763 26.978 3.0247 27.22 3.38764 27.7039C3.50862 27.7039 3.87154 27.8249 4.35546 27.7039Z" fill="#0587D6"/>
<path fill-rule="evenodd" clip-rule="evenodd" d="M3.38697 26.4942L5.56458 24.4376C5.80654 24.1956 6.04851 24.3166 6.41145 24.5585L6.53243 24.6795C6.65341 24.9215 6.65341 25.4054 6.41145 25.6474L4.2338 27.704C3.99185 27.946 3.74991 27.8249 3.38697 27.583L3.26599 27.462C3.14501 26.9781 3.14501 26.7362 3.38697 26.4942Z" fill="#0587D6"/>
<path fill-rule="evenodd" clip-rule="evenodd" d="M2.78252 25.6476L6.16992 25.5267C6.53286 25.5267 6.65386 25.2847 6.53288 25.0427L6.41189 24.9218C6.29091 24.6798 5.686 24.4378 5.44404 24.5588L2.29861 24.6798C1.93568 24.8008 1.57271 24.9217 1.81467 25.4057C2.05663 25.4057 2.41958 25.6476 2.78252 25.6476Z" fill="#0587D6"/>
<path fill-rule="evenodd" clip-rule="evenodd" d="M2.05606 24.1956L4.47564 22.5019C4.7176 22.381 5.20153 22.3809 5.32251 22.6229L5.44346 22.7438C5.56444 22.9858 5.44348 23.4697 5.20152 23.5907L2.78194 25.2844C2.53998 25.4054 2.05605 25.4054 1.93507 25.1634L1.81409 25.0425C1.57213 24.6795 1.8141 24.4376 2.05606 24.1956Z" fill="#0587D6"/>
<path fill-rule="evenodd" clip-rule="evenodd" d="M1.57235 23.2282L4.83876 23.5911C5.20169 23.5911 5.3227 23.4702 5.20172 23.2282L5.08073 23.1072C4.95975 22.8653 4.5968 22.6233 4.23386 22.3813L1.33037 22.0184C0.967437 22.0184 0.604492 22.1394 0.604492 22.5023C0.967429 22.9863 1.33039 23.2282 1.57235 23.2282Z" fill="#0587D6"/>
<path fill-rule="evenodd" clip-rule="evenodd" d="M1.08855 21.7763L3.75006 20.4455C3.99202 20.3246 4.47594 20.4455 4.47594 20.6875V20.8085C4.59692 21.0504 4.47596 21.5343 4.11302 21.6553L1.45147 22.9861C1.20951 23.107 0.725586 22.986 0.725586 22.7441V22.6231C0.725586 22.2602 0.846587 21.8972 1.08855 21.7763Z" fill="#0587D6"/>
<path fill-rule="evenodd" clip-rule="evenodd" d="M0.968069 20.8085L4.23448 21.7763C4.59742 21.8973 4.71843 21.6553 4.71843 21.4134V21.1714C4.59745 20.9294 4.35547 20.4455 3.87156 20.3245L0.968069 19.4777C0.605132 19.4777 0.242188 19.4777 0.242188 19.9616C0.242188 20.3245 0.605132 20.6875 0.968069 20.8085Z" fill="#0587D6"/>
<path fill-rule="evenodd" clip-rule="evenodd" d="M0.604581 19.2354L3.38712 18.2676C3.62908 18.1466 4.113 18.3886 4.113 18.6305V18.7515C4.113 18.9935 3.992 19.4774 3.75004 19.5984L0.96754 20.5662C0.725582 20.6872 0.241658 20.4452 0.241658 20.2033V20.0823C0.12068 19.7194 0.241644 19.3564 0.604581 19.2354Z" fill="#0587D6"/>
<path fill-rule="evenodd" clip-rule="evenodd" d="M1.45179 18.1466L3.6294 19.2355C3.87135 19.3564 3.99236 19.2354 3.99236 18.9935V18.8725C3.99236 18.6306 3.75038 17.7837 3.6294 17.6627L1.57278 16.6949C1.33082 16.6949 1.08887 17.1788 1.08887 17.5417C1.08887 17.7837 1.20983 18.0256 1.45179 18.1466Z" fill="#0587D6"/>
<path fill-rule="evenodd" clip-rule="evenodd" d="M29.2773 30.7286L30.85 28.0671C31.213 27.3412 31.213 26.7363 30.7291 26.1315L27.3417 22.744C26.8577 22.2601 26.1319 22.2601 25.406 22.5021L22.1396 24.4377C20.6878 24.1958 18.6312 22.2601 17.1794 20.9293C15.7277 19.4775 13.913 17.5419 13.671 15.9692L15.6067 12.7027C15.8487 11.9769 15.9696 11.372 15.3647 10.7671L11.9773 7.37971C11.4934 6.89579 10.8885 6.89575 10.0417 7.25869L7.38012 8.8314C6.53326 9.31531 6.89622 10.4042 7.13818 11.614C8.46895 16.5741 10.8885 19.9615 14.5179 23.4699C18.0263 26.9783 21.4137 29.5188 26.3738 30.8496C27.7046 31.3335 28.7934 31.5755 29.2773 30.7286Z" fill="#0587D6"/>
<path fill-rule="evenodd" clip-rule="evenodd" d="M27.4622 30.2445L26.6153 30.1236L24.9216 29.6396C21.1712 28.3088 18.3887 26.1313 15.2433 23.1068C12.3398 19.9613 10.0412 17.1788 8.71041 13.4285L8.2265 11.8557L8.10551 11.3718C7.86356 10.162 7.98454 10.162 8.10551 10.162L10.7671 8.58931C11.13 8.34735 11.251 8.46833 11.4929 8.58931L14.8803 11.9767C15.0013 12.0977 15.0013 12.0977 15.0013 12.2187L14.8803 12.5816L12.9447 15.727C12.8237 15.969 12.8237 16.09 12.8237 16.4529C13.1866 18.6306 15.2433 20.5662 16.574 22.0179C17.9048 23.3487 20.3244 25.6473 22.1391 25.8893C22.381 25.8893 22.502 25.8892 22.865 25.7683L26.0104 23.8326L26.3733 23.7117L26.6153 23.8326L30.0027 27.22C30.1237 27.341 30.2447 27.462 30.0027 27.946L28.43 30.6074C28.309 30.2445 28.067 30.2445 27.4622 30.2445Z" fill="#00A2E5"/>
</svg>
