<svg width="25" height="25" viewBox="0 0 25 25" fill="none" xmlns="http://www.w3.org/2000/svg">
<path fill-rule="evenodd" clip-rule="evenodd" d="M21.8374 17.8088L20.8388 16.8102C21.5878 15.4788 21.9206 13.9809 21.9206 12.3997C21.9206 7.07392 17.5934 2.66349 12.1844 2.66349C6.85853 2.66349 2.4481 6.99071 2.4481 12.3997C2.4481 12.7326 2.19846 13.1487 1.69916 13.1487C1.3663 13.1487 0.950195 12.899 0.950195 12.3997C0.950195 6.32498 5.94317 1.33203 12.0179 1.33203C18.0927 1.33203 23.0857 6.32498 23.0857 12.3997C23.3353 14.2305 22.836 16.2277 21.8374 17.8088Z" fill="#0587D6"/>
<path fill-rule="evenodd" clip-rule="evenodd" d="M16.6783 22.9681L18.2594 20.7213C18.4258 20.4716 18.3426 20.3884 18.093 20.4716L17.9265 20.5549C17.6769 20.6381 17.344 20.8877 17.1776 21.1374L15.7629 23.1346C15.6797 23.3842 15.5965 23.6338 15.9293 23.6338C16.2622 23.3842 16.5119 23.2178 16.6783 22.9681Z" fill="#0587D6"/>
<path fill-rule="evenodd" clip-rule="evenodd" d="M15.3463 23.3009L14.5141 21.4701C14.4309 21.3037 14.5141 20.9709 14.6805 20.9709H14.7637C14.9302 20.8876 15.263 21.0541 15.3463 21.2205L16.1784 23.0513C16.2616 23.2177 16.1784 23.5505 16.012 23.5505H15.9288C15.6791 23.6338 15.4295 23.4673 15.3463 23.3009Z" fill="#0587D6"/>
<path fill-rule="evenodd" clip-rule="evenodd" d="M14.681 23.3844L15.3467 21.1375C15.4299 20.8879 15.2635 20.8047 15.0971 20.8047H14.9306C14.7642 20.8879 14.4313 21.0543 14.3481 21.3872L13.7656 23.3844C13.7656 23.634 13.8488 23.8837 14.0985 23.8837C14.4313 23.9669 14.681 23.7172 14.681 23.3844Z" fill="#0587D6"/>
<path fill-rule="evenodd" clip-rule="evenodd" d="M13.6828 23.7175L13.1003 21.8035C13.017 21.6371 13.1835 21.3042 13.3499 21.3042H13.4331C13.5995 21.3042 13.9324 21.3874 14.0156 21.6371L14.5982 23.551C14.6814 23.7175 14.5149 24.0503 14.3485 24.0503H14.2653C13.9324 24.0503 13.6828 23.8839 13.6828 23.7175Z" fill="#0587D6"/>
<path fill-rule="evenodd" clip-rule="evenodd" d="M12.9337 23.7172L13.9323 21.72C14.0155 21.5536 13.9323 21.3872 13.7658 21.3872H13.5994C13.433 21.3872 13.1001 21.5536 13.0169 21.8865L12.1015 23.7172C12.0183 23.9669 12.1015 24.2166 12.3512 24.2998C12.5176 24.0501 12.8505 23.8837 12.9337 23.7172Z" fill="#0587D6"/>
<path fill-rule="evenodd" clip-rule="evenodd" d="M11.852 23.7172L11.6855 21.72C11.6855 21.5536 11.852 21.3872 12.0184 21.3872H12.1016C12.2681 21.3872 12.6009 21.5536 12.6009 21.72L12.7673 23.7172C12.7673 23.8837 12.6009 24.0501 12.4345 24.0501H12.3513C12.1016 24.0501 11.852 23.8837 11.852 23.7172Z" fill="#0587D6"/>
<path fill-rule="evenodd" clip-rule="evenodd" d="M11.1864 23.7175L12.5179 21.8036C12.6011 21.6372 12.6011 21.4707 12.3514 21.4707H12.185C12.0186 21.4707 11.6025 21.5539 11.5193 21.8036L10.4375 23.5511C10.3543 23.8008 10.3542 24.0504 10.6039 24.1336C10.6871 23.9672 11.02 23.884 11.1864 23.7175Z" fill="#0587D6"/>
<path fill-rule="evenodd" clip-rule="evenodd" d="M10.0205 23.4673L10.1037 21.4701C10.1037 21.3037 10.2701 21.1372 10.603 21.1372H10.6862C10.8527 21.1372 11.0191 21.3869 11.0191 21.6365L10.9359 23.6337C10.9359 23.8001 10.7695 23.9666 10.4366 23.9666H10.3534C10.2702 23.9666 10.0205 23.7169 10.0205 23.4673Z" fill="#0587D6"/>
<path fill-rule="evenodd" clip-rule="evenodd" d="M9.43839 23.301L11.0195 21.6367C11.1859 21.4703 11.1027 21.3038 10.9363 21.1374H10.7698C10.6034 21.0541 10.1873 21.2206 10.0209 21.3871L8.60623 22.9681C8.43979 23.2178 8.4398 23.4674 8.68945 23.5506C8.93909 23.6339 9.18874 23.4674 9.43839 23.301Z" fill="#0587D6"/>
<path fill-rule="evenodd" clip-rule="evenodd" d="M8.27344 23.0517L8.6063 21.0545C8.6063 20.8881 8.85595 20.7216 9.1056 20.8049H9.18882C9.35525 20.8881 9.52167 21.0545 9.43846 21.3874L9.1056 23.3845C9.1056 23.551 8.85594 23.7174 8.6063 23.6342H8.52308C8.35664 23.4677 8.27344 23.2181 8.27344 23.0517Z" fill="#0587D6"/>
<path fill-rule="evenodd" clip-rule="evenodd" d="M7.69047 22.8016L9.52123 21.387C9.68766 21.2206 9.68766 21.0541 9.52123 20.8877L9.43801 20.8045C9.27157 20.7213 8.8555 20.8045 8.68907 20.8877L7.02475 22.2192C6.85832 22.3856 6.7751 22.7184 7.02475 22.8016C7.19118 22.9681 7.44082 22.8849 7.69047 22.8016Z" fill="#0587D6"/>
<path fill-rule="evenodd" clip-rule="evenodd" d="M6.6928 22.3025L7.44174 20.3885C7.52496 20.2221 7.6914 20.1389 7.94104 20.2221L8.02424 20.3053C8.19067 20.3885 8.2739 20.6382 8.19068 20.8878L7.44174 22.8018C7.35853 22.9682 7.19209 23.0514 6.94244 22.9682L6.85922 22.885C6.69279 22.8018 6.60959 22.4689 6.6928 22.3025Z" fill="#0587D6"/>
<path fill-rule="evenodd" clip-rule="evenodd" d="M6.19246 21.9697L8.18964 20.9711C8.35607 20.8879 8.43929 20.7214 8.27286 20.4718L8.18964 20.3886C8.02321 20.3054 7.60713 20.3054 7.4407 20.3886L5.60994 21.3872C5.44351 21.5536 5.27707 21.72 5.52672 21.9697C5.60993 22.0529 5.8596 22.0529 6.19246 21.9697Z" fill="#0587D6"/>
<path fill-rule="evenodd" clip-rule="evenodd" d="M5.27776 21.304L6.19314 19.4732C6.27636 19.3068 6.52599 19.2236 6.77564 19.39L6.85886 19.4732C7.02529 19.5565 7.10852 19.8061 7.0253 20.0558L6.10992 21.8865C6.02671 22.053 5.77705 22.1362 5.5274 21.9697L5.4442 21.8865C5.27777 21.7201 5.19455 21.4704 5.27776 21.304Z" fill="#0587D6"/>
<path fill-rule="evenodd" clip-rule="evenodd" d="M4.69469 20.8049L6.85831 20.0559C7.10795 19.9727 7.10796 19.8063 6.94153 19.7231L6.85831 19.6398C6.69187 19.4734 6.35902 19.4734 6.10937 19.5566L4.19541 20.3055C3.94576 20.472 3.86254 20.6384 4.02897 20.8881C4.11218 20.8048 4.52825 20.8881 4.69469 20.8049Z" fill="#0587D6"/>
<path fill-rule="evenodd" clip-rule="evenodd" d="M3.94611 20.056L5.27757 18.4749C5.44401 18.3085 5.61045 18.3085 5.8601 18.4749L5.94329 18.5581C6.10972 18.7245 6.10972 19.0574 5.94329 19.2238L4.61186 20.805C4.44542 20.9714 4.27898 20.9714 4.02933 20.805L3.94611 20.7217C3.77968 20.5553 3.77968 20.3056 3.94611 20.056Z" fill="#0587D6"/>
<path fill-rule="evenodd" clip-rule="evenodd" d="M3.52987 19.5563L5.77671 19.057C6.02636 18.9738 6.10956 18.8906 5.94313 18.7242L5.85993 18.6409C5.6935 18.4745 5.36062 18.3913 5.11097 18.4745L3.11379 18.9738C2.86414 19.057 2.6145 19.2235 2.86415 19.5563C2.94737 19.5563 3.19701 19.6396 3.52987 19.5563Z" fill="#0587D6"/>
<path fill-rule="evenodd" clip-rule="evenodd" d="M2.86444 18.7242L4.36232 17.3095C4.52875 17.143 4.69519 17.2262 4.94484 17.3927L5.02806 17.4759C5.11128 17.6424 5.11127 17.9752 4.94484 18.1416L3.44694 19.5563C3.28051 19.7228 3.11409 19.6395 2.86444 19.4731L2.78122 19.3899C2.69801 19.057 2.69801 18.8906 2.86444 18.7242Z" fill="#0587D6"/>
<path fill-rule="evenodd" clip-rule="evenodd" d="M2.44815 18.1417L4.77818 18.0585C5.02783 18.0585 5.11106 17.8921 5.02785 17.7256L4.94462 17.6424C4.86141 17.476 4.44531 17.3095 4.27888 17.3927L2.11529 17.476C1.86564 17.5592 1.61597 17.6424 1.7824 17.9753C1.94883 17.9753 2.1985 18.1417 2.44815 18.1417Z" fill="#0587D6"/>
<path fill-rule="evenodd" clip-rule="evenodd" d="M1.94925 17.143L3.61357 15.978C3.78 15.8948 4.11287 15.8948 4.19609 16.0612L4.27928 16.1444C4.3625 16.3108 4.2793 16.6437 4.11287 16.7269L2.44855 17.892C2.28211 17.9752 1.94924 17.9752 1.86602 17.8087L1.7828 17.7255C1.61637 17.4759 1.78281 17.3094 1.94925 17.143Z" fill="#0587D6"/>
<path fill-rule="evenodd" clip-rule="evenodd" d="M1.61594 16.4777L3.86276 16.7273C4.1124 16.7273 4.19563 16.6441 4.11242 16.4777L4.0292 16.3945C3.94598 16.228 3.69632 16.0616 3.44668 15.8951L1.4495 15.6455C1.19985 15.6455 0.950195 15.7287 0.950195 15.9784C1.19984 16.3113 1.44951 16.4777 1.61594 16.4777Z" fill="#0587D6"/>
<path fill-rule="evenodd" clip-rule="evenodd" d="M1.28287 15.4788L3.1136 14.5634C3.28004 14.4802 3.6129 14.5634 3.6129 14.7298V14.813C3.69612 14.9795 3.61291 15.3123 3.36327 15.3956L1.5325 16.3109C1.36607 16.3941 1.0332 16.3109 1.0332 16.1445V16.0613C1.0332 15.8116 1.11643 15.562 1.28287 15.4788Z" fill="#0587D6"/>
<path fill-rule="evenodd" clip-rule="evenodd" d="M1.20047 14.8133L3.44729 15.479C3.69694 15.5622 3.78017 15.3958 3.78017 15.2294V15.0629C3.69696 14.8965 3.53052 14.5636 3.19765 14.4804L1.20047 13.8979C0.950825 13.8979 0.701172 13.8979 0.701172 14.2308C0.701172 14.4804 0.950825 14.7301 1.20047 14.8133Z" fill="#0587D6"/>
<path fill-rule="evenodd" clip-rule="evenodd" d="M0.950767 13.7313L2.86475 13.0656C3.03118 12.9824 3.36405 13.1488 3.36405 13.3152V13.3984C3.36405 13.5649 3.28082 13.8977 3.11439 13.9809L1.20043 14.6467C1.034 14.7299 0.701129 14.5635 0.701129 14.397V14.3138C0.617913 14.0642 0.701119 13.8145 0.950767 13.7313Z" fill="#0587D6"/>
<path fill-rule="evenodd" clip-rule="evenodd" d="M1.53284 12.9825L3.03072 13.7315C3.19715 13.8147 3.28038 13.7314 3.28038 13.565V13.4818C3.28038 13.3154 3.11393 12.7329 3.03072 12.6497L1.61606 11.9839C1.44963 11.9839 1.2832 12.3168 1.2832 12.5664C1.2832 12.7328 1.36641 12.8993 1.53284 12.9825Z" fill="#0587D6"/>
<path fill-rule="evenodd" clip-rule="evenodd" d="M20.6731 21.6368L21.7549 19.806C22.0046 19.3067 22.0046 18.8907 21.6717 18.4746L19.3416 16.1445C19.0088 15.8117 18.5095 15.8117 18.0102 15.9781L15.7634 17.3096C14.7648 17.1431 13.3501 15.8117 12.3515 14.8963C11.3529 13.8977 10.1047 12.5662 9.93825 11.4844L11.2697 9.2376C11.4361 8.7383 11.5193 8.32224 11.1033 7.90616L8.77323 5.57613C8.44036 5.24326 8.02428 5.24323 7.44177 5.49288L5.611 6.57468C5.02849 6.90754 5.27816 7.65653 5.44459 8.48869C6.35996 11.9005 8.02426 14.2306 10.5207 16.6438C12.934 19.0571 15.2641 20.8046 18.6759 21.72C19.5913 22.0529 20.3402 22.2193 20.6731 21.6368Z" fill="#0587D6"/>
<path fill-rule="evenodd" clip-rule="evenodd" d="M19.4243 21.3037L18.8418 21.2205L17.6768 20.8877C15.0971 19.9723 13.1831 18.4744 11.0195 16.394C9.02232 14.2304 7.44122 12.3164 6.52584 9.73674L6.19298 8.65489L6.10976 8.32206C5.94333 7.4899 6.02655 7.4899 6.10976 7.4899L7.94052 6.4081C8.19017 6.24167 8.27337 6.32489 8.4398 6.4081L10.7699 8.73814C10.8531 8.82136 10.8531 8.82137 10.8531 8.90458L10.7699 9.15422L9.4384 11.3178C9.35519 11.4842 9.35518 11.5675 9.35518 11.8171C9.60483 13.315 11.0195 14.6465 11.9349 15.6451C12.8503 16.5604 14.5146 18.1415 15.7628 18.308C15.9293 18.308 16.0125 18.3079 16.2621 18.2247L18.4257 16.8933L18.6754 16.8101L18.8418 16.8933L21.1719 19.2233C21.2551 19.3066 21.3383 19.3898 21.1719 19.7227L20.09 21.5534C20.0068 21.3037 19.8404 21.3037 19.4243 21.3037Z" fill="#00A2E5"/>
</svg>
