<svg width="184" height="182" viewBox="0 0 184 182" fill="none" xmlns="http://www.w3.org/2000/svg">
<path d="M85.0689 15.8638C40.3819 15.8638 4.19727 52.2461 4.19727 96.7353C4.19727 141.422 40.3819 177.805 85.0689 177.805C129.756 177.805 165.941 141.422 165.941 96.7353C165.941 52.0483 129.756 15.8638 85.0689 15.8638Z" stroke="#0587D6" stroke-width="3.31079" stroke-miterlimit="10" stroke-linecap="round" stroke-linejoin="round"/>
<path fill-rule="evenodd" clip-rule="evenodd" d="M109.786 108.401V100.097C99.8991 96.7352 89.4194 94.7579 78.3465 93.5715L101.481 4.39526H79.9284C75.5784 4.39526 71.2282 7.55895 68.46 10.9204L5.58182 83.685L4.79097 84.6736C4.19778 88.6282 4 92.5828 4 96.7351C4 110.576 7.36139 123.429 13.491 134.699L13.8865 134.897C46.7097 127.186 78.742 118.485 109.786 108.401Z" fill="white" stroke="#0587D6" stroke-width="1.48298" stroke-miterlimit="10"/>
<path d="M33.2637 51.6527L68.4596 10.9204C71.4256 7.55895 75.578 4.39526 79.9281 4.39526H101.481L78.3461 93.5715C89.419 94.7579 99.8988 96.7352 109.785 100.097V108.401" stroke="white" stroke-width="7.9092" stroke-miterlimit="10" stroke-linecap="round" stroke-linejoin="round"/>
<path fill-rule="evenodd" clip-rule="evenodd" d="M21.4002 133.118L43.3483 107.61H39.3937L34.4505 105.831L46.7097 103.656L88.0353 55.6075L101.481 4H79.9284C75.5784 4 71.2282 7.16369 68.46 10.5251L5.58182 83.6852L4.79097 84.6738C4.19778 88.6284 4 92.583 4 96.7353C4 110.576 7.36139 123.429 13.491 134.7L13.8865 134.897C16.457 134.304 19.0275 133.711 21.4002 133.118Z" fill="white"/>
<path d="M88.2334 177.607C128.373 176.025 160.998 145.179 165.348 105.831" stroke="white" stroke-width="6.62139" stroke-miterlimit="10" stroke-linecap="round" stroke-linejoin="round"/>
<path d="M100.493 4.79102L76.5673 5.58195C76.5673 5.58195 69.0535 9.14109 61.9352 18.4344C54.8169 27.7277 6.3731 83.4875 6.3731 83.4875C6.3731 83.4875 -0.745232 112.949 14.48 134.304L108.797 108.402L109.193 100.492L78.3468 92.5831L100.493 4.79102Z" fill="#00A2E5"/>
<path d="M98.1195 13.4912L86.2557 13.6889L56.7939 82.4989L80.3238 82.6967L98.1195 13.4912Z" fill="#83D9F4"/>
<path d="M85.0693 177.805C129.756 177.805 165.941 141.422 165.941 96.7354" stroke="#0587D6" stroke-width="3.31079" stroke-miterlimit="10" stroke-linecap="round" stroke-linejoin="round"/>
<path d="M5.58203 83.685L68.4602 10.9204C71.4261 7.55895 75.5786 4.39526 79.9286 4.39526H101.481L78.3467 93.5715C89.4196 94.7579 99.8993 96.7352 109.786 100.097V108.401C78.7422 118.485 46.7099 126.988 13.8867 134.897" stroke="#0587D6" stroke-width="3.31079" stroke-miterlimit="10" stroke-linecap="round" stroke-linejoin="round"/>
<path d="M77.5557 92.7808C62.9237 91.3967 34.4505 91.0012 4.79102 91.0012" stroke="#0587D6" stroke-width="1.68664" stroke-miterlimit="10" stroke-linecap="round" stroke-linejoin="round"/>
<path d="M80.917 107.611L100.69 97.7241H80.917L73.0078 99.306" stroke="#00A2E5" stroke-width="4.99723" stroke-miterlimit="10" stroke-linecap="round" stroke-linejoin="round"/>
<path d="M37.0205 105.831L80.5211 98.1194L98.119 98.3171L81.1143 107.413L40.1841 107.215L37.0205 105.831Z" fill="#83D9F4"/>
<path d="M100.69 97.7241H80.9173L34.6484 106.029L39.5917 107.611H80.9173L100.69 97.7241Z" stroke="#0587D6" stroke-width="1.68664" stroke-miterlimit="10" stroke-linecap="round" stroke-linejoin="round"/>
<path d="M10.9206 64.1099C6.57049 74.1941 4 85.0692 4 96.7353C4 114.926 9.93186 131.536 20.0161 145.179" stroke="white" stroke-width="6.62139" stroke-miterlimit="10" stroke-linecap="round" stroke-linejoin="round"/>
<path d="M13.8865 57.9805C7.55914 69.4488 4 82.6967 4 96.7355C4 116.706 11.1183 135.095 23.1798 149.134" stroke="#0587D6" stroke-width="3.31079" stroke-miterlimit="10" stroke-linecap="round" stroke-linejoin="round"/>
<path d="M99.1081 13.4912H85.8603L56.0029 82.8944H80.917" stroke="#0587D6" stroke-width="1.68664" stroke-miterlimit="10" stroke-linecap="round" stroke-linejoin="round"/>
<path d="M96.5381 173.455L90.804 161.393C93.3745 160.207 94.5609 157.043 93.3745 154.275C92.1881 151.506 89.0243 150.518 86.2561 151.704L80.522 139.643C79.9288 138.259 80.522 136.874 81.9061 136.084L159.021 100.097C160.405 99.5035 161.789 100.097 162.58 101.481L168.314 113.542C165.744 114.729 164.557 117.892 165.744 120.661C166.93 123.231 170.094 124.418 172.862 123.231L178.596 135.293C179.189 136.677 178.596 138.061 177.41 138.852L99.8995 174.839C98.7132 175.432 96.9336 175.036 96.5381 173.455Z" stroke="white" stroke-width="7.10681" stroke-miterlimit="79.8403" stroke-linecap="round" stroke-linejoin="round"/>
<path fill-rule="evenodd" clip-rule="evenodd" d="M96.5381 173.455L90.804 161.393C93.3745 160.207 94.5609 157.043 93.3745 154.275C92.1881 151.506 89.0243 150.518 86.2561 151.704L80.522 139.643C79.9288 138.259 80.522 136.874 81.9061 136.084L159.021 100.097C160.405 99.5035 161.789 100.097 162.58 101.481L168.314 113.542C165.744 114.729 164.557 117.892 165.744 120.661C166.93 123.231 170.094 124.418 172.862 123.231L178.596 135.293C179.189 136.677 178.596 138.061 177.41 138.852L99.8995 174.839C98.7132 175.432 96.9336 175.036 96.5381 173.455Z" fill="white"/>
<path d="M96.5381 173.455L90.804 161.393C93.3745 160.207 94.5609 157.043 93.3745 154.275C92.1881 151.506 89.0243 150.518 86.2561 151.704L80.522 139.643C79.9288 138.259 80.522 136.874 81.9061 136.084L159.021 100.097C160.405 99.5035 161.789 100.097 162.58 101.481L168.314 113.542C165.744 114.729 164.557 117.892 165.744 120.661C166.93 123.231 170.094 124.418 172.862 123.231L178.596 135.293C179.189 136.677 178.596 138.061 177.41 138.852L99.8995 174.839C98.7132 175.432 96.9336 175.036 96.5381 173.455Z" stroke="#0587D6" stroke-width="3.55341" stroke-miterlimit="79.8403" stroke-linecap="round" stroke-linejoin="round"/>
<path d="M149.728 109.588L150.321 111.367" stroke="#0587D6" stroke-width="1.7766" stroke-miterlimit="79.8403" stroke-linecap="round" stroke-linejoin="round"/>
<path d="M152.299 114.135L152.892 115.915" stroke="#0587D6" stroke-width="1.7766" stroke-miterlimit="79.8403" stroke-linecap="round" stroke-linejoin="round"/>
<path d="M154.275 118.881L154.869 120.661" stroke="#0587D6" stroke-width="1.7766" stroke-miterlimit="79.8403" stroke-linecap="round" stroke-linejoin="round"/>
<path d="M156.648 123.824L157.242 125.604" stroke="#0587D6" stroke-width="1.7766" stroke-miterlimit="79.8403" stroke-linecap="round" stroke-linejoin="round"/>
<path d="M158.823 128.57L159.416 130.349" stroke="#0587D6" stroke-width="1.7766" stroke-miterlimit="79.8403" stroke-linecap="round" stroke-linejoin="round"/>
<path d="M160.998 133.315L161.591 135.095" stroke="#0587D6" stroke-width="1.7766" stroke-miterlimit="79.8403" stroke-linecap="round" stroke-linejoin="round"/>
<path d="M163.174 138.456L163.767 140.236" stroke="#0587D6" stroke-width="1.7766" stroke-miterlimit="79.8403" stroke-linecap="round" stroke-linejoin="round"/>
<path d="M157.043 137.665L146.958 116.113C146.365 114.333 144.388 113.74 142.806 114.333L93.5713 137.072C91.7917 137.665 91.1986 139.643 91.7918 141.225L101.876 162.777C102.469 164.557 104.446 165.15 106.028 164.557L155.263 141.818C157.24 141.225 157.636 139.247 157.043 137.665Z" stroke="#0587D6" stroke-width="1.7766" stroke-miterlimit="79.8403" stroke-linecap="round" stroke-linejoin="round"/>
<path d="M109.786 149.529L142.016 134.502" stroke="#0587D6" stroke-width="1.7766" stroke-miterlimit="79.8403" stroke-linecap="round" stroke-linejoin="round"/>
<path d="M89.4189 175.432V162.184C92.1872 162.184 94.9554 159.811 94.9554 156.845C94.9554 154.077 92.5826 151.506 89.4189 151.506V138.456C89.4189 137.072 90.6053 135.886 91.9894 135.886H177.211C178.595 135.886 179.782 137.072 179.782 138.456V151.704C177.013 151.704 174.245 154.077 174.245 157.043C174.245 159.811 176.618 162.382 179.782 162.382V175.629C179.782 177.014 178.595 178.2 177.211 178.2H91.9894C90.6053 178.002 89.4189 176.618 89.4189 175.432Z" stroke="white" stroke-width="7.10681" stroke-miterlimit="79.8403" stroke-linecap="round" stroke-linejoin="round"/>
<path fill-rule="evenodd" clip-rule="evenodd" d="M89.4189 175.432V162.184C92.1872 162.184 94.9554 159.811 94.9554 156.845C94.9554 154.077 92.5826 151.506 89.4189 151.506V138.456C89.4189 137.072 90.6053 135.886 91.9894 135.886H177.211C178.595 135.886 179.782 137.072 179.782 138.456V151.704C177.013 151.704 174.245 154.077 174.245 157.043C174.245 159.811 176.618 162.382 179.782 162.382V175.629C179.782 177.014 178.595 178.2 177.211 178.2H91.9894C90.6053 178.002 89.4189 176.618 89.4189 175.432Z" fill="white"/>
<path d="M89.4189 175.432V162.184C92.1872 162.184 94.9554 159.811 94.9554 156.845C94.9554 154.077 92.5826 151.506 89.4189 151.506V138.456C89.4189 137.072 90.6053 135.886 91.9894 135.886H177.211C178.595 135.886 179.782 137.072 179.782 138.456V151.704C177.013 151.704 174.245 154.077 174.245 157.043C174.245 159.811 176.618 162.382 179.782 162.382V175.629C179.782 177.014 178.595 178.2 177.211 178.2H91.9894C90.6053 178.002 89.4189 176.618 89.4189 175.432Z" stroke="#0587D6" stroke-width="3.55341" stroke-miterlimit="79.8403" stroke-linecap="round" stroke-linejoin="round"/>
<path d="M164.951 139.643V141.62" stroke="#0587D6" stroke-width="1.7766" stroke-miterlimit="79.8403" stroke-linecap="round" stroke-linejoin="round"/>
<path d="M164.951 145.179V147.156" stroke="#0587D6" stroke-width="1.7766" stroke-miterlimit="79.8403" stroke-linecap="round" stroke-linejoin="round"/>
<path d="M164.951 150.518V152.495" stroke="#0587D6" stroke-width="1.7766" stroke-miterlimit="79.8403" stroke-linecap="round" stroke-linejoin="round"/>
<path d="M164.951 156.054V158.031" stroke="#0587D6" stroke-width="1.7766" stroke-miterlimit="79.8403" stroke-linecap="round" stroke-linejoin="round"/>
<path d="M164.951 160.998V162.975" stroke="#0587D6" stroke-width="1.7766" stroke-miterlimit="79.8403" stroke-linecap="round" stroke-linejoin="round"/>
<path d="M164.951 166.534V168.511" stroke="#0587D6" stroke-width="1.7766" stroke-miterlimit="79.8403" stroke-linecap="round" stroke-linejoin="round"/>
<path d="M164.951 171.873V173.85" stroke="#0587D6" stroke-width="1.7766" stroke-miterlimit="79.8403" stroke-linecap="round" stroke-linejoin="round"/>
<path d="M105.435 171.873H153.088C156.647 171.873 159.415 169.104 159.415 165.545V147.947C159.415 144.388 156.647 141.62 153.088 141.62H105.435C101.876 141.62 99.1074 144.388 99.1074 147.947V165.545C99.1074 168.907 102.073 171.873 105.435 171.873Z" stroke="#0587D6" stroke-width="1.7766" stroke-miterlimit="79.8403" stroke-linecap="round" stroke-linejoin="round"/>
<path d="M114.926 154.077H143.399" stroke="#0587D6" stroke-width="1.7766" stroke-miterlimit="79.8403" stroke-linecap="round" stroke-linejoin="round"/>
<path d="M111.763 159.613H147.156" stroke="#0587D6" stroke-width="1.7766" stroke-miterlimit="79.8403" stroke-linecap="round" stroke-linejoin="round"/>
</svg>
