<svg width="143" height="142" viewBox="0 0 143 142" fill="none" xmlns="http://www.w3.org/2000/svg">
<path d="M72 2.00012C110.205 2.00012 141 32.9596 141 71.0001C141 109.041 110.041 140 72 140" stroke="#0587D6" stroke-width="2.81714" stroke-miterlimit="79.8403" stroke-linecap="round" stroke-linejoin="round"/>
<path fill-rule="evenodd" clip-rule="evenodd" d="M22.432 119.086H128.484V116.286C127.002 116.286 125.685 114.969 125.685 113.487V103.606C125.685 102.124 127.002 100.807 128.484 100.807V97.8425C127.002 97.8425 125.685 96.525 125.685 95.0429V85.3269C125.685 83.8448 127.002 82.5274 128.484 82.5274V79.7279H117.286C115.804 79.7279 114.487 78.4105 114.487 76.9284V67.2124C114.487 65.7303 115.804 64.4129 117.286 64.4129V61.6133C115.804 61.6133 114.487 60.2959 114.487 58.8138V49.0978C114.487 47.6157 115.804 46.2983 117.286 46.2983V43.4988H56.8496C55.3675 43.4988 54.0501 42.1814 54.0501 40.6993V30.4892C54.0501 29.6658 54.3795 29.0071 54.8735 28.3484L55.3676 28.0191V24.8902H21.2792C23.0907 22.7494 25.0668 20.9379 27.043 19.2911H58.1671C59.6492 19.2911 60.9666 20.6086 60.9666 22.0907V30.4892C60.9666 31.3126 60.6372 31.9713 60.1432 32.63L59.6492 32.9594V37.7351H120.086C121.568 37.7351 122.885 39.0525 122.885 40.5346V48.9331C122.885 50.4152 121.568 51.7327 120.086 51.7327V55.8496C121.568 55.8496 122.885 57.167 122.885 58.6491V67.0477C122.885 68.5298 121.568 69.8472 120.086 69.8472V73.9642H131.284C132.766 73.9642 134.084 75.2816 134.084 76.7637V85.1623C134.084 86.6444 132.766 87.9618 131.284 87.9618V92.0787C132.766 92.0787 134.084 93.3962 134.084 94.8783V103.277C134.084 104.759 132.766 106.076 131.284 106.076V110.193C132.766 110.193 134.084 111.511 134.084 112.993V121.391C134.084 122.873 132.766 124.191 131.284 124.191H28.5251C26.3843 122.873 24.2434 120.897 22.432 119.086ZM3 71.1646C3 68.8592 3.16467 66.883 3.32935 64.7422C4.15274 65.2362 4.48209 66.0596 4.48209 67.0477V76.7637C4.48209 77.5871 4.15275 78.4105 3.49404 78.9045C3.16468 76.2697 3 73.7995 3 71.1646ZM4.31743 57.3317V58.4845C4.31743 58.9785 4.15274 59.6372 3.82339 60.1312C3.98807 59.1432 4.15275 58.1551 4.31743 57.3317Z" fill="white"/>
<path fill-rule="evenodd" clip-rule="evenodd" d="M3 71.1647C3 51.8974 10.9045 34.2769 23.5847 21.7614H57.8377V30.1599H56.3556V40.0406H119.757V48.4392H116.957V58.1551H119.757V66.5537H116.957V76.2697H131.119V84.6683H128.32V94.3843H131.119V102.783H128.32V112.499H131.119V120.897H25.2315C11.5632 109.041 3 91.0907 3 71.1647Z" fill="#85DBF6"/>
<path fill-rule="evenodd" clip-rule="evenodd" d="M12.8809 106.735V35.7592C14.0336 33.9477 15.1863 32.1363 16.5038 30.4895H28.5253V122.215H25.3964C20.2914 117.439 16.1744 112.334 12.8809 106.735Z" fill="#00A2E5"/>
<path fill-rule="evenodd" clip-rule="evenodd" d="M11.5625 104.265V37.8997C11.8919 37.0763 12.5506 36.253 13.0446 35.4296V106.406C12.3859 105.747 11.8919 104.924 11.5625 104.265Z" fill="#0587D6"/>
<path fill-rule="evenodd" clip-rule="evenodd" d="M28.3604 121.062V30.9834C28.3604 30.6541 28.6897 30.16 29.1837 30.16C29.5131 30.16 30.0071 30.4894 30.0071 30.9834V121.062C30.0071 121.392 29.6778 121.886 29.1837 121.886C28.525 121.886 28.3604 121.556 28.3604 121.062Z" fill="#0587D6"/>
<path fill-rule="evenodd" clip-rule="evenodd" d="M49.4385 121.886V30.16H56.5196V40.0407H64.9182V121.721C65.0829 121.886 49.4385 121.886 49.4385 121.886Z" fill="#00A2E5"/>
<path fill-rule="evenodd" clip-rule="evenodd" d="M48.1211 121.062V30.9834C48.1211 30.6541 48.4504 30.16 48.9445 30.16C49.4385 30.16 49.7679 30.4894 49.7679 30.9834V121.062C49.7679 121.392 49.4385 121.886 48.9445 121.886C48.2858 121.886 48.1211 121.556 48.1211 121.062Z" fill="#0587D6"/>
<path fill-rule="evenodd" clip-rule="evenodd" d="M55.0381 40.5347V30.16C55.0381 30.16 55.3674 30.16 55.8615 30.16C56.1908 30.16 56.6849 30.16 56.6849 30.16V40.6994C56.6849 40.6994 56.3555 40.6994 55.8615 40.6994C55.3674 40.6994 55.0381 40.6994 55.0381 40.5347Z" fill="#0587D6"/>
<path fill-rule="evenodd" clip-rule="evenodd" d="M65.084 121.062V40.2052C65.084 39.8759 65.4133 39.3818 65.9074 39.3818C66.2367 39.3818 66.7308 39.7112 66.7308 40.2052V121.227C66.7308 121.556 66.4014 122.05 65.9074 122.05C65.2487 121.885 65.084 121.556 65.084 121.062Z" fill="#0587D6"/>
<path fill-rule="evenodd" clip-rule="evenodd" d="M90.4443 121.886V44.3223H106.089V121.886C105.924 121.886 90.4443 121.886 90.4443 121.886Z" fill="#00A2E5"/>
<path fill-rule="evenodd" clip-rule="evenodd" d="M88.7979 121.062V45.1457C88.7979 44.8163 89.1272 44.3223 89.6212 44.3223C90.1153 44.3223 90.4446 44.6516 90.4446 45.1457V121.227C90.4446 121.556 90.1153 122.05 89.6212 122.05C89.1272 122.05 88.7979 121.556 88.7979 121.062Z" fill="#0587D6"/>
<path fill-rule="evenodd" clip-rule="evenodd" d="M105.759 121.062V45.1457C105.759 44.8163 106.088 44.3223 106.582 44.3223C106.912 44.3223 107.406 44.6516 107.406 45.1457V121.227C107.406 121.556 107.076 122.05 106.582 122.05C106.088 121.886 105.759 121.556 105.759 121.062Z" fill="#0587D6"/>
<path fill-rule="evenodd" clip-rule="evenodd" d="M23.7494 21.7614H58.0023V30.1599H16.3389C18.6444 27.1957 21.1145 24.3962 23.7494 21.7614Z" fill="white"/>
<path fill-rule="evenodd" clip-rule="evenodd" d="M10.41 40.2051H119.921V48.6037H6.78711C7.77518 45.6395 9.09259 42.8399 10.41 40.2051Z" fill="white"/>
<path fill-rule="evenodd" clip-rule="evenodd" d="M4.15211 58.4845H119.921V66.8831H3.16406C3.16406 64.0835 3.65808 61.284 4.15211 58.4845Z" fill="white"/>
<path fill-rule="evenodd" clip-rule="evenodd" d="M3.16406 76.7634H131.119V85.162H4.3168C3.82277 82.5271 3.32874 79.563 3.16406 76.7634Z" fill="white"/>
<path fill-rule="evenodd" clip-rule="evenodd" d="M7.28125 95.0432H131.284V103.442H11.2335C9.58673 100.807 8.26932 98.0074 7.28125 95.0432Z" fill="white"/>
<path fill-rule="evenodd" clip-rule="evenodd" d="M17.4912 113.487H131.119V121.886H25.2311C22.4315 119.251 19.7967 116.451 17.4912 113.487Z" fill="white"/>
<path fill-rule="evenodd" clip-rule="evenodd" d="M17.4911 28.8427H56.5197V23.2436H22.2667C23.2548 22.2555 24.0781 21.4322 25.0662 20.4441H57.6724C58.4958 20.4441 59.1545 20.9381 59.1545 21.9262V30.1601C59.1545 30.9835 58.6605 31.6422 57.6724 31.6422H15.1855C16.0089 30.6541 16.6677 29.666 17.4911 28.8427Z" fill="#0587D6"/>
<path fill-rule="evenodd" clip-rule="evenodd" d="M7.28167 47.122H118.439V41.5229H9.58715C9.91651 40.5348 10.5752 39.7115 11.0692 38.7234H119.757C120.58 38.7234 121.239 39.2174 121.239 40.2055V48.6041C121.239 49.4274 120.745 50.0861 119.757 50.0861H6.12891C6.62294 49.0981 6.95232 48.11 7.28167 47.122Z" fill="#0587D6"/>
<path fill-rule="evenodd" clip-rule="evenodd" d="M3.16499 65.4009H118.439V59.8018H3.82369C3.98837 58.8138 4.15305 57.9904 4.31773 57.0023H120.086C120.91 57.0023 121.568 57.4964 121.568 58.4844V66.883C121.568 67.7064 121.074 68.3651 120.086 68.3651H3.16499C3.00031 67.2123 3.16499 66.2243 3.16499 65.4009Z" fill="#0587D6"/>
<path fill-rule="evenodd" clip-rule="evenodd" d="M4.15211 83.8449H129.801V78.0811H3.32873C3.32873 77.0931 3.16406 76.2697 3.16406 75.2816H131.283C132.107 75.2816 132.766 75.7757 132.766 76.7637V85.1623C132.766 85.9857 132.271 86.6444 131.283 86.6444H4.81084C4.48149 85.6563 4.31679 84.6682 4.15211 83.8449Z" fill="#0587D6"/>
<path fill-rule="evenodd" clip-rule="evenodd" d="M10.41 102.124H129.801V96.525H7.93985C7.61049 95.5369 7.11647 94.7135 6.78711 93.7255H131.119C131.942 93.7255 132.601 94.2195 132.601 95.2076V103.606C132.601 104.43 132.107 105.088 131.119 105.088H11.8921C11.2334 104.1 10.7394 103.112 10.41 102.124Z" fill="#0587D6"/>
<path fill-rule="evenodd" clip-rule="evenodd" d="M23.7494 120.403H129.802V114.804H18.6443C17.821 113.816 17.1623 112.993 16.3389 112.005H131.119C131.943 112.005 132.601 112.499 132.601 113.487V121.885C132.601 122.709 132.107 123.368 131.119 123.368H26.7135C25.7255 122.215 24.5728 121.391 23.7494 120.403Z" fill="#0587D6"/>
<path fill-rule="evenodd" clip-rule="evenodd" d="M115.805 57.1671V50.086C115.805 49.2626 116.299 48.6039 117.287 48.6039C118.11 48.6039 118.769 49.0979 118.769 50.086V57.1671C118.769 57.9905 118.275 58.6492 117.287 58.6492C116.299 58.4845 115.805 57.8258 115.805 57.1671Z" fill="#0587D6"/>
<path fill-rule="evenodd" clip-rule="evenodd" d="M115.805 75.2816V68.2005C115.805 67.3771 116.299 66.7184 117.287 66.7184C118.11 66.7184 118.769 67.2124 118.769 68.2005V75.2816C118.769 76.105 118.275 76.7637 117.287 76.7637C116.299 76.7637 115.805 76.105 115.805 75.2816Z" fill="#0587D6"/>
<path fill-rule="evenodd" clip-rule="evenodd" d="M127.002 93.7254V86.6442C127.002 85.8208 127.496 85.1621 128.484 85.1621C129.307 85.1621 129.966 85.6561 129.966 86.6442V93.7254C129.966 94.5487 129.472 95.2075 128.484 95.2075C127.496 95.0428 127.002 94.5487 127.002 93.7254Z" fill="#0587D6"/>
<path fill-rule="evenodd" clip-rule="evenodd" d="M127.002 112.005V104.924C127.002 104.1 127.496 103.442 128.484 103.442C129.307 103.442 129.966 103.936 129.966 104.924V112.005C129.966 112.828 129.472 113.487 128.484 113.487C127.496 113.487 127.002 112.663 127.002 112.005Z" fill="#0587D6"/>
<path d="M35.1122 129.461C15.8449 117.275 3 95.7019 3 71.0002C3.32936 38.888 25.8902 11.0575 54.2148 3.81165" stroke="white" stroke-width="5.63445" stroke-miterlimit="79.8403" stroke-linecap="round" stroke-linejoin="round"/>
<path d="M72 140.165C33.7947 140.165 3 109.205 3 71.1647C3 33.1241 33.7947 2 72 2" stroke="#0587D6" stroke-width="2.81714" stroke-miterlimit="79.8403" stroke-linecap="round" stroke-linejoin="round"/>
<path d="M132.766 57.0022H15.6797V86.6442H132.766V57.0022Z" fill="white"/>
<path d="M132.766 56.8376H15.6797V86.4797H132.766V56.8376Z" stroke="white" stroke-width="5.63445" stroke-miterlimit="79.8403" stroke-linecap="round" stroke-linejoin="round"/>
<path d="M132.766 56.8376H15.6797V86.4797H132.766V56.8376Z" stroke="#0587D6" stroke-width="2.81714" stroke-miterlimit="79.8403" stroke-linecap="round" stroke-linejoin="round"/>
<path d="M33.6299 77.2577C32.3125 77.2577 31.1597 76.9283 30.501 75.9403C29.6776 74.9522 29.3483 73.7995 29.1836 72.482C29.1836 71.494 29.3483 70.8353 29.513 70.0119C29.6776 69.1885 30.007 68.6944 30.6657 68.2004C30.9951 67.7064 31.6538 67.2123 32.3125 66.883C32.8065 66.5536 33.4652 66.5536 34.1239 66.5536C34.7826 66.5536 35.4414 66.7183 35.9354 66.883C36.4294 67.2123 37.0881 67.7064 37.4175 68.2004C37.7468 68.6944 38.2409 69.3532 38.5702 70.0119C38.7349 70.8353 38.8996 71.494 38.8996 72.3173C38.8996 73.4701 38.7349 74.4582 38.4056 75.1169C38.0762 75.9403 37.4175 76.4343 36.7588 76.7637C36.1001 77.093 35.2767 77.2577 34.4533 77.2577H33.6299ZM33.7946 73.9641H34.618C35.4414 73.9641 35.7707 73.7994 36.1001 73.4701C36.4294 73.1407 36.5941 72.6467 36.5941 71.988C36.5941 70.9999 36.4294 70.5059 35.7707 69.8472C35.4414 69.3531 34.7826 69.0238 34.1239 69.0238C33.7946 69.0238 33.1359 69.1885 32.8065 69.3531C32.4772 69.5178 31.9831 70.1765 31.8184 70.5059C31.6538 70.8352 31.4891 71.494 31.4891 71.8233C31.4891 72.3173 31.6538 72.9761 31.9831 73.3054C32.4772 73.7995 33.1359 73.9641 33.7946 73.9641ZM45.6514 77.2577C44.334 77.2577 43.1812 76.9283 42.6872 76.1049C41.8638 75.2815 41.6991 74.2935 41.6991 72.9761V72.1527C41.6991 71.988 41.6991 71.8233 41.8638 71.6586C42.0285 71.494 42.1931 71.494 42.3578 71.494H43.6752C43.8399 71.494 44.0046 71.494 44.0046 71.6586C44.1693 71.8233 44.1693 71.8233 44.1693 72.1527V72.6467C44.1693 72.9761 44.334 73.4701 44.4986 73.6348C44.6633 73.7994 44.9927 73.7994 45.4867 73.7994H47.7922C48.6156 73.7994 49.1096 73.7994 49.439 73.4701C49.7683 73.3054 49.933 72.9761 49.933 72.3173C49.933 72.1527 49.933 71.988 49.933 71.8233C49.933 71.6586 49.7683 71.494 49.7683 70.9999L47.9569 66.0596C47.9569 65.8949 47.7922 65.5656 47.7922 65.2362C47.7922 65.0715 47.9569 64.9068 48.1215 64.9068L49.439 64.4128C49.6036 64.4128 49.7683 64.2481 49.933 64.4128C50.0977 64.5775 50.0977 64.5775 50.2624 64.7422L52.5679 70.6706C52.8972 71.494 53.0619 72.1527 53.3913 72.482C53.5559 72.8114 53.8853 73.3054 54.3793 73.3054C54.7087 73.4701 55.038 73.6348 55.3674 73.6348C55.5321 73.6348 55.6967 73.6348 55.8614 73.6348V75.7756C55.8614 76.2696 56.0261 76.9283 55.3674 76.9283C54.544 76.9283 53.7206 76.4343 52.8972 76.1049C52.0738 75.7756 51.5798 75.1169 51.0857 74.2935C50.9211 75.1169 50.2624 75.6109 49.7683 76.1049C48.9449 76.4343 48.1215 76.9283 46.9688 76.9283L45.8161 77.093L45.6514 77.2577ZM62.9425 77.2577C62.1192 77.2577 61.6251 77.093 60.9664 76.9283C60.143 76.7636 59.8137 76.1049 59.4843 75.2815C59.155 76.1049 58.4963 76.599 57.8375 76.7637C57.0142 76.9283 56.3554 77.093 55.532 77.093C55.3674 77.093 55.2027 76.9283 55.2027 76.7637V74.6228C55.2027 74.1288 55.3674 73.7994 56.0261 73.7994C57.0142 73.7994 57.5082 73.6348 57.8375 73.4701C58.1669 73.1407 58.3316 72.482 58.3316 71.8233V69.8472C58.3316 69.6825 58.3316 69.5178 58.4963 69.5178C58.6609 69.3531 58.6609 69.3531 58.8256 69.3531H60.3077C60.6371 69.3531 60.8018 69.5178 60.8018 69.8472V71.6586C60.8018 72.482 60.9664 72.9761 61.2958 73.3054C61.6251 73.6348 62.2838 73.7994 62.9425 73.7994C63.6013 73.7994 64.26 73.6348 64.5893 73.3054C64.754 72.9761 64.9187 72.3174 64.9187 71.6586V69.8472C64.9187 69.6825 64.9187 69.5178 65.0834 69.3531C65.0834 69.1885 65.248 69.1885 65.4127 69.1885H66.8948C67.0595 69.1885 67.2242 69.1885 67.2242 69.3531C67.2242 69.5178 67.3889 69.6825 67.3889 69.8472V71.6586C67.3889 72.482 67.5535 72.9761 67.8829 73.3054C68.2122 73.6348 68.8709 73.7994 69.5297 73.7994C70.1884 73.7994 70.6824 73.6348 71.0118 73.3054C71.3411 72.9761 71.3411 72.3173 71.3411 71.8233C71.3411 71.6586 71.3411 71.494 71.3411 71.3293C71.3411 71.1646 71.3411 70.9999 71.1764 70.8353L70.6824 69.0238C70.6824 68.8591 70.6824 68.6944 70.6824 68.5298C70.6824 68.3651 70.8471 68.3651 71.0118 68.3651L72.4939 68.0357C72.6585 68.0357 72.8232 68.0357 72.9879 68.0357C73.1526 68.0357 73.1526 68.2004 73.1526 68.3651L73.4819 70.0119C73.4819 70.3412 73.6466 70.9999 73.6466 71.3293C73.6466 71.6586 73.6466 72.1527 73.6466 72.482C73.6466 73.4701 73.4819 74.2935 73.1526 75.1169C72.8232 75.9403 72.1645 76.4343 71.6705 76.7637C70.8471 77.093 70.1884 77.2577 69.0356 77.2577C68.2123 77.2577 67.5535 77.093 66.8948 76.9283C66.0714 76.7636 65.7421 76.1049 65.4127 75.6109C65.248 75.9403 65.0834 76.4343 64.5893 76.599C64.26 76.7637 63.7659 76.9283 63.4366 77.093C63.4366 77.093 63.2719 77.093 63.1072 77.2577H62.9425ZM66.8948 63.2601C66.7302 63.4247 66.7302 63.4248 66.5655 63.4248C66.4008 63.4248 66.4008 63.4247 66.2361 63.2601L65.2481 62.1073C65.0834 61.9426 65.0834 61.778 65.2481 61.6133L66.2361 60.4605C66.4008 60.2959 66.5655 60.2959 66.7301 60.4605L67.7182 61.6133C67.8829 61.778 67.8829 61.9426 67.7182 62.4367L66.8948 63.2601ZM65.0834 66.5536C65.0834 66.7183 64.9187 66.7183 64.754 66.7183C64.5893 66.7183 64.5893 66.7183 64.4247 66.5536L63.2719 65.4009C63.2719 65.2362 63.1072 65.2362 63.1072 65.0715C63.1072 64.9069 63.1072 64.9068 63.2719 64.7422L64.4247 63.5894C64.5893 63.4247 64.754 63.4247 65.2481 63.5894L66.4008 64.7422C66.5655 64.9068 66.5655 64.9069 66.5655 65.0715C66.5655 65.2362 66.5655 65.2362 66.4008 65.4009L65.0834 66.5536ZM69.0356 66.5536C68.871 66.7183 68.8709 66.7183 68.7063 66.7183C68.5416 66.7183 68.5416 66.7183 68.3769 66.5536L67.2242 65.4009C67.2242 65.2362 67.0595 65.2362 67.0595 65.0715C67.0595 64.9069 67.0595 64.9068 67.2242 64.7422L68.3769 63.5894C68.5416 63.4247 68.7063 63.4247 69.2003 63.5894L70.3531 64.7422C70.5177 64.9068 70.5177 64.9069 70.5177 65.0715C70.5177 65.2362 70.5177 65.2362 70.3531 65.4009L69.0356 66.5536ZM83.8567 83.1861C83.692 83.1861 83.3626 83.1861 83.0333 83.0214C82.8686 82.8567 82.8686 82.692 82.8686 82.198V80.8806C82.8686 80.7159 82.8686 80.5512 83.0333 80.3866C83.1979 80.2219 83.3626 80.2219 83.8567 80.2219H85.6681C86.9855 80.2219 88.1383 80.0572 88.797 79.3985C89.4557 78.7398 90.1144 78.0811 90.4438 77.093C90.7731 76.1049 90.7731 74.7875 90.7731 73.3054H93.0786C93.0786 75.6109 92.9139 77.4224 92.2552 78.7398C91.7612 80.2219 90.9378 81.3746 89.6204 81.8687C88.4676 82.692 86.9855 83.0214 85.1741 83.0214L84.5154 83.1861H83.8567ZM90.9378 73.3054C90.9378 72.3174 90.6084 71.6586 89.9497 70.9999C89.4557 70.5059 88.797 70.0119 88.1383 70.0119C87.8089 70.0119 87.1502 70.0119 86.9855 70.1765C86.6562 70.3412 86.4915 70.5059 86.1621 70.9999C85.9975 71.3293 85.9974 71.494 85.9974 71.988C85.9974 72.482 86.1621 72.9761 86.4915 73.1407C86.8208 73.3054 87.4796 73.4701 87.9736 73.4701C88.797 73.4701 89.291 73.3054 90.1144 73.1407C90.6084 72.9761 91.2671 72.6467 91.4318 72.3173L91.5965 74.7875C91.2671 75.1169 90.6084 75.7756 90.1144 75.9403C89.291 76.1049 88.6323 76.2696 87.8089 76.2696C86.9855 76.2696 86.1621 76.1049 85.5034 75.7756C85.0094 75.4462 84.3507 74.7875 84.186 74.2935C83.8566 73.7994 83.692 72.9761 83.692 72.1527C83.692 71.3293 83.8566 70.8352 84.0213 70.3412C84.186 69.8472 84.5154 69.1885 85.0094 68.6944C85.3387 68.3651 85.9974 67.7064 86.4915 67.5417C86.9855 67.377 87.8089 67.2123 88.6323 67.2123C89.6204 67.2123 90.4438 67.377 91.2672 68.0357C92.0905 68.3651 92.5846 69.1885 92.9139 70.1765C93.2433 71.1646 93.0786 72.482 93.0786 73.4701L90.9378 73.3054ZM94.0667 83.1861C93.902 83.1861 93.7373 83.1861 93.5726 83.0214C93.5726 82.8567 93.4079 82.8567 93.4079 82.5274V81.0453C93.4079 80.8806 93.408 80.7159 93.5726 80.5512C93.7373 80.3866 93.902 80.3866 94.0667 80.3866H94.8901C96.0428 80.3866 96.7015 80.2219 97.5249 79.8925C98.3483 79.5632 98.6776 78.7398 98.8423 78.0811C99.1717 77.2577 99.1717 76.4343 99.1717 75.4462C99.1717 74.6228 99.1717 73.7994 99.007 72.9761C98.8423 72.1527 98.6776 71.3293 98.513 70.3412C98.513 70.0119 98.513 69.8472 98.513 69.5178C98.513 69.3531 98.6777 69.3532 99.007 69.1885L100.324 68.8591C100.489 68.8591 100.654 68.8591 100.818 68.8591C100.983 69.0238 100.983 69.1885 101.148 69.6825C101.312 70.6706 101.477 71.494 101.971 72.6467C102.136 73.7994 102.301 74.7875 102.301 75.6109C102.301 77.093 102.136 78.4104 101.477 79.5632C100.983 80.7159 100.16 81.704 99.1717 82.3627C98.1836 83.1861 96.8662 83.5154 95.2194 83.5154L94.0667 83.1861ZM102.63 83.1861C102.465 83.1861 102.301 83.1861 102.136 83.0214C101.971 82.8567 101.971 82.8567 101.971 82.5274V81.0453C101.971 80.8806 101.971 80.7159 102.136 80.5512C102.301 80.3866 102.465 80.3866 102.63 80.3866H103.453C104.606 80.3866 105.265 80.2219 106.088 79.8925C106.912 79.5632 107.241 78.7398 107.406 78.0811C107.57 77.2577 107.735 76.4343 107.735 75.4462C107.735 74.6228 107.57 73.7994 107.57 72.9761C107.406 72.1527 107.241 71.3293 107.076 70.3412C107.076 70.0119 107.076 69.8472 107.076 69.5178C107.076 69.3531 107.241 69.3532 107.406 69.1885L108.888 68.8591C109.052 68.8591 109.217 68.8591 109.382 68.8591C109.546 69.0238 109.546 69.1885 109.711 69.6825C109.876 70.6706 110.04 71.494 110.534 72.6467C110.864 73.7994 110.699 74.7875 110.699 75.6109C110.699 77.093 110.534 78.4104 109.876 79.5632C109.382 80.7159 108.558 81.704 107.57 82.3627C106.418 83.1861 105.265 83.5154 103.618 83.5154L102.63 83.1861ZM108.064 66.7183C108.064 66.883 107.9 66.883 107.735 66.883C107.57 66.883 107.57 66.883 107.406 66.7183L106.253 65.5656C106.253 65.4009 106.088 65.4009 106.088 65.2362C106.088 65.0715 106.088 65.0715 106.253 64.9068L107.406 63.7541C107.406 63.7541 107.57 63.5894 107.735 63.5894C107.9 63.5894 107.9 63.5894 108.064 63.7541L109.217 64.9068C109.382 65.0715 109.382 65.4009 109.217 65.7302L108.064 66.7183ZM111.193 83.1861C111.028 83.1861 110.864 83.1861 110.699 83.0214C110.534 82.8567 110.534 82.8567 110.534 82.5274V81.0453C110.534 80.8806 110.534 80.7159 110.699 80.5512C110.864 80.3866 111.028 80.3866 111.193 80.3866H112.017C113.169 80.3866 114.157 80.2219 114.651 79.8925C115.475 79.5632 115.804 78.7398 115.969 78.0811C116.134 77.2577 116.298 76.4343 116.298 75.4462C116.298 74.6228 116.298 73.7994 116.133 72.9761C115.969 72.1527 115.804 71.3293 115.639 70.3412C115.639 70.0119 115.639 69.8472 115.639 69.5178C115.639 69.3531 115.804 69.3532 116.133 69.1885L117.451 68.8591C117.616 68.8591 117.78 68.8591 117.945 68.8591C118.11 69.0238 118.11 69.1885 118.274 69.6825C118.439 70.6706 118.604 71.494 119.098 72.6467C119.262 73.7994 119.262 74.7875 119.262 75.6109C119.262 77.093 119.098 78.4104 118.439 79.5632C117.78 80.7159 117.122 81.704 116.133 82.3627C115.145 83.1861 113.828 83.5154 112.181 83.5154L111.193 83.1861Z" fill="#0587D6"/>
<path d="M75.2936 36.7468C74.3055 36.7468 73.4821 36.5822 72.6587 36.2528C71.8354 35.9235 71.3413 35.1001 71.1766 34.4414C70.8473 33.618 70.6826 32.9593 70.6826 31.9712C70.6826 31.6418 70.6826 30.9831 70.8473 30.6538C71.012 30.3244 71.012 29.6657 71.1766 29.3363C71.1766 29.1717 71.3413 29.007 71.3413 29.007C71.3413 29.007 71.506 29.007 71.6707 29.007L72.4941 29.1717C72.6587 29.1717 72.8234 29.3363 72.8234 29.3363C72.8234 29.3363 72.8234 29.501 72.8234 29.6657C72.6587 29.9951 72.6587 30.4891 72.4941 30.8184C72.4941 31.1478 72.3294 31.3125 72.3294 31.8065C72.3294 32.3005 72.4941 32.9593 72.6587 33.2886C72.8234 33.618 73.1528 34.112 73.6468 34.4414C73.9762 34.606 74.6349 34.7707 75.2936 34.7707H75.623C76.117 34.7707 76.7757 34.606 77.2697 34.4414C77.7638 34.2767 78.2578 33.618 78.4225 33.1239C78.5871 32.6299 78.7518 31.9712 78.7518 30.9831V20.2791C78.7518 20.1144 78.7518 20.1144 78.9165 19.9497C78.9165 19.9497 79.0812 19.785 79.2459 19.785H80.3986C80.5633 19.785 80.5633 19.785 80.728 19.9497C80.728 19.9497 80.8926 20.1144 80.8926 20.2791V28.8423C80.8926 29.3363 80.8926 29.8304 81.0573 29.9951C81.222 30.1597 81.3867 30.3244 81.8807 30.4891C82.21 30.4891 82.7041 30.6538 83.0335 30.6538C83.1981 30.6538 83.1981 30.6538 83.1981 30.8184V32.3006C83.1981 32.6299 83.0334 32.7946 82.7041 32.7946C82.21 32.7946 81.716 32.7946 81.3867 32.6299C81.0573 32.4652 80.5633 32.3005 80.3986 32.1359C80.2339 33.1239 80.0692 33.7826 79.4105 34.606C79.0812 35.4294 78.2578 35.7588 77.7637 36.0881C76.9404 36.4175 76.2816 36.5822 75.2936 36.7468ZM82.7041 32.7946C82.5394 32.7946 82.5394 32.6299 82.5394 32.4652L82.7041 31.4772C82.7041 31.1478 82.8688 30.6538 83.1981 30.6538H83.5275C84.0215 30.6538 84.3509 30.6538 84.5155 30.4891C84.6802 30.3244 84.8449 29.6657 84.8449 29.007V27.3602C84.8449 27.0309 85.0096 27.0309 85.1742 27.0309H86.327C86.6564 27.0309 86.6564 27.1955 86.6564 27.3602V29.007C86.6564 29.8304 86.821 30.1597 86.9857 30.4891C87.1504 30.8184 87.9738 30.6538 88.4678 30.6538H88.7972C88.9619 30.6538 88.7972 30.8184 88.7972 30.9831V32.4652C88.7972 32.7946 88.7972 32.7946 88.4678 32.7946C87.9738 32.7946 87.1504 32.7946 86.6564 32.6299C86.1623 32.4652 85.6683 32.1359 85.3389 31.4772C85.1743 31.9712 84.8449 32.4652 84.1862 32.6299C83.6922 32.9593 83.3628 32.7946 82.7041 32.7946ZM84.6802 25.2194L84.5155 25.3841C84.3509 25.3841 84.3509 25.3841 84.3509 25.2194L83.5275 24.396L83.3628 24.2313C83.3628 24.2313 83.3628 24.0667 83.5275 24.0667L84.3509 23.2433L84.5155 23.0786C84.5155 23.0786 84.6802 23.0786 84.6802 23.2433L85.5036 24.0667L85.6683 24.2313C85.6683 24.396 85.6683 24.396 85.5036 24.396L84.6802 25.2194ZM87.3151 25.2194L87.1504 25.3841C86.9857 25.3841 86.9857 25.3841 86.9857 25.2194L86.1623 24.396L85.9976 24.2313C85.9976 24.2313 85.9976 24.0667 86.1623 24.0667L86.9857 23.2433L87.1504 23.0786C87.1504 23.0786 87.3151 23.0786 87.3151 23.2433L88.1385 24.0667L88.3031 24.2313C88.3031 24.2313 88.3031 24.396 88.1385 24.396L87.3151 25.2194ZM96.7017 33.2886C96.2077 33.2886 95.549 33.2886 94.8903 33.1239C94.3962 32.9593 93.5728 32.7946 93.0788 32.3006C92.7494 32.4652 92.2554 32.6299 91.926 32.7946C91.5967 32.9593 91.1027 32.9593 90.6086 32.9593C90.1146 32.9593 89.2912 32.9593 88.4678 32.9593C88.3031 32.9593 88.3031 32.9593 88.3031 32.7946V31.3125C88.3031 30.9831 88.4678 30.8184 88.7972 30.8184C89.2912 30.8184 89.9499 30.8184 90.2793 30.8184C90.6086 30.8184 91.1027 30.8185 91.432 30.6538C91.2673 30.4891 91.1026 30.3244 90.938 30.1597C90.7733 29.9951 90.6086 29.6657 90.444 29.3363C90.2793 29.007 90.2793 28.8423 90.2793 28.3483C90.2793 27.8542 90.4439 27.1955 90.6086 26.8662C90.938 26.5368 91.432 26.0428 91.7614 25.8781C92.2554 25.7134 92.9141 25.5488 93.4081 25.5488C93.5728 25.5488 93.7375 25.5488 93.7375 25.5488C93.9022 25.5488 93.9022 25.5488 94.0669 25.7134V26.2075L92.4201 25.0547C92.2554 25.0547 92.2554 24.8901 92.2554 24.8901C92.2554 24.7254 92.2554 24.7254 92.2554 24.7254L93.0788 23.7373C93.2435 23.5726 93.2435 23.5726 93.4081 23.5726C93.5728 23.5726 93.5728 23.5726 93.7375 23.7373L97.8545 26.7015C98.6778 27.1955 99.1719 27.8543 99.5012 28.1836C99.8306 28.6776 99.9953 29.3364 99.9953 29.8304C99.9953 30.3244 99.8306 31.1478 99.6659 31.4772C99.3365 31.9712 98.8425 32.4652 98.3485 32.7946C98.0191 33.1239 97.3604 33.2886 96.7017 33.2886ZM93.2435 29.9951C93.5728 29.8304 94.0669 29.501 94.3962 29.007C94.5609 28.6776 94.7256 28.513 94.7256 28.0189C94.7256 27.5249 94.5609 27.1955 94.3962 27.0309C94.2315 26.8662 93.9022 26.7015 93.4081 26.7015C93.0788 26.7015 92.5848 26.8662 92.4201 27.0309C92.0907 27.1955 92.0907 27.5249 92.0907 28.0189C92.0907 28.513 92.0907 28.8423 92.2554 29.007C92.5848 29.501 92.7494 29.8304 93.2435 29.9951ZM96.7017 31.1478C97.1957 31.1478 97.5251 30.9831 97.8545 30.8184C98.1838 30.6538 98.1838 30.3244 98.1838 29.8304C98.1838 29.3364 98.0191 29.3363 97.8545 28.8423C97.6898 28.6776 97.3604 28.3483 96.8664 28.0189L95.0549 26.7015L95.3843 26.5368C95.549 26.8662 95.7136 27.0309 95.8783 27.3602C96.043 27.5249 96.043 27.8543 96.043 28.1836C96.043 28.6776 95.8783 29.1717 95.7136 29.501C95.549 29.8304 95.2196 30.3244 94.5609 30.6538C94.7256 30.8185 94.8902 30.8184 95.0549 30.8184C95.2196 30.8184 95.3843 30.9831 95.549 30.9831C96.2077 31.1478 96.537 31.1478 96.7017 31.1478Z" fill="#0587D6"/>
</svg>
