<svg width="151" height="149" viewBox="0 0 151 149" fill="none" xmlns="http://www.w3.org/2000/svg">
<path d="M5.66699 140.033C13.7676 148.134 31.5888 144.408 50.7061 132.257" stroke="#0587D6" stroke-width="2.77153" stroke-miterlimit="79.8403" stroke-linecap="round" stroke-linejoin="round"/>
<path d="M35.1533 123.022C42.9299 129.341 52.0025 133.715 61.8852 136.145" stroke="white" stroke-width="5.54321" stroke-miterlimit="79.8403" stroke-linecap="round" stroke-linejoin="round"/>
<path d="M77.9246 138.251C115.505 138.251 145.969 107.859 145.969 70.3687C145.969 32.8781 115.505 2.48596 77.9246 2.48596C40.3445 2.48596 9.87988 32.8781 9.87988 70.3687C9.87988 107.859 40.3445 138.251 77.9246 138.251Z" fill="white"/>
<path fill-rule="evenodd" clip-rule="evenodd" d="M9.55469 70.0443C9.55469 49.4689 18.6273 31.1616 33.0463 18.6868C22.6776 30.5136 16.3592 46.2287 16.3592 63.0778C16.3592 100.664 46.8173 131.123 84.2419 131.123C101.253 131.123 116.806 124.804 128.633 114.435C116.32 128.854 97.8508 137.927 77.2754 137.927C40.1748 138.089 9.55469 107.631 9.55469 70.0443Z" fill="#85DBF6"/>
<path d="M77.4382 137.927C115.018 137.927 145.483 107.535 145.483 70.0445C145.483 32.554 115.018 2.16187 77.4382 2.16187C39.8582 2.16187 9.39355 32.554 9.39355 70.0445C9.39355 107.535 39.8582 137.927 77.4382 137.927Z" stroke="#0587D6" stroke-width="2.77153" stroke-miterlimit="79.8403" stroke-linecap="round" stroke-linejoin="round"/>
<path d="M77.4381 138.089C98.1966 138.089 115.025 107.625 115.025 70.0447C115.025 32.4646 98.1966 2 77.4381 2C56.6796 2 39.8516 32.4646 39.8516 70.0447C39.8516 107.625 56.6796 138.089 77.4381 138.089Z" stroke="#0587D6" stroke-width="2.77153" stroke-miterlimit="79.8403" stroke-linecap="round" stroke-linejoin="round"/>
<path d="M28.0254 23.547C40.1762 31.3235 57.8354 36.1839 77.4388 36.1839C97.0421 36.1839 114.701 31.3235 126.852 23.547" stroke="#0587D6" stroke-width="2.77153" stroke-miterlimit="79.8403" stroke-linecap="round" stroke-linejoin="round"/>
<path d="M15.3877 46.0675C30.6167 51.4139 52.8123 54.8161 77.438 54.8161C102.064 54.8161 124.259 51.4139 139.488 46.0675" stroke="#0587D6" stroke-width="2.581" stroke-miterlimit="79.8403" stroke-linecap="round" stroke-linejoin="round"/>
<path d="M28.0254 116.704C40.1762 108.927 57.8354 104.067 77.4388 104.067C97.0421 104.067 114.701 108.927 126.852 116.704" stroke="#0587D6" stroke-width="2.77153" stroke-miterlimit="79.8403" stroke-linecap="round" stroke-linejoin="round"/>
<path d="M12.6338 93.2124C28.3489 88.352 51.3545 85.2738 76.7902 85.2738C102.226 85.2738 125.232 88.352 140.947 93.2124" stroke="#0587D6" stroke-width="2.51069" stroke-miterlimit="79.8403" stroke-linecap="round" stroke-linejoin="round"/>
<path d="M11.0137 70.0443H144.025" stroke="#0587D6" stroke-width="2.77153" stroke-miterlimit="79.8403" stroke-linecap="round" stroke-linejoin="round"/>
<path d="M77.4385 3.45789V136.469" stroke="#0587D6" stroke-width="2.77153" stroke-miterlimit="79.8403" stroke-linecap="round" stroke-linejoin="round"/>
<path d="M21.7065 83.1681C15.064 91.5927 9.71766 100.179 6.31543 107.956" stroke="white" stroke-width="5.54321" stroke-miterlimit="79.8403" stroke-linecap="round" stroke-linejoin="round"/>
<path fill-rule="evenodd" clip-rule="evenodd" d="M33.6957 96.7769L27.0533 83.654L24.1371 85.9221C21.5449 88.0283 18.3047 84.626 20.2488 82.0338L22.517 79.1176L9.39404 72.4752C8.09795 71.6651 7.61193 70.207 8.09797 68.7489C8.584 67.4528 9.55609 65.9947 10.8522 64.8607C12.1483 63.7266 13.7683 63.0785 15.8745 63.4026L31.4276 66.3188L36.774 58.7042C38.5561 56.112 40.5002 53.6819 42.2823 52.0618L51.1929 43.1512V42.9892L44.7125 36.5087L14.2544 21.9277C14.2544 21.9277 14.0924 21.7657 13.7684 21.6037C12.9583 21.1176 11.9862 20.4696 11.3382 20.1456C8.584 18.0394 7.61191 15.9333 10.2041 14.3132C13.7683 12.207 17.8186 13.5031 22.0309 14.7992L36.2879 18.8495L36.774 19.0115C37.584 18.3634 38.8801 19.9836 39.5281 19.4975C40.9862 19.9836 40.8242 19.4975 42.7683 20.1456L45.1985 20.9556C46.0086 22.0897 46.1706 21.4417 47.4667 22.0897L49.2488 19.6595L52.651 16.5813C53.4611 15.9333 54.4332 15.7713 55.4052 16.0953C58.1594 17.2294 60.2656 20.4696 61.0756 21.6037C61.7237 23.2238 60.5896 24.3579 59.2935 25.4919L61.0756 25.816C61.3997 25.978 61.5616 25.6539 62.8577 26.302H63.1818H63.3438C64.1538 26.464 64.8019 26.626 65.4499 26.626L67.07 26.464L77.4387 16.0953C79.7069 13.8271 82.9471 11.721 85.8633 9.93887C88.2935 8.64278 92.5058 6.86065 95.26 8.48076L95.422 8.64278L95.584 8.80479L95.746 8.9668L95.908 9.12881L96.07 9.29082L96.232 9.45283L96.3941 9.61484C98.0142 12.369 96.2321 16.5813 94.936 19.0115C93.3159 22.0897 91.0477 25.3299 88.7795 27.4361L78.4108 37.8048L78.2488 39.4249C78.2488 40.235 78.4108 40.883 78.5728 41.531L79.8689 46.3914L82.7851 43.6372C83.7572 42.6651 85.3773 42.0171 87.1594 43.9612L91.6957 49.6316C93.4779 51.4137 89.7516 53.8439 88.6175 54.816C87.3214 56.112 85.2153 57.0841 84.2432 57.8942L83.2711 58.3802L82.9472 57.7322V56.9221C83.7572 58.5422 83.5952 58.3802 84.2432 60.3243L85.8633 64.5366C87.6455 66.3188 87.6455 65.1847 86.8354 66.1567C85.7013 67.2908 88.6175 66.8048 87.8075 67.4528L86.1874 68.7489L90.2376 83.0059C91.5337 87.2182 90.0756 91.7545 87.9695 94.9947C86.3493 97.5869 82.4611 96.1288 82.7851 93.2126C82.9471 92.4026 82.9472 91.9165 82.9472 91.4305C82.9472 91.1065 82.9472 90.9445 82.9472 90.9445L68.3661 60.6484L61.8857 54.1679H61.5617L52.651 63.0785C51.0309 64.6987 48.6007 66.8048 46.0086 68.5869L38.3941 73.9333L41.3103 89.4864C41.6343 91.5925 40.9862 93.3746 39.8522 94.5087C38.7181 95.8048 37.422 96.7769 35.9639 97.2629C35.9639 98.883 34.1817 98.0729 33.6957 96.7769Z" fill="white" stroke="white" stroke-width="0.405028" stroke-miterlimit="10"/>
<path fill-rule="evenodd" clip-rule="evenodd" d="M48.7627 31.6481L45.5225 28.4078C47.3046 25.3296 48.2767 23.5475 52.813 18.6872C53.299 18.2011 54.5951 17.5531 55.2431 18.2011L58.4834 21.4414C59.4554 22.4134 58.8074 23.2235 58.1593 24.0335C53.461 28.8939 51.6789 29.8659 48.7627 31.6481Z" fill="#85DBF6"/>
<path d="M48.7627 31.6481L45.5225 28.4078C47.3046 25.3296 48.2767 23.5475 52.813 18.6872C53.299 18.2011 54.5951 17.5531 55.2431 18.2011L58.4834 21.4414C59.4554 22.4134 58.8074 23.2235 58.1593 24.0335C53.461 28.8939 51.6789 29.8659 48.7627 31.6481Z" stroke="#0587D6" stroke-width="1.52825" stroke-miterlimit="79.8403" stroke-linecap="round" stroke-linejoin="round"/>
<path fill-rule="evenodd" clip-rule="evenodd" d="M52.165 44.6092C64.1539 35.5366 66.098 32.2964 68.0421 28.7321C66.26 29.5422 63.9918 29.2182 62.2097 28.7321L20.5729 16.9053C17.1706 15.9333 15.0644 15.6092 11.8242 17.3914C13.1203 17.2293 13.2823 18.3634 14.4164 18.8495L45.0365 33.5925L51.841 40.3969C52.9751 41.531 53.2991 43.6372 52.165 44.6092Z" fill="#00A2E5"/>
<path d="M68.0418 28.8946C66.2597 29.7046 63.9915 29.3806 62.2094 28.8946L20.5725 17.0677C17.1703 16.0957 14.4161 14.6376 11.3379 16.5817C11.4999 17.8778 13.444 18.6878 14.4161 19.1739L45.0362 33.9169L51.8407 40.7214C52.8128 41.6934 52.8128 43.6376 51.8407 44.6096" stroke="#0587D6" stroke-width="2.77153" stroke-miterlimit="79.8403" stroke-linecap="round" stroke-linejoin="round"/>
<path fill-rule="evenodd" clip-rule="evenodd" d="M25.7568 77.4972L31.5892 68.7486L14.416 65.3464C12.3099 65.0224 10.5277 66.8045 9.55566 69.0726L25.7568 77.4972Z" fill="#00A2E5"/>
<path d="M31.5894 68.9106L14.4162 65.5083C13.2821 65.3463 12.1481 65.8324 11.338 66.6424C10.2039 67.7765 10.3659 69.5586 11.824 70.3687L25.757 77.3351" stroke="#0587D6" stroke-width="2.77153" stroke-miterlimit="79.8403" stroke-linecap="round" stroke-linejoin="round"/>
<path fill-rule="evenodd" clip-rule="evenodd" d="M21.3818 83.1679C29.1584 73.6093 36.7729 59.8383 43.2533 53.3579L78.8958 17.7154C82.7841 13.8272 91.8567 8.8048 93.6388 10.9109C95.7449 13.0171 90.7226 21.7657 86.8343 25.654L51.1919 61.2964C44.7114 67.7769 31.2645 75.3914 21.3818 83.1679Z" fill="#85DBF6"/>
<path fill-rule="evenodd" clip-rule="evenodd" d="M74.0361 55.95L77.2764 59.5143C80.6786 57.5701 82.4607 56.7601 87.8071 52.3858C88.4551 51.8997 89.1032 50.6037 88.2931 49.7936L85.0529 46.2294C84.2428 45.2573 83.2707 45.7433 82.4607 46.5534C77.2763 51.2517 76.4663 53.0338 74.0361 55.95Z" fill="#85DBF6"/>
<path d="M74.0361 55.95L77.2764 59.5143C80.6786 57.5701 82.4607 56.7601 87.8071 52.3858C88.4551 51.8997 89.1032 50.6037 88.2931 49.7936L85.0529 46.2294C84.2428 45.2573 83.2707 45.7433 82.4607 46.5534C77.2763 51.2517 76.4663 53.0338 74.0361 55.95Z" stroke="#0587D6" stroke-width="1.60197" stroke-miterlimit="79.8403" stroke-linecap="round" stroke-linejoin="round"/>
<path fill-rule="evenodd" clip-rule="evenodd" d="M60.1035 52.5475C69.1761 40.5587 72.4163 38.6145 75.9806 36.6704C75.1705 38.4525 75.4946 40.7207 75.9806 42.5028L87.8074 84.1397C88.7795 87.5419 89.5896 89.4861 87.8074 92.5643C87.9694 91.2682 86.3493 91.2682 85.7013 90.1341L70.9582 59.514L64.1538 52.7095C63.0197 51.5754 60.9136 51.5754 60.1035 52.5475Z" fill="#00A2E5"/>
<path d="M75.9807 36.8328C75.1706 38.6149 75.4946 40.883 75.9807 42.6652L87.8075 84.302C88.7796 87.7043 90.0757 89.1624 88.1315 92.2406C86.6734 92.0786 86.3494 91.4305 85.7013 90.4585L70.9583 59.8384L64.1539 53.0339C63.1818 52.0618 61.2377 52.0618 60.2656 53.0339" stroke="#0587D6" stroke-width="2.77153" stroke-miterlimit="79.8403" stroke-linecap="round" stroke-linejoin="round"/>
<path fill-rule="evenodd" clip-rule="evenodd" d="M27.2148 78.9552L35.9635 73.1228L39.3657 90.296C39.6897 92.4021 37.9076 94.1843 35.6394 95.1563L27.2148 78.9552Z" fill="#00A2E5"/>
<path d="M35.8016 72.9614L39.2039 90.1346C39.3659 91.4307 38.8798 92.7268 37.7457 93.6988C36.7737 94.6709 35.1536 94.1849 34.6675 93.2128L27.5391 79.1178" stroke="#0587D6" stroke-width="2.77153" stroke-miterlimit="79.8403" stroke-linecap="round" stroke-linejoin="round"/>
<path d="M21.3818 83.1679C29.1584 73.6093 36.7729 59.8383 43.2533 53.3579L78.8958 17.7154C82.7841 13.8272 91.8567 8.8048 93.6388 10.9109C95.7449 13.0171 90.7226 21.7657 86.8343 25.654L51.1919 61.2964C44.7114 67.7769 31.2645 75.3914 21.3818 83.1679Z" stroke="#0587D6" stroke-width="2.77153" stroke-miterlimit="79.8403" stroke-linecap="round" stroke-linejoin="round"/>
<path d="M19.1143 86.5696C2.4272 108.765 -3.56718 130.799 5.82946 140.195" stroke="#0587D6" stroke-width="2.77153" stroke-miterlimit="79.8403" stroke-linecap="round" stroke-linejoin="round"/>
<path d="M90.7225 13.6653C89.5884 17.8776 85.5381 22.7379 85.5381 22.7379L50.2197 57.7323" stroke="white" stroke-width="1.84774" stroke-miterlimit="10" stroke-linecap="round"/>
<path d="M73.7119 43.9608L81.9745 73.1228" stroke="white" stroke-width="1.84774" stroke-miterlimit="10" stroke-linecap="round"/>
<path d="M146.617 141.491V85.5974C146.617 84.4633 145.644 83.8153 144.834 83.8153H103.846C102.712 83.8153 102.063 84.7874 102.063 85.5974V141.491C102.063 142.625 103.036 143.273 103.846 143.273H144.834C145.644 143.597 146.617 142.625 146.617 141.491Z" stroke="white" stroke-width="8.14349" stroke-miterlimit="79.8403" stroke-linecap="round" stroke-linejoin="round"/>
<path fill-rule="evenodd" clip-rule="evenodd" d="M134.141 82.5199H114.052V77.0115C114.052 76.0395 114.862 75.0674 115.996 75.0674H132.359C133.331 75.0674 134.303 75.8774 134.303 77.0115V82.5199H134.141Z" fill="white" stroke="white" stroke-width="7.14631" stroke-miterlimit="10" stroke-linecap="round"/>
<path d="M116.481 143.922H109.839V147H116.481V143.922Z" fill="#0587D6" stroke="white" stroke-width="3.17234" stroke-miterlimit="79.8403" stroke-linecap="round" stroke-linejoin="round"/>
<path fill-rule="evenodd" clip-rule="evenodd" d="M146.617 141.491V85.5974C146.617 84.4633 145.644 83.8153 144.834 83.8153H103.846C102.712 83.8153 102.063 84.7874 102.063 85.5974V141.491C102.063 142.625 103.036 143.273 103.846 143.273H144.834C145.644 143.597 146.617 142.625 146.617 141.491Z" fill="white"/>
<path d="M146.454 84.6257H102.873V143.274H146.454V84.6257Z" fill="#85DBF6"/>
<path d="M146.617 141.491V85.5974C146.617 84.4633 145.644 83.8153 144.834 83.8153H103.846C102.712 83.8153 102.063 84.7874 102.063 85.5974V141.491C102.063 142.625 103.036 143.273 103.846 143.273H144.834C145.644 143.597 146.617 142.625 146.617 141.491Z" stroke="#0587D6" stroke-width="2.71336" stroke-miterlimit="79.8403" stroke-linecap="round" stroke-linejoin="round"/>
<path fill-rule="evenodd" clip-rule="evenodd" d="M134.141 82.5199H114.052V77.0115C114.052 76.0395 114.862 75.0674 115.996 75.0674H132.359C133.331 75.0674 134.303 75.8774 134.303 77.0115V82.5199H134.141Z" fill="white" stroke="#0587D6" stroke-width="3.17234" stroke-miterlimit="10" stroke-linecap="round"/>
<path d="M116.481 143.922H109.839V147H116.481V143.922Z" fill="#0587D6" stroke="#0587D6" stroke-width="1.35684" stroke-miterlimit="79.8403" stroke-linecap="round" stroke-linejoin="round"/>
<path d="M139.163 143.922H132.521V147H139.163V143.922Z" fill="#0587D6" stroke="#0587D6" stroke-width="1.35684" stroke-miterlimit="79.8403" stroke-linecap="round" stroke-linejoin="round"/>
<path d="M139.163 143.922H132.521V147H139.163V143.922Z" fill="#0587D6" stroke="#0587D6" stroke-width="1.35684" stroke-miterlimit="79.8403" stroke-linecap="round" stroke-linejoin="round"/>
<path d="M111.298 94.5087V129.827" stroke="#0587D6" stroke-width="1.58625" stroke-miterlimit="10" stroke-linecap="round"/>
<path d="M138.354 94.5087V129.827" stroke="#0587D6" stroke-width="1.58625" stroke-miterlimit="10" stroke-linecap="round"/>
<path d="M124.744 94.5087V129.827" stroke="#0587D6" stroke-width="1.58625" stroke-miterlimit="10" stroke-linecap="round"/>
</svg>
