<svg width="97.000000" height="73.000000" viewBox="0 0 97 73" fill="none" xmlns="http://www.w3.org/2000/svg" xmlns:xlink="http://www.w3.org/1999/xlink">
	<desc>
			Created with Pixso.
	</desc>
	<defs/>
	<path id="Vector" d="M81.79 49.38C81.1 51.08 80.25 52.85 79.25 54.47C78.55 55.55 77.86 56.63 77.09 57.63C76.32 58.63 75.47 59.63 74.62 60.56C73.31 61.95 71.93 63.1 70.62 64.26C67.84 66.42 64.83 68.11 61.67 69.35C57.9 70.81 53.89 71.66 49.65 71.81C49.04 71.81 48.57 71.81 47.96 71.81C30.46 71.5 16.05 58.79 13.12 42.06L13.12 41.99C13.05 41.37 12.97 40.68 12.89 40.06C12.89 39.98 12.89 39.91 12.89 39.83C12.81 39.37 12.81 38.98 12.81 38.52C12.74 37.9 12.74 37.21 12.74 36.59C12.74 36.05 12.74 35.67 12.74 35.13C12.81 28.65 14.66 22.64 17.75 17.48C17.75 17.4 17.82 17.4 17.82 17.32C18.29 16.55 18.75 15.78 19.29 15.09C19.29 15.01 19.36 15.01 19.36 15.01C25.99 5.61 37.01 -0.4 49.34 -0.17C61.29 -0.02 71.85 6 78.25 15.24C78.32 15.32 78.32 15.32 78.32 15.4C78.86 16.17 79.33 16.94 79.79 17.71C79.79 17.71 79.79 17.79 79.86 17.79C81.48 20.64 82.79 23.72 83.64 26.96C84.18 28.88 84.41 30.89 84.57 32.97L84.57 33.05C84.41 34.2 84.49 35.36 84.49 36.51C84.41 41.06 83.49 45.45 81.79 49.38Z" stroke="#0587D6" stroke-opacity="1.000000" stroke-width="1.472623" stroke-linejoin="round"/>
	<path id="Vector" d="M34.39 31.74C31.62 32.97 26.84 37.21 25.15 41.83C23.45 46.46 24.3 49.85 24.3 49.85L26.45 53.86L28.38 55.55L39.94 55.78L47.26 55.32L55.66 53.32L59.9 50.85C59.9 50.85 62.6 46.69 62.75 45.45C62.91 44.22 63.37 37.82 61.21 37.29L54.82 33.51C54.82 33.51 49.27 31.12 46.8 31.12C44.26 30.89 43.18 30.97 43.18 30.97C43.18 30.97 37.17 30.5 34.39 31.74Z" stroke="#FFFFFF" stroke-opacity="1.000000" stroke-width="4.156684"/>
	<path id="Vector" d="M49.5 12.85L46.49 12.85L44.72 30.66L50.42 30.97L49.5 12.85Z" stroke="#FFFFFF" stroke-opacity="1.000000" stroke-width="4.156684"/>
	<path id="Vector" d="M27.07 59.71L28.53 59.48L32.62 56.01L31 55.78L27.07 59.71Z" stroke="#FFFFFF" stroke-opacity="1.000000" stroke-width="4.156684"/>
	<path id="Vector" d="M36.55 59.33L37.94 59.4L41.94 56.01L40.56 55.78L36.55 59.33Z" stroke="#FFFFFF" stroke-opacity="1.000000" stroke-width="4.156684"/>
	<path id="Vector" d="M50.27 54.93L57.67 61.56L58.28 61.18L51.04 54.55L50.27 54.93Z" stroke="#FFFFFF" stroke-opacity="1.000000" stroke-width="4.156684"/>
	<path id="Vector" d="M57.98 52.7C57.98 52.7 66.76 60.25 66.84 60.25C66.91 60.25 67.45 59.87 67.45 59.87L58.59 52.01L57.98 52.7Z" stroke="#FFFFFF" stroke-opacity="1.000000" stroke-width="4.156684"/>
	<path id="Vector" d="M39.79 31.27L44.72 32.12L46.03 33.05C46.03 33.05 47.57 35.44 46.72 37.44L44.72 47.54C44.72 47.54 42.18 48.54 41.87 48.46C41.64 48.38 31.16 49.38 31.16 49.38L25.84 49.08L24.07 48.38C24.22 48.23 23.37 34.59 35.86 31.35L39.79 31.27Z" stroke="#FFFFFF" stroke-opacity="1.000000" stroke-width="4.156684"/>
	<path id="Vector" d="M47.73 34.2L47.8 37.52L47.11 42.22L46.49 43.76L46.8 44.38L49.04 43.76L50.73 42.99C50.73 42.99 51.12 40.83 51.19 40.68C51.27 40.52 51.5 35.67 51.5 35.67L51.27 33.59L49.88 33.43L47.88 33.74L47.73 34.2Z" stroke="#FFFFFF" stroke-opacity="1.000000" stroke-width="4.156684"/>
	<path id="Vector" d="M52.35 37.67L51.96 42.37L52.12 42.99L53.81 42.6L54.97 42.06L55.2 40.14L54.66 36.13L54.35 34.28L52.27 33.89L52.35 37.67Z" stroke="#FFFFFF" stroke-opacity="1.000000" stroke-width="4.156684"/>
	<path id="Vector" d="M48.65 7.77L48.65 12.62L47.26 12.62L47.26 7.77L48.65 7.77Z" stroke="#FFFFFF" stroke-opacity="1.000000" stroke-width="4.156684"/>
	<path id="Vector" d="M35.24 31.27C35.24 31.27 29.92 32.2 25.76 39.98C21.21 48.61 26.45 55.24 28.77 55.55C30.54 55.78 39.48 55.7 43.72 55.63C45.1 55.63 46.57 55.47 47.96 55.16L54.74 53.62C57.28 53.01 59.29 51.23 60.9 49.15C61.75 48 62.75 44.99 62.83 44.3C63.06 42.53 62.91 38.98 60.98 37.13C59.75 35.98 57.59 34.82 54.89 33.28C52.89 32.12 50.42 31.27 48.03 31.04C45.03 30.73 40.71 30.58 35.24 31.27Z" stroke="#FFFFFF" stroke-opacity="1.000000" stroke-width="4.156684"/>
	<path id="Vector" d="M23.99 48C25.22 50.23 38.71 48.69 43.26 48C44.1 47.92 44.8 47.23 45.03 46.3C45.34 44.61 45.95 41.68 46.57 38.29C47.65 33.12 45.03 32.12 45.03 32.12C45.03 32.12 38.25 30.58 34.55 31.35" stroke="#FFFFFF" stroke-opacity="1.000000" stroke-width="4.156684"/>
	<path id="Vector" d="M44.64 30.81L46.18 13.24C46.18 13.01 46.41 12.78 46.8 12.78L48.73 12.78L49.34 12.85C49.57 12.85 49.81 13.09 49.81 13.32L50.73 31.5" stroke="#FFFFFF" stroke-opacity="1.000000" stroke-width="4.156684"/>
	<path id="Vector" d="M55.97 34.13L83.41 25.88C84.18 25.65 85.03 26.11 85.18 26.88C85.26 27.5 85.03 28.04 84.49 28.27L62.75 39.91" stroke="#FFFFFF" stroke-opacity="1.000000" stroke-width="4.221114"/>
	<path id="Vector" d="M47.11 12.85L47.11 8.46C47.11 8.08 47.42 7.61 47.96 7.61C48.34 7.61 48.8 7.92 48.8 8.46L48.8 12.85" stroke="#FFFFFF" stroke-opacity="1.000000" stroke-width="4.156684"/>
	<path id="Vector" d="M80.79 26.5L84.1 14.16C84.26 13.7 84.8 13.39 85.26 13.55L85.33 13.55C85.57 13.7 85.64 13.86 85.64 14.01L83.87 25.72" stroke="#FFFFFF" stroke-opacity="1.000000" stroke-width="4.221114"/>
	<path id="Vector" d="M80.79 30.35L82.17 37.67C82.17 37.98 82.48 38.36 82.95 38.44L83.25 38.36C84.1 38.13 83.64 38.06 83.64 37.9L83.79 28.42" stroke="#FFFFFF" stroke-opacity="1.000000" stroke-width="4.221114"/>
	<path id="Vector" d="M8.19 17.17L5.18 20.48L34.55 13.78L36.01 11.62L8.19 17.17Z" stroke="#FFFFFF" stroke-opacity="1.000000" stroke-width="4.044935"/>
	<path id="Vector" d="M84.56 1.53L88.8 3.3L58.59 8.62L56.36 7.23L84.56 1.53Z" stroke="#FFFFFF" stroke-opacity="1.000000" stroke-width="4.076842"/>
	<path id="Vector" d="M47.11 9.08L84.41 1.53C84.79 1.45 85.18 1.45 85.64 1.6L88.8 2.84C89.03 2.91 89.11 3.38 88.73 3.45L59.13 8.54C58.82 8.62 58.51 8.62 58.13 8.38L57.44 8.08C57.05 7.92 56.59 7.85 56.2 7.92L47.42 9.69" stroke="#FFFFFF" stroke-opacity="1.000000" stroke-width="4.076842"/>
	<path id="Vector" d="M45.34 9.85L8.58 17.25C8.19 17.32 7.8 17.48 7.5 17.79L5.11 20.18C4.88 20.41 5.03 20.79 5.34 20.72L34.08 14.09C34.39 14.01 34.7 13.86 34.93 13.55L35.47 13.01C35.7 12.7 36.16 12.47 36.55 12.39L45.18 10.62" stroke="#FFFFFF" stroke-opacity="1.000000" stroke-width="4.044935"/>
	<path id="Vector" d="M50.11 54.7L57.74 61.64" stroke="#FFFFFF" stroke-opacity="1.000000" stroke-width="4.156684"/>
	<path id="Vector" d="M51.42 54.39L58.9 61.41" stroke="#FFFFFF" stroke-opacity="1.000000" stroke-width="4.156684"/>
	<path id="Vector" d="M57.74 52.54L67.15 60.71" stroke="#FFFFFF" stroke-opacity="1.000000" stroke-width="4.156684"/>
	<path id="Vector" d="M58.9 51.85L68.61 60.56" stroke="#FFFFFF" stroke-opacity="1.000000" stroke-width="4.156684"/>
	<path id="Vector" d="M31.23 55.63L25.61 60.71" stroke="#FFFFFF" stroke-opacity="1.000000" stroke-width="4.156684"/>
	<path id="Vector" d="M32.93 55.7L27.15 60.71" stroke="#FFFFFF" stroke-opacity="1.000000" stroke-width="4.156684"/>
	<path id="Vector" d="M40.56 55.7L35.55 59.94" stroke="#FFFFFF" stroke-opacity="1.000000" stroke-width="4.156684"/>
	<path id="Vector" d="M42.18 55.7L37.01 60.02" stroke="#FFFFFF" stroke-opacity="1.000000" stroke-width="4.156684"/>
	<path id="Vector" d="M41.48 56.71C41.17 56.86 24.91 63.64 24.91 63.64C24.91 63.64 22.91 64.41 22.22 62.33" stroke="#FFFFFF" stroke-opacity="1.000000" stroke-width="4.301727" stroke-linecap="round"/>
	<path id="Vector" d="M70.31 60.41L54.28 62.33C54.28 62.33 52.12 62.41 51.89 60.25" stroke="#FFFFFF" stroke-opacity="1.000000" stroke-width="4.156684" stroke-linecap="round"/>
	<path id="Vector" d="M47.19 32.82C47.19 32.82 54.28 33.12 54.89 34.2C55.51 35.2 56.9 41.37 55.97 46.53C55.9 47.23 55.51 47.84 54.89 48.31C52.66 50.08 46.34 54.55 44.03 51.85" stroke="#FFFFFF" stroke-opacity="1.000000" stroke-width="4.156684" stroke-linecap="round"/>
	<path id="Vector" d="M51.89 42.45C51.81 42.68 52.04 43.06 52.27 42.91C53.12 42.83 54.35 42.6 54.82 42.06C55.43 41.45 54.74 36.59 54.43 34.82C54.35 34.51 54.12 34.12 53.74 34.05L52.35 33.74C52.27 33.82 52.12 33.97 52.12 34.12C52.2 35.44 52.5 40.21 51.89 42.45Z" stroke="#FFFFFF" stroke-opacity="1.000000" stroke-width="4.156684"/>
	<path id="Vector" d="M47.96 33.74C47.73 33.74 47.65 34.13 47.73 34.43C47.96 35.67 48.19 39.37 46.65 43.84C46.57 44.14 46.8 44.53 47.26 44.45L49.81 43.76C50.5 43.6 51.04 42.99 51.19 42.37C51.5 40.6 51.89 33.74 51.27 33.74C50.42 33.66 49.04 33.74 47.96 33.74Z" stroke="#FFFFFF" stroke-opacity="1.000000" stroke-width="4.156684"/>
	<path id="Vector" d="M41.41 33.12C41.41 33.12 44.33 32.66 45.03 35.13C45.8 37.59 43.02 45.22 43.02 45.22" stroke="#FFFFFF" stroke-opacity="1.000000" stroke-width="4.156684" stroke-linecap="round"/>
	<path id="Vector" d="M43.18 30.97C43.18 30.97 37.17 30.5 34.39 31.74C31.62 32.97 26.84 37.21 25.15 41.83C23.45 46.46 24.3 49.85 24.3 49.85L26.45 53.86L28.38 55.55L39.94 55.78L47.26 55.32L55.66 53.32L59.9 50.85C59.9 50.85 62.6 46.69 62.75 45.45C62.91 44.22 63.37 37.82 61.21 37.29L54.82 33.51C54.82 33.51 49.27 31.12 46.8 31.12C44.26 30.89 43.18 30.97 43.18 30.97Z" fill="#00A1E4" fill-opacity="1.000000" fill-rule="nonzero"/>
	<path id="Vector" d="M56.05 34.13L83.18 25.73L84.64 26.11L84.64 27.58L62.45 39.75L56.05 34.13Z" fill="#00A1E4" fill-opacity="1.000000" fill-rule="nonzero"/>
	<path id="Vector" d="M83.49 24.65L85.18 13.78L83.87 13.7L80.4 26.11L82.87 26.03L83.49 24.65Z" fill="#00A1E4" fill-opacity="1.000000" fill-rule="nonzero"/>
	<path id="Vector" d="M83.18 29.19L83.02 37.82L82.02 37.98L80.56 29.81L83.18 29.19Z" fill="#00A1E4" fill-opacity="1.000000" fill-rule="nonzero"/>
	<path id="Vector" d="M50.42 30.97L49.5 12.85L46.5 12.85L44.72 30.66L50.42 30.97Z" fill="#00A1E4" fill-opacity="1.000000" fill-rule="nonzero"/>
	<path id="Vector" d="M35.86 31.35L39.79 31.27L44.72 32.12L46.03 33.05C46.03 33.05 47.57 35.44 46.73 37.44L44.72 47.54C44.72 47.54 42.18 48.54 41.87 48.46C41.64 48.38 31.16 49.39 31.16 49.39L25.84 49.08L24.07 48.38C24.22 48.23 23.37 34.59 35.86 31.35Z" fill="#84DAF5" fill-opacity="1.000000" fill-rule="nonzero"/>
	<path id="Vector" d="M47.88 33.74L47.73 34.2L47.8 37.52L47.11 42.22L46.49 43.76L46.8 44.38L49.04 43.76L50.73 42.99C50.73 42.99 51.12 40.83 51.19 40.68C51.27 40.52 51.5 35.67 51.5 35.67L51.42 34.13L49.96 33.82L47.88 33.74Z" fill="#84DAF5" fill-opacity="1.000000" fill-rule="nonzero"/>
	<path id="Vector" d="M52.35 34.2L52.35 37.67L51.96 42.37L52.12 42.99L53.81 42.6L54.97 42.06L55.2 40.14L54.66 36.13L54.35 34.66L52.35 34.2Z" fill="#84DAF5" fill-opacity="1.000000" fill-rule="nonzero"/>
	<path id="Vector" d="M47.26 7.77L48.65 7.77L48.65 12.62L47.26 12.62L47.26 7.77Z" fill="#84DAF5" fill-opacity="1.000000" fill-rule="evenodd"/>
	<path id="Vector" d="M35.24 31.27C35.24 31.27 29.92 32.2 25.76 39.98C21.21 48.61 26.45 55.24 28.77 55.55C30.54 55.78 39.48 55.7 43.72 55.63C45.1 55.63 46.57 55.47 47.96 55.17L54.74 53.62C57.28 53.01 59.29 51.23 60.9 49.15C61.75 48 62.75 44.99 62.83 44.3C63.06 42.53 62.91 38.98 60.98 37.13C59.75 35.98 57.59 34.82 54.89 33.28C52.89 32.12 50.42 31.27 48.03 31.04C45.03 30.73 40.71 30.58 35.24 31.27Z" stroke="#0587D6" stroke-opacity="1.000000" stroke-width="1.246967"/>
	<path id="Vector" d="M23.99 48C25.22 50.23 38.71 48.69 43.26 48C44.1 47.92 44.8 47.23 45.03 46.3C45.34 44.61 45.95 41.68 46.57 38.29C47.65 33.12 45.03 32.12 45.03 32.12C45.03 32.12 38.25 30.58 34.55 31.35" stroke="#0587D6" stroke-opacity="1.000000" stroke-width="0.463489"/>
	<path id="Vector" d="M44.64 30.81L46.18 13.24C46.18 13.01 46.42 12.78 46.8 12.78L48.73 12.78L49.34 12.85C49.58 12.85 49.81 13.09 49.81 13.32L50.73 31.51" stroke="#0587D6" stroke-opacity="1.000000" stroke-width="1.246967"/>
	<path id="Vector" d="M47.11 12.85L47.11 8.46C47.11 8.08 47.42 7.61 47.96 7.61C48.34 7.61 48.81 7.92 48.81 8.46L48.81 12.85" stroke="#0587D6" stroke-opacity="1.000000" stroke-width="0.926902"/>
	<path id="Vector" d="M55.66 33.97L82.87 25.73C83.64 25.49 84.41 25.96 84.64 26.73C84.72 27.34 84.49 27.88 83.95 28.11L62.37 39.75" stroke="#0587D6" stroke-opacity="1.000000" stroke-width="1.261764"/>
	<path id="Vector" d="M80.4 26.34L83.72 14.01C83.87 13.55 84.41 13.24 84.87 13.39L84.95 13.39C85.18 13.55 85.26 13.7 85.18 13.86L83.33 25.49" stroke="#0587D6" stroke-opacity="1.000000" stroke-width="1.261764"/>
	<path id="Vector" d="M80.33 30.27L81.64 37.59C81.64 37.9 82.18 38.29 82.64 38.13L82.72 38.13C82.87 38.06 83.1 37.98 83.1 37.82L83.25 28.35" stroke="#0587D6" stroke-opacity="1.000000" stroke-width="1.261764"/>
	<path id="Vector" d="M55.2 7.23L82.87 1.45L87.03 3.22L57.44 8.62L55.2 7.23Z" fill="#84DAF5" fill-opacity="1.000000" fill-rule="nonzero"/>
	<path id="Vector" d="M36.17 11.24L8.27 17.09L5.26 20.72L33.85 13.93L36.17 11.24Z" fill="#84DAF5" fill-opacity="1.000000" fill-rule="nonzero"/>
	<path id="Vector" d="M48.81 8.46L82.49 1.37C82.87 1.29 83.26 1.29 83.72 1.53L86.88 2.99C87.11 3.14 87.19 3.61 86.88 3.68L58.21 8.85C57.9 8.92 57.59 8.85 57.21 8.69L56.51 8.38C56.13 8.15 55.66 8.08 55.28 8.15L48.73 9.46" stroke="#0587D6" stroke-opacity="1.000000" stroke-width="0.958192"/>
	<path id="Vector" d="M47.03 8.85L8.65 17.09C8.27 17.17 7.88 17.32 7.57 17.71L5.26 20.33C5.11 20.56 5.26 21.02 5.57 20.95L33.85 13.93C34.16 13.86 34.47 13.7 34.7 13.39L35.24 12.78C35.47 12.47 35.93 12.16 36.24 12.08L47.03 9.77" stroke="#0587D6" stroke-opacity="1.000000" stroke-width="0.958192"/>
	<path id="Vector" d="M49.88 55.01L55.36 65.03" stroke="#0587D6" stroke-opacity="1.000000" stroke-width="1.078650"/>
	<path id="Vector" d="M51.27 54.63L55.66 64.64" stroke="#0587D6" stroke-opacity="1.000000" stroke-width="1.078650"/>
	<path id="Vector" d="M58.28 52.24L64.83 59.1" stroke="#0587D6" stroke-opacity="1.000000" stroke-width="0.646373"/>
	<path id="Vector" d="M59.06 51.62L65.07 58.79" stroke="#0587D6" stroke-opacity="1.000000" stroke-width="0.646373"/>
	<path id="Vector" d="M31.54 56.01L27.07 62.64" stroke="#0587D6" stroke-opacity="1.000000" stroke-width="1.044354"/>
	<path id="Vector" d="M32.54 55.78L27.3 62.41" stroke="#0587D6" stroke-opacity="1.000000" stroke-width="1.044354"/>
	<path id="Vector" d="M39.09 55.7L39.17 56.86" stroke="#0587D6" stroke-opacity="1.000000" stroke-width="1.044354"/>
	<path id="Vector" d="M41.25 56.71C41.02 56.86 24.68 64.03 24.68 64.03C24.68 64.03 22.76 64.8 21.99 62.49" stroke="#0587D6" stroke-opacity="1.000000" stroke-width="1.762940" stroke-linecap="round"/>
	<path id="Vector" d="M67.76 57.71L51.58 67.73C51.58 67.73 49.34 68.88 48.27 66.19" stroke="#0587D6" stroke-opacity="1.000000" stroke-width="2.080847" stroke-linecap="round"/>
	<path id="Vector" d="M47.19 32.82C47.19 32.82 54.28 33.12 54.9 34.2C55.51 35.2 56.9 41.37 55.97 46.53C55.9 47.23 55.51 47.84 54.9 48.31C52.66 50.08 46.34 54.55 44.03 51.85" stroke="#0587D6" stroke-opacity="1.000000" stroke-width="0.463489" stroke-linecap="round"/>
	<path id="Vector" d="M51.89 42.45C51.81 42.68 52.04 43.07 52.27 42.91C53.12 42.83 54.35 42.6 54.82 42.06C55.43 41.45 54.74 36.59 54.43 34.82C54.35 34.51 54.2 34.43 53.82 34.36L52.2 34.13C52.12 34.2 52.27 34.74 52.27 34.9C52.35 36.21 52.5 40.21 51.89 42.45Z" stroke="#0587D6" stroke-opacity="1.000000" stroke-width="0.463489"/>
	<path id="Vector" d="M47.96 33.74C47.73 33.74 47.65 34.13 47.73 34.43C47.96 35.67 48.19 39.37 46.65 43.84C46.57 44.14 46.8 44.53 47.26 44.45L49.81 43.76C50.5 43.6 51.04 42.99 51.19 42.37C51.5 40.6 51.89 34.05 51.27 34.05C50.42 33.97 49.04 33.74 47.96 33.74Z" stroke="#0587D6" stroke-opacity="1.000000" stroke-width="0.463489"/>
	<path id="Vector" d="M36.94 31.43C36.94 31.43 25.91 39.29 28.31 48.92" stroke="#0587D6" stroke-opacity="1.000000" stroke-width="0.770684" stroke-linecap="round"/>
	<path id="Vector" d="M49.65 55.01L51.35 54.78L54.82 63.33L52.35 60.64L49.58 55.09L49.65 55.01Z" fill="#0587D6" fill-opacity="1.000000" fill-rule="nonzero"/>
	<path id="Vector" d="M58.9 51.77L58.36 52.39L62.75 56.63L58.9 51.77Z" fill="#0587D6" fill-opacity="1.000000" fill-rule="nonzero"/>
	<path id="Vector" d="M43.72 42.68L43.33 43.37C42.87 44.3 42.1 45.07 41.17 45.53C40.56 45.84 39.94 45.99 39.25 45.99L34.62 46.3" stroke="#FFFFFF" stroke-opacity="1.000000" stroke-width="0.926902" stroke-linecap="round"/>
</svg>
