<svg width="150" height="150" viewBox="0 0 150 150" fill="none" xmlns="http://www.w3.org/2000/svg">
<path d="M69.9519 138.003C107.419 138.003 137.791 107.558 137.791 70.0015C137.791 32.4453 107.419 2 69.9519 2C32.4851 2 2.1123 32.4453 2.1123 70.0015C2.1123 107.558 32.4851 138.003 69.9519 138.003Z" stroke="#0587D6" stroke-width="2.76977" stroke-miterlimit="79.8403" stroke-linecap="round" stroke-linejoin="round"/>
<path d="M81.2862 93.8027C77.7242 93.8027 73.0289 94.936 70.7622 96.717C68.0097 98.9837 63.4763 93.8027 59.7524 93.8027C59.4286 93.8027 57.9714 93.8027 56.6762 92.5074C55.8666 91.6979 55.3809 90.5645 55.3809 89.4311V62.3925H85.4958V89.5931C85.6577 91.8598 83.5529 93.8027 81.2862 93.8027Z" fill="white" stroke="white" stroke-width="1.61908" stroke-miterlimit="10"/>
<path d="M70.4387 129.422C70.1149 129.26 69.953 128.937 69.6292 128.775C66.2291 126.832 65.5815 125.698 66.2291 121.813C66.8767 118.574 67.6863 115.336 68.4958 112.098C68.6577 111.289 68.8196 110.317 68.8196 109.346C66.5529 111.289 65.4195 113.879 64.2862 116.632C63.1528 119.384 62.5052 122.136 62.3433 125.213C60.4004 124.565 58.9432 123.756 57.9718 121.975C57.3241 120.841 57.6479 119.708 57.9718 118.574C59.5908 113.879 62.6671 110.317 67.2006 107.727C67.3625 107.565 67.6863 107.565 67.8482 107.241C68.0101 107.079 68.0101 106.917 68.0101 106.755C68.0101 106.593 67.6862 106.431 67.5243 106.431C67.2005 106.431 66.8767 106.431 66.5529 106.593C60.2384 109.184 55.705 113.555 53.6002 120.194C53.4383 120.679 53.2764 120.841 52.7907 120.679C51.3335 120.194 50.2002 119.384 49.2287 117.927C48.5811 116.793 48.743 115.66 49.3906 114.527C50.3621 112.908 51.8192 111.451 53.2764 110.317C57.0003 107.565 61.2099 105.622 65.7433 104.327C66.8767 104.003 66.8767 104.003 66.391 103.031C65.4196 100.603 64.1243 98.3359 61.8575 96.7169C60.4004 95.5835 58.9432 95.2597 57.1622 95.5835C55.3812 96.0692 54.2478 97.6883 54.4098 99.6312C54.4098 100.279 54.5717 100.765 54.7336 101.412C55.0574 102.707 54.8955 102.707 53.6002 103.031C51.0097 103.517 48.4192 103.841 45.8286 104.488C44.3715 104.812 43.0762 105.622 41.9428 106.108C43.0762 107.403 44.0476 108.536 45.181 109.67C45.8286 110.317 45.8286 110.803 45.3429 111.451C44.8572 112.098 44.0476 112.26 43.4 111.612C42.4286 110.803 41.2952 109.831 40.3238 108.86C39.838 108.536 39.6761 108.374 39.0285 108.698C36.5998 109.831 33.6855 108.698 32.714 106.269C32.2283 105.136 32.3902 104.003 32.876 103.031C33.0379 102.546 33.0379 102.384 32.714 102.06C28.6663 98.3359 24.7805 94.4501 20.7328 90.7263C20.409 90.4024 20.0852 90.4024 19.5995 90.5643C18.4661 91.212 17.8185 91.0501 17.009 90.2405C16.8471 90.0786 16.3613 89.9167 16.0375 90.0786C13.6089 90.8882 10.8564 89.431 10.0469 86.6785C10.8564 86.6785 11.666 86.6785 12.4755 86.6785C12.1517 85.7071 11.8279 84.8975 11.504 83.9261C10.8564 81.8213 11.9898 80.526 14.2565 80.6879C15.228 80.8498 16.1994 81.1737 17.1708 81.3356C17.1708 80.526 17.1708 79.8784 17.1708 79.0688C19.5995 79.2308 21.5424 81.8213 21.0567 84.4118C20.8948 84.8976 20.8947 85.3833 21.3805 85.7071C22.19 86.3547 22.19 87.0024 22.0281 87.9738C22.0281 88.2976 22.19 88.7833 22.3519 88.9453C26.3996 92.8311 30.2854 96.5549 34.3331 100.279C34.6569 100.603 35.1427 100.765 35.6284 100.765C37.2475 100.603 38.7047 100.926 39.9999 101.898C40.1618 102.06 40.4856 102.222 40.8095 102.222C43.8857 102.222 46.962 101.898 49.7144 100.603C49.8763 100.603 50.0383 100.441 50.2002 100.279C50.0383 99.955 49.8763 99.6312 49.7144 99.3074C48.2572 97.0407 47.1239 94.6121 46.6382 91.8596C45.9905 87.1643 49.2287 83.7642 53.7621 83.4404C54.2479 83.4404 54.7336 83.4404 55.2193 83.4404C55.2193 83.7642 55.2193 84.088 55.2193 84.4118C55.2193 86.3547 55.2193 88.4595 55.2193 90.4024C55.2193 92.6691 56.6765 94.2882 58.9432 94.612C60.4004 94.774 61.8575 94.774 63.3147 94.612C65.9052 94.4501 68.0101 95.4216 69.4673 97.5264C69.953 98.0121 70.1149 98.0121 70.6006 97.5264C72.0578 95.5835 74.1626 94.6121 76.5912 94.774C78.0484 94.774 79.5056 94.774 80.9628 94.774C83.3914 94.6121 84.8486 92.993 85.0105 90.5643C85.0105 88.4595 85.0105 86.5166 85.0105 84.4118C85.0105 83.7642 85.1724 83.4404 85.82 83.6023C86.9534 83.7642 87.9248 83.9261 89.0582 84.2499C92.7821 85.5452 94.0773 89.2691 93.5916 92.6692C93.2678 95.0978 91.9725 97.3645 90.6773 99.4693C89.8677 100.603 89.8677 100.765 91.3249 101.25C93.5916 102.222 96.0202 102.384 98.4488 102.546C98.7727 102.546 99.0965 102.06 99.2584 101.736C99.7441 100.279 100.554 99.1455 101.849 98.3359C102.335 98.0121 102.497 98.0121 102.982 98.3359C103.954 99.1455 104.925 99.7931 105.897 100.603C106.382 101.088 106.868 101.088 107.354 100.603C108.325 99.7931 109.297 99.1455 110.106 98.3359C110.592 97.8502 110.916 98.0121 111.402 98.3359C113.668 100.279 114.802 102.546 114.154 105.622C113.506 108.536 110.916 110.641 108.001 111.127C105.249 111.612 102.658 110.803 100.877 108.698C99.0965 106.755 96.9917 105.46 94.563 104.974C92.1344 104.327 89.5439 104.003 87.1153 103.679C86.1438 103.517 85.9819 103.355 86.1438 102.222C86.3057 101.25 86.4676 100.279 86.4676 99.4693C85.9819 96.5549 83.0676 95.2597 80.1532 96.7169C78.8579 97.3645 77.7246 98.4979 76.7531 99.6312C75.7817 100.926 75.134 102.546 74.3245 104.003C74.0007 104.65 74.4864 104.812 74.9721 104.974C77.5627 105.946 79.9913 106.755 82.4199 107.889C85.3343 109.184 88.0867 111.127 90.3534 113.717C90.5153 113.879 90.5154 113.879 90.6773 114.041C93.1059 116.955 91.8106 120.517 88.0867 121.489C87.4391 121.651 87.4391 121.327 87.2772 120.841C86.3057 117.603 84.5247 114.689 82.0961 112.26C79.8294 109.993 77.2388 108.212 74.1626 107.241C73.8388 107.079 73.1911 107.241 73.0292 107.403C72.7054 107.889 73.1912 108.212 73.6769 108.536C78.2103 110.965 81.4485 114.527 83.0675 119.546C83.8771 121.651 83.3914 123.108 81.6104 124.565C80.9627 125.051 80.3151 125.537 79.5055 125.86C78.696 126.346 78.5341 126.184 78.5341 125.213C78.3722 122.298 77.7246 119.546 76.4293 116.955C75.4578 115.013 74.4864 113.232 73.353 111.451C73.0292 110.965 72.5435 110.641 72.2197 110.317C72.0578 110.317 72.0578 110.479 71.8959 110.479C72.0578 111.289 72.0578 112.098 72.2197 112.746C73.0292 115.984 73.6769 119.06 74.4864 122.298C74.6483 122.946 74.6483 123.594 74.8102 124.241C75.134 126.184 74.3245 127.641 72.8673 128.775C72.0578 129.422 72.5435 129.099 71.572 129.584C69.7911 129.584 70.6006 129.422 70.4387 129.422Z" fill="white" stroke="white" stroke-width="6.47633" stroke-miterlimit="10"/>
<path d="M6.64568 40.8578C6.80759 40.0483 6.80761 39.5626 6.96952 38.9149C6.96952 38.5911 7.13145 38.4292 7.29336 38.1054C7.61717 38.2673 7.94099 38.2673 8.1029 38.5911C10.5315 40.6959 12.7982 42.8007 15.2269 44.7436C19.4365 47.658 23.9699 49.9247 28.9891 51.0581C29.3129 51.22 29.6367 51.22 29.9605 51.22C30.6082 49.9247 30.4462 49.2771 29.3129 48.4675C26.5604 46.6865 23.6461 45.0675 21.0556 43.2865C17.6555 40.8578 14.5792 38.1054 12.9601 34.0577C11.0172 29.3623 11.503 24.9908 15.0649 20.9431C15.2268 21.2669 15.5507 21.4288 15.7126 21.7527C19.1126 26.9337 22.5127 31.9529 26.5604 36.6482C31.5796 42.4769 36.5987 48.1437 43.0751 52.3533C43.5608 52.6771 44.0465 53.001 43.3989 53.8105C41.1322 56.0772 40.3226 58.9916 41.6179 62.0678C42.9132 65.306 45.5037 66.9251 48.9038 67.2489C51.0086 67.5727 53.1134 67.2489 55.2182 66.7632C55.8658 66.6013 56.0277 66.7632 56.0277 67.4108C56.0277 68.5442 56.0277 69.6775 56.0277 70.8109C56.0277 73.4014 56.0277 75.992 56.0277 78.5825C56.0277 78.7444 56.0277 78.9063 56.0277 79.2301C55.7039 78.7444 55.542 78.5825 55.3801 78.2587C53.9229 75.3443 51.3324 74.049 48.2561 73.5633C46.6371 73.2395 46.637 73.2395 46.3132 74.8586C45.8275 77.4491 45.018 80.0397 43.8846 82.3064C42.5893 84.735 40.6465 86.3541 37.894 86.8398C35.9511 87.1636 34.1701 86.6779 32.551 85.2207C33.0367 84.8969 33.3606 84.5731 33.8463 84.2493C37.0845 82.1445 39.675 79.5539 41.456 76.1539C41.9417 75.3443 42.1036 74.3729 42.4274 73.4014C42.5893 72.7538 42.4274 72.5919 41.7798 72.2681C41.2941 72.1062 40.8084 71.7823 40.4846 72.43C39.0274 74.6967 37.4083 76.6396 35.4654 78.4206C33.3606 80.2016 31.0939 81.4968 28.3414 81.6587C25.7509 81.6587 23.6461 80.8492 22.027 78.4206C22.3508 78.2587 22.6746 78.0968 22.9984 78.0968C27.5319 77.1253 31.7415 75.5062 35.1416 72.1062C35.7892 71.6204 36.2749 70.8109 36.7606 70.3252C37.0845 69.8394 37.2464 69.5156 36.7606 68.868C36.2749 68.3823 35.7892 68.3823 35.1416 68.7061C33.1987 69.8394 31.4177 70.9728 29.4748 71.9442C26.3985 73.5633 23.3223 74.6967 19.7603 74.211C18.465 74.049 17.1698 73.7252 16.0364 73.0776C14.0935 72.2681 13.284 70.4871 12.9601 68.5442C12.7982 68.0584 13.122 67.8965 13.6078 67.8965C14.4173 67.8965 15.2269 67.8965 16.0364 67.8965C21.5413 67.8965 27.0462 66.9251 32.0653 64.6584C33.0368 64.1726 33.1987 64.0107 32.551 63.0393C32.2272 62.5536 31.9034 62.5536 31.4177 62.5536C28.1795 63.0393 25.1033 63.6869 21.8651 64.1726C19.1127 64.4965 16.5221 64.6584 13.7697 63.8488C9.88389 62.7155 7.61717 59.963 7.29336 55.9153C7.29336 55.4296 7.29336 54.9439 7.29336 54.2962C7.61717 54.4581 7.94099 54.4581 8.1029 54.62C15.065 57.6963 22.3508 58.6678 29.7986 58.0201C30.1224 58.0201 30.7701 58.0201 30.6082 57.3725C30.4462 56.8868 30.7701 56.0772 29.7986 55.9153C26.8843 55.4296 23.9699 55.1058 21.2174 54.62C17.9793 53.9724 14.7411 53.1629 11.8268 51.5438C8.91242 49.9247 6.96954 47.3342 6.48382 43.9341C6.32191 44.096 6.64568 40.0483 6.64568 40.2102" fill="white"/>
<path d="M6.64568 40.8578C6.80759 40.0483 6.80761 39.5626 6.96952 38.9149C6.96952 38.5911 7.13145 38.4292 7.29336 38.1054C7.61717 38.2673 7.94099 38.2673 8.1029 38.5911C10.5315 40.6959 12.7982 42.8007 15.2269 44.7436C19.4365 47.658 23.9699 49.9247 28.9891 51.0581C29.3129 51.22 29.6367 51.22 29.9605 51.22C30.6082 49.9247 30.4462 49.2771 29.3129 48.4675C26.5604 46.6865 23.6461 45.0675 21.0556 43.2865C17.6555 40.8578 14.5792 38.1054 12.9601 34.0577C11.0172 29.3623 11.503 24.9908 15.0649 20.9431C15.2268 21.2669 15.5507 21.4288 15.7126 21.7527C19.1126 26.9337 22.5127 31.9529 26.5604 36.6482C31.5796 42.4769 36.5987 48.1437 43.0751 52.3533C43.5608 52.6771 44.0465 53.001 43.3989 53.8105C41.1322 56.0772 40.3226 58.9916 41.6179 62.0678C42.9132 65.306 45.5037 66.9251 48.9038 67.2489C51.0086 67.5727 53.1134 67.2489 55.2182 66.7632C55.8658 66.6013 56.0277 66.7632 56.0277 67.4108C56.0277 68.5442 56.0277 69.6775 56.0277 70.8109C56.0277 73.4014 56.0277 75.992 56.0277 78.5825C56.0277 78.7444 56.0277 78.9063 56.0277 79.2301C55.7039 78.7444 55.542 78.5825 55.3801 78.2587C53.9229 75.3443 51.3324 74.049 48.2561 73.5633C46.6371 73.2395 46.637 73.2395 46.3132 74.8586C45.8275 77.4491 45.018 80.0397 43.8846 82.3064C42.5893 84.735 40.6465 86.3541 37.894 86.8398C35.9511 87.1636 34.1701 86.6779 32.551 85.2207C33.0367 84.8969 33.3606 84.5731 33.8463 84.2493C37.0845 82.1445 39.675 79.5539 41.456 76.1539C41.9417 75.3443 42.1036 74.3729 42.4274 73.4014C42.5893 72.7538 42.4274 72.5919 41.7798 72.2681C41.2941 72.1062 40.8084 71.7823 40.4846 72.43C39.0274 74.6967 37.4083 76.6396 35.4654 78.4206C33.3606 80.2016 31.0939 81.4968 28.3414 81.6587C25.7509 81.6587 23.6461 80.8492 22.027 78.4206C22.3508 78.2587 22.6746 78.0968 22.9984 78.0968C27.5319 77.1253 31.7415 75.5062 35.1416 72.1062C35.7892 71.6204 36.2749 70.8109 36.7606 70.3252C37.0845 69.8394 37.2464 69.5156 36.7606 68.868C36.2749 68.3823 35.7892 68.3823 35.1416 68.7061C33.1987 69.8394 31.4177 70.9728 29.4748 71.9442C26.3985 73.5633 23.3223 74.6967 19.7603 74.211C18.465 74.049 17.1698 73.7252 16.0364 73.0776C14.0935 72.2681 13.284 70.4871 12.9601 68.5442C12.7982 68.0584 13.122 67.8965 13.6078 67.8965C14.4173 67.8965 15.2269 67.8965 16.0364 67.8965C21.5413 67.8965 27.0462 66.9251 32.0653 64.6584C33.0368 64.1726 33.1987 64.0107 32.551 63.0393C32.2272 62.5536 31.9034 62.5536 31.4177 62.5536C28.1795 63.0393 25.1033 63.6869 21.8651 64.1726C19.1127 64.4965 16.5221 64.6584 13.7697 63.8488C9.88389 62.7155 7.61717 59.963 7.29336 55.9153C7.29336 55.4296 7.29336 54.9439 7.29336 54.2962C7.61717 54.4581 7.94099 54.4581 8.1029 54.62C15.065 57.6963 22.3508 58.6678 29.7986 58.0201C30.1224 58.0201 30.7701 58.0201 30.6081 57.3725C30.4462 56.8868 30.7701 56.0772 29.7986 55.9153C26.8843 55.4296 23.9699 55.1058 21.2174 54.62C17.9793 53.9724 14.7411 53.1629 11.8268 51.5438C8.91242 49.9247 6.96954 47.3342 6.48382 43.9341C6.32191 44.096 6.64568 40.0483 6.64568 40.2102" stroke="white" stroke-width="6.47633" stroke-miterlimit="10"/>
<path d="M111.4 51.221C119.657 49.2781 126.619 45.2303 132.61 39.2397C132.772 39.0778 132.934 38.9159 133.096 38.5921C133.905 37.7826 134.067 37.7826 134.391 38.9159C136.01 43.7732 133.905 49.1161 129.372 51.5448C126.134 53.3258 122.733 54.2972 119.01 54.7829C116.581 55.1067 114.314 55.5925 111.886 55.9163C111.4 56.0782 110.752 55.9163 110.59 56.7258C110.428 57.6973 110.428 58.0211 111.562 58.0211C119.01 58.6687 126.133 57.6973 132.934 54.7829C133.257 54.621 133.419 54.621 133.905 54.2972C133.905 54.9448 133.905 55.4306 133.905 55.9163C133.743 59.8021 131.638 62.5545 127.915 63.8498C125.972 64.4974 123.867 64.6593 121.762 64.4974C117.714 64.3355 113.667 63.6879 109.781 62.7164C108.809 62.5545 108.647 62.8783 108.486 63.526C108.162 64.3355 108.647 64.4974 109.133 64.6593C112.857 66.2784 116.743 67.4118 120.791 67.7356C122.895 67.8975 125.162 67.8975 127.429 68.0594C127.753 68.0594 128.076 68.0594 128.4 68.2213C128.238 71.4595 126.457 73.5643 123.057 74.2119C120.143 74.8596 117.229 74.5358 114.476 73.2405C111.724 71.9452 108.971 70.3261 106.381 68.869C105.733 68.5451 105.247 68.3832 104.762 69.0309C104.114 69.6785 104.6 70.1642 104.924 70.65C106.705 73.2405 109.133 75.0215 112.047 76.1548C114.152 77.1263 116.581 77.612 118.686 78.4215C118.848 78.4215 119.171 78.5835 119.495 78.7454C118.362 80.6883 116.743 81.6597 114.638 81.8216C112.047 82.1454 109.619 81.3359 107.514 79.7168C104.924 77.9358 102.981 75.5072 101.362 73.0786C100.876 72.269 99.7425 72.269 99.2567 72.9167C99.0948 73.0786 99.0948 73.4024 99.2567 73.7262C100.228 77.4501 102.657 80.5264 105.571 82.7931C106.381 83.4407 107.352 84.0883 108.324 84.8979C108.486 85.0598 108.647 85.2217 108.971 85.3836C107.352 87.1646 104.438 87.6503 102.009 86.517C99.9044 85.5455 98.4472 84.0883 97.6376 81.8216C96.6662 79.393 96.0186 76.9644 95.3709 74.5358C95.209 73.7262 94.8852 73.5643 94.0756 73.5643C90.6756 74.05 87.9231 75.1834 86.3041 78.4215C86.3041 78.5835 86.1421 78.7454 85.9802 78.9073C85.9802 78.7454 85.8184 78.5835 85.8184 78.4215C85.8184 74.6977 85.8184 70.9738 85.8184 67.4118C85.8184 66.6022 86.1421 66.6022 86.7898 66.7642C89.2184 67.4118 91.647 67.5737 94.0756 67.088C99.5805 66.1165 103.143 59.1545 98.771 54.1353C98.4472 53.8115 98.2853 53.4877 97.9615 53.0019C109.943 44.5827 118.686 33.2491 126.619 20.9441C128.562 22.7251 129.695 24.8299 129.857 27.4204C130.343 32.2777 128.562 36.1635 125.162 39.4016C121.438 42.9636 117.067 45.7161 112.533 48.3066C110.914 49.1161 110.752 49.9257 111.4 51.221Z" fill="white" stroke="white" stroke-width="6.47633" stroke-miterlimit="10"/>
<path d="M80.1523 37.2961C78.2094 36.1628 76.5903 34.8675 75.6189 33.0865C75.295 32.4389 75.1331 31.7912 74.8093 30.9817C75.295 30.9817 75.6189 30.9817 75.7808 30.9817C77.7237 31.3055 79.6666 31.6293 81.6095 31.7912C85.3334 31.9531 89.0573 31.7912 92.7811 32.115C94.5621 32.277 96.3431 32.6008 98.1241 33.0865C101.2 34.0579 102.01 37.9437 99.9051 40.3724C99.7432 40.0486 99.5813 39.8866 99.4194 39.5628C98.6099 38.4295 97.4765 38.1057 96.1812 38.1057C90.5144 37.7818 86.6286 40.6962 83.7143 45.0677C82.2571 47.3344 81.1238 49.925 80.9619 52.6774C80.638 56.0775 81.4476 59.1537 84.0381 61.4205C84.0381 61.4205 84.2 61.5824 84.2 61.7443C75.2951 61.7443 66.552 61.7443 57.4851 61.7443C57.9709 61.2586 58.4566 60.9347 58.7804 60.449C60.7233 58.3442 61.3709 55.5918 61.0471 52.8393C60.2376 46.2011 56.9994 41.5057 50.8469 38.7533C49.0659 37.9437 47.2849 37.9437 45.342 38.1057C44.0468 38.2676 42.9134 38.7533 42.2657 39.8866C42.2657 40.0486 42.1038 40.0486 41.9419 40.2105H41.78C39.5133 36.8104 40.9705 33.4103 44.5325 32.7627C46.7992 32.277 49.0659 32.115 51.3326 31.9531C53.9231 31.7912 56.6756 31.7912 59.2661 31.7912C61.6947 31.7912 63.9615 31.6293 66.2282 30.9817C66.3901 30.9817 66.552 30.9817 66.7139 30.9817C66.0663 34.0579 63.9615 35.8389 61.5329 37.458C67.1996 43.1248 69.7902 50.0869 70.7616 57.8585C71.895 49.925 74.3236 42.801 80.1523 37.2961Z" fill="white" stroke="white" stroke-width="6.47633" stroke-miterlimit="10"/>
<path d="M84.0385 27.096C83.7147 25.9626 83.229 24.8292 83.067 23.6959C82.7432 21.9149 84.0385 20.4577 85.8195 20.4577C86.1433 20.4577 86.629 20.6196 86.9528 20.9434C87.7624 21.753 88.7338 22.5625 89.5434 23.3721C90.3529 22.5625 91.1625 21.9149 91.972 21.2673C93.1054 20.2958 94.5626 20.4577 95.534 21.5911C96.1816 22.5625 96.3435 23.6959 95.8578 24.6673C95.3721 25.8007 94.7245 26.934 93.9149 28.0674C93.753 28.2293 93.4292 28.3912 93.1054 28.3912C89.7053 28.3912 86.1433 28.3912 82.7432 28.0674C78.5336 27.5817 75.7812 25.153 74.4859 21.1053C74.324 20.4577 74.0002 20.2958 73.3525 20.2958C71.5716 20.2958 69.6287 20.2958 67.8477 20.2958C67.3619 20.2958 67.0381 20.4577 66.8762 20.9434C65.2571 25.6388 61.8571 27.7436 57.4855 28.0674C54.5712 28.2293 51.6568 28.2293 48.9044 28.2293C48.2567 28.2293 47.771 28.0674 47.2853 27.4198C46.4757 26.1245 45.6662 24.8292 45.5043 23.3721C45.3424 22.0768 45.9901 21.1053 46.9615 20.4577C48.0949 19.972 48.4187 19.972 49.3901 20.7815C50.0378 21.4292 50.6854 21.9149 51.1711 22.5625C51.6568 23.0482 51.9806 22.8863 52.3045 22.5625C52.9521 22.0768 53.4378 21.4292 54.0855 20.9434C55.3807 19.8101 57.3236 20.2958 57.9712 21.9149C58.457 23.3721 57.9713 24.6673 57.3236 25.9626C57.1617 26.2864 56.9998 26.4483 56.8379 26.934C57.3236 26.934 57.6474 26.934 58.1332 26.934C61.0475 25.9626 63.3142 24.1816 64.2857 21.2673C64.4476 20.6196 64.4476 20.2958 64.1237 19.6482C62.8285 17.5434 61.5332 15.4385 61.2094 13.0099C60.8856 10.4194 62.9904 8.15268 65.581 8.47649C65.9048 8.47649 66.2286 8.80031 66.3905 8.96222C67.6858 10.4194 68.8191 11.8766 70.1144 13.3337C70.6001 13.9814 70.9239 13.9814 71.4096 13.3337C72.543 11.8766 73.8383 10.4194 75.1335 8.96222C75.2955 8.80031 75.6193 8.47649 75.9431 8.47649C79.0193 8.47649 80.8003 10.4194 80.3146 13.3337C79.8289 15.7624 78.6955 17.7053 77.4003 19.6482C77.2383 19.972 77.0764 20.4577 77.0764 20.7815C77.5621 24.0197 81.1242 27.096 84.0385 27.096Z" fill="white" stroke="white" stroke-width="6.47633" stroke-miterlimit="10"/>
<path d="M33.1989 32.7632C33.1989 32.1156 33.1989 31.6299 33.1989 31.1441C33.1989 30.3346 32.875 29.8489 31.9036 30.0108C30.9321 30.3346 29.7988 30.6584 28.8273 30.9822C28.8273 30.6584 28.9893 30.1727 28.9893 29.687C29.3131 28.0679 28.9892 26.6107 27.8559 25.4773C27.3702 24.9916 26.8845 24.344 26.5606 23.8583C25.7511 22.563 26.0749 21.4296 27.5321 20.9439C28.5035 20.6201 29.6369 20.4582 30.6083 20.2963C32.0655 20.1344 33.1988 19.4867 34.1703 18.5153C34.8179 17.7057 35.6275 17.0581 36.4371 16.2486C36.9228 15.7628 37.4085 15.439 38.0561 15.1152C39.0276 14.6295 39.8371 14.7914 40.4848 15.7628C40.6467 16.0867 40.8086 16.2486 40.9705 16.5724C41.4562 17.3819 41.4562 18.0296 40.8085 18.8391C39.5133 20.4582 39.0275 22.2392 39.8371 24.1821C40.6466 26.125 42.1038 27.2583 44.2086 27.5822C44.3705 27.5822 44.5324 27.5822 44.6943 27.7441C44.8562 27.906 45.0182 28.0679 45.1801 28.2298C45.0182 28.3917 44.8563 28.5536 44.5325 28.3917C41.1324 28.0679 37.8942 26.125 37.4085 22.2392C37.4085 21.4296 37.5704 20.782 37.4085 19.9725C37.4085 19.8105 37.0847 19.3248 36.9228 19.3248C35.3037 19.3248 33.8465 19.3248 32.3893 20.2963C30.7703 21.4296 30.2845 23.2106 31.4179 24.9916C31.7417 25.4773 32.0655 25.9631 32.5512 26.4488C33.0369 27.0964 33.6846 27.7441 34.1703 28.3917C35.4656 30.1727 35.1418 31.468 33.1989 32.7632Z" fill="white" stroke="white" stroke-width="6.47633" stroke-miterlimit="10"/>
<path d="M112.534 31.144C111.886 30.8201 111.076 30.4963 110.429 30.1725C108.648 29.5249 108 30.1725 108.162 32.1154C108.162 32.2773 108.162 32.4392 108.162 32.6011C107.029 32.2773 106.219 30.982 106.543 29.6868C106.867 28.8772 107.353 28.2296 107.838 27.582C108.324 26.9343 109.134 26.2867 109.619 25.4772C111.076 23.5343 110.753 21.2675 108.486 20.1342C107.191 19.4866 105.733 19.4866 104.438 19.1627C103.952 19.0008 103.791 19.4866 103.952 19.8104C103.952 20.6199 104.114 21.4295 104.114 22.239C103.791 24.6676 102.495 26.4486 100.229 27.4201C99.2571 27.9058 98.1238 28.0677 96.9904 28.2296C96.8285 28.2296 96.6666 28.0677 96.3428 28.0677C96.5047 27.9058 96.5047 27.582 96.8285 27.582C97.1523 27.4201 97.638 27.4201 97.9619 27.4201C102.01 26.4486 103.305 22.0771 100.876 18.677C100.552 18.1913 100.067 17.5437 100.229 17.2198C100.552 16.4103 101.2 15.6008 101.848 14.9531C102.171 14.6293 102.981 14.7912 103.467 15.115C104.276 15.6008 104.924 16.2484 105.572 16.896C106.057 17.2198 106.381 17.7056 106.705 18.1913C108 19.6485 109.457 20.2961 111.4 20.458C112.21 20.6199 113.019 20.6199 113.667 20.9437C115.124 21.4295 115.448 22.5628 114.638 23.6962C114.476 23.8581 114.315 24.02 114.153 24.3438C111.886 27.2582 111.724 27.582 112.534 31.144Z" fill="white" stroke="white" stroke-width="6.47633" stroke-miterlimit="10"/>
<path d="M81.2862 93.8027C77.7242 93.8027 73.0289 94.936 70.7622 96.717C68.0097 98.9837 63.4763 93.8027 59.7524 93.8027C59.4286 93.8027 57.9714 93.8027 56.6762 92.5074C55.8666 91.6979 55.3809 90.5645 55.3809 89.4311V62.3925H85.4958V89.5931C85.6577 91.8598 83.5529 93.8027 81.2862 93.8027Z" fill="#00A2E5"/>
<path d="M70.4387 129.422C70.1149 129.26 69.4672 128.613 69.1434 128.451C65.7433 126.508 65.5815 125.698 66.2291 121.813C66.8767 118.574 67.6863 115.336 68.4958 112.098C68.6577 111.289 69.4673 108.86 68.8196 109.346C66.5529 111.289 65.4195 113.879 64.2862 116.632C63.1528 119.384 62.5052 122.136 62.3433 125.213C60.4004 124.565 58.9432 123.756 57.9718 121.975C57.3241 120.841 57.6479 119.708 57.9718 118.574C59.5908 113.879 62.6671 110.317 67.2006 107.727C67.3625 107.565 67.6863 107.565 67.8482 107.241C68.0101 107.079 68.0101 106.917 68.0101 106.755C68.0101 106.593 67.6862 106.431 67.5243 106.431C67.2005 106.431 66.8767 106.431 66.5529 106.593C60.2384 109.184 55.705 113.555 53.6002 120.194C53.4383 120.679 53.2764 120.841 52.7907 120.679C51.3335 120.194 50.2002 119.384 49.2287 117.927C48.5811 116.793 48.743 115.66 49.3906 114.527C50.3621 112.908 51.8192 111.451 53.2764 110.317C57.0003 107.565 61.2099 105.622 65.7433 104.327C66.8767 104.003 66.8767 104.003 66.391 103.031C65.4196 100.603 64.1243 98.3359 61.8575 96.7169C60.4004 95.5835 58.9432 95.2597 57.1622 95.5835C55.3812 96.0692 54.2478 97.6883 54.4098 99.6312C54.4098 100.279 54.5717 100.765 54.7336 101.412C55.0574 102.707 54.8955 102.707 53.6002 103.031C51.0097 103.517 48.4192 103.841 45.8286 104.488C44.3715 104.812 43.0762 105.622 41.9428 106.108C43.0762 107.403 44.0476 108.536 45.181 109.67C45.8286 110.317 45.8286 110.803 45.3429 111.451C44.8572 112.098 44.0476 112.26 43.4 111.612C42.4286 110.803 41.2952 109.831 40.3238 108.86C39.838 108.536 39.6761 108.374 39.0285 108.698C36.5998 109.831 33.6855 108.698 32.714 106.269C32.2283 105.136 32.3902 104.003 32.876 103.031C33.0379 102.546 33.0379 102.384 32.714 102.06C28.6663 98.3359 24.7805 94.4501 20.7328 90.7263C20.409 90.4024 20.0852 90.4024 19.5995 90.5643C18.4661 91.212 17.8185 91.0501 17.009 90.2405C16.8471 90.0786 16.3613 89.9167 16.0375 90.0786C13.6089 90.8882 10.8564 89.431 10.0469 86.6785C10.8564 86.6785 11.666 86.6785 12.4755 86.6785C12.1517 85.7071 11.8279 84.8975 11.504 83.9261C10.8564 81.8213 11.9898 80.526 14.2565 80.6879C15.228 80.8498 16.1994 81.1737 17.1708 81.3356C17.1708 80.526 17.1708 79.8784 17.1708 79.0688C19.5995 79.2308 21.5424 81.8213 21.0567 84.4118C20.8948 84.8976 20.8947 85.3833 21.3805 85.7071C22.19 86.3547 22.19 87.0024 22.0281 87.9738C22.0281 88.2976 22.19 88.7833 22.3519 88.9453C26.3996 92.8311 30.2854 96.5549 34.3331 100.279C34.6569 100.603 35.1427 100.765 35.6284 100.765C37.2475 100.603 38.7047 100.926 39.9999 101.898C40.1618 102.06 40.4856 102.222 40.8095 102.222C43.8857 102.222 46.962 101.898 49.7144 100.603C49.8763 100.603 50.0383 100.441 50.2002 100.279C50.0383 99.955 49.8763 99.6312 49.7144 99.3074C48.2572 97.0407 47.1239 94.6121 46.6382 91.8596C45.9905 87.1643 49.2287 83.7642 53.7621 83.4404C54.2479 83.4404 54.7336 83.4404 55.2193 83.4404C55.2193 83.7642 55.2193 84.088 55.2193 84.4118C55.2193 86.3547 55.2193 88.4595 55.2193 90.4024C55.2193 92.6691 56.6765 94.2882 58.9432 94.612C60.4004 94.774 61.8575 94.774 63.3147 94.612C65.9052 94.4501 68.0101 95.4216 69.4673 97.5264C69.953 98.0121 70.1149 98.0121 70.6006 97.5264C72.0578 95.5835 74.1626 94.6121 76.5912 94.774C78.0484 94.774 79.5056 94.774 80.9628 94.774C83.3914 94.6121 84.8486 92.993 85.0105 90.5643C85.0105 88.4595 85.0105 86.5166 85.0105 84.4118C85.0105 83.7642 85.1724 83.4404 85.82 83.6023C86.9534 83.7642 87.9248 83.9261 89.0582 84.2499C92.7821 85.5452 94.0773 89.2691 93.5916 92.6692C93.2678 95.0978 91.9725 97.3645 90.6773 99.4693C89.8677 100.603 89.8677 100.765 91.3249 101.25C93.5916 102.222 96.0202 102.384 98.4488 102.546C98.7727 102.546 99.0965 102.06 99.2584 101.736C99.7441 100.279 100.554 99.1455 101.849 98.3359C102.335 98.0121 102.497 98.0121 102.982 98.3359C103.954 99.1455 104.925 99.7931 105.897 100.603C106.382 101.088 106.868 101.088 107.354 100.603C108.325 99.7931 109.297 99.1455 110.106 98.3359C110.592 97.8502 110.916 98.0121 111.402 98.3359C113.668 100.279 114.802 102.546 114.154 105.622C113.506 108.536 110.916 110.641 108.001 111.127C105.249 111.612 102.658 110.803 100.877 108.698C99.0965 106.755 96.9917 105.46 94.563 104.974C92.1344 104.327 89.5439 104.003 87.1153 103.679C86.1438 103.517 85.9819 103.355 86.1438 102.222C86.3057 101.25 86.4676 100.279 86.4676 99.4693C85.9819 96.5549 83.0676 95.2597 80.1532 96.7169C78.8579 97.3645 77.7246 98.4979 76.7531 99.6312C75.7817 100.926 75.134 102.546 74.3245 104.003C74.0007 104.65 74.4864 104.812 74.9721 104.974C77.5627 105.946 79.9913 106.755 82.4199 107.889C85.3343 109.184 88.0867 111.127 90.3534 113.717C90.5153 113.879 90.5154 113.879 90.6773 114.041C93.1059 116.955 91.8106 120.517 88.0867 121.489C87.4391 121.651 87.4391 121.327 87.2772 120.841C86.3057 117.603 84.5247 114.689 82.0961 112.26C79.8294 109.993 77.2388 108.212 74.1626 107.241C73.8388 107.079 73.1911 107.241 73.0292 107.403C72.7054 107.889 73.1912 108.212 73.6769 108.536C78.2103 110.965 81.4485 114.527 83.0675 119.546C83.8771 121.651 83.3914 123.108 81.6104 124.565C80.9627 125.051 80.3151 125.537 79.5055 125.86C78.696 126.346 78.5341 126.184 78.5341 125.213C78.3722 122.298 77.7246 119.546 76.4293 116.955C75.4578 115.013 74.4864 113.232 73.353 111.451C73.0292 110.965 72.5435 110.641 72.2197 110.317C72.0578 110.317 72.0578 110.479 71.8959 110.479C71.734 109.831 71.8959 111.289 72.2197 112.746C73.0292 115.984 74.0007 119.06 74.8102 122.298C74.9721 122.946 75.1341 123.756 75.296 124.403C75.6198 126.346 74.3245 127.803 72.8673 128.937C72.0578 129.584 72.2197 130.07 71.2483 130.07C70.6006 129.746 70.6006 129.422 70.4387 129.422Z" fill="#84DAF5" stroke="#0587D6" stroke-width="2.42863" stroke-miterlimit="10"/>
<path d="M6.64568 40.8578C6.80759 40.0483 6.80761 39.5626 6.96952 38.9149C6.96952 38.5911 7.13145 38.4292 7.29336 38.1054C7.61717 38.2673 7.94099 38.2673 8.1029 38.5911C10.5315 40.6959 12.7982 42.8007 15.2269 44.7436C19.4365 47.658 23.9699 49.9247 28.9891 51.0581C29.3129 51.22 29.6367 51.22 29.9605 51.22C30.6082 49.9247 30.4462 49.2771 29.3129 48.4675C26.5604 46.6865 23.6461 45.0675 21.0556 43.2865C17.6555 40.8578 14.5792 38.1054 12.9601 34.0577C11.0172 29.3623 11.503 24.9908 15.0649 20.9431C15.2268 21.2669 15.5507 21.4288 15.7126 21.7527C19.1126 26.9337 22.5127 31.9529 26.5604 36.6482C31.5796 42.4769 36.5987 48.1437 43.0751 52.3533C43.5608 52.6771 44.0465 53.001 43.3989 53.8105C41.1322 56.0772 40.3226 58.9916 41.6179 62.0678C42.9132 65.306 45.5037 66.9251 48.9038 67.2489C51.0086 67.5727 53.1134 67.2489 55.2182 66.7632C55.8658 66.6013 56.0277 66.7632 56.0277 67.4108C56.0277 68.5442 56.0277 69.6775 56.0277 70.8109C56.0277 73.4014 56.0277 75.992 56.0277 78.5825C56.0277 78.7444 56.0277 78.9063 56.0277 79.2301C55.7039 78.7444 55.542 78.5825 55.3801 78.2587C53.9229 75.3443 51.3324 74.049 48.2561 73.5633C46.6371 73.2395 46.637 73.2395 46.3132 74.8586C45.8275 77.4491 45.018 80.0397 43.8846 82.3064C42.5893 84.735 40.6465 86.3541 37.894 86.8398C35.9511 87.1636 34.1701 86.6779 32.551 85.2207C33.0367 84.8969 33.3606 84.5731 33.8463 84.2493C37.0845 82.1445 39.675 79.5539 41.456 76.1539C41.9417 75.3443 42.1036 74.3729 42.4274 73.4014C42.5893 72.7538 42.4274 72.5919 41.7798 72.2681C41.2941 72.1062 40.8084 71.7823 40.4846 72.43C39.0274 74.6967 37.4083 76.6396 35.4654 78.4206C33.3606 80.2016 31.0939 81.4968 28.3414 81.6587C25.7509 81.6587 23.6461 80.8492 22.027 78.4206C22.3508 78.2587 22.6746 78.0968 22.9984 78.0968C27.5319 77.1253 31.7415 75.5062 35.1416 72.1062C35.7892 71.6204 36.2749 70.8109 36.7606 70.3252C37.0845 69.8394 37.2464 69.5156 36.7606 68.868C36.2749 68.3823 35.7892 68.3823 35.1416 68.7061C33.1987 69.8394 31.4177 70.9728 29.4748 71.9442C26.3985 73.5633 23.3223 74.6967 19.7603 74.211C18.465 74.049 17.1698 73.7252 16.0364 73.0776C14.0935 72.2681 13.284 70.4871 12.9601 68.5442C12.7982 68.0584 13.122 67.8965 13.6078 67.8965C14.4173 67.8965 15.2269 67.8965 16.0364 67.8965C21.5413 67.8965 27.0462 66.9251 32.0653 64.6584C33.0368 64.1726 33.1987 64.0107 32.551 63.0393C32.2272 62.5536 31.9034 62.5536 31.4177 62.5536C28.1795 63.0393 25.1033 63.6869 21.8651 64.1726C19.1127 64.4965 16.5221 64.6584 13.7697 63.8488C9.88389 62.7155 7.61717 59.963 7.29336 55.9153C7.29336 55.4296 7.29336 54.9439 7.29336 54.2962C7.61717 54.4581 7.94099 54.4581 8.1029 54.62C15.065 57.6963 22.3508 58.6678 29.7986 58.0201C30.1224 58.0201 30.7701 58.0201 30.6082 57.3725C30.4462 56.8868 30.7701 56.0772 29.7986 55.9153C26.8843 55.4296 23.9699 55.1058 21.2174 54.62C17.9793 53.9724 14.7411 53.1629 11.8268 51.5438C8.91242 49.9247 6.96954 47.3342 6.48382 43.9341C6.32191 44.096 6.64568 40.0483 6.64568 40.2102" fill="#84DAF5"/>
<path d="M6.64568 40.8578C6.80759 40.0483 6.80761 39.5626 6.96952 38.9149C6.96952 38.5911 7.13145 38.4292 7.29336 38.1054C7.61717 38.2673 7.94099 38.2673 8.1029 38.5911C10.5315 40.6959 12.7982 42.8007 15.2269 44.7436C19.4365 47.658 23.9699 49.9247 28.9891 51.0581C29.3129 51.22 29.6367 51.22 29.9605 51.22C30.6082 49.9247 30.4462 49.2771 29.3129 48.4675C26.5604 46.6865 23.6461 45.0675 21.0556 43.2865C17.6555 40.8578 14.5792 38.1054 12.9601 34.0577C11.0172 29.3623 11.503 24.9908 15.0649 20.9431C15.2268 21.2669 15.5507 21.4288 15.7126 21.7527C19.1126 26.9337 22.5127 31.9529 26.5604 36.6482C31.5796 42.4769 36.5987 48.1437 43.0751 52.3533C43.5608 52.6771 44.0465 53.001 43.3989 53.8105C41.1322 56.0772 40.3226 58.9916 41.6179 62.0678C42.9132 65.306 45.5037 66.9251 48.9038 67.2489C51.0086 67.5727 53.1134 67.2489 55.2182 66.7632C55.8658 66.6013 56.0277 66.7632 56.0277 67.4108C56.0277 68.5442 56.0277 69.6775 56.0277 70.8109C56.0277 73.4014 56.0277 75.992 56.0277 78.5825C56.0277 78.7444 56.0277 78.9063 56.0277 79.2301C55.7039 78.7444 55.542 78.5825 55.3801 78.2587C53.9229 75.3443 51.3324 74.049 48.2561 73.5633C46.6371 73.2395 46.637 73.2395 46.3132 74.8586C45.8275 77.4491 45.018 80.0397 43.8846 82.3064C42.5893 84.735 40.6465 86.3541 37.894 86.8398C35.9511 87.1636 34.1701 86.6779 32.551 85.2207C33.0367 84.8969 33.3606 84.5731 33.8463 84.2493C37.0845 82.1445 39.675 79.5539 41.456 76.1539C41.9417 75.3443 42.1036 74.3729 42.4274 73.4014C42.5893 72.7538 42.4274 72.5919 41.7798 72.2681C41.2941 72.1062 40.8084 71.7823 40.4846 72.43C39.0274 74.6967 37.4083 76.6396 35.4654 78.4206C33.3606 80.2016 31.0939 81.4968 28.3414 81.6587C25.7509 81.6587 23.6461 80.8492 22.027 78.4206C22.3508 78.2587 22.6746 78.0968 22.9984 78.0968C27.5319 77.1253 31.7415 75.5062 35.1416 72.1062C35.7892 71.6204 36.2749 70.8109 36.7606 70.3252C37.0845 69.8394 37.2464 69.5156 36.7606 68.868C36.2749 68.3823 35.7892 68.3823 35.1416 68.7061C33.1987 69.8394 31.4177 70.9728 29.4748 71.9442C26.3985 73.5633 23.3223 74.6967 19.7603 74.211C18.465 74.049 17.1698 73.7252 16.0364 73.0776C14.0935 72.2681 13.284 70.4871 12.9601 68.5442C12.7982 68.0584 13.122 67.8965 13.6078 67.8965C14.4173 67.8965 15.2269 67.8965 16.0364 67.8965C21.5413 67.8965 27.0462 66.9251 32.0653 64.6584C33.0368 64.1726 33.1987 64.0107 32.551 63.0393C32.2272 62.5536 31.9034 62.5536 31.4177 62.5536C28.1795 63.0393 25.1033 63.6869 21.8651 64.1726C19.1127 64.4965 16.5221 64.6584 13.7697 63.8488C9.88389 62.7155 7.61717 59.963 7.29336 55.9153C7.29336 55.4296 7.29336 54.9439 7.29336 54.2962C7.61717 54.4581 7.94099 54.4581 8.1029 54.62C15.065 57.6963 22.3508 58.6678 29.7986 58.0201C30.1224 58.0201 30.7701 58.0201 30.6081 57.3725C30.4462 56.8868 30.7701 56.0772 29.7986 55.9153C26.8843 55.4296 23.9699 55.1058 21.2174 54.62C17.9793 53.9724 14.7411 53.1629 11.8268 51.5438C8.91242 49.9247 6.96954 47.3342 6.48382 43.9341C6.32191 44.096 6.64568 40.0483 6.64568 40.2102" stroke="#0587D6" stroke-width="2.42863" stroke-miterlimit="10"/>
<path d="M111.4 51.221C119.657 49.2781 126.619 45.2303 132.61 39.2397C132.772 39.0778 132.934 38.9159 133.096 38.5921C133.905 37.7826 134.067 37.7826 134.391 38.9159C136.01 43.7732 133.905 49.1161 129.372 51.5448C126.134 53.3258 122.733 54.2972 119.01 54.7829C116.581 55.1067 114.314 55.5925 111.886 55.9163C111.4 56.0782 110.752 55.9163 110.59 56.7258C110.428 57.6973 110.428 58.0211 111.562 58.0211C119.01 58.6687 126.133 57.6973 132.934 54.7829C133.257 54.621 133.419 54.621 133.905 54.2972C133.905 54.9448 133.905 55.4306 133.905 55.9163C133.743 59.8021 131.638 62.5545 127.915 63.8498C125.972 64.4974 123.867 64.6593 121.762 64.4974C117.714 64.3355 113.667 63.6879 109.781 62.7164C108.809 62.5545 108.647 62.8783 108.486 63.526C108.162 64.3355 108.647 64.4974 109.133 64.6593C112.857 66.2784 116.743 67.4118 120.791 67.7356C122.895 67.8975 125.162 67.8975 127.429 68.0594C127.753 68.0594 128.076 68.0594 128.4 68.2213C128.238 71.4595 126.457 73.5643 123.057 74.2119C120.143 74.8596 117.229 74.5358 114.476 73.2405C111.724 71.9452 108.971 70.3261 106.381 68.869C105.733 68.5451 105.247 68.3832 104.762 69.0309C104.114 69.6785 104.6 70.1642 104.924 70.65C106.705 73.2405 109.133 75.0215 112.047 76.1548C114.152 77.1263 116.581 77.612 118.686 78.4215C118.848 78.4215 119.171 78.5835 119.495 78.7454C118.362 80.6883 116.743 81.6597 114.638 81.8216C112.047 82.1454 109.619 81.3359 107.514 79.7168C104.924 77.9358 102.981 75.5072 101.362 73.0786C100.876 72.269 99.7425 72.269 99.2567 72.9167C99.0948 73.0786 99.0948 73.4024 99.2567 73.7262C100.228 77.4501 102.657 80.5264 105.571 82.7931C106.381 83.4407 107.352 84.0883 108.324 84.8979C108.486 85.0598 108.647 85.2217 108.971 85.3836C107.352 87.1646 104.438 87.6503 102.009 86.517C99.9044 85.5455 98.4472 84.0883 97.6376 81.8216C96.6662 79.393 96.0186 76.9644 95.3709 74.5358C95.209 73.7262 94.8852 73.5643 94.0756 73.5643C90.6756 74.05 87.9231 75.1834 86.3041 78.4215C86.3041 78.5835 86.1421 78.7454 85.9802 78.9073C85.9802 78.7454 85.8184 78.5835 85.8184 78.4215C85.8184 74.6977 85.8184 70.9738 85.8184 67.4118C85.8184 66.6022 86.1421 66.6022 86.7898 66.7642C89.2184 67.4118 91.647 67.5737 94.0756 67.088C99.5805 66.1165 103.143 59.1545 98.771 54.1353C98.4472 53.8115 98.2853 53.4877 97.9615 53.0019C109.943 44.5827 118.686 33.2491 126.619 20.9441C128.562 22.7251 129.695 24.8299 129.857 27.4204C130.343 32.2777 128.562 36.1635 125.162 39.4016C121.438 42.9636 117.067 45.7161 112.533 48.3066C110.914 49.1161 110.752 49.9257 111.4 51.221Z" fill="#84DAF5" stroke="#0587D6" stroke-width="2.42863" stroke-miterlimit="10"/>
<path d="M80.1523 37.2961C78.2094 36.1628 76.5903 34.8675 75.6189 33.0865C75.295 32.4389 75.1331 31.7912 74.8093 30.9817C75.295 30.9817 75.6189 30.9817 75.9427 31.1436C77.7237 31.4674 79.6666 31.7912 81.4476 31.9531C85.1715 32.115 89.0573 31.9531 92.7811 32.277C94.5621 32.4389 96.3431 32.7627 98.1241 33.2484C101.2 34.2199 102.01 38.1057 99.9051 40.5343C99.7432 40.2105 99.5813 40.0486 99.4194 39.7247C98.6099 38.5914 97.4765 38.2676 96.1812 38.2676C90.5144 37.9437 86.6286 40.8581 83.7143 45.2296C82.2571 47.4963 81.1238 50.0869 80.9619 52.8393C80.638 56.2394 81.4476 59.3157 84.0381 61.5824C84.0381 61.5824 84.2 61.7443 84.2 61.9062C75.2951 61.9062 66.552 61.9062 57.4851 61.9062C57.9709 61.4205 58.4566 61.0966 58.7804 60.6109C60.7233 58.5061 61.3709 55.7537 61.0471 53.0012C60.2376 46.363 56.9994 41.6676 50.8469 38.9152C49.0659 38.1057 47.2849 38.1057 45.342 38.2676C44.0468 38.4295 42.9134 38.9152 42.2657 40.0486C42.2657 40.2105 42.1038 40.2105 41.9419 40.3724H41.78C39.5133 36.9723 40.9705 33.5722 44.5325 32.9246C46.9611 32.4389 49.5516 32.277 52.1421 32.115C54.085 31.9531 56.1899 31.9531 58.2947 32.115C61.0471 32.115 63.7996 32.115 66.3901 31.3055C66.552 31.3055 66.7139 31.3055 66.8758 31.3055C66.2282 34.3818 64.1234 36.1628 61.6947 37.7818C67.1996 43.2867 69.7902 49.925 70.7616 57.5347C70.7616 57.6966 70.9235 57.6966 70.9235 57.5347C72.0569 49.6012 74.4855 42.6391 80.1523 37.2961Z" fill="#84DAF5" stroke="#0587D6" stroke-width="2.42863" stroke-miterlimit="10"/>
<path d="M84.0385 27.096C83.7147 25.9626 83.229 24.8292 83.067 23.6959C82.7432 21.9149 84.0385 20.4577 85.8195 20.4577C86.1433 20.4577 86.629 20.6196 86.9528 20.9434C87.7624 21.753 88.7338 22.5625 89.5434 23.3721C90.3529 22.5625 91.1625 21.9149 91.972 21.2673C93.1054 20.2958 94.5626 20.4577 95.534 21.5911C96.1816 22.5625 96.3435 23.6959 95.8578 24.6673C95.3721 25.8007 94.7245 26.934 93.9149 28.0674C93.753 28.2293 93.4292 28.3912 93.1054 28.3912C89.7053 28.3912 86.1433 28.3912 82.7432 28.0674C78.5336 27.5817 75.7812 25.153 74.4859 21.1053C74.324 20.4577 74.0002 20.2958 73.3525 20.2958C71.5716 20.2958 69.6287 20.2958 67.8477 20.2958C67.3619 20.2958 67.0381 20.4577 66.8762 20.9434C65.2571 25.6388 61.8571 27.7436 57.4855 28.0674C54.5712 28.2293 51.6568 28.2293 48.9044 28.2293C48.2567 28.2293 47.771 28.0674 47.2853 27.4198C46.4757 26.1245 45.6662 24.8292 45.5043 23.3721C45.3424 22.0768 45.9901 21.1053 46.9615 20.4577C48.0949 19.972 48.4187 19.972 49.3901 20.7815C50.0378 21.4292 50.6854 21.9149 51.1711 22.5625C51.6568 23.0482 51.9806 22.8863 52.3045 22.5625C52.9521 22.0768 53.4378 21.4292 54.0855 20.9434C55.3807 19.8101 57.3236 20.2958 57.9712 21.9149C58.457 23.3721 57.9713 24.6673 57.3236 25.9626C57.1617 26.2864 56.9998 26.4483 56.8379 26.934C57.3236 26.934 57.6474 26.934 58.1332 26.934C61.0475 25.9626 63.3142 24.1816 64.2857 21.2673C64.4476 20.6196 64.4476 20.2958 64.1237 19.6482C62.8285 17.5434 61.5332 15.4385 61.2094 13.0099C60.8856 10.4194 62.9904 8.15268 65.581 8.47649C65.9048 8.47649 66.2286 8.80031 66.3905 8.96222C67.6858 10.4194 68.8191 11.8766 70.1144 13.3337C70.6001 13.9814 70.9239 13.9814 71.4096 13.3337C72.543 11.8766 73.8383 10.4194 75.1335 8.96222C75.2955 8.80031 75.6193 8.47649 75.9431 8.47649C79.0193 8.47649 80.8003 10.4194 80.3146 13.3337C79.8289 15.7624 78.6955 17.7053 77.4003 19.6482C77.2383 19.972 77.0764 20.4577 77.0764 20.7815C77.5621 24.0197 81.1242 27.096 84.0385 27.096Z" fill="#84DAF5" stroke="#0587D6" stroke-width="2.42863" stroke-miterlimit="10"/>
<path d="M33.1989 32.7632C33.1989 32.1156 33.1989 31.6299 33.1989 31.1441C33.1989 30.3346 32.875 29.8489 31.9036 30.0108C30.9321 30.3346 29.7988 30.6584 28.8273 30.9822C28.8273 30.6584 28.9893 30.1727 28.9893 29.687C29.3131 28.0679 28.9892 26.6107 27.8559 25.4773C27.3702 24.9916 26.8845 24.344 26.5606 23.8583C25.7511 22.563 26.0749 21.4296 27.5321 20.9439C28.5035 20.6201 29.6369 20.4582 30.6083 20.2963C32.0655 20.1344 33.1988 19.4867 34.1703 18.5153C34.8179 17.7057 35.6275 17.0581 36.4371 16.2486C36.9228 15.7628 37.4085 15.439 38.0561 15.1152C39.0276 14.6295 39.8371 14.7914 40.4848 15.7628C40.6467 16.0867 40.8086 16.2486 40.9705 16.5724C41.4562 17.3819 41.4562 18.0296 40.8085 18.8391C39.5133 20.4582 39.0275 22.2392 39.8371 24.1821C40.6466 26.125 42.1038 27.2583 44.2086 27.5822C44.3705 27.5822 44.5324 27.5822 44.6943 27.7441C44.8562 27.906 45.0182 28.0679 45.1801 28.2298C45.0182 28.3917 44.8563 28.5536 44.5325 28.3917C41.1324 28.0679 37.8942 26.125 37.4085 22.2392C37.4085 21.4296 37.5704 20.782 37.4085 19.9725C37.4085 19.8105 37.0847 19.3248 36.9228 19.3248C35.3037 19.3248 33.8465 19.3248 32.3893 20.2963C30.7703 21.4296 30.2845 23.2106 31.4179 24.9916C31.7417 25.4773 32.0655 25.9631 32.5512 26.4488C33.0369 27.0964 33.6846 27.7441 34.1703 28.3917C35.4656 30.1727 35.1418 31.468 33.1989 32.7632Z" fill="#0587D6" stroke="#0587D6" stroke-width="2.42863" stroke-miterlimit="10"/>
<path d="M112.534 31.144C111.886 30.8201 111.076 30.4963 110.429 30.1725C108.648 29.5249 108 30.1725 108.162 32.1154C108.162 32.2773 108.162 32.4392 108.162 32.6011C107.029 32.2773 106.219 30.982 106.543 29.6868C106.867 28.8772 107.353 28.2296 107.838 27.582C108.324 26.9343 109.134 26.2867 109.619 25.4772C111.076 23.5343 110.753 21.2675 108.486 20.1342C107.191 19.4866 105.733 19.4866 104.438 19.1627C103.952 19.0008 103.791 19.4866 103.952 19.8104C103.952 20.6199 104.114 21.4295 104.114 22.239C103.791 24.6676 102.495 26.4486 100.229 27.4201C99.2571 27.9058 98.1238 28.0677 96.9904 28.2296C96.8285 28.2296 96.6666 28.0677 96.3428 28.0677C96.5047 27.9058 96.5047 27.582 96.8285 27.582C97.1523 27.4201 97.638 27.4201 97.9619 27.4201C102.01 26.4486 103.305 22.0771 100.876 18.677C100.552 18.1913 100.067 17.5437 100.229 17.2198C100.552 16.4103 101.2 15.6008 101.848 14.9531C102.171 14.6293 102.981 14.7912 103.467 15.115C104.276 15.6008 104.924 16.2484 105.572 16.896C106.057 17.2198 106.381 17.7056 106.705 18.1913C108 19.6485 109.457 20.2961 111.4 20.458C112.21 20.6199 113.019 20.6199 113.667 20.9437C115.124 21.4295 115.448 22.5628 114.638 23.6962C114.476 23.8581 114.315 24.02 114.153 24.3438C111.886 27.2582 111.724 27.582 112.534 31.144Z" fill="#0587D6" stroke="#0587D6" stroke-width="2.42863" stroke-miterlimit="10"/>
<path d="M132.772 86.0305H125.81V92.9926H132.772V86.0305Z" fill="#85DBF6"/>
<path d="M132.772 86.0305H125.81V92.9926H132.772V86.0305Z" stroke="#0587D6" stroke-width="1.38496" stroke-miterlimit="79.8403" stroke-linecap="round" stroke-linejoin="round"/>
<path d="M120.466 86.0305H113.504V92.9926H120.466V86.0305Z" fill="#85DBF6"/>
<path d="M120.466 86.0305H113.504V92.9926H120.466V86.0305Z" stroke="#0587D6" stroke-width="1.38496" stroke-miterlimit="79.8403" stroke-linecap="round" stroke-linejoin="round"/>
<path d="M132.772 98.3357H125.81V105.298H132.772V98.3357Z" fill="#85DBF6"/>
<path d="M132.772 98.3357H125.81V105.298H132.772V98.3357Z" stroke="#0587D6" stroke-width="1.38496" stroke-miterlimit="79.8403" stroke-linecap="round" stroke-linejoin="round"/>
<path d="M145.887 144.156V87.1638C145.887 86.0304 144.915 85.3828 144.106 85.3828H102.172C101.038 85.3828 100.391 86.3543 100.391 87.1638V144.156C100.391 145.289 101.362 145.937 102.172 145.937H144.106C145.077 146.26 145.887 145.289 145.887 144.156Z" stroke="white" stroke-width="6.47633" stroke-miterlimit="79.8403" stroke-linecap="round" stroke-linejoin="round"/>
<path fill-rule="evenodd" clip-rule="evenodd" d="M145.563 144.156V87.1638C145.563 86.0304 144.591 85.3828 143.782 85.3828H101.847C100.714 85.3828 100.066 86.3543 100.066 87.1638V144.156C100.066 145.289 101.038 145.937 101.847 145.937H143.782C144.753 146.26 145.563 145.289 145.563 144.156Z" fill="white"/>
<path d="M145.887 144.156V87.1638C145.887 86.0304 144.915 85.3828 144.106 85.3828H102.172C101.038 85.3828 100.391 86.3543 100.391 87.1638V144.156C100.391 145.289 101.362 145.937 102.172 145.937H144.106C145.077 146.26 145.887 145.289 145.887 144.156Z" stroke="#0587D6" stroke-width="2.76977" stroke-miterlimit="79.8403" stroke-linecap="round" stroke-linejoin="round"/>
<path d="M123.543 118.412C130.339 118.412 135.848 112.903 135.848 106.107C135.848 99.3109 130.339 93.8018 123.543 93.8018C116.747 93.8018 111.238 99.3109 111.238 106.107C111.238 112.903 116.747 118.412 123.543 118.412Z" fill="white"/>
<path d="M123.381 116.793C129.372 116.793 134.229 111.936 134.229 105.945C134.229 99.9539 129.372 95.0972 123.381 95.0972C117.39 95.0972 112.533 99.9539 112.533 105.945C112.533 111.936 117.39 116.793 123.381 116.793Z" stroke="#0587D6" stroke-width="1.22257" stroke-miterlimit="79.8403" stroke-linecap="round" stroke-linejoin="round"/>
<path d="M123.381 116.631C126.69 116.631 129.372 111.847 129.372 105.945C129.372 100.044 126.69 95.2594 123.381 95.2594C120.073 95.2594 117.391 100.044 117.391 105.945C117.391 111.847 120.073 116.631 123.381 116.631Z" stroke="#0587D6" stroke-width="1.22257" stroke-miterlimit="79.8403" stroke-linecap="round" stroke-linejoin="round"/>
<path d="M115.448 98.3357C117.391 99.631 120.144 100.441 123.382 100.441C126.62 100.441 129.372 99.631 131.315 98.3357" stroke="#0587D6" stroke-width="1.22257" stroke-miterlimit="79.8403" stroke-linecap="round" stroke-linejoin="round"/>
<path d="M115.448 113.393C117.391 112.097 120.144 111.288 123.382 111.288C126.62 111.288 129.372 112.097 131.315 113.393" stroke="#0587D6" stroke-width="1.22257" stroke-miterlimit="79.8403" stroke-linecap="round" stroke-linejoin="round"/>
<path d="M113.02 105.945H133.906" stroke="#0587D6" stroke-width="1.22257" stroke-miterlimit="79.8403" stroke-linecap="round" stroke-linejoin="round"/>
<path d="M142.487 105.46V88.7832H135.687" stroke="white" stroke-width="1.38496" stroke-miterlimit="79.8403" stroke-linecap="round" stroke-linejoin="round"/>
<path d="M111.078 132.822C110.916 132.822 110.916 132.822 110.754 132.66C110.754 132.498 110.592 132.498 110.592 132.336V118.412C110.592 118.25 110.592 118.25 110.754 118.088C110.916 118.088 110.916 117.926 111.078 117.926H112.373C112.535 117.926 112.697 117.926 112.697 118.088C112.697 118.25 112.859 118.25 112.859 118.412V132.336C112.859 132.498 112.858 132.498 112.697 132.66C112.697 132.66 112.535 132.822 112.373 132.822H111.078ZM114.154 137.679C113.992 137.679 113.83 137.679 113.83 137.517C113.83 137.355 113.668 137.355 113.668 137.193V135.898C113.668 135.736 113.668 135.574 113.83 135.574C113.992 135.574 114.154 135.412 114.316 135.412H114.801C116.097 135.412 117.068 135.088 117.554 134.441C118.04 133.793 118.363 132.822 118.363 131.688C118.363 131.203 118.363 130.717 118.202 130.393C118.202 129.907 118.04 129.422 117.878 128.936L117.554 127.317C117.554 127.155 117.554 126.993 117.554 126.831C117.554 126.669 117.716 126.669 117.878 126.507L119.011 126.183C119.173 126.183 119.335 126.183 119.335 126.183L119.497 126.345C119.497 126.507 119.497 126.507 119.659 126.669L120.144 128.936C120.306 129.26 120.468 129.584 120.63 129.745C120.792 129.907 121.116 130.069 121.44 130.231C121.763 130.393 122.087 130.393 122.411 130.393H122.735C122.897 130.393 123.059 130.555 123.059 130.717V132.498C123.059 132.822 122.897 133.146 122.411 133.146C121.925 133.146 121.44 133.146 120.954 132.984C120.63 132.822 120.306 132.66 120.144 132.498C120.144 133.146 119.983 133.955 119.821 134.603C119.659 135.25 119.335 135.898 118.849 136.384C118.363 136.869 117.878 137.355 117.23 137.517C116.582 137.679 115.773 138.003 114.801 138.003H114.154V137.679ZM118.04 124.402C118.04 124.402 117.878 124.564 117.716 124.564C117.554 124.564 117.554 124.564 117.392 124.402L116.582 123.593C116.582 123.431 116.421 123.431 116.421 123.269C116.421 123.107 116.421 123.107 116.582 122.945L117.392 121.974C117.392 121.974 117.554 121.812 117.716 121.812C117.878 121.812 117.878 121.812 118.04 121.974L119.011 122.945C119.173 123.107 119.173 123.269 119.011 123.593L118.04 124.402ZM122.573 132.822C122.411 132.822 122.411 132.822 122.411 132.66V132.498V130.717C122.411 130.393 122.573 130.231 123.059 130.231H123.221C124.03 130.231 124.516 130.069 124.678 129.584C125.002 129.26 125.002 128.612 125.002 127.964C125.002 127.641 125.002 127.317 124.84 126.831C124.678 126.345 124.678 126.183 124.678 125.86C124.678 125.698 124.678 125.536 124.678 125.374C124.678 125.212 124.84 125.212 125.002 125.212L126.135 124.888C126.297 124.888 126.459 124.888 126.621 125.05C126.783 125.212 126.783 125.374 126.783 125.536C126.783 125.698 126.945 126.022 126.945 126.183C126.945 126.507 127.106 126.831 127.106 126.993C127.106 127.317 127.106 127.641 127.106 127.803C127.106 128.774 127.106 129.745 126.783 130.393C126.459 131.041 126.135 131.688 125.325 132.012C124.678 132.66 123.706 132.822 122.573 132.822ZM123.706 136.546C123.706 136.546 123.544 136.708 123.383 136.708C123.221 136.708 123.221 136.708 123.059 136.546L122.249 135.736C122.249 135.736 122.087 135.574 122.087 135.412C122.087 135.25 122.087 135.25 122.249 135.088L123.059 134.279C123.059 134.279 123.221 134.117 123.383 134.117C123.544 134.117 123.544 134.117 123.706 134.279L124.516 135.088C124.516 135.088 124.678 135.25 124.678 135.412C124.678 135.574 124.678 135.574 124.516 135.736L123.706 136.546ZM126.459 136.546C126.459 136.546 126.297 136.708 126.135 136.708C125.973 136.708 125.973 136.708 125.811 136.546L125.002 135.736C125.002 135.736 124.84 135.574 124.84 135.412C124.84 135.25 124.84 135.25 125.002 135.088L125.811 134.279C125.811 134.279 125.973 134.117 126.135 134.117C126.297 134.117 126.297 134.117 126.459 134.279L127.268 135.088C127.268 135.088 127.43 135.25 127.43 135.412C127.43 135.574 127.43 135.574 127.268 135.736L126.459 136.546ZM129.535 137.679C129.373 137.679 129.211 137.679 129.049 137.517C128.887 137.355 128.887 137.193 128.887 137.031V135.736C128.887 135.574 128.887 135.412 129.049 135.25C129.211 135.088 129.373 135.088 129.697 135.088H131.154C132.288 135.088 133.097 134.927 133.745 134.441C134.392 134.117 134.878 133.469 135.04 132.66C135.364 131.85 135.364 130.879 135.364 129.584H137.307C137.307 131.365 137.145 132.822 136.659 133.955C136.173 135.088 135.526 136.06 134.716 136.546C133.745 137.193 132.611 137.355 131.154 137.355H129.535V137.679ZM135.202 129.745C135.202 128.936 134.878 128.288 134.554 127.964C134.068 127.479 133.583 127.317 133.097 127.317C132.773 127.317 132.449 127.317 132.126 127.479C131.802 127.641 131.64 127.803 131.478 128.126C131.316 128.288 131.316 128.612 131.316 128.936C131.316 129.422 131.478 129.745 131.802 129.907C132.126 130.069 132.449 130.231 132.935 130.231C133.421 130.231 134.068 130.069 134.554 129.907C135.04 129.745 135.364 129.584 135.526 129.26L135.688 131.203C135.364 131.526 135.04 131.85 134.392 132.174C133.907 132.336 133.259 132.498 132.611 132.498C131.964 132.498 131.316 132.336 130.83 132.012C130.345 131.688 130.021 131.365 129.697 130.717C129.373 130.231 129.373 129.745 129.373 129.098C129.373 128.612 129.373 128.126 129.697 127.641C129.859 127.155 130.183 126.669 130.507 126.345C130.83 126.022 131.154 125.698 131.64 125.536C132.126 125.374 132.611 125.212 133.259 125.212C134.069 125.212 134.716 125.374 135.364 125.86C136.011 126.183 136.335 126.831 136.821 127.479C137.145 128.126 137.307 129.098 137.307 130.069L135.202 129.745Z" fill="#0587D6"/>
</svg>
