<svg width="97" height="74" viewBox="0 0 97 74" fill="none" xmlns="http://www.w3.org/2000/svg">
<path d="M85.4929 37.5191C85.4158 42.0662 84.491 46.4591 82.7955 50.3895C82.1018 52.085 81.2541 53.8576 80.2522 55.4761C79.5586 56.555 78.865 57.634 78.0943 58.6359C77.3236 59.6378 76.4759 60.6396 75.6281 61.5645C74.3179 62.9517 72.9307 64.1077 71.6205 65.2637C68.8461 67.4217 65.8404 69.1172 62.6806 70.3503C58.9043 71.8146 54.8967 72.6623 50.6579 72.8165C50.0414 72.8165 49.579 72.8165 48.9625 72.8165C31.4679 72.5082 17.0561 59.7919 14.1275 43.068V42.991C14.0505 42.3744 13.9734 41.6808 13.8963 41.0643C13.8963 40.9872 13.8963 40.9101 13.8963 40.8331C13.8193 40.3707 13.8192 39.9853 13.8192 39.5229C13.7422 38.9064 13.7422 38.2127 13.7422 37.5962C13.7422 37.0567 13.7422 36.6714 13.7422 36.1319C13.8193 29.6581 15.6689 23.6468 18.7516 18.4832C18.7516 18.4062 18.8287 18.4062 18.8287 18.3291C19.2911 17.5584 19.7535 16.7877 20.293 16.0941C20.293 16.017 20.3701 16.017 20.3701 16.017C26.9979 6.61469 38.0187 0.60336 50.3497 0.834566C62.2953 0.988702 72.8537 7.00004 79.2503 16.2482C79.3274 16.3253 79.3274 16.3253 79.3274 16.4024C79.8669 17.1731 80.3293 17.9437 80.7917 18.7144C80.7917 18.7144 80.7917 18.7915 80.8688 18.7915C82.4872 21.643 83.7974 24.7258 84.6451 27.9626C85.1846 29.8894 85.4158 31.8931 85.57 33.974V34.051C85.4158 35.2071 85.4929 36.3631 85.4929 37.5191Z" stroke="#0587D6" stroke-width="1.47262" stroke-miterlimit="10" stroke-linecap="round" stroke-linejoin="round"/>
<path d="M44.1826 31.9707C44.1826 31.9707 38.1712 31.5083 35.3968 32.7414C32.6223 33.9745 27.8441 38.2132 26.1485 42.8373C24.453 47.4614 25.3008 50.8524 25.3008 50.8524L27.4587 54.86L29.3854 56.5555L40.9457 56.7867L48.2672 56.3243L56.6677 54.3205L60.9064 51.8543C60.9064 51.8543 63.6038 47.6926 63.7579 46.4595C63.9121 45.2264 64.3745 38.8298 62.2166 38.2903L55.8199 34.5139C55.8199 34.5139 50.271 32.1248 47.8048 32.1248C45.2615 31.8936 44.1826 31.9707 44.1826 31.9707Z" stroke="white" stroke-width="4.15668" stroke-miterlimit="10"/>
<path d="M51.4286 31.9707L50.5038 13.8596H47.4981L45.7256 31.6624L51.4286 31.9707Z" stroke="white" stroke-width="4.15668" stroke-miterlimit="10"/>
<path d="M32.0057 56.7866L28.0752 60.7171L29.5395 60.4859L33.6241 57.0178L32.0057 56.7866Z" stroke="white" stroke-width="4.15668" stroke-miterlimit="10"/>
<path d="M41.5623 56.7866L37.5547 60.3318L38.942 60.4088L42.9495 57.0178L41.5623 56.7866Z" stroke="white" stroke-width="4.15668" stroke-miterlimit="10"/>
<path d="M52.0441 55.5535L51.2734 55.9388L58.672 62.5667L59.2885 62.1813L52.0441 55.5535Z" stroke="white" stroke-width="4.15668" stroke-miterlimit="10"/>
<path d="M59.597 53.0103L58.9805 53.7039C58.9805 53.7039 67.7663 61.2566 67.8433 61.2566C67.9204 61.2566 68.4599 60.8712 68.4599 60.8712L59.597 53.0103Z" stroke="white" stroke-width="4.15668" stroke-miterlimit="10"/>
<path d="M36.8627 32.3559L40.7932 32.2788L45.7256 33.1266L47.0358 34.0514C47.0358 34.0514 48.5771 36.4405 47.7294 38.4443L45.7256 48.5402C45.7256 48.5402 43.1823 49.5421 42.8741 49.4651C42.6429 49.388 32.1615 50.3899 32.1615 50.3899L26.8439 50.0816L25.0713 49.388C25.2254 49.2339 24.3777 35.5928 36.8627 32.3559Z" stroke="white" stroke-width="4.15668" stroke-miterlimit="10"/>
<path d="M48.8853 34.7448L48.7311 35.2072L48.8082 38.5212L48.1146 43.2223L47.498 44.7637L47.8063 45.3802L50.0413 44.7637L51.7368 43.993C51.7368 43.993 52.1221 41.8351 52.1992 41.681C52.2763 41.5268 52.5075 36.6715 52.5075 36.6715L52.2763 34.5907L50.8891 34.4365L48.8853 34.7448Z" stroke="white" stroke-width="4.15668" stroke-miterlimit="10"/>
<path d="M53.2761 34.8989L53.3531 38.6753L52.9678 43.3765L53.1219 43.993L54.8174 43.6077L55.9735 43.0682L56.2047 41.1415L55.6652 37.1339L55.3569 35.2843L53.2761 34.8989Z" stroke="white" stroke-width="4.15668" stroke-miterlimit="10"/>
<path d="M49.6558 8.77271H48.2686V13.628H49.6558V8.77271Z" stroke="white" stroke-width="4.15668" stroke-miterlimit="10"/>
<path d="M49.0386 32.0475C46.0329 31.7393 41.7171 31.5851 36.2453 32.2787C36.2453 32.2787 30.9275 33.2036 26.7658 40.9875C22.2188 49.6191 27.4595 56.247 29.7715 56.5553C31.5441 56.7865 40.484 56.7094 44.7228 56.6324C46.11 56.6324 47.5743 56.4782 48.9616 56.1699L55.7436 54.6286C58.2868 54.012 60.2906 52.2395 61.909 50.1586C62.7568 49.0026 63.7587 45.9969 63.8357 45.3033C64.067 43.5307 63.9128 39.9856 61.9861 38.1359C60.753 36.9799 58.5951 35.8239 55.8977 34.2825C53.8939 33.1265 51.4277 32.2787 49.0386 32.0475Z" stroke="white" stroke-width="4.15668" stroke-miterlimit="10"/>
<path d="M24.9932 49.0025C26.2263 51.2374 39.7132 49.6961 44.2603 49.0025C45.108 48.9254 45.8016 48.2318 46.0328 47.3069C46.3411 45.6114 46.9577 42.6828 47.5742 39.2918C48.6532 34.1283 46.0328 33.1264 46.0328 33.1264C46.0328 33.1264 39.2508 31.585 35.5515 32.3557" stroke="white" stroke-width="4.15668" stroke-miterlimit="10"/>
<path d="M45.6475 31.8162L47.1888 14.2446C47.1888 14.0134 47.4201 13.7822 47.8054 13.7822H49.7321L50.3487 13.8593C50.5799 13.8593 50.8111 14.0905 50.8111 14.3217L51.7359 32.5099" stroke="white" stroke-width="4.15668" stroke-miterlimit="10"/>
<path d="M56.9775 35.1305L84.4139 26.8842C85.1846 26.653 86.0323 27.1154 86.1865 27.8861C86.2636 28.5026 86.0323 29.0421 85.4929 29.2733L63.7595 40.9106" stroke="white" stroke-width="4.22111" stroke-miterlimit="10"/>
<path d="M48.1143 13.8591V9.46616C48.1143 9.08082 48.4226 8.61841 48.962 8.61841C49.3474 8.61841 49.8098 8.92668 49.8098 9.46616V13.8591" stroke="white" stroke-width="4.15668" stroke-miterlimit="10"/>
<path d="M81.793 27.5005L85.1069 15.1696C85.261 14.7072 85.8005 14.3989 86.2629 14.553H86.34C86.5712 14.7072 86.6483 14.8613 86.6483 15.0154L84.8757 26.7298" stroke="white" stroke-width="4.22111" stroke-miterlimit="10"/>
<path d="M81.793 31.354L83.1802 38.6755C83.1802 38.9837 83.4885 39.3691 83.9509 39.4461L84.2592 39.3691C85.1069 39.1379 84.6445 39.0608 84.6445 38.9067L84.7987 29.4272" stroke="white" stroke-width="4.22111" stroke-miterlimit="10"/>
<path d="M37.0158 12.6265L9.19412 18.1754L6.18848 21.4893L35.5515 14.7844L37.0158 12.6265Z" stroke="white" stroke-width="4.04494" stroke-miterlimit="10"/>
<path d="M57.3613 8.23334L85.5684 2.53027L89.8072 4.30285L59.5963 9.62057L57.3613 8.23334Z" stroke="white" stroke-width="4.07684" stroke-miterlimit="10"/>
<path d="M48.1143 10.0833L85.4154 2.5306C85.8007 2.45353 86.1861 2.45354 86.6485 2.60767L89.8083 3.84077C90.0395 3.91783 90.1165 4.38024 89.7312 4.45731L60.137 9.54383C59.8287 9.6209 59.5204 9.6209 59.135 9.38969L58.4414 9.08142C58.0561 8.92728 57.5937 8.85021 57.2083 8.92728L48.4226 10.6999" stroke="white" stroke-width="4.07684" stroke-miterlimit="10"/>
<path d="M46.341 10.8535L9.5794 18.2521C9.19406 18.3291 8.80875 18.4833 8.50047 18.7916L6.11132 21.1807C5.88012 21.4119 6.03425 21.7972 6.34252 21.7202L35.0891 15.0923C35.3973 15.0152 35.7056 14.8611 35.9368 14.5528L36.4763 14.0133C36.7075 13.705 37.1699 13.4738 37.5552 13.3968L46.1869 11.6242" stroke="white" stroke-width="4.04494" stroke-miterlimit="10"/>
<path d="M51.1191 55.7073L58.7489 62.6434" stroke="white" stroke-width="4.15668" stroke-miterlimit="10"/>
<path d="M52.4297 55.3989L59.9053 62.4122" stroke="white" stroke-width="4.15668" stroke-miterlimit="10"/>
<path d="M58.749 53.5496L68.1514 61.7188" stroke="white" stroke-width="4.15668" stroke-miterlimit="10"/>
<path d="M59.9043 52.856L69.6149 61.5647" stroke="white" stroke-width="4.15668" stroke-miterlimit="10"/>
<path d="M32.2383 56.6326L26.6123 61.7191" stroke="white" stroke-width="4.15668" stroke-miterlimit="10"/>
<path d="M33.9325 56.7092L28.1523 61.7187" stroke="white" stroke-width="4.15668" stroke-miterlimit="10"/>
<path d="M41.5632 56.7092L36.5537 60.948" stroke="white" stroke-width="4.15668" stroke-miterlimit="10"/>
<path d="M43.1821 56.7092L38.0186 61.0251" stroke="white" stroke-width="4.15668" stroke-miterlimit="10"/>
<path d="M42.4878 57.7117C42.1795 57.8658 25.9181 64.6478 25.9181 64.6478C25.9181 64.6478 23.9143 65.4185 23.2207 63.3377" stroke="white" stroke-width="4.30173" stroke-miterlimit="10" stroke-linecap="round"/>
<path d="M71.311 61.4107L55.2807 63.3374C55.2807 63.3374 53.1228 63.4145 52.8916 61.2566" stroke="white" stroke-width="4.15668" stroke-miterlimit="10" stroke-linecap="round"/>
<path d="M48.1901 33.8203C48.1901 33.8203 55.2804 34.1286 55.8969 35.2075C56.5135 36.2094 57.9007 42.3749 56.9759 47.5385C56.8988 48.2321 56.5135 48.8487 55.8969 49.3111C53.662 51.0836 47.3423 55.5536 45.0303 52.8562" stroke="white" stroke-width="4.15668" stroke-miterlimit="10" stroke-linecap="round"/>
<path d="M53.1233 35.13C53.2003 36.4401 53.5086 41.2184 52.8921 43.4534C52.815 43.6846 53.0462 44.0699 53.2774 43.9158C54.1252 43.8387 55.3582 43.6075 55.8207 43.068C56.4372 42.4515 55.7436 37.5962 55.4353 35.8236C55.3583 35.5153 55.1271 35.13 54.7417 35.0529L53.3545 34.7446C53.2774 34.8217 53.1233 34.9758 53.1233 35.13Z" stroke="white" stroke-width="4.15668" stroke-miterlimit="10" stroke-linecap="round"/>
<path d="M52.2745 34.7452C51.4267 34.6681 50.0395 34.7452 48.9605 34.7452C48.7293 34.7452 48.6522 35.1305 48.7293 35.4388C48.9605 36.6719 49.1917 40.3712 47.6503 44.8411C47.5733 45.1494 47.8045 45.5348 48.2669 45.4577L50.8101 44.7641C51.5037 44.6099 52.0432 43.9934 52.1974 43.3768C52.5056 41.6043 52.891 34.7452 52.2745 34.7452Z" stroke="white" stroke-width="4.15668" stroke-miterlimit="10" stroke-linecap="round"/>
<path d="M42.4102 34.1284C42.4102 34.1284 45.3387 33.666 46.0323 36.1322C46.803 38.5984 44.0286 46.2281 44.0286 46.2281" stroke="white" stroke-width="4.15668" stroke-miterlimit="10" stroke-linecap="round"/>
<path d="M44.1845 31.9707C44.1845 31.9707 38.1732 31.5083 35.3987 32.7414C32.6242 33.9745 27.846 38.2132 26.1505 42.8373C24.455 47.4614 25.3028 50.8524 25.3028 50.8524L27.4607 54.86L29.3874 56.5555L40.9476 56.7867L48.2691 56.3243L56.6696 54.3205L60.9084 51.8543C60.9084 51.8543 63.6057 47.6926 63.7599 46.4595C63.914 45.2264 64.3764 38.8298 62.2185 38.2903L55.8218 34.5139C55.8218 34.5139 50.2729 32.1248 47.8068 32.1248C45.2635 31.8936 44.1845 31.9707 44.1845 31.9707Z" fill="#00A1E4"/>
<path d="M57.0557 35.1307L84.1837 26.7302L85.648 27.1156V28.5799L63.4523 40.7567L57.0557 35.1307Z" fill="#00A1E4"/>
<path d="M84.49 25.6507L86.1855 14.7841L84.8753 14.707L81.4072 27.115L83.8734 27.038L84.49 25.6507Z" fill="#00A1E4"/>
<path d="M84.1818 30.198L84.0277 38.8297L83.0258 38.9838L81.5615 30.8145L84.1818 30.198Z" fill="#00A1E4"/>
<path d="M51.4286 31.9707L50.5038 13.8596H47.4981L45.7256 31.6624L51.4286 31.9707Z" fill="#00A1E4"/>
<path d="M36.8627 32.3561L40.7932 32.2791L45.7256 33.1268L47.0358 34.0516C47.0358 34.0516 48.5771 36.4407 47.7294 38.4445L45.7256 48.5405C45.7256 48.5405 43.1823 49.5424 42.8741 49.4653C42.6429 49.3882 32.1615 50.3901 32.1615 50.3901L26.8439 50.0819L25.0713 49.3882C25.2254 49.2341 24.3777 35.593 36.8627 32.3561Z" fill="#84DAF5"/>
<path d="M48.8862 34.7446L48.7321 35.207L48.8092 38.521L48.1156 43.2222L47.499 44.7635L47.8073 45.3801L50.0423 44.7635L51.7378 43.9928C51.7378 43.9928 52.1231 41.8349 52.2002 41.6808C52.2772 41.5266 52.5085 36.6713 52.5085 36.6713L52.4314 35.13L50.9671 34.8217L48.8862 34.7446Z" fill="#84DAF5"/>
<path d="M53.3551 35.2075V38.6756L52.9697 43.3768L53.1239 43.9933L54.8194 43.608L55.9754 43.0685L56.2066 41.1418L55.6671 37.1342L55.3589 35.6699L53.3551 35.2075Z" fill="#84DAF5"/>
<path d="M49.6558 8.77271H48.2686V13.628H49.6558V8.77271Z" fill="#84DAF5"/>
<path d="M49.0386 32.0478C46.0329 31.7395 41.7171 31.5854 36.2453 32.279C36.2453 32.279 30.9275 33.2038 26.7658 40.9877C22.2188 49.6194 27.4595 56.2473 29.7715 56.5555C31.5441 56.7867 40.484 56.7097 44.7228 56.6326C46.11 56.6326 47.5743 56.4785 48.9616 56.1702L55.7436 54.6288C58.2868 54.0123 60.2906 52.2397 61.909 50.1589C62.7568 49.0028 63.7587 45.9972 63.8357 45.3035C64.067 43.531 63.9128 39.9858 61.9861 38.1362C60.753 36.9802 58.5951 35.8241 55.8977 34.2828C53.8939 33.1267 51.4277 32.279 49.0386 32.0478Z" stroke="#0587D6" stroke-width="1.24697" stroke-miterlimit="10"/>
<path d="M24.9941 49.0027C26.2272 51.2377 39.7142 49.6963 44.2612 49.0027C45.109 48.9256 45.8026 48.232 46.0338 47.3072C46.3421 45.6117 46.9586 42.6831 47.5752 39.2921C48.6541 34.1285 46.0338 33.1266 46.0338 33.1266C46.0338 33.1266 39.2518 31.5852 35.5525 32.3559" stroke="#0587D6" stroke-width="0.463489" stroke-miterlimit="10"/>
<path d="M45.6475 31.8167L47.1888 14.2451C47.1888 14.0139 47.4201 13.7827 47.8054 13.7827H49.7321L50.3487 13.8598C50.5799 13.8598 50.8111 14.091 50.8111 14.3222L51.7359 32.5103" stroke="#0587D6" stroke-width="1.24697" stroke-miterlimit="10"/>
<path d="M48.1162 13.8593V9.4664C48.1162 9.08106 48.4245 8.61865 48.964 8.61865C49.3493 8.61865 49.8117 8.92692 49.8117 9.4664V13.8593" stroke="#0587D6" stroke-width="0.926902" stroke-miterlimit="10"/>
<path d="M56.6689 34.9762L83.8741 26.7299C84.6448 26.4987 85.4154 26.9611 85.6466 27.7318C85.7237 28.3483 85.4925 28.8878 84.953 29.119L63.3739 40.7563" stroke="#0587D6" stroke-width="1.26176" stroke-miterlimit="10"/>
<path d="M81.4072 27.3462L84.7212 15.0153C84.8753 14.5529 85.4148 14.2446 85.8772 14.3987H85.9543C86.1855 14.5529 86.2625 14.707 86.1855 14.8611L84.3358 26.4985" stroke="#0587D6" stroke-width="1.26176" stroke-miterlimit="10"/>
<path d="M81.3311 31.2768L82.6412 38.5983C82.6412 38.9066 83.1807 39.2919 83.6431 39.1378H83.7202C83.8743 39.0607 84.1055 38.9836 84.1055 38.8295L84.2596 29.3501" stroke="#0587D6" stroke-width="1.26176" stroke-miterlimit="10"/>
<path d="M56.207 8.2335L83.8746 2.45337L88.0363 4.22594L58.442 9.62073L56.207 8.2335Z" fill="#84DAF5"/>
<path d="M37.172 12.241L9.27326 18.0982L6.26758 21.7204L34.8599 14.9384L37.172 12.241Z" fill="#84DAF5"/>
<path d="M49.8104 9.46671L83.4894 2.37642C83.8747 2.29935 84.26 2.29934 84.7224 2.53055L87.8823 3.99485C88.1135 4.14899 88.1905 4.6114 87.8823 4.68847L59.2128 9.85205C58.9045 9.92912 58.5963 9.85205 58.2109 9.69792L57.5173 9.38964C57.1319 9.15844 56.6696 9.08137 56.2842 9.15844L49.7334 10.4686" stroke="#0587D6" stroke-width="0.958192" stroke-miterlimit="10"/>
<path d="M48.0376 9.85181L9.65755 18.0981C9.27221 18.1752 8.88685 18.3293 8.57857 18.7147L6.26652 21.335C6.11238 21.5662 6.26654 22.0286 6.57481 21.9515L34.8589 14.9383C35.1672 14.8613 35.4755 14.7071 35.7067 14.3988L36.2461 13.7823C36.4774 13.474 36.9398 13.1657 37.248 13.0887L48.0376 10.7766" stroke="#0587D6" stroke-width="0.958192" stroke-miterlimit="10"/>
<path d="M50.8887 56.0159L56.3605 66.0348" stroke="#0587D6" stroke-width="1.07865" stroke-miterlimit="10"/>
<path d="M52.2764 55.6306L56.6693 65.6495" stroke="#0587D6" stroke-width="1.07865" stroke-miterlimit="10"/>
<path d="M59.2881 53.2415L65.8389 60.1005" stroke="#0587D6" stroke-width="0.646373" stroke-miterlimit="10"/>
<path d="M60.0605 52.625L66.0719 59.7924" stroke="#0587D6" stroke-width="0.646373" stroke-miterlimit="10"/>
<path d="M32.5471 57.0181L28.0771 63.6459" stroke="#0587D6" stroke-width="1.04435" stroke-miterlimit="10"/>
<path d="M33.5503 56.7866L28.3096 63.4145" stroke="#0587D6" stroke-width="1.04435" stroke-miterlimit="10"/>
<path d="M40.0996 56.7092L40.1767 57.8653" stroke="#0587D6" stroke-width="1.04435" stroke-miterlimit="10"/>
<path d="M42.2564 57.7117C42.0252 57.8658 25.6867 65.0332 25.6867 65.0332C25.6867 65.0332 23.7599 65.8039 22.9893 63.4918" stroke="#0587D6" stroke-width="1.76294" stroke-miterlimit="10" stroke-linecap="round"/>
<path d="M68.7688 58.7134L52.5844 68.7323C52.5844 68.7323 50.3495 69.8883 49.2705 67.1909" stroke="#0587D6" stroke-width="2.08085" stroke-miterlimit="10" stroke-linecap="round"/>
<path d="M48.193 33.8203C48.193 33.8203 55.2833 34.1286 55.8999 35.2075C56.5164 36.2094 57.9036 42.3749 56.9788 47.5385C56.9017 48.2321 56.5164 48.8487 55.8999 49.3111C53.6649 51.0836 47.3453 55.5536 45.0332 52.8562" stroke="#0587D6" stroke-width="0.463489" stroke-miterlimit="10" stroke-linecap="round"/>
<path d="M53.2784 35.9013C53.3555 37.2115 53.5096 41.219 52.893 43.454C52.816 43.6852 53.0472 44.0706 53.2784 43.9164C54.1261 43.8393 55.3592 43.6081 55.8216 43.0687C56.4382 42.4521 55.7446 37.5968 55.4363 35.8242C55.3592 35.516 55.2051 35.4389 54.8198 35.3618L53.2013 35.1306C53.1243 35.2077 53.2784 35.7472 53.2784 35.9013Z" stroke="#0587D6" stroke-width="0.463489" stroke-miterlimit="10" stroke-linecap="round"/>
<path d="M52.2764 35.0531C51.4287 34.9761 50.0414 34.7449 48.9625 34.7449C48.7313 34.7449 48.6542 35.1302 48.7312 35.4385C48.9624 36.6716 49.1937 40.3709 47.6523 44.8408C47.5752 45.1491 47.8064 45.5345 48.2688 45.4574L50.8121 44.7638C51.5057 44.6096 52.0452 43.9931 52.1993 43.3765C52.5076 41.604 52.893 35.0531 52.2764 35.0531Z" stroke="#0587D6" stroke-width="0.463489" stroke-miterlimit="10" stroke-linecap="round"/>
<path d="M37.9414 32.4331C37.9414 32.4331 26.9206 40.2941 29.3097 49.9276" stroke="#0587D6" stroke-width="0.770684" stroke-miterlimit="10" stroke-linecap="round"/>
<path d="M50.6581 56.0159L52.3536 55.7847L55.8217 64.3393L53.3555 61.6419L50.5811 56.0929" fill="#0587D6"/>
<path d="M59.9057 52.7793L59.3662 53.3958L63.7591 57.6346L59.9057 52.7793Z" fill="#0587D6"/>
<path d="M44.723 43.6848L44.3377 44.3784C43.8753 45.3033 43.1045 46.0739 42.1797 46.5363C41.5632 46.8446 40.9466 46.9988 40.253 46.9988L35.6289 47.307" stroke="white" stroke-width="0.926902" stroke-miterlimit="10" stroke-linecap="round"/>
</svg>
