<svg width="83.000000" height="69.000000" viewBox="0 0 83 69" fill="none" xmlns="http://www.w3.org/2000/svg" xmlns:xlink="http://www.w3.org/1999/xlink">
	<desc>
			Created with Pixso.
	</desc>
	<defs/>
	<path id="Vector" d="M38.18 29.97C38.18 29.97 32.17 29.5 29.39 30.74C26.62 31.97 21.84 36.21 20.15 40.83C18.45 45.46 19.3 48.85 19.3 48.85L21.45 52.86L23.38 54.55L34.94 54.78L42.26 54.32L50.66 52.32L54.9 49.85C54.9 49.85 57.6 45.69 57.75 44.45C57.91 43.22 58.37 36.82 56.21 36.29L49.82 32.51C49.82 32.51 44.27 30.12 41.8 30.12C39.26 29.89 38.18 29.97 38.18 29.97Z" fill="#00A1E4" fill-opacity="1.000000" fill-rule="nonzero"/>
	<path id="Vector" d="M51.05 33.13L78.18 24.73L79.64 25.11L79.64 26.58L57.45 38.75L51.05 33.13Z" fill="#00A1E4" fill-opacity="1.000000" fill-rule="nonzero"/>
	<path id="Vector" d="M78.49 23.65L80.18 12.78L78.87 12.7L75.4 25.11L77.87 25.03L78.49 23.65Z" fill="#00A1E4" fill-opacity="1.000000" fill-rule="nonzero"/>
	<path id="Vector" d="M78.18 28.19L78.02 36.82L77.02 36.98L75.56 28.81L78.18 28.19Z" fill="#00A1E4" fill-opacity="1.000000" fill-rule="nonzero"/>
	<path id="Vector" d="M45.42 29.97L44.5 11.85L41.5 11.85L39.72 29.66L45.42 29.97Z" fill="#00A1E4" fill-opacity="1.000000" fill-rule="nonzero"/>
	<path id="Vector" d="M30.86 30.35L34.79 30.27L39.72 31.12L41.03 32.05C41.03 32.05 42.57 34.44 41.73 36.44L39.72 46.54C39.72 46.54 37.18 47.54 36.87 47.46C36.64 47.38 26.16 48.39 26.16 48.39L20.84 48.08L19.07 47.38C19.22 47.23 18.37 33.59 30.86 30.35Z" fill="#84DAF5" fill-opacity="1.000000" fill-rule="nonzero"/>
	<path id="Vector" d="M42.88 32.74L42.73 33.2L42.8 36.52L42.11 41.22L41.49 42.76L41.8 43.38L44.04 42.76L45.73 41.99C45.73 41.99 46.12 39.83 46.19 39.68C46.27 39.52 46.5 34.67 46.5 34.67L46.42 33.13L44.96 32.82L42.88 32.74Z" fill="#84DAF5" fill-opacity="1.000000" fill-rule="nonzero"/>
	<path id="Vector" d="M47.35 33.2L47.35 36.67L46.96 41.37L47.12 41.99L48.81 41.6L49.97 41.06L50.2 39.14L49.66 35.13L49.35 33.66L47.35 33.2Z" fill="#84DAF5" fill-opacity="1.000000" fill-rule="nonzero"/>
	<path id="Vector" d="M42.26 6.77L43.65 6.77L43.65 11.62L42.26 11.62L42.26 6.77Z" fill="#84DAF5" fill-opacity="1.000000" fill-rule="evenodd"/>
	<path id="Vector" d="M30.24 30.27C30.24 30.27 24.92 31.2 20.76 38.98C16.21 47.61 21.45 54.24 23.77 54.55C25.54 54.78 34.48 54.7 38.72 54.63C40.1 54.63 41.57 54.47 42.96 54.17L49.74 52.62C52.28 52.01 54.29 50.23 55.9 48.15C56.75 47 57.75 43.99 57.83 43.3C58.06 41.53 57.91 37.98 55.98 36.13C54.75 34.98 52.59 33.82 49.89 32.28C47.89 31.12 45.42 30.27 43.03 30.04C40.03 29.73 35.71 29.58 30.24 30.27Z" stroke="#0587D6" stroke-opacity="1.000000" stroke-width="1.246967"/>
	<path id="Vector" d="M18.99 47C20.22 49.23 33.71 47.69 38.26 47C39.1 46.92 39.8 46.23 40.03 45.3C40.34 43.61 40.95 40.68 41.57 37.29C42.65 32.12 40.03 31.12 40.03 31.12C40.03 31.12 33.25 29.58 29.55 30.35" stroke="#0587D6" stroke-opacity="1.000000" stroke-width="0.463489"/>
	<path id="Vector" d="M39.64 29.81L41.18 12.24C41.18 12.01 41.42 11.78 41.8 11.78L43.73 11.78L44.34 11.85C44.58 11.85 44.81 12.09 44.81 12.32L45.73 30.51" stroke="#0587D6" stroke-opacity="1.000000" stroke-width="1.246967"/>
	<path id="Vector" d="M42.11 11.85L42.11 7.46C42.11 7.08 42.42 6.61 42.96 6.61C43.34 6.61 43.81 6.92 43.81 7.46L43.81 11.85" stroke="#0587D6" stroke-opacity="1.000000" stroke-width="0.926902"/>
	<path id="Vector" d="M50.66 32.97L77.87 24.73C78.64 24.49 79.41 24.96 79.64 25.73C79.72 26.34 79.49 26.88 78.95 27.11L57.37 38.75" stroke="#0587D6" stroke-opacity="1.000000" stroke-width="1.261764"/>
	<path id="Vector" d="M75.4 25.34L78.72 13.01C78.87 12.55 79.41 12.24 79.87 12.39L79.95 12.39C80.18 12.55 80.26 12.7 80.18 12.86L78.33 24.49" stroke="#0587D6" stroke-opacity="1.000000" stroke-width="1.261764"/>
	<path id="Vector" d="M75.33 29.27L76.64 36.59C76.64 36.9 77.18 37.29 77.64 37.13L77.72 37.13C77.87 37.06 78.1 36.98 78.1 36.82L78.25 27.35" stroke="#0587D6" stroke-opacity="1.000000" stroke-width="1.261764"/>
	<path id="Vector" d="M50.2 6.23L77.87 0.45L82.03 2.22L52.44 7.62L50.2 6.23Z" fill="#84DAF5" fill-opacity="1.000000" fill-rule="nonzero"/>
	<path id="Vector" d="M31.17 10.24L3.27 16.09L0.26 19.72L28.85 12.93L31.17 10.24Z" fill="#84DAF5" fill-opacity="1.000000" fill-rule="nonzero"/>
	<path id="Vector" d="M43.81 7.46L77.49 0.37C77.87 0.29 78.26 0.29 78.72 0.53L81.88 1.99C82.11 2.14 82.19 2.61 81.88 2.68L53.21 7.85C52.9 7.92 52.59 7.85 52.21 7.69L51.51 7.38C51.13 7.15 50.66 7.08 50.28 7.15L43.73 8.46" stroke="#0587D6" stroke-opacity="1.000000" stroke-width="0.958192"/>
	<path id="Vector" d="M42.03 7.85L3.65 16.09C3.27 16.17 2.88 16.32 2.57 16.71L0.26 19.33C0.11 19.56 0.26 20.02 0.57 19.95L28.85 12.93C29.16 12.86 29.47 12.7 29.7 12.39L30.24 11.78C30.47 11.47 30.93 11.16 31.24 11.08L42.03 8.77" stroke="#0587D6" stroke-opacity="1.000000" stroke-width="0.958192"/>
	<path id="Vector" d="M44.88 54.01L50.36 64.03" stroke="#0587D6" stroke-opacity="1.000000" stroke-width="1.078650"/>
	<path id="Vector" d="M46.27 53.63L50.66 63.64" stroke="#0587D6" stroke-opacity="1.000000" stroke-width="1.078650"/>
	<path id="Vector" d="M53.28 51.24L59.83 58.1" stroke="#0587D6" stroke-opacity="1.000000" stroke-width="0.646373"/>
	<path id="Vector" d="M54.06 50.62L60.07 57.79" stroke="#0587D6" stroke-opacity="1.000000" stroke-width="0.646373"/>
	<path id="Vector" d="M26.54 55.01L22.07 61.64" stroke="#0587D6" stroke-opacity="1.000000" stroke-width="1.044354"/>
	<path id="Vector" d="M27.54 54.78L22.3 61.41" stroke="#0587D6" stroke-opacity="1.000000" stroke-width="1.044354"/>
	<path id="Vector" d="M34.09 54.7L34.17 55.86" stroke="#0587D6" stroke-opacity="1.000000" stroke-width="1.044354"/>
	<path id="Vector" d="M36.25 55.71C36.02 55.86 19.68 63.03 19.68 63.03C19.68 63.03 17.76 63.8 16.99 61.49" stroke="#0587D6" stroke-opacity="1.000000" stroke-width="1.762940" stroke-linecap="round"/>
	<path id="Vector" d="M62.76 56.71L46.58 66.73C46.58 66.73 44.34 67.88 43.27 65.19" stroke="#0587D6" stroke-opacity="1.000000" stroke-width="2.080847" stroke-linecap="round"/>
	<path id="Vector" d="M42.19 31.82C42.19 31.82 49.28 32.12 49.9 33.2C50.51 34.2 51.9 40.37 50.97 45.53C50.9 46.23 50.51 46.84 49.9 47.31C47.66 49.08 41.34 53.55 39.03 50.85" stroke="#0587D6" stroke-opacity="1.000000" stroke-width="0.463489" stroke-linecap="round"/>
	<path id="Vector" d="M46.89 41.45C46.81 41.68 47.04 42.07 47.27 41.91C48.12 41.83 49.35 41.6 49.82 41.06C50.43 40.45 49.74 35.59 49.43 33.82C49.35 33.51 49.2 33.43 48.82 33.36L47.2 33.13C47.12 33.2 47.27 33.74 47.27 33.9C47.35 35.21 47.5 39.21 46.89 41.45Z" stroke="#0587D6" stroke-opacity="1.000000" stroke-width="0.463489"/>
	<path id="Vector" d="M42.96 32.74C42.73 32.74 42.65 33.13 42.73 33.43C42.96 34.67 43.19 38.37 41.65 42.84C41.57 43.14 41.8 43.53 42.26 43.45L44.81 42.76C45.5 42.6 46.04 41.99 46.19 41.37C46.5 39.6 46.89 33.05 46.27 33.05C45.42 32.97 44.04 32.74 42.96 32.74Z" stroke="#0587D6" stroke-opacity="1.000000" stroke-width="0.463489"/>
	<path id="Vector" d="M31.94 30.43C31.94 30.43 20.91 38.29 23.31 47.92" stroke="#0587D6" stroke-opacity="1.000000" stroke-width="0.770684" stroke-linecap="round"/>
	<path id="Vector" d="M44.65 54.01L46.35 53.78L49.82 62.33L47.35 59.64L44.58 54.09L44.65 54.01Z" fill="#0587D6" fill-opacity="1.000000" fill-rule="nonzero"/>
	<path id="Vector" d="M53.9 50.77L53.36 51.39L57.75 55.63L53.9 50.77Z" fill="#0587D6" fill-opacity="1.000000" fill-rule="nonzero"/>
	<path id="Vector" d="M38.72 41.68L38.33 42.37C37.87 43.3 37.1 44.07 36.17 44.53C35.56 44.84 34.94 44.99 34.25 44.99L29.62 45.3" stroke="#FFFFFF" stroke-opacity="1.000000" stroke-width="0.926902" stroke-linecap="round"/>
</svg>
