<svg width="152" height="142" viewBox="0 0 152 142" fill="none" xmlns="http://www.w3.org/2000/svg">
<path fill-rule="evenodd" clip-rule="evenodd" d="M11.4673 38.6588H24.2897C63.2501 38.6588 91.854 47.8647 91.854 58.3856C91.854 63.3173 84.9496 72.1944 80.8398 78.1124C74.593 86.9895 65.716 92.2499 60.9486 102.113C57.4965 109.018 50.7565 116.251 42.537 116.251H20.0155C0.946308 93.5651 -2.1771 67.9202 11.4673 38.6588Z" fill="#00A2E5" stroke="#0587D6" stroke-width="1.40619" stroke-miterlimit="79.8403" stroke-linecap="round" stroke-linejoin="round"/>
<path fill-rule="evenodd" clip-rule="evenodd" d="M52.8934 95.7015V92.7425C52.8934 85.8381 67.3597 64.303 69.8255 60.5221V57.7274C69.8255 54.7684 73.6065 52.1382 76.8943 52.1382C79.0314 52.1382 81.0041 53.4533 82.4836 54.9328C83.9631 54.9328 85.2782 55.2616 85.2782 56.4123C85.2782 56.7411 85.2782 57.2343 85.1138 57.5631L59.9621 105.565H41.7148L47.3041 94.3864C48.948 94.5508 50.9207 95.2084 52.5646 95.7015C54.2085 96.1947 53.3865 95.8659 52.8934 95.7015Z" fill="white"/>
<path d="M52.8934 95.7015V92.7425C52.8934 85.8381 67.3597 64.303 69.8255 60.5221V57.7274C69.8255 54.7684 73.6065 52.1382 76.8943 52.1382C79.0314 52.1382 81.0041 53.4533 82.4836 54.9328C83.9631 54.9328 85.2782 55.2616 85.2782 56.4123C85.2782 56.7411 85.2782 57.2343 85.1138 57.5631L59.9621 105.565H41.7148L47.3041 94.3864C50.2631 94.7152 52.8934 95.8659 55.688 97.181" stroke="#0587D6" stroke-width="1.40619" stroke-miterlimit="79.8403" stroke-linecap="round" stroke-linejoin="round"/>
<path d="M82.6488 54.7693L67.6893 83.2088C61.2781 86.6609 56.6752 92.7434 54.5381 102.442" stroke="#0587D6" stroke-width="1.40619" stroke-miterlimit="79.8403" stroke-linecap="round" stroke-linejoin="round"/>
<path d="M43.1943 102.606H61.606" stroke="#0587D6" stroke-width="1.40619" stroke-miterlimit="79.8403" stroke-linecap="round" stroke-linejoin="round"/>
<path d="M71.9629 2C106.156 2 134.595 26.9873 140.02 59.5365" stroke="#0587D6" stroke-width="2.81222" stroke-miterlimit="79.8403" stroke-linecap="round" stroke-linejoin="round"/>
<path d="M125.882 113.785C113.389 129.567 93.8264 139.923 72.1269 139.923C63.9074 139.923 56.0167 138.444 48.6191 135.813" stroke="#0587D6" stroke-width="2.81222" stroke-miterlimit="79.8403" stroke-linecap="round" stroke-linejoin="round"/>
<path d="M91.5244 137.128C103.963 137.128 114.046 127.045 114.046 114.607C114.046 102.169 103.963 92.0853 91.5244 92.0853C79.0861 92.0853 69.0029 102.169 69.0029 114.607C69.0029 127.045 79.0861 137.128 91.5244 137.128Z" stroke="white" stroke-width="5.6246" stroke-miterlimit="79.8403" stroke-linecap="round" stroke-linejoin="round"/>
<path fill-rule="evenodd" clip-rule="evenodd" d="M63.4137 121.676L119.635 110.497L111.251 80.9071C93.0039 82.3866 78.3732 89.291 62.0986 99.3188L63.4137 121.676Z" fill="#00A2E5"/>
<path d="M63.4141 121.675L119.635 110.497" stroke="#0587D6" stroke-width="1.40619" stroke-miterlimit="79.8403" stroke-linecap="round" stroke-linejoin="round"/>
<path fill-rule="evenodd" clip-rule="evenodd" d="M69.0029 114.607C69.0029 102.277 79.1951 92.0853 91.5244 92.0853C103.854 92.0853 114.046 102.277 114.046 114.607C114.046 126.936 103.854 137.128 91.5244 137.128C79.1951 137.128 69.0029 126.936 69.0029 114.607ZM109.278 114.607C109.278 104.908 101.388 97.017 91.6888 97.017C81.9897 97.017 74.099 104.908 74.099 114.607C74.099 124.306 81.9897 132.196 91.6888 132.196C101.388 132.196 109.278 124.306 109.278 114.607Z" fill="#00A2E5"/>
<path d="M91.5244 137.128C103.963 137.128 114.046 127.045 114.046 114.607C114.046 102.169 103.963 92.0853 91.5244 92.0853C79.0861 92.0853 69.0029 102.169 69.0029 114.607C69.0029 127.045 79.0861 137.128 91.5244 137.128Z" stroke="#0587D6" stroke-width="2.81222" stroke-miterlimit="79.8403" stroke-linecap="round" stroke-linejoin="round"/>
<path d="M91.5253 132.197C101.24 132.197 109.115 124.322 109.115 114.607C109.115 104.893 101.24 97.0173 91.5253 97.0173C81.8107 97.0173 73.9355 104.893 73.9355 114.607C73.9355 124.322 81.8107 132.197 91.5253 132.197Z" fill="white"/>
<path d="M91.5248 116.744C92.705 116.744 93.6618 115.787 93.6618 114.607C93.6618 113.427 92.705 112.47 91.5248 112.47C90.3445 112.47 89.3877 113.427 89.3877 114.607C89.3877 115.787 90.3445 116.744 91.5248 116.744Z" stroke="#0587D6" stroke-width="1.40619" stroke-miterlimit="79.8403" stroke-linecap="round" stroke-linejoin="round"/>
<path fill-rule="evenodd" clip-rule="evenodd" d="M91.5256 108.853C90.7036 108.853 89.8817 108.524 89.3885 107.867L87.087 104.743C86.2651 103.757 85.6075 101.784 87.087 101.127C88.4022 100.798 89.8817 100.305 91.3612 100.305C92.8407 100.305 94.3202 100.469 95.6353 101.127C97.1148 101.62 96.1285 103.757 95.6353 104.743L93.3339 107.867C93.3339 108.524 92.3475 108.853 91.5256 108.853Z" fill="#00A2E5"/>
<path fill-rule="evenodd" clip-rule="evenodd" d="M86.2648 112.798C86.1004 113.62 85.2784 114.113 84.6209 114.441L80.8399 115.592C79.6892 115.921 77.3877 116.085 77.3877 114.441C77.3877 112.962 77.5521 111.647 78.2096 110.167C78.5384 108.688 79.3604 107.537 80.0179 106.222C81.0043 104.907 82.6482 106.386 83.4701 107.373L85.936 110.332C86.2648 111.154 86.5935 112.14 86.2648 112.798Z" fill="#00A2E5"/>
<path fill-rule="evenodd" clip-rule="evenodd" d="M88.4019 119.045C88.8951 119.374 89.5526 120.36 89.5526 121.182L89.3882 125.127C89.3882 126.278 88.8951 128.58 87.2512 128.086C85.936 127.758 84.6209 126.936 83.3058 125.949C82.1551 124.963 81.0043 124.141 80.3468 122.99C79.3604 121.675 81.3331 120.524 82.4839 120.196L86.1004 118.881C86.9224 118.552 87.9087 118.716 88.4019 119.045Z" fill="#00A2E5"/>
<path fill-rule="evenodd" clip-rule="evenodd" d="M96.9499 112.798C97.1143 113.62 97.9362 114.113 98.5938 114.441L102.375 115.592C103.525 115.921 105.827 116.085 105.827 114.441C105.827 112.962 105.663 111.647 105.005 110.167C104.676 108.688 103.854 107.537 103.197 106.222C102.21 104.907 100.566 106.386 99.7445 107.373L97.2787 110.332C96.7855 111.154 96.7855 112.14 96.9499 112.798Z" fill="#00A2E5"/>
<path fill-rule="evenodd" clip-rule="evenodd" d="M94.9779 119.045C94.4847 119.374 93.8271 120.36 93.8271 121.182L93.9915 125.127C93.9915 126.278 94.4847 128.58 96.1286 128.086C97.4437 127.758 98.7589 126.936 100.074 125.949C101.225 124.963 102.375 124.141 103.033 122.99C104.019 121.675 102.047 120.524 100.896 120.196L97.2793 118.881C96.4574 118.552 95.4711 118.716 94.9779 119.045Z" fill="#00A2E5"/>
<path d="M91.5256 108.853C90.7036 108.853 89.8817 108.524 89.3885 107.867L87.087 104.743C86.2651 103.757 85.6075 101.784 87.087 101.127C88.4022 100.798 89.8817 100.305 91.3612 100.305C92.8407 100.305 94.3202 100.469 95.6353 101.127C97.1148 101.62 96.1285 103.757 95.6353 104.743L93.3339 107.867C93.3339 108.524 92.3475 108.853 91.5256 108.853Z" stroke="#0587D6" stroke-width="1.40619" stroke-miterlimit="79.8403" stroke-linecap="round" stroke-linejoin="round"/>
<path d="M86.2648 112.798C86.1004 113.62 85.2784 114.113 84.6209 114.441L80.8399 115.592C79.6892 115.921 77.3877 116.085 77.3877 114.441C77.3877 112.962 77.5521 111.647 78.2096 110.167C78.5384 108.688 79.3604 107.537 80.0179 106.222C81.0043 104.907 82.6482 106.386 83.4701 107.373L85.936 110.332C86.2648 111.154 86.5935 112.14 86.2648 112.798Z" stroke="#0587D6" stroke-width="1.40619" stroke-miterlimit="79.8403" stroke-linecap="round" stroke-linejoin="round"/>
<path d="M88.4019 119.045C88.8951 119.374 89.5526 120.36 89.5526 121.182L89.3882 125.127C89.3882 126.278 88.8951 128.58 87.2512 128.086C85.936 127.758 84.6209 126.936 83.3058 125.949C82.1551 124.963 81.0043 124.141 80.3468 122.99C79.3604 121.675 81.3331 120.524 82.4839 120.196L86.1004 118.881C86.9224 118.552 87.9087 118.716 88.4019 119.045Z" stroke="#0587D6" stroke-width="1.40619" stroke-miterlimit="79.8403" stroke-linecap="round" stroke-linejoin="round"/>
<path d="M96.9499 112.798C97.1143 113.62 97.9362 114.113 98.5938 114.441L102.375 115.592C103.525 115.921 105.827 116.085 105.827 114.441C105.827 112.962 105.663 111.647 105.005 110.167C104.676 108.688 103.854 107.537 103.197 106.222C102.21 104.907 100.566 106.386 99.7445 107.373L97.2787 110.332C96.7855 111.154 96.7855 112.14 96.9499 112.798Z" stroke="#0587D6" stroke-width="1.40619" stroke-miterlimit="79.8403" stroke-linecap="round" stroke-linejoin="round"/>
<path d="M94.9779 119.045C94.4847 119.374 93.8271 120.36 93.8271 121.182L93.9915 125.127C93.9915 126.278 94.4847 128.58 96.1286 128.086C97.4437 127.758 98.7589 126.936 100.074 125.949C101.225 124.963 102.375 124.141 103.033 122.99C104.019 121.675 102.047 120.524 100.896 120.196L97.2793 118.881C96.4574 118.552 95.4711 118.716 94.9779 119.045Z" stroke="#0587D6" stroke-width="1.40619" stroke-miterlimit="79.8403" stroke-linecap="round" stroke-linejoin="round"/>
<path d="M91.5253 132.197C101.24 132.197 109.115 124.322 109.115 114.607C109.115 104.893 101.24 97.0173 91.5253 97.0173C81.8107 97.0173 73.9355 104.893 73.9355 114.607C73.9355 124.322 81.8107 132.197 91.5253 132.197Z" stroke="#0587D6" stroke-width="1.40619" stroke-miterlimit="79.8403" stroke-linecap="round" stroke-linejoin="round"/>
<path d="M120.293 112.634C120.786 113.62 122.101 114.442 124.403 114.113C127.855 113.62 131.307 112.47 134.266 110.99C138.376 108.853 140.02 104.579 142.65 101.291C145.445 97.6744 149.061 95.0442 149.061 90.6057C149.061 83.5369 143.472 77.7832 143.472 70.8789C143.472 68.413 144.951 66.1115 144.951 63.8101C144.951 61.3442 141.499 59.7003 139.362 59.7003L120.951 58.2208" stroke="white" stroke-width="5.6246" stroke-miterlimit="79.8403" stroke-linecap="round" stroke-linejoin="round"/>
<path d="M80.5109 77.948C74.2641 86.8251 65.3871 92.0855 60.6197 101.949C57.1676 108.853 50.4276 116.086 42.2081 116.086H36.7832" stroke="#00A2E5" stroke-width="5.6246" stroke-miterlimit="79.8403" stroke-linecap="round" stroke-linejoin="round"/>
<path fill-rule="evenodd" clip-rule="evenodd" d="M25.604 121.675H63.4137V114.607C63.4137 98.9896 75.9073 86.496 91.5244 86.496C105.662 86.496 117.334 97.0169 119.306 110.497C119.471 111.812 120.128 114.935 124.238 114.278C127.69 113.785 131.142 112.634 134.101 111.154C138.211 109.017 139.855 104.743 142.485 101.455C145.28 97.8389 148.896 95.2086 148.896 90.7701C148.896 83.7013 143.307 77.9477 143.307 71.0433C143.307 68.5774 144.787 66.276 144.787 63.9745C144.787 61.5087 141.335 59.8648 139.197 59.8648L120.786 58.3853C94.9766 42.7682 75.743 33.0692 36.4538 33.0692H13.9323L11.1377 38.4941H23.9601C62.9205 38.4941 91.5244 47.6999 91.5244 58.2209C91.5244 63.1526 84.62 72.0296 80.5103 77.9477C74.2634 86.8247 65.3864 92.0852 60.6191 101.949C57.1669 108.853 50.4269 116.086 42.2074 116.086H19.5216L25.604 121.675Z" fill="#85DBF6"/>
<path fill-rule="evenodd" clip-rule="evenodd" d="M24.1245 120.196L20.0147 116.086H42.5362C50.5913 116.086 57.4957 109.017 60.9478 101.949C65.7152 92.2496 74.5922 86.8247 80.839 77.9477C84.4556 72.8516 90.0449 65.6184 91.5244 60.5223C91.6888 61.3443 91.8532 61.8375 91.8532 62.6594C91.8532 67.5911 84.9488 76.4682 80.839 82.3862C74.5922 91.2633 65.7152 96.5237 60.9478 106.387C57.4957 113.292 50.7557 120.525 42.5362 120.525L24.1245 120.196ZM143.636 75.153C143.636 74.6599 143.636 74.0023 143.8 73.5091C144.951 79.2628 149.225 84.5233 149.225 90.7701C149.225 91.2633 149.225 92.0852 149.061 92.5784C148.075 86.4959 143.636 81.3999 143.636 75.153ZM139.362 63.9745L120.95 62.495C95.141 46.878 75.9073 37.179 36.6181 37.179H14.0967L13.2748 38.6585H11.1377L13.9323 33.0692H36.4538C75.9073 33.0692 94.9766 42.7682 120.786 58.3853L139.197 59.8648C141.499 60.0292 144.787 61.6731 144.787 63.9745C144.787 64.9609 144.622 65.7828 144.458 66.6048C143.636 65.1253 141.335 64.1389 139.362 63.9745Z" fill="white"/>
<path fill-rule="evenodd" clip-rule="evenodd" d="M147.747 85.1812C145.938 80.4139 144.294 75.811 143.637 71.0437H135.253C133.938 71.0437 133.773 73.3452 133.773 75.1535C133.773 81.0715 142.65 82.3866 147.747 85.1812Z" fill="#00A2E5"/>
<path d="M25.6053 121.675H63.415V114.607C63.415 98.9896 75.9086 86.496 91.5257 86.496C105.663 86.496 117.335 97.0169 119.308 110.497C119.472 111.812 120.13 114.935 124.239 114.278C127.691 113.785 131.144 112.634 134.103 111.154C138.212 109.017 139.856 104.743 142.487 101.455C145.281 97.8389 148.898 95.2086 148.898 90.7701C148.898 83.7013 143.309 77.9477 143.309 71.0433C143.309 68.5774 144.788 66.276 144.788 63.9745C144.788 61.5087 141.336 59.8648 139.199 59.8648L120.787 58.3853C94.9778 42.7682 75.7442 33.0692 36.455 33.0692H13.9336" stroke="#0587D6" stroke-width="2.81222" stroke-miterlimit="79.8403" stroke-linecap="round" stroke-linejoin="round"/>
<path d="M11.4668 38.6588H24.2892C63.2496 38.6588 91.8535 47.8647 91.8535 58.3856C91.8535 63.3173 84.9491 72.1944 80.8394 78.1124C74.5926 86.9895 65.7155 92.2499 60.9482 102.113C57.496 109.018 50.756 116.251 42.5365 116.251H20.0151" stroke="#0587D6" stroke-width="2.81222" stroke-miterlimit="79.8403" stroke-linecap="round" stroke-linejoin="round"/>
<path d="M47.4688 62.6599L25.2762 65.1257C22.3171 65.4545 21.3308 62.3311 22.3171 56.9062C22.6459 54.4404 23.3035 51.8101 23.6323 49.3443L25.7693 40.3028L27.4132 38.8233C29.7147 37.1794 33.0025 36.5219 38.0986 36.5219C49.2771 36.5219 54.2088 42.9331 54.2088 52.6321C54.5376 57.7282 51.5786 62.1667 47.4688 62.6599Z" stroke="#00A2E5" stroke-width="4.21841" stroke-miterlimit="79.8403" stroke-linecap="round" stroke-linejoin="round"/>
<path fill-rule="evenodd" clip-rule="evenodd" d="M24.4538 37.1797C17.2206 55.427 16.0699 82.2225 17.385 112.799C2.58991 91.7571 -4.47886 67.9206 13.2753 35.0426L24.4538 37.1797Z" fill="#85DBF6"/>
<path fill-rule="evenodd" clip-rule="evenodd" d="M20.0148 38.6588L15.9051 65.29H4.72656C4.89095 56.2485 6.04168 47.0427 13.1104 38.6588H20.0148Z" fill="#00A2E5"/>
<path d="M11.4668 38.6588H22.6453" stroke="#0587D6" stroke-width="2.81222" stroke-miterlimit="79.8403" stroke-linecap="round" stroke-linejoin="round"/>
<path d="M4.39746 65.4547H17.2199" stroke="#0587D6" stroke-width="2.81222" stroke-miterlimit="79.8403" stroke-linecap="round" stroke-linejoin="round"/>
<path d="M43.3595 133.676C19.523 122.826 3.08398 98.8251 3.08398 71.0432C3.08398 38.9872 24.9478 12.0272 54.8668 4.3009" stroke="white" stroke-width="5.6246" stroke-miterlimit="79.8403" stroke-linecap="round" stroke-linejoin="round"/>
<path d="M48.455 135.813C21.9882 126.279 2.91895 100.798 2.91895 70.8794C2.91895 32.7409 33.8243 2 71.7983 2" stroke="#0587D6" stroke-width="2.81222" stroke-miterlimit="79.8403" stroke-linecap="round" stroke-linejoin="round"/>
<path d="M17.2207 111.812V79.4275C17.2207 64.468 19.6866 52.3032 22.81 38.4944C26.2622 34.0559 31.3582 32.9052 38.2626 32.9052C51.5782 32.9052 57.9894 41.1247 57.9894 52.632C57.9894 57.8924 53.5509 74.167 48.2904 90.1129C45.989 97.0172 42.5368 101.62 40.2353 107.374C36.4543 116.744 34.3173 125.95 32.6734 125.95C29.2212 125.785 21.3305 116.415 17.2207 111.812Z" stroke="white" stroke-width="5.6246" stroke-miterlimit="79.8403" stroke-linecap="round" stroke-linejoin="round"/>
<path fill-rule="evenodd" clip-rule="evenodd" d="M17.2207 111.812V79.4275C17.2207 64.468 19.6866 52.3032 22.81 38.4944C26.2622 34.0559 31.3582 32.9052 38.2626 32.9052C51.5782 32.9052 57.9894 41.1247 57.9894 52.632C57.9894 57.8924 53.5509 74.167 48.2904 90.1129C45.989 97.0172 42.5368 101.62 40.2353 107.374C36.4543 116.744 34.3173 125.95 32.6734 125.95C29.2212 125.785 21.3305 116.415 17.2207 111.812ZM25.6046 65.1256L47.7972 62.6597C51.7426 62.331 54.5372 57.728 54.5372 52.7963C54.5372 43.0973 49.6055 36.6861 38.427 36.6861C33.3309 36.6861 30.2075 37.1793 27.7417 38.9876L26.0978 40.4671L23.9607 49.5085C23.4675 51.9744 22.9744 54.6046 22.6456 57.0705C21.6592 62.1666 22.6456 65.4544 25.6046 65.1256Z" fill="#85DBF6"/>
<path fill-rule="evenodd" clip-rule="evenodd" d="M22.8105 41.4531V38.6585C26.2627 34.2199 31.3588 33.0692 38.2631 33.0692C51.5787 33.0692 57.9899 41.2887 57.9899 52.796C57.9899 53.1248 57.9899 53.618 57.9899 53.9467C57.4968 43.4258 51.0856 36.0282 38.2631 36.0282C31.3588 35.8638 26.0983 37.0146 22.8105 41.4531ZM22.1529 61.6731C22.3173 64.1389 23.468 65.2896 25.2763 65.1253L47.469 62.6594C51.2499 62.3306 53.8802 58.3853 54.209 53.7823C54.209 54.2755 54.209 54.9331 54.209 55.4262C54.209 60.5223 51.4143 66.276 47.469 66.9335L25.2763 69.3994C22.9749 69.5638 21.8241 65.9472 22.1529 61.6731Z" fill="white"/>
<path d="M17.2207 111.812V79.4275C17.2207 64.468 19.6866 52.3032 22.81 38.4944C26.2622 34.0559 31.3582 32.9052 38.2626 32.9052C51.5782 32.9052 57.9894 41.1247 57.9894 52.632C57.9894 57.8924 53.5509 74.167 48.2904 90.1129C45.989 97.0172 42.5368 101.62 40.2353 107.374C36.4543 116.744 34.3173 125.95 32.6734 125.95C29.2212 125.785 21.3305 116.415 17.2207 111.812Z" stroke="#0587D6" stroke-width="2.81222" stroke-miterlimit="79.8403" stroke-linecap="round" stroke-linejoin="round"/>
<path d="M47.4688 62.6599L25.2762 65.1257C22.3171 65.4545 21.3308 62.3311 22.3171 56.9062C22.6459 54.4404 23.3035 51.8101 23.6323 49.3443L25.7693 40.3028L27.4132 38.8233C29.7147 37.1794 33.0025 36.5219 38.0986 36.5219C49.2771 36.5219 54.2088 42.9331 54.2088 52.6321C54.5376 57.7282 51.5786 62.1667 47.4688 62.6599Z" stroke="#0587D6" stroke-width="1.40619" stroke-miterlimit="79.8403" stroke-linecap="round" stroke-linejoin="round"/>
<path d="M143.637 71.0437H135.253C133.938 71.0437 133.773 73.3452 133.773 75.1535C133.773 80.9071 142.651 82.2222 147.911 84.8525" stroke="#0587D6" stroke-width="2.81222" stroke-miterlimit="79.8403" stroke-linecap="round" stroke-linejoin="round"/>
</svg>
