<svg width="149" height="146" viewBox="0 0 149 146" fill="none" xmlns="http://www.w3.org/2000/svg">
<path d="M137.906 75.0047C137.906 37.596 107.299 6.98889 70.0324 6.98889C32.6237 6.98889 2.0166 37.596 2.0166 75.0047C2.0166 112.413 32.6237 142.879 70.0324 142.879C107.299 143.02 137.906 112.413 137.906 75.0047Z" stroke="#0587D6" stroke-width="2.77873" stroke-miterlimit="10" stroke-linecap="round" stroke-linejoin="round"/>
<path d="M126.003 38.3043C130.254 41.8468 130.821 46.6646 133.796 51.0573C134.505 52.0492 134.788 55.8751 135.497 55.8751C136.63 55.8751 139.606 51.4824 140.315 50.6322C141.873 48.365 143.432 46.3812 144.991 46.3812C145.416 46.3812 145.983 47.3731 145.983 47.7982C145.983 48.2233 144.991 48.9318 143.432 51.7658C141.873 54.8832 141.307 61.118 139.181 64.377C137.622 66.6442 138.756 68.3446 138.756 70.3284C138.472 74.1543 138.614 78.2636 138.047 81.9478L134.08 110.288" stroke="white" stroke-width="4.14188" stroke-miterlimit="10" stroke-linecap="round" stroke-linejoin="round"/>
<path d="M6.26756 72.312C4.99226 81.8059 7.54287 105.328 9.38497 110.571" stroke="white" stroke-width="4.41564" stroke-miterlimit="10" stroke-linecap="round" stroke-linejoin="round"/>
<path d="M11.2266 111.138C10.093 108.02 6.55054 86.0567 6.97564 82.7976" stroke="white" stroke-width="4.14188" stroke-miterlimit="10" stroke-linecap="round" stroke-linejoin="round"/>
<path fill-rule="evenodd" clip-rule="evenodd" d="M108.433 118.931C108.716 120.065 109.424 121.198 110.416 122.049C110.841 122.474 113.676 123.182 114.384 123.041C119.91 121.907 122.603 118.79 128.554 120.348C128.696 120.348 128.837 120.49 128.979 120.49C131.671 113.405 117.785 108.446 120.761 101.361C119.627 99.3767 122.177 97.1095 122.177 94.7007V89.7412C122.036 84.9234 117.926 78.1218 115.659 75.4295L113.676 71.4619C111.408 70.6117 106.732 66.0773 104.323 66.5024C99.6472 66.0773 97.2384 64.9437 94.9712 64.802C93.5542 64.802 91.2869 67.0692 89.1614 67.2109C86.7525 71.0368 76.6919 73.8708 73.8579 66.3607C67.3397 62.96 61.105 62.8183 56.2872 61.543C55.2953 61.2596 55.5786 64.2352 54.445 64.2352L52.7447 65.0854C49.0605 67.3526 45.518 66.6441 42.5423 70.0449L24.4048 90.4497C24.1214 90.7331 21.8542 92.7169 21.4291 92.8586L13.7773 95.976C16.8947 97.9597 18.5951 101.077 17.0364 105.753C16.3279 107.312 15.7611 109.012 14.9109 110.571C16.4696 112.555 17.6032 114.255 18.3117 116.097C18.4534 116.097 18.7368 116.239 19.0202 116.381C19.7287 116.664 20.4372 117.089 21.2874 117.373C21.5708 117.514 21.7125 117.656 22.1376 117.798C23.2712 118.223 24.4048 118.931 25.5384 119.781C26.3886 120.207 26.9554 120.632 27.9473 121.057C28.9392 121.482 30.3561 122.332 31.0646 123.182C32.1982 124.458 32.6234 122.615 31.4898 123.041L31.7731 122.049C32.6233 121.765 32.0566 122.757 33.0484 122.474C34.182 122.049 33.757 120.773 35.4574 120.773C35.8825 120.773 37.5828 117.514 38.0079 117.656C41.9755 109.296 44.2427 103.628 44.9512 104.903C47.0767 108.871 51.7528 118.081 51.7528 124.316C51.7528 125.591 51.7528 128.709 51.6111 129.842C50.4775 136.36 49.0605 139.619 55.5787 141.036C67.7649 143.587 84.202 143.445 97.0967 137.919C101.489 135.935 101.773 131.543 101.773 126.725L101.631 125.875C101.631 121.057 105.315 117.939 106.591 113.972C105.599 113.122 106.874 114.255 108.433 118.931Z" fill="#00A2E5"/>
<path d="M52.6021 111.846C52.0353 111.137 49.343 110.004 47.6426 111.846C48.4928 112.98 49.2013 114.397 49.343 115.814C51.0434 118.789 51.6101 122.19 52.3186 127.149C52.8854 130.975 52.4604 134.66 51.4685 138.202L52.3186 138.06C52.602 136.927 52.7438 135.51 52.8855 135.368C54.1608 131.259 56.0029 125.024 55.2944 120.631C54.4442 114.963 55.1527 115.53 52.6021 111.846Z" fill="#85DBF6"/>
<path fill-rule="evenodd" clip-rule="evenodd" d="M119.344 124.458L118.493 123.466L116.793 121.765C116.651 121.624 116.651 121.482 116.651 121.057L117.501 113.688L117.785 112.271C119.627 104.336 123.028 90.8748 123.736 86.7655L123.878 86.057V85.9153L124.02 84.3566C124.02 83.9315 124.02 83.2231 124.02 82.798C124.02 80.6725 123.736 77.6968 123.028 73.0207C122.886 72.0288 122.886 70.4701 122.744 69.0531C122.603 67.6361 122.603 66.2191 122.461 65.6523C121.327 62.2515 121.186 60.8345 119.627 58.4256L118.777 57.4337C118.777 57.4337 118.777 57.292 118.635 57.292C118.635 57.1503 118.493 57.0086 118.493 56.8669L118.352 56.7252H118.21C118.068 56.5835 118.068 56.5835 118.068 56.4418L117.927 56.3001H117.785C117.643 56.3001 117.501 56.3001 117.36 56.1584C117.076 55.875 117.076 55.5916 117.076 55.5916C116.935 55.3082 116.793 55.1665 116.651 54.8831C116.368 54.8831 116.084 54.5997 116.226 54.1746C116.226 53.8912 116.51 53.6079 116.651 53.4662C116.793 53.3245 116.935 53.1827 117.076 53.1827C117.218 52.8993 117.36 52.8993 117.643 53.041C117.785 53.1827 117.927 53.3244 117.927 53.6078C118.352 53.1827 118.352 54.0329 118.21 53.6078C118.21 53.6078 118.068 53.4661 117.927 53.3244L117.643 53.4662C117.501 53.1828 117.36 53.4661 117.501 53.1827L117.927 53.6078V53.4662C118.068 53.4662 118.21 53.3244 118.352 53.3244C118.635 53.1827 118.777 53.8912 118.352 53.4662C118.21 53.3245 117.785 53.4661 117.785 53.3244C118.068 55.1665 119.344 52.7576 119.769 54.5997C120.052 54.7414 120.052 54.8831 120.335 55.0248C120.761 55.4499 121.186 55.875 121.611 56.3001C122.178 56.8669 122.744 57.4337 123.311 58.0005C123.453 57.5754 123.595 57.1503 123.595 56.5835C123.169 55.5916 122.744 54.5997 122.178 53.6078C121.186 51.4824 120.194 49.4986 119.202 47.3731C119.202 47.2314 119.344 47.0897 119.344 47.0897C119.344 46.6646 119.06 46.3812 118.777 46.0978C118.777 45.3893 118.635 44.6808 118.635 43.9723C118.918 43.6889 119.06 43.4055 119.485 42.9804C119.769 43.1221 120.335 43.5472 120.761 44.114C121.327 44.8225 121.611 45.6727 121.752 46.0978C122.603 47.3731 123.453 48.5067 124.303 49.782C126.287 55.3082 126.854 56.4418 126.854 56.4418C127.137 56.3001 126.429 51.9075 125.012 47.3731C123.736 43.4055 122.461 40.8549 123.169 40.1464C123.453 39.7213 124.02 40.0047 124.586 40.1464C124.87 40.5715 125.153 40.9966 125.437 41.4217C126.145 42.697 126.854 44.114 127.562 45.3893C127.987 46.5229 129.688 45.9561 130.113 46.948C130.538 49.782 131.246 50.9155 131.53 51.9074C131.671 52.3325 131.671 52.7577 131.813 52.7577C131.955 52.7577 132.097 54.3163 132.097 53.4662C132.097 52.616 132.096 52.1909 131.955 51.3407C131.671 50.0654 131.671 47.7982 130.396 43.8306C129.546 42.9804 129.121 41.4217 129.263 40.7132C129.263 40.5715 129.688 39.863 129.829 39.5796C130.538 39.863 130.538 39.5796 131.246 39.863C131.813 40.9966 132.805 42.1302 133.372 43.2638C133.655 44.2557 134.08 45.3893 134.364 46.3812C134.222 47.5148 134.93 49.3569 135.497 51.4824C136.064 53.3244 136.206 54.3163 136.773 55.1665C136.773 57.7171 136.206 57.4337 136.631 57.5754C136.914 57.5754 136.914 59.8426 137.198 59.4175C137.481 58.8507 137.056 58.4256 137.481 57.8588C137.623 57.4337 137.623 57.0086 137.765 56.7252C137.906 56.3001 136.914 55.0248 137.198 54.5997C137.481 54.1746 138.19 54.0329 138.473 53.7495C138.756 53.6078 138.19 51.4824 138.473 51.3407C138.756 51.199 139.607 50.0654 139.748 50.0654C140.032 50.0654 140.74 49.782 141.165 49.9237C141.165 49.9237 141.732 49.9237 142.016 50.4905C142.299 50.9155 141.59 53.7495 141.449 54.1746C141.307 54.458 141.024 55.3082 140.882 55.5916C140.74 55.7333 140.74 56.7252 140.599 56.8669C140.032 57.7171 140.598 58.8507 140.032 59.7009C139.607 61.8264 139.04 64.377 138.048 67.211C136.914 70.1867 135.214 70.4701 135.639 74.8628C135.072 76.9883 136.064 80.1057 135.781 83.3648C135.497 86.4821 135.922 89.8829 136.064 92.0084C134.505 101.361 139.323 112.697 132.663 119.782C132.096 124.174 125.72 126.158 121.894 126.158C122.036 124.458 120.194 125.308 119.344 124.458Z" fill="white"/>
<path fill-rule="evenodd" clip-rule="evenodd" d="M29.7891 118.081C28.3721 119.64 25.113 121.907 22.7041 121.907C17.603 121.907 12.5017 117.231 10.5179 111.28C9.38433 108.162 5.41676 86.1989 5.84186 82.7981C5.98356 80.5309 5.98361 75.4297 5.98361 73.3042C5.98361 68.6281 6.55039 68.9115 5.7002 66.5026L5.98361 60.8346C4.56662 57.5756 9.80946 52.3327 7.54227 49.357C7.25887 48.9319 8.53419 46.6647 8.53419 46.3813C8.53419 45.6728 9.80943 45.6728 10.5179 45.6728C11.6515 45.6728 10.518 48.7902 11.0848 49.357C12.0767 51.1991 7.82571 51.1991 9.5261 53.608C9.9512 54.5999 9.2427 51.1991 10.2346 50.9157C11.3682 49.9238 13.2102 46.2396 14.0604 45.5311C17.1778 42.6971 16.611 38.8712 20.7203 37.3125C21.7122 37.0291 28.3721 38.5878 28.9389 38.5878C30.2142 38.5878 33.4733 44.3975 33.4733 44.6809C33.4733 45.6728 27.0968 53.608 26.2466 53.7497H33.1899C34.3235 53.8914 33.0482 56.7254 32.198 56.5837C29.7891 56.1586 25.5382 61.4014 25.1131 61.8265C23.1293 63.3852 21.4289 68.7698 20.1536 71.037C19.02 72.5957 17.8864 79.3973 19.8702 83.6483L27.5219 108.446L29.7891 118.081Z" fill="white"/>
<path fill-rule="evenodd" clip-rule="evenodd" d="M27.5219 120.49C29.0806 118.223 34.7486 108.304 36.0239 105.47C35.5988 102.352 35.032 99.9434 33.4733 98.9515C32.198 97.8179 27.3802 92.575 26.1049 92.575C23.2709 92.4333 21.4289 98.1013 21.7123 99.8017C23.4127 106.745 25.6798 113.547 27.5219 120.49Z" fill="white"/>
<path fill-rule="evenodd" clip-rule="evenodd" d="M92.8455 51.1989L73.291 49.4985V59.1341C75.4165 62.2515 78.3922 64.9438 83.9185 64.9438C84.627 64.9438 85.3354 64.8021 86.1856 64.6604L86.4691 64.5187C88.5945 59.7009 90.8617 55.5916 92.8455 51.1989Z" fill="white"/>
<path fill-rule="evenodd" clip-rule="evenodd" d="M98.656 22.2926C97.0974 14.9242 90.0124 12.9404 90.0124 10.6732V7.83923C90.0124 9.82303 87.6035 10.6732 86.0448 10.6732C74.8506 10.6732 67.9072 23.2845 67.9072 32.2116C67.9072 34.7621 68.0489 37.171 68.1906 39.4382C68.6157 43.8309 71.3081 47.3734 74.0004 50.2074C76.8344 53.0414 79.81 55.0252 83.7776 55.0252C87.7452 55.0252 90.8626 52.8997 93.5549 50.2074C96.3889 47.3734 98.3727 43.6892 98.7978 39.4382C99.9314 33.4869 99.9313 27.9606 98.656 22.2926Z" fill="white"/>
<path fill-rule="evenodd" clip-rule="evenodd" d="M53.4541 58.9924C53.4541 58.9924 53.8791 50.7738 58.6969 40.9965C58.6969 40.9965 53.3123 27.8185 56.5714 18.8914C59.6888 10.106 65.0734 4.57973 74.5673 1.17894C77.9681 0.0453478 81.5106 -0.0963561 84.4862 0.0453434C91.0044 0.470442 96.8142 4.57973 100.215 10.3894C102.907 15.0655 105.741 21.442 105.033 26.9683C103.899 37.8791 109.425 37.7374 104.041 53.7495C104.041 53.7495 100.64 58.709 106.166 61.8263" fill="white"/>
<path fill-rule="evenodd" clip-rule="evenodd" d="M70.7403 7.98046C70.7403 7.98046 63.797 15.0654 63.6553 30.7941C63.5136 46.5227 65.6391 42.5551 68.7565 51.0571C72.0156 59.5591 69.8901 57.2919 71.5905 61.5429C73.1492 65.7939 76.55 75.7129 76.55 75.7129L76.4082 77.1298C76.4082 77.1298 68.8982 73.304 67.0561 68.3445C67.0561 68.3445 65.7808 73.1623 63.0885 74.5792C63.0885 74.5792 64.3638 62.9599 63.9387 62.3931L55.2951 63.6684C55.2951 63.6684 54.0197 53.1826 60.8213 41.8466C60.8213 41.8466 59.8294 21.3002 60.963 21.3002C60.963 20.8751 63.6553 7.69706 70.7403 7.98046Z" fill="#85DBF6"/>
<path fill-rule="evenodd" clip-rule="evenodd" d="M98.9387 15.9158C98.9387 15.9158 103.898 25.5513 103.473 31.361C103.048 37.1707 103.473 47.2314 100.923 52.8994C98.2303 58.4256 103.473 62.96 103.473 62.96L106.024 65.6523L105.74 66.3608L94.1209 64.5187C94.1209 64.5187 89.8699 72.3122 89.8699 76.1381C89.8699 76.1381 84.9105 73.8709 92.4206 57.1503C94.4044 52.8994 97.3801 49.0735 99.5056 40.2881C100.497 34.7618 99.6472 26.2598 98.9387 15.9158Z" fill="#85DBF6"/>
<path d="M79.5259 3.02124L71.3074 6.42203C69.8904 7.27222 66.0645 9.96452 64.7892 11.5232C62.0969 15.0657 61.2467 18.7499 60.5382 23.1426C60.2548 25.8349 60.1131 28.6689 60.2548 31.3612L60.6799 38.7295C60.8216 40.7133 60.5382 42.272 59.8298 43.8307L56.5706 51.9076C55.7204 54.0331 55.437 56.1586 55.2953 58.2841L54.7285 64.9439L63.6556 62.3933" stroke="#0587D6" stroke-width="1.67871" stroke-miterlimit="10" stroke-linecap="round" stroke-linejoin="round"/>
<path d="M96.5303 10.2478L100.498 18.7498C102.623 22.7174 103.048 26.9684 103.332 31.7861V39.4379C103.19 43.6889 102.198 49.2152 100.498 53.7496C99.6476 56.3002 100.073 59.1341 101.915 61.1179C102.198 61.543 102.623 61.8264 102.907 62.2515L105.599 66.5025" stroke="#0587D6" stroke-width="1.67871" stroke-miterlimit="10" stroke-linecap="round" stroke-linejoin="round"/>
<path d="M88.7369 67.7778C81.7936 74.1543 75.8422 69.0531 75.8422 69.0531C75.8422 69.0531 71.5912 64.5187 71.0244 56.3002" stroke="#0587D6" stroke-width="1.36315" stroke-miterlimit="10" stroke-linecap="round" stroke-linejoin="round"/>
<path d="M71.4495 60.6923C71.4495 60.6923 74.5669 68.7691 76.6924 76.2792C76.8341 76.7043 76.409 77.2711 75.8422 77.1294C73.4334 76.1375 68.4738 73.3035 66.7734 67.3521" stroke="#0074A5" stroke-width="1.3871" stroke-miterlimit="10" stroke-linecap="round"/>
<path d="M94.4043 64.5183C94.4043 64.5183 100.922 65.5102 105.315 66.6438" stroke="#0587D6" stroke-width="1.36315" stroke-miterlimit="10" stroke-linecap="round" stroke-linejoin="round"/>
<path d="M105.457 66.644C105.882 66.644 109.708 69.1946 109.991 69.3363C112.117 71.0367 114.951 73.8707 115.659 75.4294C117.502 77.8383 122.178 88.0407 122.603 89.4577" stroke="#0587D6" stroke-width="2.40889" stroke-miterlimit="10" stroke-linecap="round" stroke-linejoin="round"/>
<path fill-rule="evenodd" clip-rule="evenodd" d="M74.2825 49.9232C71.4485 47.0892 69.1814 43.405 68.4729 39.154C68.3312 36.8868 68.1895 34.3362 68.1895 31.9273C68.1895 31.6439 68.1895 31.2189 68.1895 30.7938C68.3312 32.7775 68.3312 34.3362 68.4729 35.8949C68.898 40.2876 71.5902 45.1054 74.2825 47.9394C76.9748 50.7734 80.0922 52.7572 84.0598 52.7572C88.0274 52.7572 91.1448 50.7734 93.8371 47.9394C96.6711 45.1054 98.6548 40.2876 99.0799 35.8949C99.3633 33.7694 99.5051 31.6439 99.5051 29.6602C99.6468 32.9192 99.3633 35.8949 99.0799 39.2957C98.3714 43.6884 96.246 47.2309 93.8371 50.0649C91.0031 52.8989 88.0274 54.8827 84.0598 54.8827C79.8088 55.0244 76.8331 53.0406 74.2825 49.9232Z" fill="#85DBF6"/>
<path fill-rule="evenodd" clip-rule="evenodd" d="M90.1539 10.3894C90.1539 12.3731 87.7451 13.2233 86.1864 13.2233C74.9921 13.2233 68.0488 23.0006 68.0488 31.9277C68.0488 42.5551 70.5994 50.7737 73.5751 58.9923C70.0326 54.7413 63.7979 42.9802 63.7979 33.3447C63.7979 25.9763 64.5063 17.0492 68.4739 10.9561C72.0164 5.71327 78.2512 2.17078 84.0609 2.17078C91.1458 2.17078 98.6559 8.12216 98.6559 19.7415C98.6559 19.8832 98.6559 20.0249 98.6559 20.1666L98.9393 22.4338C97.3806 15.0654 90.2957 15.6322 90.2957 13.6484V10.8145H90.0123L90.1539 10.3894Z" fill="#85DBF6"/>
<path d="M96.9547 62.2514C96.9547 62.2514 89.0195 67.2109 90.5782 77.6966C83.0681 72.4538 95.6794 51.1988 97.5215 46.381C99.5053 41.4216 100.072 36.037 100.072 30.7941C100.072 27.3933 99.3636 23.9925 98.7968 20.1666C98.7968 20.0249 98.7968 19.8832 98.7968 19.7415C98.7968 8.26386 91.2867 2.17078 84.2017 2.17078C78.6754 2.17078 72.2989 5.71327 68.6148 10.9561C64.7889 17.0492 63.9387 25.9763 63.9387 33.3447C63.9387 39.2961 64.3638 44.964 65.214 51.0571C66.631 62.2514 68.8982 71.0368 62.5217 75.0043C62.5217 75.0043 66.3476 63.385 62.2383 53.1826" stroke="#0587D6" stroke-width="1.67871" stroke-miterlimit="10" stroke-linecap="round" stroke-linejoin="round"/>
<path d="M88.8787 4.86316C89.5872 5.85506 90.1539 9.25585 90.1539 10.3894C90.1539 12.3732 87.7451 13.2234 86.1864 13.2234C74.9921 13.2234 68.0488 23.0007 68.0488 31.9278C68.0488 42.5552 70.5994 50.7738 73.5751 58.9924C70.0326 54.7414 63.7979 42.9803 63.7979 33.3448" stroke="#0587D6" stroke-width="1.67871" stroke-miterlimit="10" stroke-linecap="round" stroke-linejoin="round"/>
<path d="M90.1533 10.3894V13.2234C90.1533 15.4906 97.2383 14.7821 98.797 22.0088" stroke="#0587D6" stroke-width="1.36315" stroke-miterlimit="10" stroke-linecap="round" stroke-linejoin="round"/>
<path d="M68.4736 39.2963C68.8987 43.689 71.591 47.2314 74.2833 50.0654C77.1173 52.8994 80.093 54.8832 84.0606 54.8832C88.0282 54.8832 91.1456 52.7577 93.8379 50.0654C96.5302 47.2314 98.6556 43.5473 99.0807 39.2963" stroke="#0587D6" stroke-width="1.36315" stroke-miterlimit="10" stroke-linecap="round" stroke-linejoin="round"/>
<path d="M85.9021 6.42175C74.8495 6.42175 68.048 13.7901 66.4893 24.5593" stroke="#0587D6" stroke-width="1.36315" stroke-miterlimit="10" stroke-linecap="round" stroke-linejoin="round"/>
<path d="M79.5257 29.5186C77.5419 28.2433 75.5582 27.9599 73.291 29.3769" stroke="#00A2E5" stroke-width="1.36315" stroke-miterlimit="10" stroke-linecap="round" stroke-linejoin="round"/>
<path fill-rule="evenodd" clip-rule="evenodd" d="M77.117 28.3855C77.8255 28.5272 78.2506 29.094 78.1089 29.8025C77.9672 30.511 77.4004 30.9361 76.6919 30.7944C75.9834 30.6527 75.5583 30.0859 75.7 29.3774C75.8417 28.5272 76.5502 28.2438 77.117 28.3855Z" fill="#0587D6"/>
<path fill-rule="evenodd" clip-rule="evenodd" d="M83.9183 47.6565C86.7523 47.6565 87.7442 45.3893 89.1612 43.9723C86.894 42.9804 86.6106 43.2638 85.477 43.2638C84.7685 43.2638 84.2017 43.5472 83.4932 43.5472C83.0681 43.5472 82.3596 43.2638 81.5094 43.2638C80.5175 43.2638 80.0924 43.2638 77.8252 43.9723C80.0924 45.3893 80.9427 47.6565 83.9183 47.6565Z" fill="#00A2E5"/>
<path d="M90.1531 43.8301C88.5944 44.5386 86.3273 45.1054 83.9184 45.1054C81.5095 45.1054 79.2423 44.6803 77.6836 43.8301" stroke="#0587D6" stroke-width="1.36315" stroke-miterlimit="10" stroke-linecap="round" stroke-linejoin="round"/>
<path d="M80.8008 38.3043C82.0761 38.3043 82.7846 39.5796 83.9182 39.5796C85.0518 39.5796 85.9019 38.3043 87.0355 38.3043" stroke="#0587D6" stroke-width="1.36315" stroke-miterlimit="10" stroke-linecap="round" stroke-linejoin="round"/>
<path d="M88.4531 29.5191C90.4369 28.2438 92.279 27.9604 94.6879 29.3774" stroke="#00A2E5" stroke-width="1.36315" stroke-miterlimit="10" stroke-linecap="round" stroke-linejoin="round"/>
<path fill-rule="evenodd" clip-rule="evenodd" d="M90.5783 28.3855C91.2868 28.2438 91.8536 28.5272 91.9953 29.3774C92.137 30.2276 91.8537 30.6527 91.0035 30.7944C90.295 30.9361 89.7282 30.6527 89.5865 29.8025C89.4448 29.2357 90.0115 28.3855 90.5783 28.3855Z" fill="#0587D6"/>
<path d="M84.485 26.684H83.2098C81.7928 26.684 78.8171 25.5504 76.2665 25.5504H69.0398C69.0398 30.5099 68.6147 34.0524 74.5661 34.0524C83.0681 34.0524 81.5094 27.9593 82.9264 27.9593H84.2016C85.7603 27.9593 84.06 34.0524 92.5619 34.0524C98.655 34.0524 98.0883 30.3682 98.0883 25.5504H90.8615C89.0194 25.5504 85.902 26.684 84.485 26.684Z" stroke="#0587D6" stroke-width="1.28932" stroke-miterlimit="10" stroke-linecap="round" stroke-linejoin="round"/>
<path fill-rule="evenodd" clip-rule="evenodd" d="M118.918 124.315C117.36 122.048 112.683 114.538 111.408 112.129C112.4 105.328 117.643 101.502 122.177 100.227L118.918 124.315Z" fill="white"/>
<path d="M11.6517 51.7652C10.8015 52.7571 11.0849 50.4899 12.0768 49.0729C11.2266 49.3563 13.2103 48.5061 12.6435 47.5142C11.3682 44.9636 11.7934 45.5304 10.3764 44.5385C9.80957 44.1134 7.40064 44.8219 6.97554 46.5223C6.83384 46.8057 6.97561 49.6397 5.98371 50.7733C5.70031 51.0567 5.13348 54.174 5.41688 54.5991C5.27518 56.7246 4.14157 57.4331 5.13346 60.2671L6.26704 65.51C7.11724 68.0606 6.69221 65.0849 6.69221 69.6193C6.69221 71.8865 7.25896 70.3278 7.25896 72.3116" stroke="white" stroke-width="3.70105" stroke-miterlimit="10" stroke-linecap="round" stroke-linejoin="round"/>
<path fill-rule="evenodd" clip-rule="evenodd" d="M23.9796 53.466C25.9633 53.3243 26.5301 53.6077 26.105 55.4498C29.9309 55.3081 29.6476 56.4417 27.6638 58.2838C29.6476 58.9923 29.2225 60.4092 26.3885 62.5347L23.8379 62.1096L23.9796 53.466Z" fill="white"/>
<path d="M20.0122 69.7614C18.8787 71.32 18.3119 80.9556 19.5872 85.3483L28.5142 110.287" stroke="#0587D6" stroke-width="1.36315" stroke-miterlimit="10" stroke-linecap="round" stroke-linejoin="round"/>
<path d="M31.7725 122.615C41.6914 116.381 43.817 101.927 45.0923 104.62C47.2177 108.587 52.0356 118.223 52.0356 124.458C52.0356 129.417 51.327 134.235 49.0598 138.628" stroke="#0587D6" stroke-width="2.40889" stroke-miterlimit="10" stroke-linecap="round" stroke-linejoin="round"/>
<path fill-rule="evenodd" clip-rule="evenodd" d="M35.3151 104.478C35.3151 104.478 38.5742 117.939 33.8981 120.915C33.8981 120.915 31.3475 122.049 29.0804 119.64C28.9387 119.498 35.5985 118.223 35.3151 104.478Z" fill="#85DBF6"/>
<path d="M22.9873 91.4412L35.8819 77.8381C37.1572 75.5709 38.5742 73.0203 41.5499 70.8948C43.5337 69.4778 46.7928 66.7855 49.2017 66.2187L54.4445 64.66" stroke="#0587D6" stroke-width="2.40889" stroke-miterlimit="10" stroke-linecap="round" stroke-linejoin="round"/>
<path d="M112.401 121.907C108.575 120.915 105.599 112.98 105.174 114.255C103.899 118.081 101.206 120.915 101.206 125.733C101.206 128.142 100.498 131.826 101.206 134.235" stroke="#0587D6" stroke-width="2.40889" stroke-miterlimit="10" stroke-linecap="round" stroke-linejoin="round"/>
<path d="M104.749 133.385C94.4045 139.478 82.7852 142.737 70.1739 142.737C60.2549 142.737 50.6194 140.47 41.834 136.644" stroke="white" stroke-width="5.55731" stroke-miterlimit="10" stroke-linecap="round" stroke-linejoin="round"/>
<path d="M106.448 132.393C95.8207 139.195 83.4928 143.02 70.1731 143.02C58.9788 143.02 48.2096 140.186 38.8574 135.51" stroke="#0587D6" stroke-width="2.77873" stroke-miterlimit="10" stroke-linecap="round" stroke-linejoin="round"/>
<path d="M118.918 124.316C117.36 122.049 112.825 114.964 111.408 112.271" stroke="#0587D6" stroke-width="1.36315" stroke-miterlimit="10" stroke-linecap="round" stroke-linejoin="round"/>
<path d="M54.4452 67.9189C53.1699 68.344 48.6356 69.4776 45.6599 71.4614C43.3927 72.8784 41.5506 74.8622 39.9919 76.9877L36.166 82.6557" stroke="#85DBF6" stroke-width="1.36315" stroke-miterlimit="10" stroke-linecap="round" stroke-linejoin="round"/>
<path d="M23.1289 92.4335C23.1289 92.4335 36.7321 95.6926 37.5823 110.571C37.724 112.838 37.2988 115.105 36.3069 117.089C31.3475 127.292 27.2382 119.498 28.3718 121.057" stroke="#0587D6" stroke-width="3.14431" stroke-miterlimit="10" stroke-linecap="round" stroke-linejoin="round"/>
<path d="M119.91 100.085C112.825 105.328 109.141 111.421 110.133 116.38C111.125 121.34 112.258 123.324 116.084 122.473" stroke="#0587D6" stroke-width="3.14431" stroke-miterlimit="10" stroke-linecap="round" stroke-linejoin="round"/>
<path d="M27.5225 120.49C27.5225 120.49 36.1662 108.87 36.5913 103.911" stroke="#0587D6" stroke-width="1.8496" stroke-miterlimit="10" stroke-linecap="round" stroke-linejoin="round"/>
<path d="M24.9719 92.5753C23.4132 94.5591 23.2715 94.9842 23.2715 94.9842" stroke="#0587D6" stroke-width="1.8496" stroke-miterlimit="10" stroke-linecap="round" stroke-linejoin="round"/>
<path d="M106.732 125.591L116.793 126.583C118.21 128.992 119.344 130.976 120.761 133.526" stroke="white" stroke-width="5.03614" stroke-miterlimit="10" stroke-linejoin="round"/>
<path d="M27.805 124.316C20.1532 127.575 13.21 122.757 13.21 122.757" stroke="white" stroke-width="5.55731" stroke-miterlimit="10" stroke-linejoin="round"/>
<path d="M55.7204 79.8224C55.7204 79.8224 42.2589 87.1908 46.0848 106.462" stroke="#0587D6" stroke-width="2.40889" stroke-miterlimit="10" stroke-linecap="round"/>
<path d="M103.757 82.7981C103.757 82.7981 114.384 95.126 105.174 114.255" stroke="#0587D6" stroke-width="2.40889" stroke-miterlimit="10" stroke-linecap="round" stroke-linejoin="round"/>
<path d="M137.482 55.3076C138.048 54.5991 138.615 54.8825 138.899 54.174C139.607 52.4736 138.19 51.1983 140.032 49.7813C141.591 48.9311 142.583 49.923 142.583 49.923C142.583 49.923 142.158 53.1821 140.882 56.8663C140.457 57.9999 139.749 61.9675 139.607 63.1011C139.04 65.7934 138.19 67.4938 136.773 69.9027C135.498 72.0282 136.348 79.9633 136.206 83.7892L137.057 109.72C137.34 115.247 131.105 125.307 126.996 125.449C125.012 125.591 120.478 125.732 118.919 124.032" stroke="#0587D6" stroke-width="1.417" stroke-miterlimit="10" stroke-linecap="round" stroke-linejoin="round"/>
<path d="M137.907 59.9839C137.907 59.8422 138.048 57.8584 137.623 56.158C137.198 54.5993 136.206 51.3402 136.206 51.3402C136.206 51.3402 133.656 40.146 131.672 39.5792C130.397 39.2958 130.113 40.4294 130.113 40.9962C130.113 40.9962 133.797 49.6398 132.947 53.8908" stroke="#0587D6" stroke-width="1.417" stroke-miterlimit="10" stroke-linecap="round" stroke-linejoin="round"/>
<path d="M125.012 41.4213C124.304 38.8707 126.996 39.0124 127.704 40.2877" stroke="#0587D6" stroke-width="1.417" stroke-miterlimit="10" stroke-linecap="round" stroke-linejoin="round"/>
<path d="M119.343 111.562C119.485 103.911 124.444 84.6395 124.869 81.8055C125.153 80.8136 125.578 78.9715 125.861 77.6962C126.286 75.5707 126.145 73.5869 125.72 71.3197C125.578 70.6112 125.578 70.1861 125.153 69.761C124.586 68.9108 123.736 67.3521 123.877 66.2185C123.877 65.2266 123.877 64.3764 123.736 63.2428C122.886 59.7003 122.602 58.1417 121.185 55.5911C120.902 54.7409 116.792 50.915 117.359 49.9231C118.918 48.081 122.886 54.0324 123.736 54.8826L125.436 57.0081C126.853 53.4656 120.618 46.664 120.193 43.6883C120.193 43.2632 120.193 42.9798 120.335 42.8381C120.618 42.1296 121.894 41.9879 122.46 42.5547" stroke="#0587D6" stroke-width="1.417" stroke-miterlimit="10" stroke-linecap="round" stroke-linejoin="round"/>
<path d="M129.263 56.0166C128.129 49.9236 122.461 42.5552 122.461 42.5552" stroke="#0587D6" stroke-width="1.417" stroke-miterlimit="10" stroke-linecap="round" stroke-linejoin="round"/>
<path d="M125.013 41.7052C125.438 42.272 130.256 53.608 129.122 56.0169" stroke="#0587D6" stroke-width="1.417" stroke-miterlimit="10" stroke-linecap="round" stroke-linejoin="round"/>
<path d="M127.562 40.2872C129.83 43.2629 132.947 54.1738 132.947 54.1738" stroke="#0587D6" stroke-width="1.417" stroke-miterlimit="10" stroke-linecap="round" stroke-linejoin="round"/>
<path d="M9.66797 59.1342C9.66797 58.9925 10.3764 54.7415 11.2266 53.3245C11.9351 51.9075 14.0606 49.2152 14.0606 49.2152C14.0606 49.2152 17.7448 39.2962 21.8541 39.1545C22.846 39.4379 22.9877 40.1464 22.5626 40.9966C22.5626 40.9966 16.8946 47.7982 16.4695 52.0492" stroke="#0587D6" stroke-width="1.417" stroke-miterlimit="10" stroke-linecap="round" stroke-linejoin="round"/>
<path d="M27.6645 42.8385C28.373 41.2798 26.6726 40.4296 25.6807 41.2798" stroke="#0587D6" stroke-width="1.417" stroke-miterlimit="10" stroke-linecap="round" stroke-linejoin="round"/>
<path d="M20.0127 69.6192C21.7131 67.7771 22.1382 66.5018 23.1301 64.0929C24.6888 61.2589 24.9722 59.1334 27.3811 57.433C27.8062 57.1496 33.0491 52.4736 32.1989 51.6234C31.207 49.4979 26.1058 54.8825 25.2556 55.3076L22.705 56.2995C23.4135 53.1821 29.3648 49.2145 31.0652 46.3805C31.4903 45.3886 30.6402 44.255 29.3649 44.6801" stroke="#0587D6" stroke-width="1.417" stroke-miterlimit="10" stroke-linecap="round" stroke-linejoin="round"/>
<path d="M19.3047 54.7405C20.8634 51.3397 29.3654 44.6798 29.3654 44.6798" stroke="#0587D6" stroke-width="1.417" stroke-miterlimit="10" stroke-linecap="round" stroke-linejoin="round"/>
<path d="M27.5232 42.9801C26.9564 43.4052 19.1629 52.474 19.3046 54.5995" stroke="#0587D6" stroke-width="1.417" stroke-miterlimit="10" stroke-linecap="round" stroke-linejoin="round"/>
<path d="M25.5385 41.2803C21.996 43.1224 16.4697 52.1911 16.4697 52.1911" stroke="#0587D6" stroke-width="1.417" stroke-miterlimit="10" stroke-linecap="round" stroke-linejoin="round"/>
<path d="M26.9551 120.774C26.9551 120.774 16.0443 127.292 9.52608 108.163C8.95928 105.045 6.69207 78.9724 8.53417 67.2114C7.68397 64.5191 7.82565 64.9442 6.83376 62.1102C6.55036 61.4017 6.40862 60.2681 6.26692 59.2762C6.12522 58.1426 6.26696 56.8673 6.83376 55.7337C7.25885 54.7418 7.54225 53.7499 7.54225 51.9078C7.54225 51.6244 7.54227 51.1993 7.82567 50.9159C8.25077 50.0657 9.24267 47.9402 9.24267 46.0981L9.66775 45.9564C9.66775 45.9564 11.5099 45.2479 12.0767 47.09C12.5018 48.507 10.8013 49.6406 11.0847 51.341C11.2264 52.1912 11.0847 52.4746 11.5098 53.3248" stroke="#0587D6" stroke-width="1.417" stroke-miterlimit="10" stroke-linecap="round" stroke-linejoin="round"/>
</svg>
