<svg width="24" height="25" viewBox="0 0 24 25" fill="none" xmlns="http://www.w3.org/2000/svg">
<path fill-rule="evenodd" clip-rule="evenodd" d="M11.9579 0.913177C18.1487 0.913177 23.2371 6.00151 23.2371 12.1923C23.2371 18.3831 18.1487 23.4715 11.9579 23.4715C5.76711 23.4715 0.678779 18.3831 0.678779 12.1923C0.593974 6.00151 5.6823 0.913177 11.9579 0.913177Z" fill="#0587D6"/>
<path fill-rule="evenodd" clip-rule="evenodd" d="M11.9574 2.35501C17.385 2.35501 21.8797 6.76489 21.8797 12.2773C21.8797 17.7048 17.4698 22.1995 11.9574 22.1995C6.52987 22.1995 2.03516 17.7896 2.03516 12.2773C2.03516 6.76489 6.44506 2.35501 11.9574 2.35501Z" fill="#00A2E5"/>
<path fill-rule="evenodd" clip-rule="evenodd" d="M13.5692 17.8745L10.5162 15.8392C10.2618 15.6696 9.92256 15.3304 9.83775 14.9063C9.75294 14.5671 9.83776 14.1431 10.0074 13.9735L10.177 13.8039L9.15932 14.4823C8.48087 14.8215 7.71761 14.7367 7.29358 14.6519L4.91903 13.8039C4.24058 13.6343 3.98616 12.7862 4.32538 12.1926C4.5798 11.6837 5.17345 11.5141 5.34306 11.5141L16.1134 6.93459C16.4526 6.76498 17.131 6.6802 17.7247 7.01943C18.3183 7.52826 18.2335 8.20666 18.2335 8.46108L16.8766 17.2809C16.7918 17.7897 16.5374 18.6378 15.6893 18.7226C14.7565 18.6378 13.9084 18.129 13.5692 17.8745Z" fill="#0587D6"/>
<path fill-rule="evenodd" clip-rule="evenodd" d="M8.81971 13.6343L13.8233 10.4117C14.0777 10.2421 14.6713 9.81804 14.8409 10.0725C14.9257 10.1573 14.7561 10.6661 14.5865 10.7509L10.8551 14.0583C10.6855 14.1431 10.6006 14.3976 10.6854 14.652C10.6854 14.8216 10.855 14.9912 11.0247 15.1608L14.0777 17.1962C14.5865 17.4506 15.0953 17.8746 15.689 17.7898C16.0282 17.705 16.3674 17.2809 16.3674 16.9417L17.7243 8.12194C17.7243 7.86752 17.7243 7.52828 17.5547 7.35867C17.3851 7.18906 16.9611 7.27386 16.7067 7.35867L5.93632 11.9382C5.6819 12.023 5.34269 12.1078 5.25788 12.447C5.17308 12.6166 5.25787 12.9559 5.42748 13.0407L7.80205 13.8887C7.88686 13.8887 8.48048 13.8887 8.81971 13.6343Z" fill="white"/>
</svg>
