<svg width="185" height="164" viewBox="0 0 185 164" fill="none" xmlns="http://www.w3.org/2000/svg">
<g clip-path="url(#clip0_1_1401)">
<path d="M90.2003 161.4C133.831 161.4 169.2 125.941 169.2 82.2001C169.2 38.4591 133.831 3 90.2003 3C46.5697 3 11.2002 38.4591 11.2002 82.2001C11.2002 125.941 46.5697 161.4 90.2003 161.4Z" stroke="#0587D6" stroke-width="3.225" stroke-miterlimit="79.8403" stroke-linecap="round" stroke-linejoin="round"/>
<path d="M179.8 107.2H1" stroke="white" stroke-width="4.8374" stroke-miterlimit="79.8403" stroke-linecap="round" stroke-linejoin="round"/>
<path d="M13.8008 89.6001V97.6001H20.2008V89.6001" stroke="white" stroke-width="4.8374" stroke-miterlimit="79.8403" stroke-linecap="round" stroke-linejoin="round"/>
<path d="M166.8 89.6001V97.6001H160.4V89.6001" stroke="white" stroke-width="4.8374" stroke-miterlimit="79.8403" stroke-linecap="round" stroke-linejoin="round"/>
<path d="M117.8 97.4001H63" stroke="#0587D6" stroke-width="1.6124" stroke-miterlimit="79.8403" stroke-linecap="round" stroke-linejoin="round"/>
<path d="M179.8 104H1" stroke="white" stroke-width="4.8374" stroke-miterlimit="79.8403" stroke-linecap="round" stroke-linejoin="round"/>
<path d="M173.2 89.6001H7.2002V94.6001H173.2V89.6001Z" stroke="white" stroke-width="4.8374" stroke-miterlimit="79.8403" stroke-linecap="round" stroke-linejoin="round"/>
<path d="M173.2 89.6001H7.2002V94.6001H173.2V89.6001Z" fill="#00A2E5"/>
<path d="M173.2 89.6001H7.2002V94.6001H173.2V89.6001Z" stroke="#0587D6" stroke-width="1.6124" stroke-miterlimit="79.8403" stroke-linecap="round" stroke-linejoin="round"/>
<path fill-rule="evenodd" clip-rule="evenodd" d="M37.1992 95.2002V100H51.7993V95.2002H37.1992Z" fill="#00A2E5"/>
<path d="M56.6 104C59.6928 104 62.2 101.493 62.2 98.4C62.2 95.3072 59.6928 92.8 56.6 92.8C53.5072 92.8 51 95.3072 51 98.4C51 101.493 53.5072 104 56.6 104Z" fill="white"/>
<path d="M56.6 104C59.6928 104 62.2 101.493 62.2 98.4C62.2 95.3072 59.6928 92.8 56.6 92.8C53.5072 92.8 51 95.3072 51 98.4C51 101.493 53.5072 104 56.6 104Z" stroke="#0587D6" stroke-width="1.6124" stroke-miterlimit="79.8403" stroke-linecap="round" stroke-linejoin="round"/>
<path d="M56.6002 100.8C57.9257 100.8 59.0003 99.7255 59.0003 98.4C59.0003 97.0745 57.9257 96 56.6002 96C55.2747 96 54.2002 97.0745 54.2002 98.4C54.2002 99.7255 55.2747 100.8 56.6002 100.8Z" stroke="#0587D6" stroke-width="1.6124" stroke-miterlimit="79.8403" stroke-linecap="round" stroke-linejoin="round"/>
<path d="M32.1996 104C35.2924 104 37.7996 101.493 37.7996 98.4C37.7996 95.3072 35.2924 92.8 32.1996 92.8C29.1068 92.8 26.5996 95.3072 26.5996 98.4C26.5996 101.493 29.1068 104 32.1996 104Z" fill="white"/>
<path d="M32.1996 104C35.2924 104 37.7996 101.493 37.7996 98.4C37.7996 95.3072 35.2924 92.8 32.1996 92.8C29.1068 92.8 26.5996 95.3072 26.5996 98.4C26.5996 101.493 29.1068 104 32.1996 104Z" stroke="#0587D6" stroke-width="1.6124" stroke-miterlimit="79.8403" stroke-linecap="round" stroke-linejoin="round"/>
<path d="M32.1998 100.8C33.5253 100.8 34.5998 99.7255 34.5998 98.4C34.5998 97.0745 33.5253 96 32.1998 96C30.8743 96 29.7998 97.0745 29.7998 98.4C29.7998 99.7255 30.8743 100.8 32.1998 100.8Z" stroke="#0587D6" stroke-width="1.6124" stroke-miterlimit="79.8403" stroke-linecap="round" stroke-linejoin="round"/>
<path d="M37.1992 94.2002H39.3992L41.5992 97.4002H47.7993L49.9993 94.2002H52.1992" stroke="#0587D6" stroke-width="1.6124" stroke-miterlimit="79.8403" stroke-linecap="round" stroke-linejoin="round"/>
<path d="M44.1992 91V97.4" stroke="#0587D6" stroke-width="1.6124" stroke-miterlimit="79.8403" stroke-linecap="round" stroke-linejoin="round"/>
<path d="M50.8 100.6H38" stroke="#0587D6" stroke-width="1.6124" stroke-miterlimit="79.8403" stroke-linecap="round" stroke-linejoin="round"/>
<path fill-rule="evenodd" clip-rule="evenodd" d="M143.601 95.2V99.9999H129.001V95.2H143.601Z" fill="#00A2E5"/>
<path d="M124.201 104C127.293 104 129.801 101.493 129.801 98.4C129.801 95.3072 127.293 92.8 124.201 92.8C121.108 92.8 118.601 95.3072 118.601 98.4C118.601 101.493 121.108 104 124.201 104Z" fill="white"/>
<path d="M124.201 104C127.293 104 129.801 101.493 129.801 98.4C129.801 95.3072 127.293 92.8 124.201 92.8C121.108 92.8 118.601 95.3072 118.601 98.4C118.601 101.493 121.108 104 124.201 104Z" stroke="#0587D6" stroke-width="1.6124" stroke-miterlimit="79.8403" stroke-linecap="round" stroke-linejoin="round"/>
<path d="M124.201 100.8C125.526 100.8 126.601 99.7255 126.601 98.4C126.601 97.0745 125.526 96 124.201 96C122.875 96 121.801 97.0745 121.801 98.4C121.801 99.7255 122.875 100.8 124.201 100.8Z" stroke="#0587D6" stroke-width="1.6124" stroke-miterlimit="79.8403" stroke-linecap="round" stroke-linejoin="round"/>
<path d="M148.401 104C151.494 104 154.001 101.493 154.001 98.4C154.001 95.3072 151.494 92.8 148.401 92.8C145.308 92.8 142.801 95.3072 142.801 98.4C142.801 101.493 145.308 104 148.401 104Z" fill="white"/>
<path d="M148.401 104C151.494 104 154.001 101.493 154.001 98.4C154.001 95.3072 151.494 92.8 148.401 92.8C145.308 92.8 142.801 95.3072 142.801 98.4C142.801 101.493 145.308 104 148.401 104Z" stroke="#0587D6" stroke-width="1.6124" stroke-miterlimit="79.8403" stroke-linecap="round" stroke-linejoin="round"/>
<path d="M148.401 100.8C149.726 100.8 150.801 99.7255 150.801 98.4C150.801 97.0745 149.726 96 148.401 96C147.075 96 146.001 97.0745 146.001 98.4C146.001 99.7255 147.075 100.8 148.401 100.8Z" stroke="#0587D6" stroke-width="1.6124" stroke-miterlimit="79.8403" stroke-linecap="round" stroke-linejoin="round"/>
<path d="M143.601 94.2H141.401L139.201 97.3999H133.001L130.801 94.2H128.601" stroke="#0587D6" stroke-width="1.6124" stroke-miterlimit="79.8403" stroke-linecap="round" stroke-linejoin="round"/>
<path d="M136.2 91V97.4" stroke="#0587D6" stroke-width="1.6124" stroke-miterlimit="79.8403" stroke-linecap="round" stroke-linejoin="round"/>
<path d="M129.801 100.6H142.601" stroke="#0587D6" stroke-width="1.6124" stroke-miterlimit="79.8403" stroke-linecap="round" stroke-linejoin="round"/>
<path d="M176 55H5V89H176V55Z" stroke="white" stroke-width="6.45001" stroke-miterlimit="79.8403" stroke-linecap="round" stroke-linejoin="round"/>
<path d="M176 55H5V89H176V55Z" fill="#00A2E5"/>
<path d="M176.4 79.8H4V84.6H176.4V79.8Z" fill="#85DBF6"/>
<path fill-rule="evenodd" clip-rule="evenodd" d="M5.00001 87.2001V59.6001H0V87.2001H5.00001Z" fill="#85DBF6"/>
<path fill-rule="evenodd" clip-rule="evenodd" d="M175.8 87.2001V59.6001H180.8V87.2001H175.8Z" fill="#85DBF6"/>
<path d="M176 55H5V89H176V55Z" stroke="#0587D6" stroke-width="3.225" stroke-miterlimit="79.8403" stroke-linecap="round" stroke-linejoin="round"/>
<path d="M10.5996 88.6V63.8C10.5996 62.8 11.3996 62 12.3996 62H21.7996C22.7996 62 23.5996 62.8 23.5996 63.8V88.8H10.5996V88.6Z" stroke="#0587D6" stroke-width="1.6124" stroke-miterlimit="79.8403" stroke-linecap="round" stroke-linejoin="round"/>
<path fill-rule="evenodd" clip-rule="evenodd" d="M83 67.0002V74.8002C83 75.8002 83.8 76.6002 84.8 76.6002H95.8C96.8 76.6002 97.6 75.8002 97.6 74.8002V67.0002C97.6 66.0002 96.8 65.2002 95.8 65.2002H84.8C83.8 65.2002 83 66.0002 83 67.0002Z" fill="white"/>
<path d="M83 67.0002V74.8002C83 75.8002 83.8 76.6002 84.8 76.6002H95.8C96.8 76.6002 97.6 75.8002 97.6 74.8002V67.0002C97.6 66.0002 96.8 65.2002 95.8 65.2002H84.8C83.8 65.2002 83 66.0002 83 67.0002Z" stroke="#0587D6" stroke-width="1.6124" stroke-miterlimit="79.8403" stroke-linecap="round" stroke-linejoin="round"/>
<path fill-rule="evenodd" clip-rule="evenodd" d="M28.2002 66.9999V74.8C28.2002 75.8 29.0002 76.6 30.0002 76.6H33.0003C34.0003 76.6 34.8002 75.8 34.8002 74.8V66.9999C34.8002 65.9999 34.0003 65.2 33.0003 65.2H30.0002C29.0002 65.2 28.2002 65.9999 28.2002 66.9999Z" fill="white"/>
<path d="M28.2002 66.9999V74.8C28.2002 75.8 29.0002 76.6 30.0002 76.6H33.0003C34.0003 76.6 34.8002 75.8 34.8002 74.8V66.9999C34.8002 65.9999 34.0003 65.2 33.0003 65.2H30.0002C29.0002 65.2 28.2002 65.9999 28.2002 66.9999Z" stroke="#0587D6" stroke-width="1.6124" stroke-miterlimit="79.8403" stroke-linecap="round" stroke-linejoin="round"/>
<path fill-rule="evenodd" clip-rule="evenodd" d="M13.8008 67.0002V74.8002C13.8008 75.8002 14.6008 76.6002 15.6008 76.6002H18.6008C19.6008 76.6002 20.4008 75.8002 20.4008 74.8002V67.0002C20.4008 66.0002 19.6008 65.2002 18.6008 65.2002H15.6008C14.6008 65.2002 13.8008 66.0002 13.8008 67.0002Z" fill="white"/>
<path d="M13.8008 67.0002V74.8002C13.8008 75.8002 14.6008 76.6002 15.6008 76.6002H18.6008C19.6008 76.6002 20.4008 75.8002 20.4008 74.8002V67.0002C20.4008 66.0002 19.6008 65.2002 18.6008 65.2002H15.6008C14.6008 65.2002 13.8008 66.0002 13.8008 67.0002Z" stroke="#0587D6" stroke-width="1.6124" stroke-miterlimit="79.8403" stroke-linecap="round" stroke-linejoin="round"/>
<path d="M5.00001 59.6001H0V87.2001H5.00001" stroke="#0587D6" stroke-width="3.225" stroke-miterlimit="79.8403" stroke-linecap="round" stroke-linejoin="round"/>
<path fill-rule="evenodd" clip-rule="evenodd" d="M62.2002 66.9999V74.8C62.2002 75.8 63.0002 76.6 64.0002 76.6H75.0003C76.0003 76.6 76.8003 75.8 76.8003 74.8V66.9999C76.8003 65.9999 76.0003 65.2 75.0003 65.2H64.0002C63.0002 65.2 62.2002 65.9999 62.2002 66.9999Z" fill="white"/>
<path d="M62.2002 66.9999V74.8C62.2002 75.8 63.0002 76.6 64.0002 76.6H75.0003C76.0003 76.6 76.8003 75.8 76.8003 74.8V66.9999C76.8003 65.9999 76.0003 65.2 75.0003 65.2H64.0002C63.0002 65.2 62.2002 65.9999 62.2002 66.9999Z" stroke="#0587D6" stroke-width="1.6124" stroke-miterlimit="79.8403" stroke-linecap="round" stroke-linejoin="round"/>
<path fill-rule="evenodd" clip-rule="evenodd" d="M41 66.9999V74.8C41 75.8 41.8 76.6 42.8 76.6H53.8C54.8 76.6 55.6 75.8 55.6 74.8V66.9999C55.6 65.9999 54.8 65.2 53.8 65.2H42.8C42 65.2 41 65.9999 41 66.9999Z" fill="white"/>
<path d="M41 66.9999V74.8C41 75.8 41.8 76.6 42.8 76.6H53.8C54.8 76.6 55.6 75.8 55.6 74.8V66.9999C55.6 65.9999 54.8 65.2 53.8 65.2H42.8C42 65.2 41 65.9999 41 66.9999Z" stroke="#0587D6" stroke-width="1.6124" stroke-miterlimit="79.8403" stroke-linecap="round" stroke-linejoin="round"/>
<path d="M170.2 88.6V63.8C170.2 62.8 169.4 62 168.4 62H159C158 62 157.2 62.8 157.2 63.8V88.8H170.2V88.6Z" stroke="#0587D6" stroke-width="1.6124" stroke-miterlimit="79.8403" stroke-linecap="round" stroke-linejoin="round"/>
<path fill-rule="evenodd" clip-rule="evenodd" d="M152.4 66.9999V74.8C152.4 75.8 151.6 76.6 150.6 76.6H147.6C146.6 76.6 145.8 75.8 145.8 74.8V66.9999C145.8 65.9999 146.6 65.2 147.6 65.2H150.6C151.6 65.2 152.4 65.9999 152.4 66.9999Z" fill="white"/>
<path d="M152.4 66.9999V74.8C152.4 75.8 151.6 76.6 150.6 76.6H147.6C146.6 76.6 145.8 75.8 145.8 74.8V66.9999C145.8 65.9999 146.6 65.2 147.6 65.2H150.6C151.6 65.2 152.4 65.9999 152.4 66.9999Z" stroke="#0587D6" stroke-width="1.6124" stroke-miterlimit="79.8403" stroke-linecap="round" stroke-linejoin="round"/>
<path fill-rule="evenodd" clip-rule="evenodd" d="M167 66.9999V74.8C167 75.8 166.2 76.6 165.2 76.6H162.2C161.2 76.6 160.4 75.8 160.4 74.8V66.9999C160.4 65.9999 161.2 65.2 162.2 65.2H165.2C166.2 65.2 167 65.9999 167 66.9999Z" fill="white"/>
<path d="M167 66.9999V74.8C167 75.8 166.2 76.6 165.2 76.6H162.2C161.2 76.6 160.4 75.8 160.4 74.8V66.9999C160.4 65.9999 161.2 65.2 162.2 65.2H165.2C166.2 65.2 167 65.9999 167 66.9999Z" stroke="#0587D6" stroke-width="1.6124" stroke-miterlimit="79.8403" stroke-linecap="round" stroke-linejoin="round"/>
<path d="M175.8 59.6001H180.8V87.2001H175.8" stroke="#0587D6" stroke-width="3.225" stroke-miterlimit="79.8403" stroke-linecap="round" stroke-linejoin="round"/>
<path fill-rule="evenodd" clip-rule="evenodd" d="M118.4 66.9999V74.8C118.4 75.8 117.6 76.6 116.6 76.6H105.6C104.6 76.6 103.8 75.8 103.8 74.8V66.9999C103.8 65.9999 104.6 65.2 105.6 65.2H116.6C117.8 65.2 118.4 65.9999 118.4 66.9999Z" fill="white"/>
<path d="M118.4 66.9999V74.8C118.4 75.8 117.6 76.6 116.6 76.6H105.6C104.6 76.6 103.8 75.8 103.8 74.8V66.9999C103.8 65.9999 104.6 65.2 105.6 65.2H116.6C117.8 65.2 118.4 65.9999 118.4 66.9999Z" stroke="#0587D6" stroke-width="1.6124" stroke-miterlimit="79.8403" stroke-linecap="round" stroke-linejoin="round"/>
<path fill-rule="evenodd" clip-rule="evenodd" d="M139.601 67.0002V74.8002C139.601 75.8002 138.801 76.6002 137.801 76.6002H126.801C125.801 76.6002 125.001 75.8002 125.001 74.8002V67.0002C125.001 66.0002 125.801 65.2002 126.801 65.2002H137.801C138.601 65.2002 139.601 66.0002 139.601 67.0002Z" fill="white"/>
<path d="M139.601 67.0002V74.8002C139.601 75.8002 138.801 76.6002 137.801 76.6002H126.801C125.801 76.6002 125.001 75.8002 125.001 74.8002V67.0002C125.001 66.0002 125.801 65.2002 126.801 65.2002H137.801C138.601 65.2002 139.601 66.0002 139.601 67.0002Z" stroke="#0587D6" stroke-width="1.6124" stroke-miterlimit="79.8403" stroke-linecap="round" stroke-linejoin="round"/>
<path d="M176.4 79.8H4V84.6H176.4V79.8Z" stroke="#0587D6" stroke-width="1.6124" stroke-miterlimit="79.8403" stroke-linecap="round" stroke-linejoin="round"/>
<path d="M8.7998 68.3999V85.9999" stroke="white" stroke-width="1.6124" stroke-miterlimit="79.8403" stroke-linecap="round" stroke-linejoin="round"/>
<path d="M25 68.3999V85.9999" stroke="white" stroke-width="1.6124" stroke-miterlimit="79.8403" stroke-linecap="round" stroke-linejoin="round"/>
<path d="M171.8 68.3999V85.9999" stroke="white" stroke-width="1.6124" stroke-miterlimit="79.8403" stroke-linecap="round" stroke-linejoin="round"/>
<path d="M155.601 68.3999V85.9999" stroke="white" stroke-width="1.6124" stroke-miterlimit="79.8403" stroke-linecap="round" stroke-linejoin="round"/>
<path d="M13.7998 89.6001V97.6001H20.1998V89.6001" stroke="#0587D6" stroke-width="1.6124" stroke-miterlimit="79.8403" stroke-linecap="round" stroke-linejoin="round"/>
<path d="M179.8 104H1" stroke="#0587D6" stroke-width="1.6124" stroke-miterlimit="79.8403" stroke-linecap="round" stroke-linejoin="round"/>
<path d="M166.8 89.6001V97.6001H160.4V89.6001" stroke="#0587D6" stroke-width="1.6124" stroke-miterlimit="79.8403" stroke-linecap="round" stroke-linejoin="round"/>
<path d="M160.4 92.8H166.8" stroke="#0587D6" stroke-width="1.6124" stroke-miterlimit="79.8403" stroke-linecap="round" stroke-linejoin="round"/>
<path d="M179.8 107.2H1" stroke="#0587D6" stroke-width="1.6124" stroke-miterlimit="79.8403" stroke-linecap="round" stroke-linejoin="round"/>
<path d="M103.2 157L97.9999 146C100.4 145 101.4 142 100.4 139.6C99.3998 137.2 96.3999 136.2 93.9999 137.2L88.7998 126.2C88.1998 125 88.7998 123.6 89.9998 123L160 90.4C161.2 89.8 162.6 90.4 163.2 91.4L168.4 102.4C166 103.4 165 106.4 166 108.8C167 111.2 170 112.2 172.4 111.2L177.6 122.2C178.2 123.4 177.6 124.8 176.6 125.4L106.2 158.2C105.4 158.8 103.8 158.4 103.2 157Z" stroke="white" stroke-width="6.45001" stroke-miterlimit="79.8403" stroke-linecap="round" stroke-linejoin="round"/>
<path fill-rule="evenodd" clip-rule="evenodd" d="M103.2 157L97.9999 146C100.4 145 101.4 142 100.4 139.6C99.3998 137.2 96.3999 136.2 93.9999 137.2L88.7998 126.2C88.1998 125 88.7998 123.6 89.9998 123L160 90.4C161.2 89.8 162.6 90.4 163.2 91.4L168.4 102.4C166 103.4 165 106.4 166 108.8C167 111.2 170 112.2 172.4 111.2L177.6 122.2C178.2 123.4 177.6 124.8 176.6 125.4L106.2 158.2C105.4 158.8 103.8 158.4 103.2 157Z" fill="white"/>
<path d="M103.2 157L97.9999 146C100.4 145 101.4 142 100.4 139.6C99.3998 137.2 96.3999 136.2 93.9999 137.2L88.7998 126.2C88.1998 125 88.7998 123.6 89.9998 123L160 90.4C161.2 89.8 162.6 90.4 163.2 91.4L168.4 102.4C166 103.4 165 106.4 166 108.8C167 111.2 170 112.2 172.4 111.2L177.6 122.2C178.2 123.4 177.6 124.8 176.6 125.4L106.2 158.2C105.4 158.8 103.8 158.4 103.2 157Z" stroke="#0587D6" stroke-width="3.225" stroke-miterlimit="79.8403" stroke-linecap="round" stroke-linejoin="round"/>
<path d="M151.8 99L152.4 100.6" stroke="#0587D6" stroke-width="1.6124" stroke-miterlimit="79.8403" stroke-linecap="round" stroke-linejoin="round"/>
<path d="M153.8 103.2L154.4 104.8" stroke="#0587D6" stroke-width="1.6124" stroke-miterlimit="79.8403" stroke-linecap="round" stroke-linejoin="round"/>
<path d="M155.8 107.6L156.4 109.2" stroke="#0587D6" stroke-width="1.6124" stroke-miterlimit="79.8403" stroke-linecap="round" stroke-linejoin="round"/>
<path d="M157.8 112L158.4 113.6" stroke="#0587D6" stroke-width="1.6124" stroke-miterlimit="79.8403" stroke-linecap="round" stroke-linejoin="round"/>
<path d="M160 116.4L160.6 118" stroke="#0587D6" stroke-width="1.6124" stroke-miterlimit="79.8403" stroke-linecap="round" stroke-linejoin="round"/>
<path d="M161.8 120.6L162.4 122.2" stroke="#0587D6" stroke-width="1.6124" stroke-miterlimit="79.8403" stroke-linecap="round" stroke-linejoin="round"/>
<path d="M164 125.2L164.6 126.8" stroke="#0587D6" stroke-width="1.6124" stroke-miterlimit="79.8403" stroke-linecap="round" stroke-linejoin="round"/>
<path d="M158.4 124.6L149.2 105C148.6 103.4 146.8 102.8 145.4 103.4L100.8 124C99.1999 124.6 98.5999 126.4 99.1999 127.8L108.4 147.4C109 149 110.8 149.6 112.2 149L156.8 128.4C158.4 127.8 159 126 158.4 124.6Z" stroke="#0587D6" stroke-width="1.6124" stroke-miterlimit="79.8403" stroke-linecap="round" stroke-linejoin="round"/>
<path d="M115.399 135.6L144.599 122" stroke="#0587D6" stroke-width="1.6124" stroke-miterlimit="79.8403" stroke-linecap="round" stroke-linejoin="round"/>
<path d="M96.7998 158.8V146.8C99.3998 146.8 101.8 144.6 101.8 142C101.8 139.4 99.5998 137.2 96.7998 137.2V125.2C96.7998 124 97.7998 122.8 99.1998 122.8H176.6C177.8 122.8 179 123.8 179 125.2V137.2C176.4 137.2 174 139.4 174 142C174 144.6 176.2 146.8 179 146.8V158.8C179 160 178 161.2 176.6 161.2H99.1998C97.7998 161.2 96.7998 160 96.7998 158.8Z" stroke="white" stroke-width="6.45001" stroke-miterlimit="79.8403" stroke-linecap="round" stroke-linejoin="round"/>
<path fill-rule="evenodd" clip-rule="evenodd" d="M96.7998 158.8V146.8C99.3998 146.8 101.8 144.6 101.8 142C101.8 139.4 99.5998 137.2 96.7998 137.2V125.2C96.7998 124 97.7998 122.8 99.1998 122.8H176.6C177.8 122.8 179 123.8 179 125.2V137.2C176.4 137.2 174 139.4 174 142C174 144.6 176.2 146.8 179 146.8V158.8C179 160 178 161.2 176.6 161.2H99.1998C97.7998 161.2 96.7998 160 96.7998 158.8Z" fill="white"/>
<path d="M96.7998 158.8V146.8C99.3998 146.8 101.8 144.6 101.8 142C101.8 139.4 99.5998 137.2 96.7998 137.2V125.2C96.7998 124 97.7998 122.8 99.1998 122.8H176.6C177.8 122.8 179 123.8 179 125.2V137.2C176.4 137.2 174 139.4 174 142C174 144.6 176.2 146.8 179 146.8V158.8C179 160 178 161.2 176.6 161.2H99.1998C97.7998 161.2 96.7998 160 96.7998 158.8Z" stroke="#0587D6" stroke-width="3.225" stroke-miterlimit="79.8403" stroke-linecap="round" stroke-linejoin="round"/>
<path d="M165.399 126.4V128.2" stroke="#0587D6" stroke-width="1.6124" stroke-miterlimit="79.8403" stroke-linecap="round" stroke-linejoin="round"/>
<path d="M165.399 131.4V133.2" stroke="#0587D6" stroke-width="1.6124" stroke-miterlimit="79.8403" stroke-linecap="round" stroke-linejoin="round"/>
<path d="M165.399 136.2V138" stroke="#0587D6" stroke-width="1.6124" stroke-miterlimit="79.8403" stroke-linecap="round" stroke-linejoin="round"/>
<path d="M165.399 141.2V143" stroke="#0587D6" stroke-width="1.6124" stroke-miterlimit="79.8403" stroke-linecap="round" stroke-linejoin="round"/>
<path d="M165.399 145.8V147.6" stroke="#0587D6" stroke-width="1.6124" stroke-miterlimit="79.8403" stroke-linecap="round" stroke-linejoin="round"/>
<path d="M165.399 150.8V152.6" stroke="#0587D6" stroke-width="1.6124" stroke-miterlimit="79.8403" stroke-linecap="round" stroke-linejoin="round"/>
<path d="M165.399 155.6V157.4" stroke="#0587D6" stroke-width="1.6124" stroke-miterlimit="79.8403" stroke-linecap="round" stroke-linejoin="round"/>
<path d="M111.4 155.6H154.6C157.8 155.6 160.4 153 160.4 149.8V133.8C160.4 130.6 157.8 128 154.6 128H111.4C108.2 128 105.6 130.6 105.6 133.8V149.8C105.6 153 108.4 155.6 111.4 155.6Z" stroke="#0587D6" stroke-width="1.6124" stroke-miterlimit="79.8403" stroke-linecap="round" stroke-linejoin="round"/>
<path d="M120.2 139.4H146" stroke="#0587D6" stroke-width="1.6124" stroke-miterlimit="79.8403" stroke-linecap="round" stroke-linejoin="round"/>
<path d="M117 144.4H149.2" stroke="#0587D6" stroke-width="1.6124" stroke-miterlimit="79.8403" stroke-linecap="round" stroke-linejoin="round"/>
</g>
<defs>
<clipPath id="clip0_1_1401">
<rect width="185" height="164" fill="white"/>
</clipPath>
</defs>
</svg>
