<svg width="210.000000" height="57.000000" viewBox="0 0 210 57" fill="none" xmlns="http://www.w3.org/2000/svg" xmlns:xlink="http://www.w3.org/1999/xlink">
	<desc>
			Created with Pixso.
	</desc>
	<defs>
		<clipPath id="clip1_1618">
			<rect id="logo-rus.bf0cf03b 1" width="210.000000" height="57.000000" fill="white" fill-opacity="0"/>
		</clipPath>
	</defs>
	<rect id="logo-rus.bf0cf03b 1" width="210.000000" height="57.000000" fill="#FFFFFF" fill-opacity="0"/>
	<g clip-path="url(#clip1_1618)">
		<path id="Vector" d="M188.51 33.48C188.51 38.38 184.56 42.34 179.7 42.34C174.83 42.34 170.89 38.38 170.89 33.48C170.89 28.57 174.83 24.61 179.7 24.61C184.56 24.61 188.51 28.57 188.51 33.48Z" fill="#C6C0BE" fill-opacity="1.000000" fill-rule="nonzero"/>
		<path id="Vector" d="M209.66 33.48C209.66 38.38 205.71 42.34 200.85 42.34C195.99 42.34 192.04 38.38 192.04 33.48C192.04 28.57 195.99 24.61 200.85 24.61C205.71 24.61 209.66 28.57 209.66 33.48Z" fill="#ECDCD6" fill-opacity="1.000000" fill-rule="nonzero"/>
		<path id="Vector" d="M53.36 23.05C55.64 20.62 58.99 20.32 60.81 20.32L60.8 20.32C67.07 20.32 70.55 25.48 70.55 30.45C70.55 36.25 67.65 42.34 59.36 42.33C50.5 42.33 47.75 35.08 47.75 28.61C47.75 21.2 48.5 18.24 51.13 15.6C53.87 12.85 57.82 11.73 61.23 10.77C61.86 10.59 62.48 10.42 63.06 10.24C64.88 9.69 66.64 9.87 67.26 11.89C67.65 13.16 67.15 14.73 64.94 15.33C62.73 15.94 59.82 16.75 58.88 17.03C55.06 18.16 53.36 19.56 53.36 23.05ZM59.34 36.98C62.4 36.98 64.66 34.74 64.66 31.19L64.66 31.14C64.66 27.59 62.43 25.39 59.38 25.39C56.32 25.39 54.05 27.63 54.05 31.19L54.05 31.23C54.05 34.78 56.29 36.98 59.34 36.98ZM34.38 20.03C27.94 20.03 23.16 24.68 23.16 31.18L23.16 31.26C23.16 37.77 27.91 42.34 34.31 42.34C40.72 42.34 45.54 37.69 45.54 31.18L45.54 31.11C45.54 24.61 40.79 20.03 34.38 20.03ZM39.65 31.19C39.65 34.74 37.39 36.98 34.33 36.98C31.28 36.98 29.04 34.78 29.04 31.23L29.04 31.19C29.04 27.63 31.31 25.39 34.37 25.39C37.42 25.39 39.65 27.59 39.65 31.14L39.65 31.19ZM167.37 33.48C167.37 38.38 163.42 42.34 158.55 42.34C153.69 42.34 149.74 38.38 149.74 33.48C149.74 28.57 153.69 24.61 158.55 24.61C163.42 24.61 167.37 28.57 167.37 33.48ZM83.85 20.03C80.41 20.03 77.69 21.15 75.78 23.04C73.88 24.95 72.68 27.7 72.68 30.94C72.68 34.18 73.83 37.14 75.88 39.21C77.89 41.22 80.84 42.34 84.51 42.34C86.62 42.34 88.76 42.1 90.72 41.31C92.53 40.61 93.44 39.72 93.44 38.44C93.44 37.09 92.44 35.97 91.1 35.97C90.46 35.97 89.87 36.21 89.18 36.5C88.16 36.91 86.92 37.42 84.94 37.42C81.85 37.42 79.51 35.88 78.94 33.03L91.25 33.03C93.2 33.03 94.35 31.77 94.35 29.56C94.35 27.47 93.72 24.95 91.63 22.85C89.91 21.15 87.38 20.03 83.85 20.03L83.85 20.03ZM78.89 28.96C79.32 26.49 81.36 24.9 83.99 24.9C86.84 24.9 88.4 26.47 88.61 28.96L78.89 28.96ZM17.57 20.32L17.6 20.32C19.28 20.32 20.64 21.7 20.64 23.38L20.64 39.02C20.64 40.7 19.28 42.06 17.6 42.06C15.93 42.06 14.57 40.7 14.57 39.02L14.57 25.76L6.06 25.76L6.06 39.02C6.06 40.7 4.7 42.06 3.03 42.06C1.35 42.06 0 40.7 0 39.02L0 23.38C0 21.7 1.35 20.32 3.03 20.32L3.06 20.32L17.57 20.32ZM116.58 20.32L106.81 20.32C104.67 20.32 103.5 21.46 102.86 23.41L98.77 36.9L97.62 36.9C96.21 36.9 95.06 38.05 95.06 39.49C95.06 40.92 96.21 42.06 97.62 42.06L116.58 42.06C117.93 42.06 119.65 41 119.65 38.98L119.65 23.41C119.65 21.39 117.93 20.32 116.58 20.32ZM113.92 36.9L104.78 36.9L107.88 25.48L113.92 25.48L113.92 36.9ZM126.22 20.82C128.1 20.09 130.32 20.03 131.98 20.03L131.98 20.03C137.08 20.03 142.06 22.58 142.06 29.37L142.06 39.21C142.06 40.79 140.82 42.05 139.31 42.05C138.29 42.05 137.12 41.62 136.61 40.35C135.34 41.35 133.64 42.34 130.96 42.34C126.29 42.34 122.45 39.38 122.45 34.86C122.45 28.72 128.43 27.62 130.92 27.62C131.85 27.62 134.65 27.72 136.34 29.25C136.34 26.5 135.02 24.98 131.79 24.98C129.99 24.98 128.75 25.35 127.74 25.66C127.05 25.87 126.46 26.04 125.88 26.04C124.67 26.04 123.76 24.95 123.76 23.62C123.76 22.37 124.56 21.46 126.22 20.82ZM127.84 34.92C127.84 36.88 129.61 38.16 132 38.16C134.4 38.16 136.16 36.88 136.16 34.92C136.16 32.96 134.4 31.69 132 31.69C129.86 31.69 127.84 32.71 127.84 34.92Z" fill="#A69C99" fill-opacity="1.000000" fill-rule="evenodd"/>
	</g>
</svg>
