<svg width="25" height="26" viewBox="0 0 25 26" fill="none" xmlns="http://www.w3.org/2000/svg">
<path fill-rule="evenodd" clip-rule="evenodd" d="M0.429688 24.7205L2.147 18.7099C1.20248 16.9926 0.601429 15.1036 0.601429 12.9569C0.601429 6.68873 5.75336 1.53677 12.0216 1.53677C18.2898 1.53677 23.4417 6.68873 23.4417 12.9569C23.4417 19.2251 18.2898 24.3771 12.0216 24.3771C10.0466 24.3771 8.24348 23.8619 6.61203 22.9173L0.429688 24.7205Z" fill="#0587D6"/>
<path fill-rule="evenodd" clip-rule="evenodd" d="M7.29843 21.8013C7.04083 21.6295 6.61149 21.6295 6.26803 21.7154L2.57581 22.6599L3.60621 19.1394C3.69208 18.7959 3.69205 18.3666 3.52031 18.0231C2.66166 16.5634 2.14648 14.8461 2.14648 13.0429C2.14648 7.54754 6.61151 2.99664 12.1928 2.99664C17.7741 2.99664 22.239 7.46167 22.239 13.0429C22.239 18.5384 17.7741 23.0892 12.1928 23.0892C10.3896 23.0892 8.84401 22.574 7.29843 21.8013Z" fill="#85DBF6"/>
<path fill-rule="evenodd" clip-rule="evenodd" d="M7.81334 21.1142C7.29815 20.8566 6.78296 20.8566 6.26777 20.9424L3.6918 21.6293L4.37871 19.311C4.55044 18.7099 4.46457 18.1947 4.20697 17.5936C3.43418 16.2198 3.00488 14.6742 3.00488 12.9569C3.00488 7.80498 7.21229 3.68341 12.2784 3.68341C17.4303 3.68341 21.5519 7.89085 21.5519 12.9569C21.5519 18.1089 17.3444 22.2304 12.2784 22.2304C10.5611 22.3163 9.01546 21.887 7.81334 21.1142Z" fill="#0587D6"/>
<path fill-rule="evenodd" clip-rule="evenodd" d="M7.98544 20.5993C7.29852 20.2558 6.5257 20.0841 5.92464 20.3417L4.55081 20.6852L4.8084 19.5689C4.98013 18.7961 4.89428 18.0233 4.55081 17.3364C3.77802 16.1343 3.43457 14.6746 3.43457 13.0431C3.43457 8.3205 7.21266 4.45654 12.0211 4.45654C16.8296 4.45654 20.6077 8.23463 20.6077 13.0431C20.6077 17.7657 16.8296 21.6297 12.0211 21.6297C10.6473 21.6297 9.27343 21.2862 7.98544 20.5993Z" fill="white"/>
<path fill-rule="evenodd" clip-rule="evenodd" d="M17.6026 15.7904C17.345 15.6187 15.7994 14.9318 15.5418 14.8459C15.2842 14.76 15.0266 14.6742 14.8549 15.0176C14.6831 15.2752 14.0821 15.9621 13.9104 16.1339C13.7386 16.3056 13.5669 16.3056 13.2234 16.2198C12.9658 16.048 12.0213 15.7046 10.8192 14.6742C9.9605 13.9014 9.27358 12.871 9.10185 12.6134C8.93012 12.3558 9.10188 12.0982 9.18774 12.0123C9.27361 11.9265 9.44532 11.6689 9.70292 11.4113C9.87465 11.2395 9.87464 11.1537 9.9605 10.8961C10.0464 10.7244 10.0464 10.5526 9.9605 10.295C9.87464 10.1233 9.2736 8.66356 9.016 7.97663C8.7584 7.37557 8.50082 7.46146 8.32909 7.46146C8.15736 7.46146 7.98561 7.46146 7.72802 7.46146C7.55628 7.46146 7.2128 7.54734 6.9552 7.80494C6.69761 8.06254 5.9248 8.83533 5.9248 10.3809C5.9248 11.9265 6.95521 13.3003 7.12695 13.5579C7.29868 13.7296 9.18772 16.8208 12.2789 18.1088C13.0517 18.3664 13.481 18.624 13.9962 18.7957C14.769 18.9675 15.3701 18.9675 15.8853 18.8816C16.4863 18.7957 17.6884 18.1088 17.8602 17.4219C18.1178 16.7349 18.1178 16.048 18.0319 15.9622C18.1178 16.048 17.8602 16.048 17.6026 15.7904Z" fill="#00A2E5"/>
<path fill-rule="evenodd" clip-rule="evenodd" d="M13.996 19.2253C13.4808 19.1394 12.9656 18.9677 12.2787 18.5384C9.10163 17.1645 7.12674 14.0733 7.04088 13.9016C6.95501 13.7299 5.66699 12.1843 5.66699 10.5528C5.66699 8.92139 6.52564 8.06277 6.78324 7.80517C7.1267 7.46171 7.55604 7.28995 7.81364 7.28995C7.98537 7.28995 8.15711 7.28995 8.41471 7.28995C8.41471 7.28995 8.67228 7.28998 8.92988 7.37584C9.10161 7.46171 9.27335 7.63343 9.53095 8.06276C9.78855 8.74969 10.3896 10.1235 10.4755 10.2952C10.5614 10.467 10.6472 10.8104 10.4755 11.1539C10.3896 11.3256 10.3038 11.4974 10.132 11.755C10.0462 11.9267 9.87444 12.0984 9.61685 12.356L9.53095 12.4419V12.5278C9.70268 12.7854 10.3038 13.7299 11.1624 14.5027C12.2787 15.4472 13.1373 15.7048 13.4808 15.9624C13.5667 15.9624 13.5666 15.9624 13.5666 16.0483H13.6525C13.8242 15.8765 14.4253 15.1896 14.597 14.932C14.6829 14.8462 14.7688 14.7603 14.8546 14.6744C14.9405 14.5886 15.0264 14.5885 15.1122 14.5885C15.284 14.5885 15.4557 14.6744 15.7133 14.6744C15.9709 14.7603 17.5165 15.533 17.7741 15.7048C17.9458 15.7906 18.2893 15.8765 18.461 16.0483L18.5469 16.1341C18.5469 16.1341 18.5469 16.22 18.6327 16.22C18.7186 16.4776 18.6327 17.1645 18.461 17.8514C18.2034 18.7101 16.8295 19.4829 16.1426 19.5687C15.5416 19.5687 14.8546 19.5688 13.996 19.2253ZM15.885 18.7101C16.4002 18.6242 17.4306 18.0232 17.6023 17.508C17.7741 16.9069 17.7741 16.5635 17.7741 16.3917C17.6882 16.3917 17.6023 16.3059 17.4306 16.22C17.173 16.0483 15.7133 15.3613 15.4557 15.2754C15.3698 15.2754 15.3698 15.2755 15.284 15.1896H15.1981C15.1981 15.1896 15.1981 15.1896 15.1122 15.2754C14.9405 15.533 14.3395 16.3059 14.1677 16.4776C14.0819 16.5635 13.996 16.6493 13.9101 16.7352C13.8243 16.7352 13.8243 16.7352 13.7384 16.8211C13.5667 16.8211 13.3949 16.821 13.1373 16.7352C12.8797 16.6493 11.7634 16.22 10.6472 15.1896C9.70267 14.3309 9.10161 13.3006 8.92988 12.9571C8.84401 12.8713 8.84403 12.6995 8.84403 12.6136C8.84403 12.5278 8.84403 12.4419 8.84403 12.356C8.9299 12.1843 9.01576 12.0126 9.10162 12.0126C9.18749 11.9267 9.35925 11.755 9.61685 11.4974C9.70271 11.4115 9.78857 11.3256 9.87443 10.9822C9.87443 10.8963 9.87443 10.8963 9.87443 10.8105C9.78857 10.6387 9.18748 9.09315 8.92988 8.49209C8.84401 8.23449 8.75819 8.2345 8.75819 8.2345C8.75819 8.2345 8.75818 8.2345 8.58645 8.2345C8.41472 8.2345 8.24297 8.2345 7.98538 8.2345C7.89951 8.2345 7.6419 8.23449 7.38431 8.49209C7.12671 8.74969 6.4398 9.43662 6.4398 10.8105C6.4398 12.1843 7.38432 13.4723 7.55605 13.7299C7.72778 13.9016 9.61682 16.9928 12.5362 18.1949C13.2232 18.4525 13.7384 18.7101 14.2536 18.8818C14.8546 18.796 15.5416 18.7959 15.885 18.7101Z" fill="#0587D6"/>
</svg>
