<svg width="24.000000" height="24.000000" viewBox="0 0 24 24" fill="none" xmlns="http://www.w3.org/2000/svg" xmlns:xlink="http://www.w3.org/1999/xlink">
	<desc>
			Created with Pixso.
	</desc>
	<defs>
		<linearGradient id="paint_linear_43_20910_0" x1="34.666676" y1="39.333344" x2="-3.333332" y2="-5.999992" gradientUnits="userSpaceOnUse">
			<stop stop-color="#017AC3"/>
			<stop offset="1.000000" stop-color="#65CFF0"/>
		</linearGradient>
		<linearGradient id="paint_linear_43_20911_0" x1="23.333338" y1="25.666672" x2="4.333334" y2="3.000004" gradientUnits="userSpaceOnUse">
			<stop stop-color="#017AC3"/>
			<stop offset="1.000000" stop-color="#65CFF0"/>
		</linearGradient>
	</defs>
	<path id="Vector" d="M12 20.4C12.31 20.4 12.62 20.52 12.84 20.75C13.07 20.97 13.19 21.28 13.19 21.6L13.19 22.8C13.19 23.11 13.07 23.42 12.84 23.64C12.62 23.87 12.31 24 12 24C11.68 24 11.37 23.87 11.15 23.64C10.92 23.42 10.79 23.11 10.79 22.8L10.79 21.6C10.79 21.28 10.92 20.97 11.15 20.75C11.37 20.52 11.68 20.4 12 20.4ZM19.63 17.93L20.48 18.78C20.7 19.01 20.82 19.31 20.82 19.63C20.81 19.94 20.69 20.24 20.47 20.47C20.24 20.69 19.94 20.81 19.63 20.82C19.31 20.82 19.01 20.7 18.78 20.48L17.93 19.63C17.72 19.41 17.59 19.1 17.6 18.79C17.6 18.47 17.73 18.17 17.95 17.95C18.17 17.73 18.47 17.6 18.79 17.6C19.1 17.6 19.41 17.72 19.63 17.93ZM4.36 17.93C4.57 17.72 4.86 17.59 5.17 17.59C5.47 17.58 5.77 17.68 6 17.88C6.23 18.09 6.37 18.37 6.4 18.67C6.43 18.97 6.34 19.28 6.15 19.52L6.05 19.63L5.21 20.48C4.99 20.7 4.7 20.82 4.4 20.83C4.09 20.84 3.79 20.73 3.57 20.53C3.34 20.33 3.19 20.05 3.16 19.74C3.14 19.44 3.22 19.14 3.41 18.9L3.51 18.78L4.36 17.93ZM2.39 10.8C2.7 10.8 2.99 10.91 3.22 11.12C3.44 11.33 3.57 11.62 3.59 11.92C3.61 12.23 3.51 12.53 3.31 12.77C3.12 13 2.84 13.15 2.53 13.19L2.39 13.2L1.19 13.2C0.89 13.19 0.59 13.08 0.37 12.87C0.15 12.66 0.01 12.37 0 12.07C-0.02 11.76 0.08 11.46 0.27 11.22C0.47 10.99 0.75 10.84 1.05 10.8L1.19 10.8L2.39 10.8ZM22.8 10.8C23.11 10.8 23.42 10.92 23.64 11.15C23.87 11.37 24 11.68 24 12C24 12.31 23.87 12.62 23.64 12.84C23.42 13.07 23.11 13.2 22.8 13.2L21.59 13.2C21.28 13.2 20.97 13.07 20.75 12.84C20.52 12.62 20.4 12.31 20.4 12C20.4 11.68 20.52 11.37 20.75 11.15C20.97 10.92 21.28 10.8 21.59 10.8L22.8 10.8ZM3.51 3.51C3.72 3.3 3.99 3.18 4.28 3.16C4.57 3.14 4.86 3.23 5.09 3.41L5.21 3.51L6.05 4.36C6.27 4.57 6.39 4.86 6.4 5.17C6.41 5.47 6.31 5.77 6.1 6C5.9 6.23 5.62 6.37 5.32 6.4C5.01 6.43 4.71 6.34 4.47 6.15L4.36 6.06L3.51 5.21C3.28 4.98 3.16 4.68 3.16 4.36C3.16 4.04 3.28 3.73 3.51 3.51ZM20.48 3.51C20.71 3.73 20.83 4.04 20.83 4.36C20.83 4.68 20.71 4.98 20.48 5.21L19.63 6.06C19.52 6.17 19.39 6.26 19.24 6.32C19.1 6.39 18.94 6.42 18.78 6.42C18.62 6.42 18.46 6.39 18.31 6.33C18.17 6.27 18.03 6.18 17.92 6.07C17.81 5.96 17.72 5.82 17.66 5.68C17.6 5.53 17.57 5.37 17.57 5.21C17.57 5.05 17.6 4.89 17.66 4.75C17.73 4.6 17.82 4.47 17.93 4.36L18.78 3.51C19.01 3.28 19.31 3.16 19.63 3.16C19.95 3.16 20.25 3.28 20.48 3.51ZM12 0C12.31 0 12.62 0.12 12.84 0.35C13.07 0.57 13.19 0.88 13.19 1.19L13.19 2.4C13.19 2.71 13.07 3.02 12.84 3.24C12.62 3.47 12.31 3.59 12 3.59C11.68 3.59 11.37 3.47 11.15 3.24C10.92 3.02 10.79 2.71 10.79 2.4L10.79 1.19C10.79 0.88 10.92 0.57 11.15 0.35C11.37 0.12 11.68 0 12 0Z" fill="url(#paint_linear_43_20910_0)" fill-opacity="1.000000" fill-rule="nonzero"/>
	<circle id="Ellipse 132" cx="12.000000" cy="12.000000" r="6.000000" fill="url(#paint_linear_43_20911_0)" fill-opacity="1.000000"/>
</svg>
