<svg width="17.000000" height="10.000000" viewBox="0 0 17 10" fill="none" xmlns="http://www.w3.org/2000/svg" xmlns:xlink="http://www.w3.org/1999/xlink">
	<desc>
			Created with Pixso.
	</desc>
	<defs/>
	<path id="Vector (Stroke)" d="M8.5 6.19L14.22 0.47C14.51 0.17 14.93 0 15.38 0C15.6 0 15.81 0.04 16.01 0.12C16.21 0.21 16.39 0.32 16.54 0.47C16.83 0.77 17 1.16 17 1.57C17 1.77 16.96 1.97 16.88 2.16C16.8 2.34 16.68 2.52 16.54 2.66L9.66 9.52C9.51 9.67 9.33 9.79 9.13 9.87C8.93 9.95 8.72 10 8.5 10C8.28 10 8.06 9.95 7.86 9.87C7.66 9.79 7.48 9.67 7.34 9.52L0.46 2.66C0.31 2.52 0.19 2.34 0.11 2.16C0.03 1.97 0 1.77 0 1.57C0 1.37 0.03 1.16 0.11 0.98C0.19 0.79 0.31 0.62 0.46 0.47C0.6 0.32 0.78 0.2 0.98 0.12C1.18 0.04 1.4 0 1.62 0C1.83 0 2.05 0.04 2.25 0.12C2.45 0.2 2.63 0.32 2.78 0.47L8.5 6.19ZM2.78 0.47L8.5 6.19L2.78 0.47Z" fill="#C2C2C2" fill-opacity="1.000000" fill-rule="evenodd"/>
</svg>
